<svg id="Capa_1" data-name="Capa 1" xmlns="http://www.w3.org/2000/svg" viewBox="0 0 284.55 98.5"><path d="M906.14,1012.6c0,10-6.33,18.53-17.29,18.53H877.74v14.81H858V994.08h30.87c11,0,17.29,8.49,17.29,18.52m-19.76.62c0-3.78-2.24-5.56-4.94-5.56h-3.7v11.12h3.7c2.7,0,4.94-1.7,4.94-5.56" transform="translate(-857.98 -948.68)" fill="#484747"/><path d="M958.23,994.08v29.64c0,13.66-9.88,23.46-25.93,23.46s-25.93-9.8-25.93-23.46V994.08h19.76v28.4c0,6.18,1.85,8.65,6.17,8.65s6.18-2.47,6.18-8.65v-28.4Z" transform="translate(-857.98 -948.68)" fill="#484747"/><polygon points="122.71 60.22 122.71 65.16 135.06 65.16 135.06 77.51 122.71 77.51 122.71 82.45 138.76 82.45 138.76 97.26 102.95 97.26 102.95 45.4 138.76 45.4 138.76 60.22 122.71 60.22" fill="#484747"/><path d="M1047.6,1030.35c0,9-6.63,15.59-17.75,15.59h-30.4V994.08h27.86c11.11,0,17.82,5.33,17.82,14.28a14.46,14.46,0,0,1-4.86,10.42c4.25,2.39,7.33,6.4,7.33,11.57m-28.4-15.28h2.24c2.16,0,3.94-1.15,3.94-3.7s-1.78-3.71-3.94-3.71h-2.24Zm8.65,13.59c0-2.55-2.55-3.71-5.79-3.71h-2.86v7.41h2.86c3.24,0,5.79-1.16,5.79-3.7" transform="translate(-857.98 -948.68)" fill="#484747"/><polygon points="226.28 82.45 226.28 97.26 190.47 97.26 190.47 45.4 210.23 45.4 210.23 82.45 226.28 82.45" fill="#484747"/><path d="M1142.53,1045.94h-19.76l-2.08-6.17H1105.1l-2.08,6.17h-19.76l20.61-51.86h18.06Zm-26.7-21-2.93-8.8L1110,1025Z" transform="translate(-857.98 -948.68)" fill="#484747"/><path d="M1036.9,948.68c-11.72,0-21.24,9.12-21.24,20.32s9.52,20.33,21.24,20.33,21.25-9.13,21.25-20.33-9.53-20.32-21.25-20.32m13.17,21a23.82,23.82,0,0,1-3.27,4.11c-3.29,3.58-6.62,7.16-9.91,10.74L1027,973.75a24.25,24.25,0,0,1-3.26-4.11,9.32,9.32,0,0,1-1.37-5.24,7.21,7.21,0,0,1,4.53-6.14,7.46,7.46,0,0,1,6.21.62,7.55,7.55,0,0,1,3.78,4.7,7.34,7.34,0,0,1,3.65-4.7,7.82,7.82,0,0,1,6.37-.62,7.21,7.21,0,0,1,4.53,6.14,9.32,9.32,0,0,1-1.37,5.24" transform="translate(-857.98 -948.68)" fill="#911635"/><path d="M876.16,970.5c0,4.93-3.29,8.81-8.85,8.81h-5.57v9.09H858V962.07h8.15c6.86,0,10,3.45,10,8.43m-3.76.23c0-3.45-2.55-4.9-5.29-4.9h-5.37v9.72h5.6c2.75,0,5.06-1.41,5.06-4.82" transform="translate(-857.98 -948.68)" fill="#484747"/><path d="M904.17,975.24a13.48,13.48,0,1,1-13.48-13.48,13.48,13.48,0,0,1,13.48,13.48m-3.76,0a9.72,9.72,0,1,0-9.72,9.71,9.67,9.67,0,0,0,9.72-9.71" transform="translate(-857.98 -948.68)" fill="#484747"/><path d="M920.9,988.4l-6.54-9.09h-4.12v9.09h-3.76V962.07h8.15c6.86,0,10,3.45,10,8.43,0,4.07-2.23,7.4-6.15,8.46l6.78,9.44Zm-10.66-12.85h5.61c2.74,0,5-1.41,5-4.82s-2.23-4.9-5-4.9h-5.69Z" transform="translate(-857.98 -948.68)" fill="#484747"/><path d="M969.29,988.4H954.51L953,983.78H941.29l-1.56,4.62H925l15.42-38.8h13.51Zm-20-15.7-2.2-6.58-2.19,6.58Z" transform="translate(-857.98 -948.68)" fill="#911635"/><polygon points="158.43 39.72 144.57 39.72 143.82 22.17 139.2 39.72 128.12 39.72 123.32 22.17 122.57 39.72 108.72 39.72 111.49 0.92 127.19 0.92 133.66 22.17 141.05 0.92 155.66 0.92 158.43 39.72" fill="#911635"/><path d="M1097.58,988.4H1081l-7.39-11.08V988.4h-14.78V949.6h23.09c8.26,0,12.93,6.36,12.93,13.86,0,5.37-2.42,10.1-6.81,12.41ZM1080,963.92c0-2.83-1.67-4.15-3.69-4.15h-2.77v8.31h2.77c2,0,3.69-1.27,3.69-4.16" transform="translate(-857.98 -948.68)" fill="#911635"/><path d="M1114.68,982.76h-11.84l-2.54,5.64h-4.08l12.54-26.95,12.54,26.95h-4.08ZM1113,979l-4.19-9.25-4.19,9.25Z" transform="translate(-857.98 -948.68)" fill="#484747"/></svg>