<svg id="Capa_1" data-name="Capa 1" xmlns="http://www.w3.org/2000/svg" viewBox="0 0 428.4 156.01"><path d="M82.48,22.8c0,11.82-8.64,21-20.22,21H45.58V1.8H62.22C73.84,1.8,82.48,11,82.48,22.8Zm-7.92,0c0-7.74-5-13.08-12.3-13.08h-8.4V35.88h8.36C69.52,35.88,74.56,30.54,74.56,22.8Z" fill="#c79b66"/><path d="M103,37.62a8.32,8.32,0,0,0,6.72-3l6.24,3.6c-2.82,4.08-7.32,6.42-13.08,6.42-10.08,0-16.44-6.9-16.44-15.84S92.86,13,102.28,13c8.88,0,15.18,7,15.18,15.84a17.84,17.84,0,0,1-.3,3.18H94.54C95.62,35.94,98.92,37.62,103,37.62ZM109.72,26a7.28,7.28,0,0,0-7.44-6.06c-4.14,0-7,2.22-7.86,6.06Z" fill="#c79b66"/><path d="M144.28,35c0,6.48-5.64,9.6-12.06,9.6-6,0-10.44-2.52-12.6-7.14l6.72-3.78c.84,2.46,2.88,3.9,5.88,3.9,2.46,0,4.14-.84,4.14-2.58,0-4.38-15.48-2-15.48-12.54,0-6.12,5.22-9.54,11.4-9.54a12.64,12.64,0,0,1,11.4,6.36l-6.6,3.6a5.06,5.06,0,0,0-4.8-3.06c-1.92,0-3.48.84-3.48,2.46C128.8,26.76,144.28,24,144.28,35Z" fill="#c79b66"/><path d="M179.38,13.8v30h-7.74V40.26a12,12,0,0,1-9.78,4.38c-8,0-14.58-6.9-14.58-15.84S153.88,13,161.86,13a12,12,0,0,1,9.78,4.38V13.8Zm-7.74,15a8.31,8.31,0,1,0-8.34,8.46,8.08,8.08,0,0,0,8.34-7.79C171.65,29.25,171.65,29,171.64,28.8Z" fill="#c79b66"/><path d="M203.22,13.2v8.64c-4-.48-9.12,1.32-9.12,7.62V43.8h-7.74v-30h7.74V19C195.7,14.88,199.48,13.2,203.22,13.2Z" fill="#c79b66"/><path d="M224.62,13.2v8.64c-4-.48-9.12,1.32-9.12,7.62V43.8h-7.74v-30h7.74V19C217.06,14.88,220.84,13.2,224.62,13.2Z" fill="#c79b66"/><path d="M226.42,28.8a15.87,15.87,0,1,1,15.9,15.84h-.1a15.67,15.67,0,0,1-15.8-15.54h0Zm24,0a8.13,8.13,0,1,0-8.2,8.3,8,8,0,0,0,8.2-7.79A4.34,4.34,0,0,0,250.42,28.8Z" fill="#c79b66"/><path d="M263.62,0h7.74V43.8h-7.74Z" fill="#c79b66"/><path d="M278.44,0h7.78V43.8h-7.74Z" fill="#c79b66"/><path d="M291.7,28.8a15.87,15.87,0,1,1,15.9,15.84h-.06a15.67,15.67,0,0,1-15.84-15.5h0Zm24,0a8.13,8.13,0,1,0-8.16,8.28,8,8,0,0,0,8.16-7.83A3.38,3.38,0,0,0,315.7,28.8Z" fill="#c79b66"/><path d="M43.42,88.26l7.08-4.14c1.5,3.9,4.44,6.42,9.66,6.42,5,0,6.72-2.1,6.72-4.44,0-3.12-2.82-4.32-9.06-6.12-6.42-1.86-12.66-4.56-12.66-12.54S51.76,55,59,55a16,16,0,0,1,15,9.42l-7,4c-1.5-3.18-3.78-5.4-8-5.4-3.48,0-5.52,1.8-5.52,4.2,0,2.58,1.62,4,8,5.88,6.66,2.1,13.74,4.32,13.74,12.9,0,7.86-6.3,12.66-15.24,12.66C51.34,98.64,45.7,94.5,43.42,88.26Z" fill="#c79b66"/><path d="M107.74,67.8v30H100V94.44c-1.8,2.7-4.92,4.2-8.94,4.2-6.36,0-11.34-4.44-11.34-12.42V67.8h7.74V85.26c0,4.08,2.46,6.18,5.94,6.18,3.78,0,6.6-2.22,6.6-7.44V67.8Z" fill="#c79b66"/><path d="M137.22,89c0,6.48-5.64,9.6-12.06,9.6-6,0-10.44-2.52-12.6-7.14l6.72-3.78c.84,2.46,2.88,3.9,5.88,3.9,2.46,0,4.14-.84,4.14-2.58,0-4.38-15.48-2-15.48-12.54,0-6.12,5.22-9.54,11.4-9.54a12.64,12.64,0,0,1,11.4,6.36l-6.6,3.6a5.06,5.06,0,0,0-4.8-3.06c-1.92,0-3.48.84-3.48,2.46C121.72,80.76,137.22,78,137.22,89Z" fill="#c79b66"/><path d="M151.66,75.24V87.72c0,3.24,2.34,3.3,6.78,3.06v7c-10.86,1.2-14.52-2-14.52-10.08V75.24H138.7V67.8h5.22V61.74l7.74-2.34v8.4h6.78v7.44Z" fill="#c79b66"/><path d="M178,91.62a8.32,8.32,0,0,0,6.72-3l6.24,3.6c-2.82,4.08-7.32,6.42-13.08,6.42-10.08,0-16.44-6.9-16.44-15.84S167.86,67,177.28,67c8.88,0,15.18,7,15.18,15.84a17.84,17.84,0,0,1-.3,3.18H169.54C170.62,89.94,173.92,91.62,178,91.62ZM184.72,80a7.28,7.28,0,0,0-7.44-6.06c-4.14,0-7,2.22-7.86,6.06Z" fill="#c79b66"/><path d="M225.88,79.38V97.8h-7.74V80.34c0-4.08-2.46-6.18-5.94-6.18-3.78,0-6.6,2.22-6.6,7.44V97.8h-7.74v-30h7.74v3.36c1.8-2.7,4.92-4.2,8.94-4.2C220.9,67,225.88,71.4,225.88,79.38Z" fill="#c79b66"/><path d="M242.86,75.24V87.72c0,3.24,2.34,3.3,6.78,3.06v7c-10.86,1.2-14.52-2-14.52-10.08V75.24H229.9V67.8h5.22V61.74l7.74-2.34v8.4h6.78v7.44Z" fill="#c79b66"/><path d="M284.74,67.8v30H277V94.26a12,12,0,0,1-9.78,4.38c-8,0-14.58-6.9-14.58-15.84S259.24,67,267.22,67A12,12,0,0,1,277,71.34V67.8ZM277,82.8a8.31,8.31,0,1,0-8.34,8.46A8.08,8.08,0,0,0,277,83.47Z" fill="#c79b66"/><path d="M323.86,82.8c0,8.94-6.6,15.84-14.64,15.84-4.38,0-7.56-1.62-9.72-4.38V97.8h-7.74v-42h7.74V71.34c2.16-2.76,5.34-4.38,9.72-4.38C317.22,67,323.86,73.86,323.86,82.8Zm-7.74,0a8.31,8.31,0,1,0-8.34,8.46,8.08,8.08,0,0,0,8.34-7.79C316.13,83.25,316.13,83,316.12,82.8Z" fill="#c79b66"/><path d="M329.32,54h7.74V97.8h-7.74Z" fill="#c79b66"/><path d="M359.14,91.62a8.32,8.32,0,0,0,6.72-3l6.24,3.6c-2.82,4.08-7.32,6.42-13.08,6.42-10.08,0-16.44-6.9-16.44-15.84S349,67,358.42,67c8.88,0,15.18,7,15.18,15.84a17.84,17.84,0,0,1-.3,3.18H350.68C351.76,89.94,355.06,91.62,359.14,91.62ZM365.86,80a7.28,7.28,0,0,0-7.44-6.06c-4.14,0-7,2.22-7.86,6.06Z" fill="#c79b66"/><path d="M42.5,124.82l2.36-1.38a3.13,3.13,0,0,0,3.22,2.14c1.66,0,2.24-.7,2.24-1.48,0-1-.94-1.44-3-2s-4.22-1.52-4.22-4.18,2.2-4.16,4.6-4.16a5.32,5.32,0,0,1,5,3.14l-2.32,1.34a2.75,2.75,0,0,0-2.68-1.8c-1.16,0-1.84.6-1.84,1.4s.54,1.32,2.66,2,4.58,1.44,4.58,4.3c0,2.62-2.1,4.22-5.08,4.22S43.22,126.9,42.5,124.82Z" fill="#fff"/><path d="M60,125.94a2.79,2.79,0,0,0,2.24-1l2.08,1.2A5.05,5.05,0,0,1,60,128.28a5.28,5.28,0,1,1-.2-10.56h0a5.07,5.07,0,0,1,5.06,5.06V123a6.24,6.24,0,0,1-.1,1.06H57.22A2.64,2.64,0,0,0,60,125.94Zm2.24-3.88a2.43,2.43,0,0,0-2.48-2,2.49,2.49,0,0,0-2.62,2Z" fill="#fff"/><path d="M66.06,123a5.17,5.17,0,0,1,5-5.28h.24a5,5,0,0,1,4.48,2.58l-2.22,1.3a2.47,2.47,0,0,0-2.28-1.34,2.73,2.73,0,1,0,0,5.46,2.48,2.48,0,0,0,2.3-1.32l2.24,1.28A5.26,5.26,0,0,1,66,123Z" fill="#fff"/><path d="M82.92,117.8v2.88a2.5,2.5,0,0,0-3,1.89v.06a2,2,0,0,0,0,.59V128H77.34V118h2.58v1.72A3.08,3.08,0,0,1,82.92,117.8Z" fill="#fff"/><path d="M89,125.94a2.79,2.79,0,0,0,2.24-1l2.08,1.2A5.05,5.05,0,0,1,89,128.28a5.28,5.28,0,1,1-.2-10.56h0a5.07,5.07,0,0,1,5.06,5.06V123a6.24,6.24,0,0,1-.1,1.06H86.22A2.64,2.64,0,0,0,89,125.94Zm2.24-3.88a2.43,2.43,0,0,0-2.48-2,2.49,2.49,0,0,0-2.62,2Z" fill="#fff"/><path d="M98.82,120.48v4.16c0,1.08.78,1.1,2.26,1V128c-3.62.4-4.84-.66-4.84-3.36v-4.16H94.5V118h1.72v-2l2.58-.78V118h2.26v2.48Z" fill="#fff"/><path d="M112.78,118v10h-2.56v-1.18a4,4,0,0,1-3.26,1.46,5.3,5.3,0,0,1,0-10.56,4,4,0,0,1,3.26,1.46V118Zm-2.58,5a2.77,2.77,0,1,0-2.78,2.82,2.69,2.69,0,0,0,2.8-2.57V123Z" fill="#fff"/><path d="M120.74,117.8v2.88a2.5,2.5,0,0,0-2.95,1.95h0a2.32,2.32,0,0,0-.05.59V128h-2.62V118h2.58v1.72A3.08,3.08,0,0,1,120.74,117.8Z" fill="#fff"/><path d="M122.22,118h2.58v10h-2.58Zm2.5-1.1L126,114h-3l-.84,2.9Z" fill="#fff"/><path d="M137.36,118v10h-2.58v-1.18a4,4,0,0,1-3.26,1.46,5.3,5.3,0,0,1,0-10.56,4,4,0,0,1,3.26,1.46V118Zm-2.58,5a2.77,2.77,0,1,0-2.78,2.82,2.69,2.69,0,0,0,2.78-2.6h0Z" fill="#fff"/><path d="M154.86,114v14h-2.58v-1.18a3.9,3.9,0,0,1-3.24,1.46,5.3,5.3,0,0,1,0-10.56,3.9,3.9,0,0,1,3.24,1.46V114Zm-2.58,9a2.77,2.77,0,1,0-2.76,2.82,2.67,2.67,0,0,0,2.76-2.58V123Z" fill="#fff"/><path d="M162.22,125.94a2.79,2.79,0,0,0,2.24-1l2.08,1.2a5.05,5.05,0,0,1-4.36,2.14,5.28,5.28,0,1,1-.2-10.56h0a5.07,5.07,0,0,1,5.06,5.06V123a6.24,6.24,0,0,1-.1,1.06H159.4A2.64,2.64,0,0,0,162.22,125.94Zm2.24-3.88a2.43,2.43,0,0,0-2.48-2,2.49,2.49,0,0,0-2.62,2Z" fill="#fff"/><path d="M187.66,128h-2.74v-9.08l-3.94,6.5h-.32l-3.94-6.48V128H174V114h2.84l4,6.62,4-6.62h2.84Z" fill="#fff"/><path d="M195.14,125.94a2.79,2.79,0,0,0,2.24-1l2.08,1.2a5.05,5.05,0,0,1-4.36,2.14,5.28,5.28,0,1,1-.2-10.56h0a5.07,5.07,0,0,1,5.06,5.06V123a6.24,6.24,0,0,1-.1,1.06h-7.54A2.64,2.64,0,0,0,195.14,125.94Zm2.24-3.88a2.43,2.43,0,0,0-2.48-2,2.49,2.49,0,0,0-2.62,2Z" fill="#fff"/><path d="M211.84,114v14h-2.62v-1.18a3.9,3.9,0,0,1-3.24,1.46,5.3,5.3,0,0,1,0-10.56,3.9,3.9,0,0,1,3.24,1.46V114Zm-2.58,9a2.77,2.77,0,1,0-2.76,2.82,2.68,2.68,0,0,0,2.72-2.64h0V123Z" fill="#fff"/><path d="M213.9,115.22a1.59,1.59,0,1,1,1.6,1.58h0A1.59,1.59,0,0,1,213.9,115.22Zm.3,2.78h2.58v10h-2.56Z" fill="#fff"/><path d="M218.62,123a5.29,5.29,0,1,1,5.3,5.28h0a5.22,5.22,0,0,1-5.28-5.16h0Zm8,0a2.71,2.71,0,1,0-2.72,2.76,2.66,2.66,0,0,0,2.72-2.6h0Z" fill="#fff"/><path d="M244.3,125.48h-5.58l-.84,2.52h-3l4.9-14h3.44l4.92,14h-3Zm-.86-2.58-1.92-5.72-1.92,5.72Z" fill="#fff"/><path d="M264.22,121.84V128h-2.58v-6c0-1.18-.6-1.9-1.68-1.9s-1.86.76-1.86,2.26V128h-2.58v-6c0-1.18-.6-1.9-1.68-1.9s-1.88.76-1.88,2.26V128h-2.58V118H252v1.14a3.15,3.15,0,0,1,2.78-1.34,3,3,0,0,1,2.72,1.44,3.42,3.42,0,0,1,3-1.44C262.72,117.72,264.22,119.34,264.22,121.84Z" fill="#fff"/><path d="M277.12,123a5.07,5.07,0,0,1-4.83,5.28h-.05a3.9,3.9,0,0,1-3.24-1.46V128h-2.58V114H269v5.18a3.9,3.9,0,0,1,3.24-1.46,5.06,5.06,0,0,1,4.88,5.23Zm-2.58,0a2.77,2.77,0,1,0-2.78,2.82,2.69,2.69,0,0,0,2.78-2.6h0Z" fill="#fff"/><path d="M278.64,115.22a1.59,1.59,0,1,1,1.6,1.58h0A1.59,1.59,0,0,1,278.64,115.22Zm.3,2.78h2.58v10h-2.58Z" fill="#fff"/><path d="M288.88,125.94a2.79,2.79,0,0,0,2.24-1l2.08,1.2a5.05,5.05,0,0,1-4.36,2.14,5.28,5.28,0,1,1-.2-10.56,5.07,5.07,0,0,1,5.06,5.06V123a6.24,6.24,0,0,1-.1,1.06h-7.54A2.64,2.64,0,0,0,288.88,125.94Zm2.24-3.88a2.43,2.43,0,0,0-2.48-2,2.49,2.49,0,0,0-2.62,2Z" fill="#fff"/><path d="M304.84,121.86V128h-2.62v-5.82a1.86,1.86,0,0,0-1.64-2.05h-.36c-1.26,0-2.2.74-2.2,2.48V128h-2.58V118H298v1.1a3.43,3.43,0,0,1,3-1.4C303.22,117.72,304.84,119.2,304.84,121.86Z" fill="#fff"/><path d="M310.5,120.48v4.16c0,1.08.78,1.1,2.26,1V128c-3.62.4-4.84-.66-4.84-3.36v-4.16h-1.7V118H308v-2l2.58-.78V118h2.26v2.48Z" fill="#fff"/><path d="M319.28,125.94a2.79,2.79,0,0,0,2.24-1l2.08,1.2a5.05,5.05,0,0,1-4.36,2.14,5.28,5.28,0,1,1-.2-10.56h0a5.07,5.07,0,0,1,5.06,5.06V123a6.24,6.24,0,0,1-.1,1.06h-7.54A2.64,2.64,0,0,0,319.28,125.94Zm2.24-3.88a2.43,2.43,0,0,0-2.48-2,2.49,2.49,0,0,0-2.62,2Z" fill="#fff"/><path d="M327,130.8h-2.1l.8-5.56h2.8Z" fill="#fff"/><path d="M348.08,121a6.74,6.74,0,0,1-6.47,7h-5.83V114h5.56a6.73,6.73,0,0,1,6.74,6.72h0A2.43,2.43,0,0,1,348.08,121Zm-2.64,0a4,4,0,0,0-3.62-4.35h-3.28v8.72h2.8a4,4,0,0,0,4.1-4.37Z" fill="#fff"/><path d="M354.92,125.94a2.79,2.79,0,0,0,2.24-1l2.08,1.2a5.05,5.05,0,0,1-4.36,2.14,5.28,5.28,0,1,1-.2-10.56h0a5.07,5.07,0,0,1,5.06,5.06V123a6.24,6.24,0,0,1-.1,1.06H352.1A2.64,2.64,0,0,0,354.92,125.94Zm2.24-3.88a2.43,2.43,0,0,0-2.48-2,2.49,2.49,0,0,0-2.62,2Z" fill="#fff"/><path d="M368.68,125.1c0,2.16-1.88,3.2-4,3.2a4.3,4.3,0,0,1-4.2-2.38l2.24-1.26a1.9,1.9,0,0,0,2,1.3c.82,0,1.38-.28,1.38-.86,0-1.46-5.16-.66-5.16-4.18,0-2,1.74-3.18,3.8-3.18a4.22,4.22,0,0,1,3.8,2.12l-2.2,1.2a1.69,1.69,0,0,0-1.6-1c-.64,0-1.16.28-1.16.82C363.52,122.32,368.68,121.4,368.68,125.1Z" fill="#fff"/><path d="M380.38,118v10H377.8v-1.18a4,4,0,0,1-3.26,1.46,5.3,5.3,0,0,1,0-10.56,4,4,0,0,1,3.26,1.46V118Zm-2.58,5a2.77,2.77,0,1,0-2.78,2.82,2.69,2.69,0,0,0,2.78-2.6h0Z" fill="#fff"/><path d="M388.34,117.8v2.88a2.5,2.5,0,0,0-2.95,1.95h0a2.32,2.32,0,0,0-.05.59V128h-2.58V118h2.58v1.72A3.08,3.08,0,0,1,388.34,117.8Z" fill="#fff"/><path d="M395.46,117.8v2.88a2.5,2.5,0,0,0-2.95,1.95h0a2.32,2.32,0,0,0-.05.59V128h-2.58V118h2.58v1.72A3.08,3.08,0,0,1,395.46,117.8Z" fill="#fff"/><path d="M396.06,123a5.29,5.29,0,1,1,5.3,5.28h0a5.22,5.22,0,0,1-5.28-5.16h0Zm8,0a2.71,2.71,0,1,0-2.72,2.76,2.66,2.66,0,0,0,2.72-2.6h0Z" fill="#fff"/><path d="M408.46,113.4H411V128h-2.58Z" fill="#fff"/><path d="M413.4,113.4H416V128h-2.6Z" fill="#fff"/><path d="M417.82,123a5.29,5.29,0,1,1,5.3,5.28h0a5.22,5.22,0,0,1-5.28-5.16h0Zm8,0a2.71,2.71,0,1,0-2.72,2.76,2.66,2.66,0,0,0,2.72-2.6h0Z" fill="#fff"/><path d="M42.5,148.82l2.36-1.38a3.13,3.13,0,0,0,3.22,2.14c1.66,0,2.24-.7,2.24-1.48,0-1-.94-1.44-3-2s-4.22-1.52-4.22-4.18,2.2-4.16,4.6-4.16a5.32,5.32,0,0,1,5,3.14l-2.32,1.34a2.75,2.75,0,0,0-2.68-1.8c-1.16,0-1.84.6-1.84,1.4s.54,1.32,2.66,2,4.58,1.44,4.58,4.3c0,2.62-2.1,4.22-5.08,4.22S43.22,150.9,42.5,148.82Z" fill="#fff"/><path d="M63.94,142v10H61.36v-1.12a3.43,3.43,0,0,1-3,1.4c-2.12,0-3.78-1.48-3.78-4.14V142h2.64v5.82a1.86,1.86,0,0,0,1.64,2.05h.36c1.26,0,2.2-.74,2.2-2.48V142Z" fill="#fff"/><path d="M73.76,149.1c0,2.16-1.88,3.2-4,3.2a4.3,4.3,0,0,1-4.2-2.38l2.24-1.26a1.9,1.9,0,0,0,2,1.3c.82,0,1.38-.28,1.38-.86,0-1.46-5.16-.66-5.16-4.18,0-2,1.74-3.18,3.8-3.18a4.22,4.22,0,0,1,3.8,2.12l-2.2,1.2a1.69,1.69,0,0,0-1.6-1c-.64,0-1.16.28-1.16.82C68.6,146.32,73.76,145.4,73.76,149.1Z" fill="#fff"/><path d="M78.58,144.48v4.16c0,1.08.78,1.1,2.26,1V152c-3.62.4-4.84-.66-4.84-3.36v-4.16H74.22V142H76v-2l2.58-.78V142H80.8v2.48Z" fill="#fff"/><path d="M87.36,149.94a2.79,2.79,0,0,0,2.24-1l2.08,1.2a5.05,5.05,0,0,1-4.36,2.14,5.28,5.28,0,1,1-.2-10.56,5.07,5.07,0,0,1,5.06,5.06V147a6.24,6.24,0,0,1-.1,1.06H84.54A2.64,2.64,0,0,0,87.36,149.94Zm2.24-3.88a2.43,2.43,0,0,0-2.48-2,2.49,2.49,0,0,0-2.62,2Z" fill="#fff"/><path d="M103.32,145.86V152h-2.58v-5.82a1.86,1.86,0,0,0-1.64-2.05h-.36c-1.26,0-2.2.74-2.2,2.48V152H94V142h2.58v1.1a3.43,3.43,0,0,1,3-1.4C101.66,141.72,103.32,143.2,103.32,145.86Z" fill="#fff"/><path d="M109,144.48v4.16c0,1.08.78,1.1,2.26,1V152c-3.62.4-4.84-.66-4.84-3.36v-4.16h-1.74V142h1.74v-2l2.58-.78V142h2.24v2.48Z" fill="#fff"/><path d="M122.94,142v10h-2.58v-1.18a4,4,0,0,1-3.26,1.46,5.3,5.3,0,0,1,0-10.56,4,4,0,0,1,3.26,1.46V142Zm-2.58,5a2.77,2.77,0,1,0-2.78,2.82,2.69,2.69,0,0,0,2.78-2.6h0Z" fill="#fff"/><path d="M136,147a5.07,5.07,0,0,1-4.83,5.28h0a3.9,3.9,0,0,1-3.24-1.46V152H125.3V138h2.58v5.18a3.9,3.9,0,0,1,3.24-1.46A5.06,5.06,0,0,1,136,147Zm-2.58,0a2.77,2.77,0,1,0-2.78,2.82,2.69,2.69,0,0,0,2.78-2.6h0Z" fill="#fff"/><path d="M137.8,137.4h2.58V152H137.8Z" fill="#fff"/><path d="M147.74,149.94a2.79,2.79,0,0,0,2.24-1l2.08,1.2a5.05,5.05,0,0,1-4.36,2.14,5.28,5.28,0,1,1-.2-10.56,5.07,5.07,0,0,1,5.06,5.06V147a6.24,6.24,0,0,1-.1,1.06h-7.54A2.64,2.64,0,0,0,147.74,149.94Zm2.24-3.88a2.43,2.43,0,0,0-2.48-2,2.49,2.49,0,0,0-2.62,2Z" fill="#fff"/><path d="M168.64,142,165,152c-1,2.88-2.74,4.14-5.28,4v-2.4a2.45,2.45,0,0,0,2.62-1.92l-4.1-9.68h2.82l2.6,6.72,2.22-6.72Z" fill="#fff"/><path d="M174.34,145a7.21,7.21,0,1,1,0,.14Zm11.78,0a4.52,4.52,0,1,0-4.52,4.58,4.44,4.44,0,0,0,4.52-4.36h0Z" fill="#fff"/><path d="M196.32,141.8v2.88a2.5,2.5,0,0,0-2.95,1.95h0a2.32,2.32,0,0,0-.05.59V152h-2.58V142h2.58v1.72A3.08,3.08,0,0,1,196.32,141.8Z" fill="#fff"/><path d="M207.6,138v14H205v-1.18a3.9,3.9,0,0,1-3.24,1.46,5.3,5.3,0,0,1,0-10.56,3.9,3.9,0,0,1,3.24,1.46V138Zm-2.6,9a2.77,2.77,0,1,0-2.76,2.82,2.67,2.67,0,0,0,2.76-2.58V147Z" fill="#fff"/><path d="M215,149.94a2.79,2.79,0,0,0,2.24-1l2.08,1.2a5.05,5.05,0,0,1-4.36,2.14,5.28,5.28,0,1,1-.2-10.56h0a5.07,5.07,0,0,1,5.06,5.06V147a6.24,6.24,0,0,1-.1,1.06h-7.54A2.64,2.64,0,0,0,215,149.94Zm2.26-3.84a2.43,2.43,0,0,0-2.48-2,2.49,2.49,0,0,0-2.62,2Z" fill="#fff"/><path d="M230.92,145.86V152h-2.58v-5.82a1.86,1.86,0,0,0-1.64-2.05h-.36c-1.26,0-2.2.74-2.2,2.48V152h-2.58V142h2.58v1.1a3.43,3.43,0,0,1,3-1.4C229.22,141.72,230.92,143.2,230.92,145.86Z" fill="#fff"/><path d="M243.3,142v10h-2.58v-1.18a4,4,0,0,1-3.26,1.46,5.3,5.3,0,0,1,0-10.56,4,4,0,0,1,3.26,1.46V142Zm-2.58,5a2.77,2.77,0,1,0-2.78,2.82,2.69,2.69,0,0,0,2.78-2.6h0Z" fill="#fff"/><path d="M260.48,145.84V152H257.9v-6c0-1.18-.6-1.9-1.68-1.9s-1.86.76-1.86,2.26V152h-2.58v-6c0-1.18-.6-1.9-1.68-1.9s-1.88.76-1.88,2.26V152h-2.58V142h2.58v1.14A3.15,3.15,0,0,1,251,141.8a3,3,0,0,1,2.72,1.44,3.42,3.42,0,0,1,3-1.44C259,141.72,260.48,143.34,260.48,145.84Z" fill="#fff"/><path d="M262.38,139.22a1.59,1.59,0,1,1,1.6,1.58h0A1.59,1.59,0,0,1,262.38,139.22Zm.3,2.78h2.54v10h-2.58Z" fill="#fff"/><path d="M272.62,149.94a2.79,2.79,0,0,0,2.24-1l2.08,1.2a5.05,5.05,0,0,1-4.36,2.14,5.28,5.28,0,1,1-.2-10.56,5.07,5.07,0,0,1,5.06,5.06V147a6.24,6.24,0,0,1-.1,1.06H269.8A2.64,2.64,0,0,0,272.62,149.94Zm2.24-3.88a2.43,2.43,0,0,0-2.48-2,2.49,2.49,0,0,0-2.62,2Z" fill="#fff"/><path d="M288.58,145.86V152H286v-5.82a1.86,1.86,0,0,0-1.64-2.05H284c-1.26,0-2.2.74-2.2,2.48V152h-2.58V142h2.58v1.1a3.43,3.43,0,0,1,3-1.4C286.92,141.72,288.58,143.2,288.58,145.86Z" fill="#fff"/><path d="M294.22,144.48v4.16c0,1.08.78,1.1,2.26,1V152c-3.62.4-4.84-.66-4.84-3.36v-4.16H289.9V142h1.74v-2l2.58-.78V142h2.26v2.48Z" fill="#fff"/><path d="M297.5,147a5.29,5.29,0,1,1,5.3,5.28h0a5.22,5.22,0,0,1-5.28-5.16h0Zm8,0a2.71,2.71,0,1,0-2.72,2.76,2.66,2.66,0,0,0,2.72-2.6h0Z" fill="#fff"/><path d="M324.28,140.64H320.5V152h-2.76V140.64H314V138h10.3Z" fill="#fff"/><path d="M328.88,149.94a2.79,2.79,0,0,0,2.24-1l2.08,1.2a5.05,5.05,0,0,1-4.36,2.14,5.28,5.28,0,1,1-.2-10.56,5.07,5.07,0,0,1,5.06,5.06V147a6.24,6.24,0,0,1-.1,1.06h-7.54A2.64,2.64,0,0,0,328.88,149.94Zm2.24-3.88a2.43,2.43,0,0,0-2.48-2,2.49,2.49,0,0,0-2.62,2Z" fill="#fff"/><path d="M341.12,141.8v2.88a2.5,2.5,0,0,0-2.95,1.95h0a2.32,2.32,0,0,0-.05.59V152h-2.58V142h2.58v1.72A3.08,3.08,0,0,1,341.12,141.8Z" fill="#fff"/><path d="M348.22,141.8v2.88a2.5,2.5,0,0,0-3,1.89v.06a2,2,0,0,0,0,.59V152h-2.58V142h2.58v1.72A3.08,3.08,0,0,1,348.22,141.8Z" fill="#fff"/><path d="M349.44,139.22a1.59,1.59,0,1,1,1.6,1.58h0A1.59,1.59,0,0,1,349.44,139.22Zm.3,2.78h2.58v10h-2.58Z" fill="#fff"/><path d="M358.14,144.48v4.16c0,1.08.78,1.1,2.26,1V152c-3.62.4-4.84-.66-4.84-3.36v-4.16h-1.74V142h1.74v-2l2.58-.78V142h2.26v2.48Z" fill="#fff"/><path d="M361.4,147a5.29,5.29,0,1,1,5.3,5.28h0a5.22,5.22,0,0,1-5.28-5.16h0Zm8,0a2.71,2.71,0,1,0-2.72,2.76,2.66,2.66,0,0,0,2.72-2.6h0Z" fill="#fff"/><path d="M379.42,141.8v2.88a2.5,2.5,0,0,0-2.95,1.95h0a2.32,2.32,0,0,0-.05.59V152h-2.58V142h2.58v1.72A3.08,3.08,0,0,1,379.42,141.8Z" fill="#fff"/><path d="M380.62,139.22a1.59,1.59,0,1,1,1.6,1.58h0A1.59,1.59,0,0,1,380.62,139.22Zm.3,2.78h2.58v10h-2.58Z" fill="#fff"/><path d="M396,142v10h-2.58v-1.18a4,4,0,0,1-3.26,1.46,5.3,5.3,0,0,1,0-10.56,4,4,0,0,1,3.26,1.46V142Zm-2.58,5a2.77,2.77,0,1,0-2.78,2.82,2.69,2.69,0,0,0,2.78-2.6h0Z" fill="#fff"/><path d="M398.38,137.4H401V152h-2.58Z" fill="#fff"/><line x1="0.5" y1="47.62" x2="0.5" y2="109.62" fill="none" stroke="#484747" stroke-miterlimit="10"/></svg>