<svg id="Capa_1" data-name="Capa 1" xmlns="http://www.w3.org/2000/svg" viewBox="0 0 428.39 156.01"><path d="M862.26,945.7c0,11.82-8.64,21-20.22,21H825.36v-42H842C853.62,924.7,862.26,933.88,862.26,945.7Zm-7.92,0c0-7.74-5-13.08-12.3-13.08h-8.4v26.16H842C849.3,958.78,854.34,953.44,854.34,945.7Z" transform="translate(-779.78 -922.9)" fill="#484747"/><path d="M882.78,960.52a8.32,8.32,0,0,0,6.72-3l6.24,3.6c-2.82,4.08-7.32,6.42-13.08,6.42-10.08,0-16.44-6.9-16.44-15.84s6.42-15.84,15.84-15.84c8.88,0,15.18,7,15.18,15.84a17.88,17.88,0,0,1-.3,3.18H874.32C875.4,958.84,878.7,960.52,882.78,960.52Zm6.72-11.64a7.28,7.28,0,0,0-7.44-6.06c-4.14,0-7,2.22-7.86,6.06Z" transform="translate(-779.78 -922.9)" fill="#484747"/><path d="M924.06,957.94c0,6.48-5.64,9.6-12.06,9.6-6,0-10.44-2.52-12.6-7.14l6.72-3.78c.84,2.46,2.88,3.9,5.88,3.9,2.46,0,4.14-.84,4.14-2.58,0-4.38-15.48-2-15.48-12.54,0-6.12,5.22-9.54,11.4-9.54a12.64,12.64,0,0,1,11.4,6.36l-6.6,3.6a5.07,5.07,0,0,0-4.8-3.06c-1.92,0-3.48.84-3.48,2.46C908.58,949.66,924.06,946.9,924.06,957.94Z" transform="translate(-779.78 -922.9)" fill="#484747"/><path d="M959.16,936.7v30h-7.74v-3.54a11.94,11.94,0,0,1-9.78,4.38c-8,0-14.58-6.9-14.58-15.84s6.6-15.84,14.58-15.84a11.94,11.94,0,0,1,9.78,4.38V936.7Zm-7.74,15a8.31,8.31,0,1,0-8.34,8.46A8.07,8.07,0,0,0,951.42,951.7Z" transform="translate(-779.78 -922.9)" fill="#484747"/><path d="M983,936.1v8.64c-4-.48-9.12,1.32-9.12,7.62V966.7h-7.74v-30h7.74v5.16C975.48,937.78,979.26,936.1,983,936.1Z" transform="translate(-779.78 -922.9)" fill="#484747"/><path d="M1004.4,936.1v8.64c-4-.48-9.12,1.32-9.12,7.62V966.7h-7.74v-30h7.74v5.16C996.84,937.78,1000.62,936.1,1004.4,936.1Z" transform="translate(-779.78 -922.9)" fill="#484747"/><path d="M1006.2,951.7A15.87,15.87,0,1,1,1022,967.54,15.67,15.67,0,0,1,1006.2,951.7Zm24,0A8.13,8.13,0,1,0,1022,960,8,8,0,0,0,1030.2,951.7Z" transform="translate(-779.78 -922.9)" fill="#484747"/><path d="M1043.4,922.9h7.74v43.8h-7.74Z" transform="translate(-779.78 -922.9)" fill="#484747"/><path d="M1058.22,922.9H1066v43.8h-7.74Z" transform="translate(-779.78 -922.9)" fill="#484747"/><path d="M1071.48,951.7a15.87,15.87,0,1,1,15.84,15.84A15.67,15.67,0,0,1,1071.48,951.7Zm24,0a8.13,8.13,0,1,0-8.16,8.28A8,8,0,0,0,1095.48,951.7Z" transform="translate(-779.78 -922.9)" fill="#484747"/><path d="M823.2,1011.16l7.08-4.14c1.5,3.9,4.44,6.42,9.66,6.42,5,0,6.72-2.1,6.72-4.44,0-3.12-2.82-4.32-9.06-6.12-6.42-1.86-12.66-4.56-12.66-12.54s6.6-12.48,13.8-12.48a16,16,0,0,1,15,9.42l-7,4c-1.5-3.18-3.78-5.4-8-5.4-3.48,0-5.52,1.8-5.52,4.2,0,2.58,1.62,4,8,5.88,6.66,2.1,13.74,4.32,13.74,12.9,0,7.86-6.3,12.66-15.24,12.66C831.12,1021.54,825.48,1017.4,823.2,1011.16Z" transform="translate(-779.78 -922.9)" fill="#484747"/><path d="M887.52,990.7v30h-7.74v-3.36c-1.8,2.7-4.92,4.2-8.94,4.2-6.36,0-11.34-4.44-11.34-12.42V990.7h7.74v17.46c0,4.08,2.46,6.18,5.94,6.18,3.78,0,6.6-2.22,6.6-7.44V990.7Z" transform="translate(-779.78 -922.9)" fill="#484747"/><path d="M917,1011.94c0,6.48-5.64,9.6-12.06,9.6-6,0-10.44-2.52-12.6-7.14l6.72-3.78c.84,2.46,2.88,3.9,5.88,3.9,2.46,0,4.14-.84,4.14-2.58,0-4.38-15.48-2-15.48-12.54,0-6.12,5.22-9.54,11.4-9.54a12.64,12.64,0,0,1,11.4,6.36l-6.6,3.6a5.07,5.07,0,0,0-4.8-3.06c-1.92,0-3.48.84-3.48,2.46C901.5,1003.66,917,1000.9,917,1011.94Z" transform="translate(-779.78 -922.9)" fill="#484747"/><path d="M931.44,998.14v12.48c0,3.24,2.34,3.3,6.78,3.06v7c-10.86,1.2-14.52-2-14.52-10.08V998.14h-5.22V990.7h5.22v-6.06l7.74-2.34v8.4h6.78v7.44Z" transform="translate(-779.78 -922.9)" fill="#484747"/><path d="M957.78,1014.52a8.32,8.32,0,0,0,6.72-3l6.24,3.6c-2.82,4.08-7.32,6.42-13.08,6.42-10.08,0-16.44-6.9-16.44-15.84s6.42-15.84,15.84-15.84c8.88,0,15.18,7,15.18,15.84a17.88,17.88,0,0,1-.3,3.18H949.32C950.4,1012.84,953.7,1014.52,957.78,1014.52Zm6.72-11.64a7.28,7.28,0,0,0-7.44-6.06c-4.14,0-7,2.22-7.86,6.06Z" transform="translate(-779.78 -922.9)" fill="#484747"/><path d="M1005.66,1002.28v18.42h-7.74v-17.46c0-4.08-2.46-6.18-5.94-6.18-3.78,0-6.6,2.22-6.6,7.44v16.2h-7.74v-30h7.74v3.36c1.8-2.7,4.92-4.2,8.94-4.2C1000.68,989.86,1005.66,994.3,1005.66,1002.28Z" transform="translate(-779.78 -922.9)" fill="#484747"/><path d="M1022.64,998.14v12.48c0,3.24,2.34,3.3,6.78,3.06v7c-10.86,1.2-14.52-2-14.52-10.08V998.14h-5.22V990.7h5.22v-6.06l7.74-2.34v8.4h6.78v7.44Z" transform="translate(-779.78 -922.9)" fill="#484747"/><path d="M1064.52,990.7v30h-7.74v-3.54a11.94,11.94,0,0,1-9.78,4.38c-8,0-14.58-6.9-14.58-15.84s6.6-15.84,14.58-15.84a11.94,11.94,0,0,1,9.78,4.38V990.7Zm-7.74,15a8.31,8.31,0,1,0-8.34,8.46A8.07,8.07,0,0,0,1056.78,1005.7Z" transform="translate(-779.78 -922.9)" fill="#484747"/><path d="M1103.64,1005.7c0,8.94-6.6,15.84-14.64,15.84-4.38,0-7.56-1.62-9.72-4.38v3.54h-7.74v-42h7.74v15.54c2.16-2.76,5.34-4.38,9.72-4.38C1097,989.86,1103.64,996.76,1103.64,1005.7Zm-7.74,0a8.31,8.31,0,1,0-8.34,8.46A8.07,8.07,0,0,0,1095.9,1005.7Z" transform="translate(-779.78 -922.9)" fill="#484747"/><path d="M1109.1,976.9h7.74v43.8h-7.74Z" transform="translate(-779.78 -922.9)" fill="#484747"/><path d="M1138.92,1014.52a8.32,8.32,0,0,0,6.72-3l6.24,3.6c-2.82,4.08-7.32,6.42-13.08,6.42-10.08,0-16.44-6.9-16.44-15.84s6.42-15.84,15.84-15.84c8.88,0,15.18,7,15.18,15.84a17.88,17.88,0,0,1-.3,3.18h-22.62C1131.54,1012.84,1134.84,1014.52,1138.92,1014.52Zm6.72-11.64a7.28,7.28,0,0,0-7.44-6.06c-4.14,0-7,2.22-7.86,6.06Z" transform="translate(-779.78 -922.9)" fill="#484747"/><path d="M822.28,1047.72l2.36-1.38a3.14,3.14,0,0,0,3.22,2.14c1.66,0,2.24-.7,2.24-1.48,0-1-.94-1.44-3-2s-4.22-1.52-4.22-4.18,2.2-4.16,4.6-4.16a5.32,5.32,0,0,1,5,3.14l-2.32,1.34a2.75,2.75,0,0,0-2.68-1.8c-1.16,0-1.84.6-1.84,1.4s.54,1.32,2.66,2,4.58,1.44,4.58,4.3c0,2.62-2.1,4.22-5.08,4.22S823,1049.8,822.28,1047.72Z" transform="translate(-779.78 -922.9)" fill="#484747"/><path d="M839.82,1048.84a2.77,2.77,0,0,0,2.24-1l2.08,1.2a5.06,5.06,0,0,1-4.36,2.14,5.28,5.28,0,1,1-.2-10.56,5.06,5.06,0,0,1,5.06,5.28,6,6,0,0,1-.1,1.06H837A2.63,2.63,0,0,0,839.82,1048.84Zm2.24-3.88a2.43,2.43,0,0,0-2.48-2,2.49,2.49,0,0,0-2.62,2Z" transform="translate(-779.78 -922.9)" fill="#484747"/><path d="M845.84,1045.9a5.16,5.16,0,0,1,5.28-5.28,5,5,0,0,1,4.48,2.58l-2.22,1.3a2.47,2.47,0,0,0-2.28-1.34,2.73,2.73,0,0,0,0,5.46,2.47,2.47,0,0,0,2.3-1.32l2.24,1.28a5.26,5.26,0,0,1-9.8-2.68Z" transform="translate(-779.78 -922.9)" fill="#484747"/><path d="M862.7,1040.7v2.88a2.5,2.5,0,0,0-3,2.54v4.78h-2.58v-10h2.58v1.72A3.08,3.08,0,0,1,862.7,1040.7Z" transform="translate(-779.78 -922.9)" fill="#484747"/><path d="M868.82,1048.84a2.77,2.77,0,0,0,2.24-1l2.08,1.2a5.06,5.06,0,0,1-4.36,2.14,5.28,5.28,0,1,1-.2-10.56,5.06,5.06,0,0,1,5.06,5.28,6,6,0,0,1-.1,1.06H866A2.63,2.63,0,0,0,868.82,1048.84Zm2.24-3.88a2.43,2.43,0,0,0-2.48-2,2.49,2.49,0,0,0-2.62,2Z" transform="translate(-779.78 -922.9)" fill="#484747"/><path d="M878.6,1043.38v4.16c0,1.08.78,1.1,2.26,1v2.34c-3.62.4-4.84-.66-4.84-3.36v-4.16h-1.74v-2.48H876v-2l2.58-.78v2.8h2.26v2.48Z" transform="translate(-779.78 -922.9)" fill="#484747"/><path d="M892.56,1040.9v10H890v-1.18a4,4,0,0,1-3.26,1.46,5.3,5.3,0,0,1,0-10.56,4,4,0,0,1,3.26,1.46v-1.18Zm-2.58,5a2.77,2.77,0,1,0-2.78,2.82A2.69,2.69,0,0,0,890,1045.9Z" transform="translate(-779.78 -922.9)" fill="#484747"/><path d="M900.52,1040.7v2.88a2.5,2.5,0,0,0-3,2.54v4.78H894.9v-10h2.58v1.72A3.08,3.08,0,0,1,900.52,1040.7Z" transform="translate(-779.78 -922.9)" fill="#484747"/><path d="M902,1040.9h2.58v10H902Zm2.5-1.1,1.32-2.9h-3l-.84,2.9Z" transform="translate(-779.78 -922.9)" fill="#484747"/><path d="M917.14,1040.9v10h-2.58v-1.18a4,4,0,0,1-3.26,1.46,5.3,5.3,0,0,1,0-10.56,4,4,0,0,1,3.26,1.46v-1.18Zm-2.58,5a2.77,2.77,0,1,0-2.78,2.82A2.69,2.69,0,0,0,914.56,1045.9Z" transform="translate(-779.78 -922.9)" fill="#484747"/><path d="M934.64,1036.9v14h-2.58v-1.18a3.89,3.89,0,0,1-3.24,1.46,5.3,5.3,0,0,1,0-10.56,3.89,3.89,0,0,1,3.24,1.46v-5.18Zm-2.58,9a2.77,2.77,0,1,0-2.76,2.82A2.68,2.68,0,0,0,932.06,1045.9Z" transform="translate(-779.78 -922.9)" fill="#484747"/><path d="M942,1048.84a2.77,2.77,0,0,0,2.24-1l2.08,1.2a5.06,5.06,0,0,1-4.36,2.14,5.28,5.28,0,1,1-.2-10.56,5.06,5.06,0,0,1,5.06,5.28,6,6,0,0,1-.1,1.06h-7.54A2.63,2.63,0,0,0,942,1048.84Zm2.24-3.88a2.43,2.43,0,0,0-2.48-2,2.49,2.49,0,0,0-2.62,2Z" transform="translate(-779.78 -922.9)" fill="#484747"/><path d="M967.44,1050.9H964.7v-9.08l-3.94,6.5h-.32l-3.94-6.48v9.06h-2.76v-14h2.84l4,6.62,4-6.62h2.84Z" transform="translate(-779.78 -922.9)" fill="#484747"/><path d="M974.92,1048.84a2.77,2.77,0,0,0,2.24-1l2.08,1.2a5.06,5.06,0,0,1-4.36,2.14,5.28,5.28,0,1,1-.2-10.56,5.06,5.06,0,0,1,5.06,5.28,6,6,0,0,1-.1,1.06H972.1A2.63,2.63,0,0,0,974.92,1048.84Zm2.24-3.88a2.43,2.43,0,0,0-2.48-2,2.49,2.49,0,0,0-2.62,2Z" transform="translate(-779.78 -922.9)" fill="#484747"/><path d="M991.62,1036.9v14H989v-1.18a3.89,3.89,0,0,1-3.24,1.46,5.3,5.3,0,0,1,0-10.56,3.89,3.89,0,0,1,3.24,1.46v-5.18Zm-2.58,9a2.77,2.77,0,1,0-2.76,2.82A2.68,2.68,0,0,0,989,1045.9Z" transform="translate(-779.78 -922.9)" fill="#484747"/><path d="M993.68,1038.12a1.59,1.59,0,1,1,1.58,1.58A1.6,1.6,0,0,1,993.68,1038.12Zm.3,2.78h2.58v10H994Z" transform="translate(-779.78 -922.9)" fill="#484747"/><path d="M998.4,1045.9a5.29,5.29,0,1,1,5.28,5.28A5.22,5.22,0,0,1,998.4,1045.9Zm8,0a2.71,2.71,0,1,0-2.72,2.76A2.66,2.66,0,0,0,1006.4,1045.9Z" transform="translate(-779.78 -922.9)" fill="#484747"/><path d="M1024.08,1048.38h-5.58l-.84,2.52h-3l4.9-14H1023l4.92,14h-3Zm-.86-2.58-1.92-5.72-1.92,5.72Z" transform="translate(-779.78 -922.9)" fill="#484747"/><path d="M1044,1044.74v6.16h-2.58v-6c0-1.18-.6-1.9-1.68-1.9s-1.86.76-1.86,2.26v5.62h-2.58v-6c0-1.18-.6-1.9-1.68-1.9s-1.88.76-1.88,2.26v5.62h-2.58v-10h2.58V1042a3.16,3.16,0,0,1,2.78-1.34,3,3,0,0,1,2.72,1.44,3.43,3.43,0,0,1,3-1.44C1042.5,1040.62,1044,1042.24,1044,1044.74Z" transform="translate(-779.78 -922.9)" fill="#484747"/><path d="M1056.9,1045.9a5.06,5.06,0,0,1-4.88,5.28,3.89,3.89,0,0,1-3.24-1.46v1.18h-2.58v-14h2.58v5.18a3.89,3.89,0,0,1,3.24-1.46A5.06,5.06,0,0,1,1056.9,1045.9Zm-2.58,0a2.77,2.77,0,1,0-2.78,2.82A2.69,2.69,0,0,0,1054.32,1045.9Z" transform="translate(-779.78 -922.9)" fill="#484747"/><path d="M1058.42,1038.12a1.59,1.59,0,1,1,1.58,1.58A1.6,1.6,0,0,1,1058.42,1038.12Zm.3,2.78h2.58v10h-2.58Z" transform="translate(-779.78 -922.9)" fill="#484747"/><path d="M1068.66,1048.84a2.77,2.77,0,0,0,2.24-1l2.08,1.2a5.06,5.06,0,0,1-4.36,2.14,5.28,5.28,0,1,1-.2-10.56,5.06,5.06,0,0,1,5.06,5.28,6,6,0,0,1-.1,1.06h-7.54A2.63,2.63,0,0,0,1068.66,1048.84Zm2.24-3.88a2.43,2.43,0,0,0-2.48-2,2.49,2.49,0,0,0-2.62,2Z" transform="translate(-779.78 -922.9)" fill="#484747"/><path d="M1084.62,1044.76v6.14H1082v-5.82a1.86,1.86,0,0,0-2-2.06c-1.26,0-2.2.74-2.2,2.48v5.4h-2.58v-10h2.58V1042a3.4,3.4,0,0,1,3-1.4C1083,1040.62,1084.62,1042.1,1084.62,1044.76Z" transform="translate(-779.78 -922.9)" fill="#484747"/><path d="M1090.28,1043.38v4.16c0,1.08.78,1.1,2.26,1v2.34c-3.62.4-4.84-.66-4.84-3.36v-4.16H1086v-2.48h1.74v-2l2.58-.78v2.8h2.26v2.48Z" transform="translate(-779.78 -922.9)" fill="#484747"/><path d="M1099.06,1048.84a2.77,2.77,0,0,0,2.24-1l2.08,1.2a5.06,5.06,0,0,1-4.36,2.14,5.28,5.28,0,1,1-.2-10.56,5.06,5.06,0,0,1,5.06,5.28,6,6,0,0,1-.1,1.06h-7.54A2.63,2.63,0,0,0,1099.06,1048.84Zm2.24-3.88a2.43,2.43,0,0,0-2.48-2,2.49,2.49,0,0,0-2.62,2Z" transform="translate(-779.78 -922.9)" fill="#484747"/><path d="M1106.78,1053.7h-2.1l.8-5.56h2.8Z" transform="translate(-779.78 -922.9)" fill="#484747"/><path d="M1127.86,1043.9a6.74,6.74,0,0,1-6.74,7h-5.56v-14h5.56A6.74,6.74,0,0,1,1127.86,1043.9Zm-2.64,0a4,4,0,0,0-4.1-4.36h-2.8v8.72h2.8A4,4,0,0,0,1125.22,1043.9Z" transform="translate(-779.78 -922.9)" fill="#484747"/><path d="M1134.7,1048.84a2.77,2.77,0,0,0,2.24-1l2.08,1.2a5.06,5.06,0,0,1-4.36,2.14,5.28,5.28,0,1,1-.2-10.56,5.06,5.06,0,0,1,5.06,5.28,6,6,0,0,1-.1,1.06h-7.54A2.63,2.63,0,0,0,1134.7,1048.84Zm2.24-3.88a2.43,2.43,0,0,0-2.48-2,2.49,2.49,0,0,0-2.62,2Z" transform="translate(-779.78 -922.9)" fill="#484747"/><path d="M1148.46,1048c0,2.16-1.88,3.2-4,3.2a4.3,4.3,0,0,1-4.2-2.38l2.24-1.26a1.91,1.91,0,0,0,2,1.3c.82,0,1.38-.28,1.38-.86,0-1.46-5.16-.66-5.16-4.18,0-2,1.74-3.18,3.8-3.18a4.21,4.21,0,0,1,3.8,2.12l-2.2,1.2a1.69,1.69,0,0,0-1.6-1c-.64,0-1.16.28-1.16.82C1143.3,1045.22,1148.46,1044.3,1148.46,1048Z" transform="translate(-779.78 -922.9)" fill="#484747"/><path d="M1160.16,1040.9v10h-2.58v-1.18a4,4,0,0,1-3.26,1.46,5.3,5.3,0,0,1,0-10.56,4,4,0,0,1,3.26,1.46v-1.18Zm-2.58,5a2.77,2.77,0,1,0-2.78,2.82A2.69,2.69,0,0,0,1157.58,1045.9Z" transform="translate(-779.78 -922.9)" fill="#484747"/><path d="M1168.12,1040.7v2.88a2.5,2.5,0,0,0-3,2.54v4.78h-2.58v-10h2.58v1.72A3.08,3.08,0,0,1,1168.12,1040.7Z" transform="translate(-779.78 -922.9)" fill="#484747"/><path d="M1175.24,1040.7v2.88a2.5,2.5,0,0,0-3,2.54v4.78h-2.58v-10h2.58v1.72A3.08,3.08,0,0,1,1175.24,1040.7Z" transform="translate(-779.78 -922.9)" fill="#484747"/><path d="M1175.84,1045.9a5.29,5.29,0,1,1,5.28,5.28A5.22,5.22,0,0,1,1175.84,1045.9Zm8,0a2.71,2.71,0,1,0-2.72,2.76A2.66,2.66,0,0,0,1183.84,1045.9Z" transform="translate(-779.78 -922.9)" fill="#484747"/><path d="M1188.24,1036.3h2.58v14.6h-2.58Z" transform="translate(-779.78 -922.9)" fill="#484747"/><path d="M1193.18,1036.3h2.58v14.6h-2.58Z" transform="translate(-779.78 -922.9)" fill="#484747"/><path d="M1197.6,1045.9a5.29,5.29,0,1,1,5.28,5.28A5.22,5.22,0,0,1,1197.6,1045.9Zm8,0a2.71,2.71,0,1,0-2.72,2.76A2.66,2.66,0,0,0,1205.6,1045.9Z" transform="translate(-779.78 -922.9)" fill="#484747"/><path d="M822.28,1071.72l2.36-1.38a3.14,3.14,0,0,0,3.22,2.14c1.66,0,2.24-.7,2.24-1.48,0-1-.94-1.44-3-2s-4.22-1.52-4.22-4.18,2.2-4.16,4.6-4.16a5.32,5.32,0,0,1,5,3.14l-2.32,1.34a2.75,2.75,0,0,0-2.68-1.8c-1.16,0-1.84.6-1.84,1.4s.54,1.32,2.66,2,4.58,1.44,4.58,4.3c0,2.62-2.1,4.22-5.08,4.22S823,1073.8,822.28,1071.72Z" transform="translate(-779.78 -922.9)" fill="#484747"/><path d="M843.72,1064.9v10h-2.58v-1.12a3.4,3.4,0,0,1-3,1.4c-2.12,0-3.78-1.48-3.78-4.14v-6.14H837v5.82a1.86,1.86,0,0,0,2,2.06c1.26,0,2.2-.74,2.2-2.48v-5.4Z" transform="translate(-779.78 -922.9)" fill="#484747"/><path d="M853.54,1072c0,2.16-1.88,3.2-4,3.2a4.3,4.3,0,0,1-4.2-2.38l2.24-1.26a1.91,1.91,0,0,0,2,1.3c.82,0,1.38-.28,1.38-.86,0-1.46-5.16-.66-5.16-4.18,0-2,1.74-3.18,3.8-3.18a4.21,4.21,0,0,1,3.8,2.12l-2.2,1.2a1.69,1.69,0,0,0-1.6-1c-.64,0-1.16.28-1.16.82C848.38,1069.22,853.54,1068.3,853.54,1072Z" transform="translate(-779.78 -922.9)" fill="#484747"/><path d="M858.36,1067.38v4.16c0,1.08.78,1.1,2.26,1v2.34c-3.62.4-4.84-.66-4.84-3.36v-4.16H854v-2.48h1.74v-2l2.58-.78v2.8h2.26v2.48Z" transform="translate(-779.78 -922.9)" fill="#484747"/><path d="M867.14,1072.84a2.77,2.77,0,0,0,2.24-1l2.08,1.2a5.06,5.06,0,0,1-4.36,2.14,5.28,5.28,0,1,1-.2-10.56,5.06,5.06,0,0,1,5.06,5.28,6,6,0,0,1-.1,1.06h-7.54A2.63,2.63,0,0,0,867.14,1072.84Zm2.24-3.88a2.43,2.43,0,0,0-2.48-2,2.49,2.49,0,0,0-2.62,2Z" transform="translate(-779.78 -922.9)" fill="#484747"/><path d="M883.1,1068.76v6.14h-2.58v-5.82a1.86,1.86,0,0,0-2-2.06c-1.26,0-2.2.74-2.2,2.48v5.4h-2.58v-10h2.58V1066a3.4,3.4,0,0,1,3-1.4C881.44,1064.62,883.1,1066.1,883.1,1068.76Z" transform="translate(-779.78 -922.9)" fill="#484747"/><path d="M888.76,1067.38v4.16c0,1.08.78,1.1,2.26,1v2.34c-3.62.4-4.84-.66-4.84-3.36v-4.16h-1.74v-2.48h1.74v-2l2.58-.78v2.8H891v2.48Z" transform="translate(-779.78 -922.9)" fill="#484747"/><path d="M902.72,1064.9v10h-2.58v-1.18a4,4,0,0,1-3.26,1.46,5.3,5.3,0,0,1,0-10.56,4,4,0,0,1,3.26,1.46v-1.18Zm-2.58,5a2.77,2.77,0,1,0-2.78,2.82A2.69,2.69,0,0,0,900.14,1069.9Z" transform="translate(-779.78 -922.9)" fill="#484747"/><path d="M915.76,1069.9a5.06,5.06,0,0,1-4.88,5.28,3.89,3.89,0,0,1-3.24-1.46v1.18h-2.58v-14h2.58v5.18a3.89,3.89,0,0,1,3.24-1.46A5.06,5.06,0,0,1,915.76,1069.9Zm-2.58,0a2.77,2.77,0,1,0-2.78,2.82A2.69,2.69,0,0,0,913.18,1069.9Z" transform="translate(-779.78 -922.9)" fill="#484747"/><path d="M917.58,1060.3h2.58v14.6h-2.58Z" transform="translate(-779.78 -922.9)" fill="#484747"/><path d="M927.52,1072.84a2.77,2.77,0,0,0,2.24-1l2.08,1.2a5.06,5.06,0,0,1-4.36,2.14,5.28,5.28,0,1,1-.2-10.56,5.06,5.06,0,0,1,5.06,5.28,6,6,0,0,1-.1,1.06H924.7A2.63,2.63,0,0,0,927.52,1072.84Zm2.24-3.88a2.43,2.43,0,0,0-2.48-2,2.49,2.49,0,0,0-2.62,2Z" transform="translate(-779.78 -922.9)" fill="#484747"/><path d="M948.42,1064.9l-3.64,10c-1,2.88-2.74,4.14-5.28,4v-2.4a2.44,2.44,0,0,0,2.62-1.92l-4.1-9.68h2.82l2.6,6.72,2.22-6.72Z" transform="translate(-779.78 -922.9)" fill="#484747"/><path d="M954.12,1067.9a7.27,7.27,0,1,1,7.26,7.28A7.2,7.2,0,0,1,954.12,1067.9Zm11.78,0a4.52,4.52,0,1,0-4.52,4.58A4.44,4.44,0,0,0,965.9,1067.9Z" transform="translate(-779.78 -922.9)" fill="#484747"/><path d="M976.1,1064.7v2.88a2.5,2.5,0,0,0-3,2.54v4.78h-2.58v-10h2.58v1.72A3.08,3.08,0,0,1,976.1,1064.7Z" transform="translate(-779.78 -922.9)" fill="#484747"/><path d="M987.38,1060.9v14H984.8v-1.18a3.89,3.89,0,0,1-3.24,1.46,5.3,5.3,0,0,1,0-10.56,3.89,3.89,0,0,1,3.24,1.46v-5.18Zm-2.58,9a2.77,2.77,0,1,0-2.76,2.82A2.68,2.68,0,0,0,984.8,1069.9Z" transform="translate(-779.78 -922.9)" fill="#484747"/><path d="M994.74,1072.84a2.77,2.77,0,0,0,2.24-1l2.08,1.2a5.06,5.06,0,0,1-4.36,2.14,5.28,5.28,0,1,1-.2-10.56,5.06,5.06,0,0,1,5.06,5.28,6,6,0,0,1-.1,1.06h-7.54A2.63,2.63,0,0,0,994.74,1072.84ZM997,1069a2.43,2.43,0,0,0-2.48-2,2.49,2.49,0,0,0-2.62,2Z" transform="translate(-779.78 -922.9)" fill="#484747"/><path d="M1010.7,1068.76v6.14h-2.58v-5.82a1.86,1.86,0,0,0-2-2.06c-1.26,0-2.2.74-2.2,2.48v5.4h-2.58v-10h2.58V1066a3.4,3.4,0,0,1,3-1.4C1009,1064.62,1010.7,1066.1,1010.7,1068.76Z" transform="translate(-779.78 -922.9)" fill="#484747"/><path d="M1023.08,1064.9v10h-2.58v-1.18a4,4,0,0,1-3.26,1.46,5.3,5.3,0,0,1,0-10.56,4,4,0,0,1,3.26,1.46v-1.18Zm-2.58,5a2.77,2.77,0,1,0-2.78,2.82A2.69,2.69,0,0,0,1020.5,1069.9Z" transform="translate(-779.78 -922.9)" fill="#484747"/><path d="M1040.26,1068.74v6.16h-2.58v-6c0-1.18-.6-1.9-1.68-1.9s-1.86.76-1.86,2.26v5.62h-2.58v-6c0-1.18-.6-1.9-1.68-1.9s-1.88.76-1.88,2.26v5.62h-2.58v-10H1028V1066a3.16,3.16,0,0,1,2.78-1.34,3,3,0,0,1,2.72,1.44,3.43,3.43,0,0,1,3-1.44C1038.76,1064.62,1040.26,1066.24,1040.26,1068.74Z" transform="translate(-779.78 -922.9)" fill="#484747"/><path d="M1042.16,1062.12a1.59,1.59,0,1,1,1.58,1.58A1.6,1.6,0,0,1,1042.16,1062.12Zm.3,2.78H1045v10h-2.58Z" transform="translate(-779.78 -922.9)" fill="#484747"/><path d="M1052.4,1072.84a2.77,2.77,0,0,0,2.24-1l2.08,1.2a5.06,5.06,0,0,1-4.36,2.14,5.28,5.28,0,1,1-.2-10.56,5.06,5.06,0,0,1,5.06,5.28,6,6,0,0,1-.1,1.06h-7.54A2.63,2.63,0,0,0,1052.4,1072.84Zm2.24-3.88a2.43,2.43,0,0,0-2.48-2,2.49,2.49,0,0,0-2.62,2Z" transform="translate(-779.78 -922.9)" fill="#484747"/><path d="M1068.36,1068.76v6.14h-2.58v-5.82a1.86,1.86,0,0,0-2-2.06c-1.26,0-2.2.74-2.2,2.48v5.4H1059v-10h2.58V1066a3.4,3.4,0,0,1,3-1.4C1066.7,1064.62,1068.36,1066.1,1068.36,1068.76Z" transform="translate(-779.78 -922.9)" fill="#484747"/><path d="M1074,1067.38v4.16c0,1.08.78,1.1,2.26,1v2.34c-3.62.4-4.84-.66-4.84-3.36v-4.16h-1.74v-2.48h1.74v-2l2.58-.78v2.8h2.26v2.48Z" transform="translate(-779.78 -922.9)" fill="#484747"/><path d="M1077.28,1069.9a5.29,5.29,0,1,1,5.28,5.28A5.22,5.22,0,0,1,1077.28,1069.9Zm8,0a2.71,2.71,0,1,0-2.72,2.76A2.66,2.66,0,0,0,1085.28,1069.9Z" transform="translate(-779.78 -922.9)" fill="#484747"/><path d="M1104.06,1063.54h-3.78v11.36h-2.76v-11.36h-3.76v-2.64h10.3Z" transform="translate(-779.78 -922.9)" fill="#484747"/><path d="M1108.66,1072.84a2.77,2.77,0,0,0,2.24-1l2.08,1.2a5.06,5.06,0,0,1-4.36,2.14,5.28,5.28,0,1,1-.2-10.56,5.06,5.06,0,0,1,5.06,5.28,6,6,0,0,1-.1,1.06h-7.54A2.63,2.63,0,0,0,1108.66,1072.84Zm2.24-3.88a2.43,2.43,0,0,0-2.48-2,2.49,2.49,0,0,0-2.62,2Z" transform="translate(-779.78 -922.9)" fill="#484747"/><path d="M1120.9,1064.7v2.88a2.5,2.5,0,0,0-3,2.54v4.78h-2.58v-10h2.58v1.72A3.08,3.08,0,0,1,1120.9,1064.7Z" transform="translate(-779.78 -922.9)" fill="#484747"/><path d="M1128,1064.7v2.88a2.5,2.5,0,0,0-3,2.54v4.78h-2.58v-10H1125v1.72A3.08,3.08,0,0,1,1128,1064.7Z" transform="translate(-779.78 -922.9)" fill="#484747"/><path d="M1129.22,1062.12a1.59,1.59,0,1,1,1.58,1.58A1.6,1.6,0,0,1,1129.22,1062.12Zm.3,2.78h2.58v10h-2.58Z" transform="translate(-779.78 -922.9)" fill="#484747"/><path d="M1137.92,1067.38v4.16c0,1.08.78,1.1,2.26,1v2.34c-3.62.4-4.84-.66-4.84-3.36v-4.16h-1.74v-2.48h1.74v-2l2.58-.78v2.8h2.26v2.48Z" transform="translate(-779.78 -922.9)" fill="#484747"/><path d="M1141.18,1069.9a5.29,5.29,0,1,1,5.28,5.28A5.22,5.22,0,0,1,1141.18,1069.9Zm8,0a2.71,2.71,0,1,0-2.72,2.76A2.66,2.66,0,0,0,1149.18,1069.9Z" transform="translate(-779.78 -922.9)" fill="#484747"/><path d="M1159.2,1064.7v2.88a2.5,2.5,0,0,0-3,2.54v4.78h-2.58v-10h2.58v1.72A3.08,3.08,0,0,1,1159.2,1064.7Z" transform="translate(-779.78 -922.9)" fill="#484747"/><path d="M1160.4,1062.12a1.59,1.59,0,1,1,1.58,1.58A1.6,1.6,0,0,1,1160.4,1062.12Zm.3,2.78h2.58v10h-2.58Z" transform="translate(-779.78 -922.9)" fill="#484747"/><path d="M1175.82,1064.9v10h-2.58v-1.18a4,4,0,0,1-3.26,1.46,5.3,5.3,0,0,1,0-10.56,4,4,0,0,1,3.26,1.46v-1.18Zm-2.58,5a2.77,2.77,0,1,0-2.78,2.82A2.69,2.69,0,0,0,1173.24,1069.9Z" transform="translate(-779.78 -922.9)" fill="#484747"/><path d="M1178.16,1060.3h2.58v14.6h-2.58Z" transform="translate(-779.78 -922.9)" fill="#484747"/><line x1="0.5" y1="47.62" x2="0.5" y2="109.62" fill="#484747" stroke="#484747" stroke-miterlimit="10"/></svg>