<svg id="Capa_1" data-name="Capa 1" xmlns="http://www.w3.org/2000/svg" viewBox="0 0 1138.23 172.26"><polygon points="441.85 51.15 441.85 122.23 442.87 122.23 442.87 51.15 442.29 51.15 441.85 51.15" fill="#484747"/><polygon points="401.04 117.58 124.26 117.58 124.26 120.47 401.04 120.47 401.04 118.83 401.04 117.58" fill="#911635"/><path d="M537.36,935.13a13.32,13.32,0,0,0,2.6-1.27c1.12-.61,1.16-1.46.1-2.23-.68-.5-1.36-1-2-1.49a.81.81,0,0,1-.36-1c.41-1.87.78-3.74,1.15-5.61.12-.57.13-1.13-.46-1.47s-1.06-.07-1.51.32c-1,.81-1.91,1.61-3,2.55.14-.61.22-1,.31-1.35a1.2,1.2,0,0,0-.28-1.4,1.36,1.36,0,0,0-1.5-.08c-1.62.69-3.25,1.35-4.89,2a3.93,3.93,0,0,1-.83.23c-.53.08-.83-.09-.8-.7,0-.77,0-1.54,0-2.32a1.52,1.52,0,0,0-1.41-1.56,7.38,7.38,0,0,0-.94,0c-5.54,0-11.07,0-16.6,0-.69,0-.94-.2-.92-.9,0-1.79,0-3.58,0-5.37a1.56,1.56,0,0,0-1.65-1.71H465.87a1.5,1.5,0,0,0-1.57,1.69c0,1.69,0,3.38,0,5.07,0,1.21,0,1.21-1.21,1.21H446.27a1.69,1.69,0,0,0-1.94,1.89c0,.51,0,1,0,1.52,0,.76-.09.81-.8.53l-3.89-1.58a1.25,1.25,0,0,0-1.43.09,1.33,1.33,0,0,0-.26,1.41,2,2,0,0,1,.13,1.18c-1-.86-2-1.67-2.93-2.46a1.14,1.14,0,0,0-1.46-.22,1.19,1.19,0,0,0-.44,1.41c.39,1.82.74,3.65,1.14,5.46a1.09,1.09,0,0,1-.5,1.29c-.73.48-1.43,1-2.11,1.54a1.06,1.06,0,0,0,.05,1.87,13.29,13.29,0,0,0,2.56,1.34c.66.24.6.48.39,1-.72,1.67-1.4,3.34-2.09,5-.33.82-.21,1.36.47,1.66a.92.92,0,0,1,.59,1q0,5,0,10a1,1,0,0,1-.58,1,2.8,2.8,0,0,0-.13,5,1.31,1.31,0,0,1,.72,1.27q0,13.74,0,27.48a1.2,1.2,0,0,1-.69,1.2,2.81,2.81,0,0,0,.06,5,1,1,0,0,1,.62,1.08q0,13.78,0,27.56a1,1,0,0,1-.58,1,2.8,2.8,0,0,0,0,5,1,1,0,0,1,.58,1q0,13.82,0,27.63a1.09,1.09,0,0,1-.62,1.09,2.82,2.82,0,0,0,0,5,1.1,1.1,0,0,1,.63,1.1,24.7,24.7,0,0,0,.1,3.33,8.18,8.18,0,0,0,7.95,7.16h4.86a.92.92,0,0,1,1,.55,2.65,2.65,0,0,0,2.6,1.62,2.68,2.68,0,0,0,2.57-1.67.74.74,0,0,1,.78-.5c.78,0,1.55,0,2.32,0,.53,0,.74.19.73.72,0,1,0,1.93,0,2.9a1.73,1.73,0,0,0,1.32,1.78,9.68,9.68,0,0,0,3.6,0,2.34,2.34,0,0,1,1.26,0l8.64,2.72a3.85,3.85,0,0,0,1.85.18c1.07-.16,2.16-.22,3.24-.34l5.54-.59a1.25,1.25,0,0,0,.73-2.2c-.21-.19-.4-.41-.62-.6-.5-.41-.36-.63.2-.79s.86-.31,1.29-.47a1.57,1.57,0,0,0,1.24-1.73c0-1.06,0-2.13,0-3.19a1.64,1.64,0,0,0-1.06-1.65c-.66-.3-1.3-.65-2-.92-.49-.21-.63-.34-.12-.73a18.59,18.59,0,0,0,1.58-1.5.91.91,0,0,0,.3-1,.94.94,0,0,0-.89-.62l-9.51-1a4.67,4.67,0,0,0-1.92.22c-3,1-6,1.88-9,2.82a1.61,1.61,0,0,1-.78.11,12.45,12.45,0,0,0-3.11-.06,1.79,1.79,0,0,0-1.83,2c0,.65,0,1.31,0,2,0,.47-.19.65-.65.64-.8,0-1.6,0-2.39,0a.79.79,0,0,1-.79-.5,2.77,2.77,0,0,0-2.58-1.68,2.73,2.73,0,0,0-2.59,1.66.8.8,0,0,1-.85.52c-1.64,0-3.28,0-4.92,0a6.8,6.8,0,0,1-6.55-5.54,23.42,23.42,0,0,1-.13-3.55,1.13,1.13,0,0,1,.63-1.16,2.8,2.8,0,0,0-.13-5.07c-.49-.27-.5-.64-.5-1.09,0-4.06,0-8.12,0-12.18,0-5.1,0-10.2,0-15.3,0-.44,0-.83.52-1.06a2.68,2.68,0,0,0,1.63-2.47,2.7,2.7,0,0,0-1.52-2.62,1.11,1.11,0,0,1-.63-1.16q0-13.67,0-27.34a1.21,1.21,0,0,1,.67-1.21,2.8,2.8,0,0,0,0-5,1.17,1.17,0,0,1-.65-1.22q0-13.7,0-27.41a1.24,1.24,0,0,1,.71-1.26c1.78-1,2.06-3.57.4-4.6a2.24,2.24,0,0,1-1.1-2.45,4.33,4.33,0,0,0,0-.72.91.91,0,0,1,.59-1q2.49-1.34,5-2.7c.9-.49.95-.48.94.53q-.06,7.32-.08,14.64c-.07,28.59,0,57.19,0,85.79a18.29,18.29,0,0,0,.11,2.09,12.15,12.15,0,0,0,9.73,10.56,96.19,96.19,0,0,0,11.61,1c3.11.21,6.21.42,9.29.91a38.28,38.28,0,0,1,12,3.8,3.09,3.09,0,0,0,3.16,0,29.59,29.59,0,0,1,5.49-2.25c5.28-1.63,10.76-2,16.23-2.31,3-.18,6-.32,9-.77a13.8,13.8,0,0,0,8.12-4.15,14.11,14.11,0,0,0,4-10.19q0-38.58,0-77.16,0-11,0-22c0-.89,0-.93.82-.51a41.55,41.55,0,0,0,3.84,2,2.79,2.79,0,0,1,2,3.43c-.08.47-.15.77-.61,1a2.8,2.8,0,0,0-.17,5,1.37,1.37,0,0,1,.77,1.44q0,13.59,0,27.19a1.26,1.26,0,0,1-.72,1.32,2.82,2.82,0,0,0,.12,5,.92.92,0,0,1,.59,1v27.63a1.62,1.62,0,0,0,0,.22.68.68,0,0,1-.47.72,2.67,2.67,0,0,0-1.68,2.57,2.7,2.7,0,0,0,1.63,2.61.87.87,0,0,1,.52.92q0,13.88,0,27.77a.91.91,0,0,1-.58,1,2.67,2.67,0,0,0-1.59,2.57,2.6,2.6,0,0,0,1.62,2.53.8.8,0,0,1,.54.89c0,.87,0,1.74,0,2.61a6.8,6.8,0,0,1-5.68,6.57,48.53,48.53,0,0,1-6.15.13c-.39,0-.54-.25-.68-.55a2.87,2.87,0,0,0-5.19.08.7.7,0,0,1-.72.48c-.85,0-1.69,0-2.54,0-.43,0-.6-.2-.6-.62,0-.8,0-1.59,0-2.39a1.7,1.7,0,0,0-1.52-1.82,8.74,8.74,0,0,0-3.38.1,2,2,0,0,1-1.2,0c-2.83-.89-5.67-1.77-8.5-2.68a5.36,5.36,0,0,0-2.28-.21l-5.33.55c-1.06.12-2.11.21-3.17.34a1.27,1.27,0,0,0-.73,2.25c.25.23.48.48.73.71s.3.45-.12.58-1,.39-1.57.56a1.67,1.67,0,0,0-1.24,1.75c0,.89,0,1.79,0,2.68a2.13,2.13,0,0,0,1.53,2.34,11.63,11.63,0,0,1,1.84.85c-.49.6-1,1.23-1.5,1.82-.33.37-.7.7-.49,1.26s.71.61,1.19.66c2.83.31,5.67.57,8.49.9a7.4,7.4,0,0,0,3.2-.35c2.77-.92,5.57-1.76,8.36-2.63a1.62,1.62,0,0,1,.71-.13,20.87,20.87,0,0,0,3,.06c1.39,0,2-.64,2-2.05,0-.77,0-1.55,0-2.32,0-.61.17-.89.82-.85a18.39,18.39,0,0,0,2.1,0,.94.94,0,0,1,1,.61,2.66,2.66,0,0,0,2.5,1.57,2.62,2.62,0,0,0,2.58-1.54,1,1,0,0,1,1.07-.64c1.55,0,3.1,0,4.64,0a8.09,8.09,0,0,0,8.2-8.17c0-.75,0-1.5,0-2.25a1.1,1.1,0,0,1,.7-1.18,2.85,2.85,0,0,0,0-5,1.12,1.12,0,0,1-.69-1.18q0-13.67,0-27.34a1.2,1.2,0,0,1,.72-1.25,2.85,2.85,0,0,0,0-5,1.1,1.1,0,0,1-.68-1.19q0-13.64,0-27.27a1.17,1.17,0,0,1,.72-1.24,2.63,2.63,0,0,0,1.47-2.48,2.59,2.59,0,0,0-1.46-2.49,1.22,1.22,0,0,1-.73-1.3c0-7.52,0-15,0-22.56,0-1.64,0-3.29,0-4.93,0-.41,0-.75.49-.94a2.67,2.67,0,0,0,1.69-2.56,2.74,2.74,0,0,0-1.67-2.66.79.79,0,0,1-.51-.78c0-3.48,0-7,0-10.45a.62.62,0,0,1,.28-.61c1.15-.7,1.19-.9.67-2.14-.69-1.64-1.36-3.3-2-5-.1-.23-.29-.48.16-.6m-55.9,140.06c.11-.35-.29-1.06.55-1.07s.48.74.57,1.17a3.47,3.47,0,0,1,0,.72c0,.41-.25.52-.61.51s-.51-.2-.51-.54v-.79m-17-4.68c2.51-.8,5-1.56,7.53-2.38a4.64,4.64,0,0,1,1.93,0c2.36.21,4.71.47,7.06.72.14,0,.31,0,.38.14s-.09.3-.2.42a.89.89,0,0,1-.93.21c-1.59-.29-3.19-.55-4.78-.86a2.17,2.17,0,0,0-1.46.21c-3.42,1.7-6.84,3.38-10.27,5.07-.87.43-.87.43-.87-.56v-.8c0-1.68,0-1.68,1.61-2.19m15.36,1a.88.88,0,0,1,.84,1c0,.41,0,.77-.61.74-.77,0-.43-.64-.57-1,.17-.26-.2-.8.34-.77m.81,3.81c0,.26,0,.53,0,.79s-.23.4-.5.4-.57,0-.59-.38c0-.54,0-1.07,0-1.6,0-.34.23-.44.54-.44s.53.09.56.43,0,.53,0,.8m-1.1,3.12c0-.19,0-.39,0-.58s.08-.38.31-.42.49-.09.69.11a1.69,1.69,0,0,1-.26,1.76c-.54.28-.73.17-.75-.44,0-.14,0-.29,0-.43Zm-2,.88a3.74,3.74,0,0,1,0-.58h0V1078c0-.42.22-.54.59-.54s.53.18.52.54,0,.91,0,1.37-.31.66-.74.68-.34-.41-.38-.68m.57-2.82c-.87,0-.49-.69-.57-1.12a4.33,4.33,0,0,1,0-.72c0-.38.14-.57.55-.57s.58.16.56.55v.79c-.13.34.33,1.07-.54,1.07m-.57-4.57c0-.22,0-.44,0-.65s-.08-.61.3-.63.73.1.77.51a13.5,13.5,0,0,1,0,1.8c0,.32-.29.34-.54.34s-.51,0-.53-.36,0-.68,0-1h0M475.6,1078c0-.32,0-.58.42-.58s.62.09.63.51c0,.63,0,1.26,0,1.88,0,.42-.31.52-.63.55s-.37-.3-.39-.55,0-.68-.06-1h.05c0-.27,0-.53,0-.8m.46-1.47c-.41,0-.54-.23-.54-.6s0-.82,0-1.23.21-.61.63-.6.5.29.5.64v1.15c0,.41-.14.64-.59.64m-.54-4.76v-.94c0-.3.11-.52.46-.52s.64.1.65.51c0,.67,0,1.34,0,2,0,.32-.18.47-.5.47s-.59-.08-.6-.46,0-.72,0-1.08Zm-.78,4.24c0,.37-.19.52-.54.52s-.58-.11-.58-.48,0-1,0-1.44.2-.51.55-.51.59.14.58.54c0,.24,0,.48,0,.72h0v.65m-.56-2.69c-.4,0-.58-.18-.57-.57s0-1.07,0-1.6.38-.63.75-.75.35.1.36.32,0,.72,0,1.08h0c0,.32,0,.63,0,1s-.16.57-.56.57m-.54,4.48c0-.36.31-.37.58-.37s.49.07.5.38,0,.77,0,1.15h0a4.7,4.7,0,0,1,0,.65c0,.23.16.64-.22.64s-.83-.12-.87-.58a11.68,11.68,0,0,1,0-1.87m-.9-5.56c-.1.44.23,1.07-.6,1.08-.66,0-.54-.48-.55-.87,0-.61.43-1.19.88-1.09s.14.61.27.88m-.34,7a.83.83,0,0,1-.81-1c0-.38-.07-.8.53-.81.82,0,.54.6.62,1-.15.24.25.82-.34.8m-.81-4.54c0-.41.12-.64.57-.63s.58.25.57.64c0,.19,0,.39,0,.58h0c0,.26,0,.53,0,.79s-.27.41-.56.41-.53-.08-.54-.43,0-.91,0-1.36m-.78,1.29c0,.37-.2.51-.56.51s-.55-.14-.56-.51v-1.44a.45.45,0,0,1,.51-.48c.33,0,.59.1.6.47s0,1,0,1.45m-2-1.43v.72h0c0,.26,0,.52,0,.79s-.24.43-.54.42-.54-.07-.55-.42,0-1,0-1.51.21-.49.56-.49.55.11.55.49m-2,1.31c0,.44-.13.58-.55.36s-.91-.45-1.36-.68-.32-.33,0-.49l1.16-.58c.67-.32.73-.28.75.45v.43c0,.17,0,.34,0,.51m-3.91,1.22c0-.89.05-.92.83-.54,3.14,1.55,6.29,3.06,9.4,4.66a4.6,4.6,0,0,0,3.4.47c1.19-.3,2.42-.45,3.63-.67.83-.14.83-.14,1.48.67l-5.7.6c-.43,0-.87.06-1.3.15a8.32,8.32,0,0,1-4.46-.51c-2.11-.73-4.27-1.37-6.42-2-.63-.19-.94-.47-.87-1.17a15.31,15.31,0,0,0,0-1.66m-4.23-6.06q1.05,0,2.1,0c.54,0,.67.37.66.84v3.54c0,1.2,0,2.41,0,3.62,0,.55-.24.79-.78.79h-1.95a.64.64,0,0,1-.72-.71v-7.31a.66.66,0,0,1,.68-.76m-8.46,2.47a1.49,1.49,0,0,1,0,3,1.49,1.49,0,0,1,0-3m41.06-4.67c2.56-.27,5.13-.53,7.69-.81a2.75,2.75,0,0,1,1.14.09c2.67.84,5.34,1.67,8,2.52,1.16.36,1.16.36,1.16,1.59v.51c0,1.78,0,1.78-1.62,1l-9.54-4.71a2.36,2.36,0,0,0-1.59-.24c-1.52.3-3,.56-4.56.83a2.13,2.13,0,0,1-.71,0c-.3-.05-.61-.27-.61-.54s.41-.23.64-.26m16.1,6.65a4.48,4.48,0,0,1-.58.29c-.49.17-1.07.83-1.4.5s-.11-1.19-.13-1.81c0-.17.07-.28.35-.22.55.27,1.18.58,1.8.91.18.1.11.24,0,.33m-3-.2v.72a.44.44,0,0,1-.5.47c-.32,0-.51-.14-.51-.46,0-.48,0-1,0-1.44s.18-.52.54-.51a.45.45,0,0,1,.48.5v.72m-1.91.58c0,.41-.13.63-.58.62s-.56-.27-.55-.65c0-.2,0-.39,0-.58h0v-.72c0-.38.24-.47.58-.47s.54.14.54.5,0,.87,0,1.3m-3.16,2.54c.08-.43-.19-1,.58-1s.57.45.57.85c0,.58-.41,1.12-.84,1s-.18-.59-.31-.86m1.15-2.46c0,.41-.22.54-.6.54s-.53-.16-.53-.52,0-.82,0-1.22.08-.7.59-.69.55.29.54.67v.5h0c0,.24,0,.48,0,.72m-.54-2.78c-.83,0-.5-.63-.63-1,.17-.25-.2-.8.31-.78a.88.88,0,0,1,.87,1c0,.38,0,.8-.55.8m-2.5,5.69h0v-.94c0-.41.24-.54.61-.53s.52.2.52.55,0,1,0,1.52a.59.59,0,0,1-.13.39c-.23.22-.51.46-.82.37s-.14-.41-.16-.64,0-.48,0-.72m1.13-3.54h0c0,.24,0,.48,0,.72s-.22.44-.52.45-.58-.08-.59-.46,0-1,0-1.44.24-.53.61-.52.52.18.52.53,0,.48,0,.72m0-2.57c0,.34-.25.42-.55.42s-.53-.1-.55-.43,0-.72,0-1.08h0a3.74,3.74,0,0,1,0-.58c0-.25-.15-.68.29-.66a.74.74,0,0,1,.8.6,14.24,14.24,0,0,1,0,1.73m-3.12,1.83c0-.37.19-.51.54-.51s.57.09.57.47,0,1,0,1.44-.19.5-.54.51-.59-.15-.58-.55c0-.24,0-.48,0-.72h0c0-.21,0-.43,0-.64m0,3.28c0-.39.25-.48.58-.47s.51.12.52.46v1h0c0,.32,0,.63,0,.94s0,.59-.39.54-.72,0-.72-.53q0-1,0-1.95m1.1-6.2v1c0,.36-.2.5-.55.5s-.55-.12-.55-.49c0-.6,0-1.21,0-1.81s.33-.57.72-.6.38.32.4.59,0,.53,0,.8Zm-3.12,3.66a3.46,3.46,0,0,1,0-.72c0-.34.15-.53.52-.53s.61.1.61.52v.8c-.12.35.33,1.11-.6,1.09s-.43-.74-.52-1.16m0-4c0-.52.28-.68.71-.7s.4.37.42.66,0,.39,0,.58v.64c0,.39-.09.66-.55.67s-.59-.23-.58-.63,0-.82,0-1.22m0,6.44c0-.31.25-.38.51-.38s.55.06.57.41,0,.58,0,.87h0c0,.22,0,.43,0,.65s0,.63-.41.62-.66-.13-.68-.51a13.14,13.14,0,0,1,0-1.66m-1.09,1.37c-.49.06-.85-.42-.85-1,0-.39,0-.73.56-.72.78,0,.51.59.59,1-.12.22.2.67-.3.73m-.34-6a.61.61,0,0,1-.33-.1c-.37-.27-.2-1.57.22-1.77.57-.28.72-.19.73.43,0,.12,0,.24,0,.42-.08.37.25,1-.62,1m.08.89c.53,0,.55.35.54.73v1.08c0,.41-.13.63-.58.63s-.56-.27-.55-.66,0-.72,0-1.08.08-.7.59-.7m-1.49,1.22c0,.27,0,.53,0,.79s-.26.42-.55.42-.54-.07-.55-.42,0-1,0-1.51.22-.49.56-.49.56.11.56.49v.72h0m18.09,4.52-8.64,2.71a5.58,5.58,0,0,1-2.3-.07c-2.25-.22-4.5-.47-6.76-.71a.33.33,0,0,1-.33-.17,1,1,0,0,1,1.14-.57c1.54.3,3.09.54,4.63.83a2.71,2.71,0,0,0,1.81-.25c3.43-1.72,6.88-3.41,10.32-5.1.72-.36.74-.35.74.47s0,1.35,0,2a.74.74,0,0,1-.61.84m5.42-1c0,.53-.27.73-.77.72s-1.16,0-1.74,0-1-.25-1-.94c0-1.16,0-2.32,0-3.48s0-2.27,0-3.4c0-.67.27-.92.91-.89s1.21,0,1.81,0,.75.22.75.74q0,3.63,0,7.25m7.74-2.35a1.49,1.49,0,0,1,.09-3,1.49,1.49,0,0,1-.09,3M537,923.68c.16-.13.3-.41.53-.28s.1.39.06.59c-.31,1.51-.66,3-.91,4.54-.13.8-.55,1-1.26,1.06-1.66.08-3.32.19-5,.28l-6.07.31v0h-.72c-.69,0-1-.32-.95-1,.06-.45.46-.38.74-.39,1.25-.09,2.5-.16,3.75-.18,1.06,0,2.12-.07,3.18-.15a2.27,2.27,0,0,0,.94-.34,47.86,47.86,0,0,0,5.69-4.45m-24.25,9.26-8.42-1.43c-.42-.08-.72-.21-.74-.72s.15-.79.7-.74H505v0l5.48.42c.36,0,.72,0,1.08,0s.46-.28.49-.59-.17-.42-.45-.45c-.52,0-1.05-.14-1.58-.14s-.63-.37-.63-.82.05-.76.61-.75a6.21,6.21,0,0,1,2.37.17,20.05,20.05,0,0,1,2.16,1.63c.09.06.05.32.06.49a1,1,0,0,0,.68,1,8,8,0,0,0,3.7.46,4.58,4.58,0,0,0,2.14-1c.15-.12.28-.43.51-.28s.17.38.19.59a7.4,7.4,0,0,1-1.52,5,3,3,0,0,1-4,1.33c-3.25-1.16-6.61-2-9.92-3a2.52,2.52,0,0,1-.74-.28c-.29-.2-.55-.53-.44-.85s.5-.14.77-.09l6.64,1.12c.38.06.66.09.74-.4s-.2-.62-.6-.68m3-3.25c0-.23.22-.29.41-.33l4.64-1.1c.14,0,.29-.07.4.07a.34.34,0,0,1,0,.46,3.93,3.93,0,0,1-3.06,1.66c-.54-.1-1.23-.22-1.91-.36-.21-.05-.46-.11-.44-.4m4.61,7.75c.27-.14.4.07.54.23,1.19,1.46,2.38,2.91,3.56,4.38a2,2,0,0,1-.14,1.82.48.48,0,0,1-.26.09,1.06,1.06,0,0,1-.35-.05c-2.16-.44-2.16-.44-2.78-2.6-.31-1.09-.61-2.18-.88-3.14,0-.41.07-.61.31-.73m4.11,2.95a30.44,30.44,0,0,0-2.91-3.61c-.38-.44-.12-.67.07-1s.47-.21.73-.06l9,5.34c.34.2.48.38.07.68s-.79.63-1.19,1a1,1,0,0,1-.76.21c-1.66-.64-3.81-.53-5.06-2.51m6.63-.77q-4.1-2.43-8.22-4.85c-.3-.19-.6-.35-.34-.78a.33.33,0,0,1,.38-.21l.4.22q4.11,2.43,8.21,4.87c.23.14.7.21.48.65s-.55.32-.91.1m-4.63-14.19a4.1,4.1,0,0,0,1.55-.33c1.4-.59,2.8-1.16,4.21-1.74.22-.08.46-.28.68-.13s0,.45,0,.68a3.73,3.73,0,0,0-.12.56c0,1.44-1,2.17-2.08,2.77a1.39,1.39,0,0,1-.62.18l-7.08.3a1.29,1.29,0,0,1-1.07-.32,1.43,1.43,0,0,0-1.44-.19c-1.53.35-3.06.7-4.57,1.09a2.06,2.06,0,0,1-1.82-.43c1.26-.71,2.41-1.37,3.57-2a1.61,1.61,0,0,1,.63-.13l8.16-.3m-80.69-3.28c0-.92,0-.95.93-.95h16.81c1.62,0,2.13-.51,2.14-2.13s0-3.34,0-5c0-.62.17-.86.82-.86h37.33c.64,0,.83.24.82.86,0,1.66,0,3.33,0,5s.46,2.13,2.17,2.13H524c.36,0,.52.19.52.54q0,1.05,0,2.1a.5.5,0,0,1-.53.56c-.45,0-.91.09-1.37.1l-4.63.16a2.09,2.09,0,0,0-1,.33c-.78.44-1.56.87-2.32,1.34a2.63,2.63,0,0,1-1.45.38c-1.18,0-2.36,0-3.55,0-.91,0-1.2.31-1.23,1.22a3.23,3.23,0,0,0,0,.44c.09.72-.28.85-.91.79-1.18-.11-2.36-.2-3.54-.25s-1.45.38-1.47,1.42c0,.36,0,.73,0,1.09s.1.68.41.8c.82.31,1.1,1,1.43,1.74a2.07,2.07,0,0,0,1.4,1.14c4,1.14,7.93,2.3,11.9,3.45a1.14,1.14,0,0,0,.49.12c.89-.16,1.07.4,1.24,1.09.32,1.26.72,2.51,1.06,3.76a1.14,1.14,0,0,0,.9.94c1.22.22,2.37.88,3.68.59a.71.71,0,0,1,.41.1l3.12,1.69a.77.77,0,0,1,.45.76c0,3.75,0,7.49,0,11.24a.62.62,0,0,1-.06.19,2,2,0,0,1-.63-.65q-7.71-9.66-15.4-19.34a2.16,2.16,0,0,0-2.08-.89c-.69.07-1.39.13-2.09.18a2.92,2.92,0,0,0-1.64.84,23.12,23.12,0,0,0-5.24,6.87,2,2,0,0,1-2.08,1.15c-2-.11-4-.1-6-.17a2.41,2.41,0,0,0-2,.8,1.21,1.21,0,0,1-1.62.3c-.17-.09-.37-.13-.54-.22-1.6-.92-3.32-.62-5-.51a2.46,2.46,0,0,0-1.2.48c-.59.42-1.21.81-1.8,1.22a.81.81,0,0,1-1.25-.15,2.56,2.56,0,0,0-4.15.24c-.73,1-1.48,2-2.22,3-.56.76-.85.8-1.61.22l-9.06-7-2.7-2.09a2.51,2.51,0,0,0-2.11-.41,7.2,7.2,0,0,0-4.72,3.23c-3.27,4.52-6.71,8.92-10.08,13.36-.14.18-.22.44-.5.5-.17-.22-.1-.47-.1-.7,0-3.8,0-7.59,0-11.38,0-.63.13-1.08.76-1.31a2.44,2.44,0,0,0,.75-.43c1.5-1.25,3.39-1.12,5.14-1.44a2.4,2.4,0,0,0,2.25-2.12c.23-1.19.65-2.33,1-3.5.1-.38.22-.61.69-.48a1.73,1.73,0,0,0,1-.15c3.8-1.1,7.6-2.24,11.41-3.3a2.71,2.71,0,0,0,2-1.63,2,2,0,0,1,1.1-1.27.9.9,0,0,0,.53-.89v-1c0-1.19-.38-1.56-1.58-1.51s-2.22.13-3.32.23c-.8.07-.89,0-.91-.77,0-1.4-.31-1.67-1.67-1.66-.67,0-1.35,0-2,0a4.6,4.6,0,0,1-3.48-.9c-1.52-1.23-3.35-1.2-5.15-1.27-1.64-.06-3.28-.13-4.92-.15-.58,0-.78-.24-.75-.79s0-1,0-1.45m53.58,34.78a6.14,6.14,0,0,0-3.16-1.13,14.73,14.73,0,0,1-7.55-2.86,6.8,6.8,0,0,0-4.3-.87,1.56,1.56,0,0,0-.79.34c-.87.56-1.79,1.06-2.62,1.69a31.33,31.33,0,0,1-8.58,4.13,5.46,5.46,0,0,0-.67.26A16.85,16.85,0,0,1,464,960c-6-.13-11.94,0-17.91-.05-.27,0-.65.16-.79-.14s.21-.46.36-.67c3.41-4.5,6.84-9,10.23-13.52a3.53,3.53,0,0,1,1.7-1,2.77,2.77,0,0,1,3.26.6c1.61,1.39,3.34,2.63,5,3.94a.62.62,0,0,1,.34.49h-6.12c-.5,0-.69.21-.68.7s.23.63.67.63c2,0,4,.08,6,0a4.69,4.69,0,0,1,3.81,1.3,18.2,18.2,0,0,0,1.88,1.47,2,2,0,0,0,3-.41c.82-1.08,1.59-2.19,2.4-3.27a1.25,1.25,0,0,1,2.2-.07,1.94,1.94,0,0,0,2.54.46c.57-.33,1.1-.71,1.64-1.08,1.43-1,3-.81,4.59-.52a10.39,10.39,0,0,1,1.76.66,2,2,0,0,0,2.35-.39,2.45,2.45,0,0,1,2.23-.72c2,.21,4.1.1,6.15.13a3.06,3.06,0,0,1,1.26.29c4.32,2.05,8.64,4.08,13,6.14.45.21.78.3,1.06-.26s-.06-.75-.49-.95c-4.08-1.93-8.16-3.89-12.25-5.8-.64-.3-.68-.57-.3-1.12a21.45,21.45,0,0,0,1.51-2.47,17.16,17.16,0,0,1,3.8-4.34c.6-.59,1.47-.31,2.22-.47a1.6,1.6,0,0,1,1.72.74c2.26,2.9,4.57,5.75,6.85,8.63.15.2.48.39.33.66s-.44.09-.68.09h-4.06c-.47,0-.79.11-.8.67s.32.67.79.66c1.81,0,3.62,0,5.43,0a1.22,1.22,0,0,1,1,.5c2.05,2.6,4.12,5.19,6.17,7.78.13.16.4.31.31.54s-.43.13-.65.17a2.8,2.8,0,0,1-.29,0c-7.13,0-14.26,0-21.39,0a3.29,3.29,0,0,1-1.83-.53c-1.33-.84-2.69-1.63-4-2.48m1.94,3H472.13l0-.13c.78-.29,1.54-.63,2.33-.88A27.27,27.27,0,0,0,482,955c.46-.31.94-.59,1.39-.91a3.65,3.65,0,0,1,4.26-.13c1.35.79,2.74,1.52,4.12,2.27a8.1,8.1,0,0,0,3.51.75c2.44.13,4.13,1.69,6,2.91M440.8,941l6-3.56c1-.56,1.9-1.14,2.86-1.7.23-.13.49-.39.75,0s.48.6.14,1c-1.32,1.6-2.63,3.22-3.94,4.83a.76.76,0,0,1-.21.19c-1.31.52-2.68.78-3.91,1.17a5.77,5.77,0,0,1-2.08-1.42c-.09-.34.22-.39.41-.5m-.84-1.56c-.1-.25.15-.32.31-.41q4.31-2.58,8.63-5.13c.16-.09.34-.27.52-.09a1,1,0,0,1,.2.38c0,.33-.22.43-.4.54L441,939.6a1.54,1.54,0,0,1-.46.19.56.56,0,0,1-.59-.34m11.46-8.66a4.52,4.52,0,0,0,3.18.67c.41-.06.81-.18,1.21-.23,1-.12,1.68-.48,1.71-1.59,0-.07,0-.17.07-.2.69-.41,1.21-1.11,1.85-1.47a4.64,4.64,0,0,1,2.78-.19c.52.06.34.55.37.89s-.09.6-.51.63-1.06.11-1.59.15c-.35,0-.54.17-.52.54a.47.47,0,0,0,.56.5l2.75-.19,4.47-.25c.38,0,.74,0,.76.52s-.07.82-.65.92c-2.84.46-5.67,1-8.5,1.44-.33.05-.71.07-.67.56s.29.63.78.54c2.21-.39,4.42-.76,6.64-1.13.26,0,.65-.26.77.07s-.17.65-.43.86a1.71,1.71,0,0,1-.59.24c-3.76,1.1-7.52,2.18-11.26,3.31a1.56,1.56,0,0,1-1.74-.45c-1.88-1.85-2.58-3.29-2.6-5.58,0-.36-.19-1,.12-1.17s.69.38,1,.61m-.61-2.35a.31.31,0,0,1,.42-.17l4.72,1.11a.37.37,0,0,1,.33.33c0,.26-.18.32-.37.36l-1.92.38a4.09,4.09,0,0,1-3.1-1.61.35.35,0,0,1-.08-.4M452,938.2c-.33,1.14-.64,2.28-1,3.41-.55,1.92-.73,2.08-2.74,2.32l-.15,0c-.24,0-.44-.05-.51-.31-.14-.54-.5-1.06,0-1.63,1-1.24,2-2.51,3.05-3.76.14-.17.27-.35.41-.51s.31-.49.64-.28a.59.59,0,0,1,.28.74m-12.39-14.93c1.07.46,2.18.82,3.21,1.34a10.4,10.4,0,0,0,4.55.93q3.12.11,6.22.17a2.36,2.36,0,0,1,1.16.33c.85.51,1.72,1,2.58,1.48.16.09.41.14.41.36s-.3.27-.47.38a1.28,1.28,0,0,1-1,.07c-1.52-.37-3.05-.72-4.58-1.08-.26-.06-.52-.1-.8-.15s-.43,0-.54.12c-.86.84-1.92.47-2.89.46-1.78,0-3.56-.17-5.34-.26a3.35,3.35,0,0,1-2.71-2.23c-.12-.49-.22-1-.35-1.48s0-.65.53-.44m-5.31.05.18-.09c1.22,1,2.45,2,3.65,3.07a19.67,19.67,0,0,0,2.73,1.91,4.77,4.77,0,0,0,2.4.37c1.74.1,3.48.12,5.21.2.86.05.94.22.76,1.05-.09.43-.31.44-.67.42l-9.18-.51-3-.18a.91.91,0,0,1-.95-.87c-.33-1.79-.72-3.58-1.09-5.37m-1.76,9.51c-.19-.09,0-.25.1-.33.8-.58,1.59-1.17,2.41-1.72.41-.27.9-.12,1.4-.14l12,.72c.3,0,.58,0,.61.45s-.21.55-.56.59c-1.68.2-3.35.41-5,.6-2.75.33-5.5.66-8.25,1-1.08.12-1.81-.7-2.68-1.13m1.14,8.63a38.92,38.92,0,0,0,1.69-4.21c.51-1.86,1.55-2.55,3.47-2.64,2.66-.11,5.3-.58,8-.77l-13,7.73-.14-.11m2.2,120.16a1.36,1.36,0,0,1-1.48,1.41,1.43,1.43,0,0,1-1.4-1.52,1.44,1.44,0,0,1,2.88.11m0-34.83a1.44,1.44,0,0,1-2.88.06,1.45,1.45,0,0,1,1.42-1.5,1.38,1.38,0,0,1,1.46,1.44m0-34.68a1.37,1.37,0,0,1-1.37,1.45,1.46,1.46,0,0,1-1.51-1.49,1.44,1.44,0,0,1,2.88,0m0-34.81a1.42,1.42,0,0,1-1.47,1.44,1.45,1.45,0,0,1-1.41-1.53,1.47,1.47,0,0,1,1.45-1.41,1.45,1.45,0,0,1,1.43,1.5m.05-7.62c-.74.39-.76.38-.76-.49,0-.56,0-1.12,0-1.67-.56-1.93.4-3,2.08-3.66a5.9,5.9,0,0,0,.69-.4.4.4,0,0,0,.18-.65c-.17-.27-.36-.46-.7-.26l-1.75,1c-.32.19-.46.13-.51-.27-.08-.78,0-1.42.86-1.8a18.82,18.82,0,0,0,2.25-1.31.61.61,0,0,1,.79,0c.3.23.25.45.11.75a1.09,1.09,0,0,0,.37,1.36,10.07,10.07,0,0,0,1,.81c.39.29.37.51,0,.75L438.6,945c-.33.18-.47.35-.24.73a.46.46,0,0,0,.76.18,2.8,2.8,0,0,0,.25-.14,17.52,17.52,0,0,1,6.31-2.62c.3-.07.61-.23.76.24s0,.61-.37.8c-3.38,1.82-6.75,3.66-10.12,5.49m93,98.38a12.74,12.74,0,0,1-11.35,13c-2.92.41-5.86.54-8.8.72-5.72.34-11.43.75-16.92,2.57a31.4,31.4,0,0,0-5,2.1,1.85,1.85,0,0,1-1.91,0,42.36,42.36,0,0,0-14.81-4.28c-4-.48-8-.65-12-.88a60,60,0,0,1-6.12-.58,10.9,10.9,0,0,1-9.08-9.52,21,21,0,0,1-.11-2.24q0-38.91,0-77.8c0-2.7.1-5.41.13-8.11a1.75,1.75,0,0,1,1.8-1.75l23.19,0,58.78,0h.43c1.32,0,1.72.42,1.72,1.75q0,21.47,0,42.92h0v42.13m5.17-104.5c.71.42,1.41.85,2.13,1.23A1.12,1.12,0,0,1,537,946c0,1.18,0,2.37,0,3.55,0,.54-.14.65-.62.38l-8.71-4.75c-.53-.29-1.05-.59-1.59-.87a.65.65,0,0,1-.37-.94c.2-.47.53-.21.8-.15a16.56,16.56,0,0,1,6,2.51,5,5,0,0,0,.51.27c.31.18.48,0,.64-.22s.16-.5-.13-.67c-.66-.39-1.33-.79-2-1.17-.37-.21-.43-.41-.06-.69s.76-.6,1.12-.92a1,1,0,0,0,.35-1.41.49.49,0,0,1,.15-.69.52.52,0,0,1,.71,0c.91.55,1.82,1.11,2.74,1.63.51.28.52.71.47,1.28,0,.17.17.54-.13.7s-.47-.16-.7-.29c-.48-.27-1-.54-1.44-.84s-.58-.27-.83.14,0,.61.33.78m5,118a1.47,1.47,0,1,1-1.47-1.45,1.41,1.41,0,0,1,1.47,1.45m0-34.77a1.4,1.4,0,0,1-1.5,1.42,1.45,1.45,0,1,1,0-2.89,1.51,1.51,0,0,1,1.48,1.47m0-34.66a1.45,1.45,0,0,1-1.47,1.4,1.45,1.45,0,1,1,0-2.89,1.41,1.41,0,0,1,1.43,1.49m0-34.88a1.5,1.5,0,0,1-1.42,1.46,1.48,1.48,0,0,1-1.52-1.43,1.55,1.55,0,0,1,1.46-1.51,1.48,1.48,0,0,1,1.48,1.48m-.76-15.86-.13.14q-6.5-3.84-13-7.69l0-.14,6.44.75,3.23.38c.37,0,.72.08.89.49.83,2,1.67,4,2.5,6.07m-2.78-7.55c-3.82-.58-7.66-.94-11.49-1.39-.2,0-.38-.07-.58-.09s-.6-.15-.57-.57.36-.44.68-.46l10.25-.59a9.24,9.24,0,0,1,1.83-.1,2.25,2.25,0,0,1,2.09.64c.46.39,1,.73,1.46,1.08s.45.4,0,.65a5.53,5.53,0,0,1-3.67.83" transform="translate(-431.24 -911.77)" fill="#484747"/><path d="M526.08,967.91a2.29,2.29,0,0,0-2.69-2.24,3.77,3.77,0,0,1-1,0c-12.44-.09-24.88,0-37.32-.1-12.17-.16-24.35,0-36.53,0a4.13,4.13,0,0,0-.5,0,2.38,2.38,0,0,0-2.15,2,9.15,9.15,0,0,0-.1,1.38c0,2.41,0,4.83,0,7.25q0,34.75,0,69.53a12,12,0,0,0,1.41,6c2.23,3.91,5.74,5.6,10.1,5.92,3.7.27,7.42.33,11.13.54,5.69.33,11.23,1.2,16.35,3.93a2.44,2.44,0,0,0,2.36,0c.58-.3,1.17-.58,1.76-.85,4.66-2.08,9.62-2.62,14.63-2.89,3.51-.18,7-.23,10.55-.58a12.93,12.93,0,0,0,12-13.22V968.78c0-.29,0-.58,0-.87m-11.58,88.47c-2.85.34-5.72.43-8.59.55-4.83.19-9.65.47-14.32,1.9a25.74,25.74,0,0,0-4.69,1.9,1.87,1.87,0,0,1-1.91,0,34.24,34.24,0,0,0-11.05-3.34c-3.52-.48-7.06-.63-10.61-.76A52.34,52.34,0,0,1,455,1056a9.64,9.64,0,0,1-7.81-9.5q0-19.4,0-38.79V968.89c0-.29,0-.58,0-.87a.93.93,0,0,1,1-1h.8c12,0,23.92.11,35.88,0,12.44-.14,24.88,0,37.32-.09h.8c1.3,0,1.61.34,1.61,1.63,0,25.45,0,50.9,0,76.35a11.61,11.61,0,0,1-10.18,11.49" transform="translate(-431.24 -911.77)" fill="#484747"/><path d="M470.53,924.27a4.53,4.53,0,0,0-.28.59c-.8,2-.08,3.38,2,3.87a3,3,0,0,0,.43.1c.63.06.68.34.4.86a4.59,4.59,0,0,0-.11,4.39.81.81,0,0,1,0,.87,2.1,2.1,0,0,0,.27,2.67,3.08,3.08,0,0,1,.88,1.52,1.28,1.28,0,0,0,1.44,1.06,1.32,1.32,0,0,1,1.41.54.91.91,0,0,0,.79.31,2,2,0,0,1,1.84.49,1,1,0,0,0,.84.11c.53-.12,1,.18,1.41.26a16.07,16.07,0,0,0,3.85.37c.21,0,.4-.15.63,0a2,2,0,0,0,1.81-.11.75.75,0,0,1,.62-.09,2,2,0,0,0,2-.35.49.49,0,0,1,.48-.09c1.38.38,2.42-1,3.78-.72.1,0,.27-.13.34-.24a.79.79,0,0,1,1-.42c1.1,0,1.64-.33,1.81-1.32a1.86,1.86,0,0,1,.63-1.08,2.11,2.11,0,0,0,.4-2.92.63.63,0,0,1,0-.72,4.78,4.78,0,0,0,0-4.4c-.38-.8-.38-.8.5-1l.43-.08c2.2-.49,2.38-2.05,1.84-3.78a2.35,2.35,0,0,0-.25-.53,1.75,1.75,0,0,1,.25-2.34c1.23-1.51.67-2.89-1.26-3.25a8.08,8.08,0,0,0-.86-.08,1,1,0,0,1-.65-.24c-1.88-1.67-3.06-1.77-5.2-.45a.48.48,0,0,1-.73-.09,2.47,2.47,0,0,0-3.77-.06c-.26.27-.39.3-.69.05a3.71,3.71,0,0,0-5.24,0c-.3.23-.45.3-.76,0a2.36,2.36,0,0,0-3.64,0c-.36.38-.54.42-1,.08a3.44,3.44,0,0,0-4.41,0,3.5,3.5,0,0,1-2,.89c-2.13.27-2.69,1.71-1.32,3.34a1.62,1.62,0,0,1,.23,2.11m17.09,5.94c.33.3.69.6,1,.9.1.1.23.21.17.37s-.23.16-.37.16H483.6c-.14,0-.32,0-.38-.13s.08-.32.2-.43c.39-.36.81-.69,1.19-1.06a1.39,1.39,0,0,0,.35-1.89,1.78,1.78,0,0,0-1.79-1.1,5.11,5.11,0,0,0-1.4.33,1.53,1.53,0,0,1-1.84-.4,19.5,19.5,0,0,1,12.2,0,1.35,1.35,0,0,1-1.51.5,10.68,10.68,0,0,0-1.4-.38,1.8,1.8,0,0,0-2.1,1,1.62,1.62,0,0,0,.5,2.13m-7.44-1.89a1.23,1.23,0,0,0,1.08.19,11.25,11.25,0,0,1,1.81-.49,1,1,0,0,1,1,.51c.2.44-.05.75-.36,1a6.58,6.58,0,0,0-1.8,2,.83.83,0,0,1-.83.33c-.33,0-.26-.37-.32-.58a3.15,3.15,0,0,0-3.94-2.34,3.21,3.21,0,0,0-1.93,4.18c.1.29.41.62-.16.8s-.83.18-1-.39a3.81,3.81,0,0,1-.27-1.56A4.32,4.32,0,0,1,476,928a3.76,3.76,0,0,1,4.17.29M479,932.85c-.49.24-1,.47-1.48.74a1,1,0,0,1-1.45-.34,2.12,2.12,0,0,1-.21-2.31,1.79,1.79,0,0,1,1.82-1.17,2,2,0,0,1,1.91,1.08,1.3,1.3,0,0,1-.59,2M478,940c-.59,0-.69-.4-.73-.86-.05-.73.53-.7,1-.79s.42.31.45.6c0,.49,0,1-.69,1m3,0a.64.64,0,0,1-.66.7.6.6,0,0,1-.7-.57,11.22,11.22,0,0,1,0-2.09c.08-.55.68-.69,1.12-.9.22-.1.24.17.24.33,0,.44,0,.87,0,1.3V940m2.34-1.23v1.66c0,.42-.18.71-.64.72a.65.65,0,0,1-.75-.69c0-1.13,0-2.27,0-3.4,0-.52.44-.48.8-.5s.6.14.6.54v1.67m2.19,1.94c0,.36-.07.7-.53.7a.59.59,0,0,1-.63-.65c0-1.23,0-2.46,0-3.68,0-.37.21-.51.55-.51s.62.11.62.52v2h0v1.67m2.29-.08c0,.5-.22.79-.73.79s-.55-.37-.55-.76c0-.58,0-1.16,0-1.74s0-1.16,0-1.74.22-.63.67-.62.62.16.61.6c0,1.16,0,2.31,0,3.47m2.32-.16a.7.7,0,0,1-1.4,0c0-.58,0-1.15,0-1.73h0c0-.53,0-1.06,0-1.59s.2-.6.62-.59.79,0,.79.58c0,1.11,0,2.22,0,3.33m2.34-1.83a2.14,2.14,0,0,0,0,.44h0c0,.36,0,.72,0,1.08a.63.63,0,0,1-1.26,0c0-.89,0-1.78,0-2.67,0-.37.2-.38.47-.22.55.31,1,.64.84,1.39m1.69,1.38c-.68,0-.68-.46-.68-1,.06-.23-.14-.73.42-.64.4.06,1,0,1,.68,0,.44-.05.95-.71.95m4.15-3.21a2,2,0,0,1-1.67.87,6.54,6.54,0,0,1-4.15-1,6,6,0,0,0-3.69-1c-1.9.06-3.81,0-5.72,0a5.36,5.36,0,0,0-3.28.92,6.53,6.53,0,0,1-4.26,1.12,2.21,2.21,0,0,1-1.72-.81,1.12,1.12,0,0,1,.4-1.81,3.37,3.37,0,0,1,1.74-.26,4.47,4.47,0,0,0,2.72-.72,9.89,9.89,0,0,1,6.21-1.48c1.58.11,3.18,0,4.78,0a2.74,2.74,0,0,1,1.19.25c.7.33,1.42.62,2.09,1a6.38,6.38,0,0,0,3.87,1,1.84,1.84,0,0,1,1.11.27,1.13,1.13,0,0,1,.38,1.73m-6.12-5a2.1,2.1,0,0,1,2.2-2.1,1.82,1.82,0,0,1,1.84,1.25,2.25,2.25,0,0,1-.37,2.38.92.92,0,0,1-1.18.26l-2-1a.81.81,0,0,1-.48-.81m6.1,1.77a.52.52,0,0,1-.69.33c-.54-.12-.7-.27-.46-.86a3.18,3.18,0,0,0-1.79-4.17,3.13,3.13,0,0,0-4.06,2.42c0,.21,0,.49-.32.48s-.68,0-.84-.34a7.35,7.35,0,0,0-1.92-2,.67.67,0,0,1-.28-.82.84.84,0,0,1,.81-.6,5.91,5.91,0,0,1,1.9.44,1.33,1.33,0,0,0,1.29-.16,3.8,3.8,0,0,1,4.3-.2,4.49,4.49,0,0,1,2.46,3.76,4.06,4.06,0,0,1-.4,1.77m1.59-13.11c0-.25-.25-.63.19-.73a1.26,1.26,0,0,1,1.26.36.63.63,0,0,1,.12.85c-.22.35-.47.67-.71,1a2,2,0,0,0-.21,2.31,4.27,4.27,0,0,1,.62,2.05,1.18,1.18,0,0,1-.9,1.25c-.65.18-1.31.31-2,.47a.66.66,0,0,1-.54-.15c-1.58-1.25-3.53-1.48-5.39-2-1.18-.3-2.38-.54-3.72-.84a6.1,6.1,0,0,0,2.15-2c.24-.41.39,0,.5.14,1.13,1.91,4,2.52,6.13,1.55a4.32,4.32,0,0,0,2.47-4.31m-7.9,1.67c2.42,2,4.6,1.66,6.63-.65a2.87,2.87,0,0,1-2.72,2.66,3.46,3.46,0,0,1-3.91-2m1.88-2.39a2.69,2.69,0,0,1,2.37-1.61,2.61,2.61,0,0,1,2.39,1.58c.08.2.3.48,0,.63s-.45-.11-.58-.37a1.85,1.85,0,0,0-2.33-1.16,1.62,1.62,0,0,0-1.17,1.16c-.09.31-.26.5-.56.39s-.16-.41-.09-.62m3.06,1.74c-.74,1.21-2.71,1.24-3.92,0Zm-6.53-3.16a1.47,1.47,0,0,1,1.7,0,1.6,1.6,0,0,1,.62,1.61.5.5,0,0,1-.56.46h-.94a1.43,1.43,0,0,1-.29,0c-.42-.05-1,.21-1.13-.46a1.48,1.48,0,0,1,.6-1.61m-6.91,1.34a2.85,2.85,0,0,1,2.54-1.83,2.73,2.73,0,0,1,2.62,1.9c.06.21.26.49-.08.62s-.53-.06-.63-.39a1.83,1.83,0,0,0-1.7-1.44,1.77,1.77,0,0,0-2,1.37c-.1.32-.2.57-.58.47s-.26-.44-.17-.7m4.79,1.65c-1,1.26-3.44,1.32-4.14.18a21,21,0,0,1,4.14-.18m-5.62.43a4.4,4.4,0,0,0,6.7.15c.21-.21.39-.74.76-.46s0,.63-.15.93c-.6,1.33-2,2.11-4.33,2.11a3.82,3.82,0,0,1-3.41-2.11,3.37,3.37,0,0,1-.23-.6c-.05-.14-.09-.3.09-.38a.28.28,0,0,1,.32.09,3.2,3.2,0,0,1,.25.27M479.5,919a1.48,1.48,0,0,1,1.93-.78,1.58,1.58,0,0,1,.84,1.87.45.45,0,0,1-.48.34h-1.37c-1,0-1.34-.48-.92-1.44m.52,3.25c-.37,1.33-2,2.15-3.7,1.94-1.54-.18-2.87-1.23-2.78-2.67,2,2.17,4.12,2.43,6.48.73m-1.44-.9c.14,0,.32,0,.36.17s-.1.25-.21.34a3,3,0,0,1-3.75-.51h3.6m-5.16-1.5a2.73,2.73,0,0,1,2.48-1.68,2.63,2.63,0,0,1,2.36,1.73l.06.21c0,.31-.22.35-.46.26s-.17-.16-.23-.26c-1.12-1.85-2.55-1.86-3.59,0-.13.22-.28.34-.52.24s-.16-.32-.1-.51m-2.72.33a1.26,1.26,0,0,1,1.17-.43c.32,0,.37.2.37.49,0,1.91.42,3.65,2.34,4.52a5,5,0,0,0,5.45-.6,3.81,3.81,0,0,0,.87-1c.13-.2.29-.32.43,0a5.57,5.57,0,0,0,2.19,2c-1.39.31-2.57.55-3.73.83-1.92.47-3.9.76-5.52,2a.68.68,0,0,1-.62.08c-.52-.12-1-.22-1.55-.35a1.38,1.38,0,0,1-1.15-1.84,4.84,4.84,0,0,1,.57-1.48,2,2,0,0,0-.24-2.48l-.44-.58a.91.91,0,0,1-.14-1.13" transform="translate(-431.24 -911.77)" fill="#484747"/><path d="M517.89,1013.28H499a.53.53,0,0,1-.56-.53,21.19,21.19,0,0,1-.17-3.18.57.57,0,0,1,.53-.64c1.78-.28,2.72-1.88,1.61-3.82s-2.29-3.81-3.41-5.73a.56.56,0,0,0-.84-.26,11.14,11.14,0,0,1-2.27.73,7.45,7.45,0,0,1-6.29-1.06,1.9,1.9,0,0,1-.92-1.73c0-5.63,0-11.26,0-16.89,0-.25,0-.49,0-.73s-.16-.47-.49-.5c-.63-.07-.82.12-.82.93,0,5.41-.07,10.83,0,16.24a3.14,3.14,0,0,1-2,3.16,6.88,6.88,0,0,1-1.82.68,10,10,0,0,1-5.8-.78c-.43-.17-.74-.23-1,.26-1.11,1.92-2.3,3.8-3.38,5.74s-.36,3.23,1.62,3.73a.67.67,0,0,1,.59.75,22.7,22.7,0,0,1-.17,2.6c-.08,1-.14,1-1.15,1H453.79a.46.46,0,0,0-.5.49c-.07.66.09.82.91.82H472c1.06,0,1.05,0,.79,1.06-.3,1.22-.75,2.4-1,3.63a7,7,0,0,0,4.5,8.38,18.76,18.76,0,0,0,4.33,1.17l2.15.3a4.25,4.25,0,0,1,2.37,1.46c.43.44.21,1.06.22,1.6,0,3.07,0,6.14,0,9.21,0,3.33,0,6.67,0,10,0,.37-.07.8.49.89s.83-.09.83-.89v-19.66a2.35,2.35,0,0,1,1.89-2.49,5.62,5.62,0,0,1,.71-.16,30.31,30.31,0,0,0,4.62-.86,9.18,9.18,0,0,0,5-3.12c1.58-2.11,1.47-4.47.86-6.87-.21-.81-.49-1.62-.71-2.43-.33-1.22-.32-1.23.92-1.23h18.19c.51,0,.67-.27.66-.74,0-.69-.52-.57-.94-.57m-21.17,12.15a10.24,10.24,0,0,1-4.16,1.76c-1.16.24-2.33.41-3.5.58a4.7,4.7,0,0,0-2.7,1.27c-.33.32-.61.35-.93,0a5.53,5.53,0,0,0-3.62-1.43,15.48,15.48,0,0,1-5.95-1.69c-.32-.18-.61-.39-.91-.59-.12-.1-.35-.18-.27-.38s.28-.17.45-.18c3.69-.39,7.34-1.17,11.05-.85a47.58,47.58,0,0,1,10.4.81c.18,0,.45,0,.51.18s-.2.36-.37.49m-19.78-6.05c0-1,0-1.89,0-2.83,0-.52.25-.65.72-.66s.71.16.71.67c0,1.74,0,3.48,0,5.22a1.21,1.21,0,0,1-1.16.94c-.33-.06-.25-.32-.25-.52,0-.94,0-1.88,0-2.82m5.8,2c0,.54-.15.78-.74.79-2.32.06-2.32.08-2.32-2.24,0-1.5,0-3,0-4.49a.89.89,0,0,1,.86-1,4.91,4.91,0,0,1,.86,0c1.13,0,1.34.25,1.34,1.37v2.61c0,1,0,2,0,3m5.21.48h-.12c0-.94,0-1.89,0-2.83a1.85,1.85,0,0,0-1.83-1.92,1.83,1.83,0,0,0-1.77,1.89c0,.67,0,2.86,0,2.86h-.13c0-2.41,0-4.82,0-7.23a.51.51,0,0,1,.57-.58c.87,0,1.74,0,2.61,0,.54,0,.72.23.71.75,0,2.34,0,4.73,0,7.07m-1.32-.7c0,.38-.15.57-.55.57s-.59-.15-.59-.55c0-.72,0-1.44,0-2.15,0-.32.12-.58.49-.59a.56.56,0,0,1,.62.56Zm5.8-2.75c0,1,0,2.07,0,3.1,0,.46-.16.67-.63.65h-1.95c-.39,0-.57-.17-.57-.56v-6.37a.76.76,0,0,1,0-.21c.15-.52,1-.8,2.05-.64.56.08,1.09.22,1.08,1,0,1,0,2,0,3m2.74,3.5c0,.28.18.69-.3.77a1.05,1.05,0,0,1-1.09-.82c0-.91,0-1.83,0-2.75s0-1.64,0-2.46c0-.54.22-.72.74-.72s.69.2.68.7c0,.91,0,1.83,0,2.75s0,1.69,0,2.53m3.46.94c-.19.81-.65.85-1.33.76s-.94-.34-.93-1.06c.05-2.34,0-4.69,0-7,0-.7-.24-1-.92-.9-.31,0-.63,0-.94,0a1,1,0,0,1-.9-.43,3.71,3.71,0,0,0-3.58-1.08c-.35.06-.68.24-.91-.24-.09-.19-.39-.13-.61-.13h-5.07c-.14,0-.37,0-.42,0-.47.65-1.08.25-1.63.26a3.32,3.32,0,0,0-3.08,1.35.59.59,0,0,1-.58.23c-.45,0-.91,0-1.37,0s-.78.19-.77.76c0,1.23,0,2.46,0,3.69h0c0,1.24,0,2.47,0,3.7,0,.56-.23.77-.75.84-1.47.18-1.58.08-1.86-1.39a8.88,8.88,0,0,1,.48-4.28,26.06,26.06,0,0,0,1.41-8.54c0-.16,0-.33,0-.5-.12-1.22-.12-1.22-1.35-1.25s-1.58-.74-1-1.75c.93-1.67,2-3.28,2.92-4.93.25-.43.56-.24.87-.14a11,11,0,0,0,5.28.52,7.67,7.67,0,0,0,3.82-1.81.61.61,0,0,1,.93,0c2.55,2.17,5.45,2.35,8.53,1.5,1.5-.41,1.08-.61,1.93.76s1.61,2.69,2.4,4c.24.41.5.87.15,1.35a1.49,1.49,0,0,1-1.38.47c-.93,0-1,0-1,1a24.86,24.86,0,0,0,1.44,9.67,8.65,8.65,0,0,1,.26,4.57" transform="translate(-431.24 -911.77)" fill="#484747"/><path d="M453.3,989.82c0,.93.07,1,1,1h4.5c.18,0,.43-.08.53.11s-.12.39-.23.56c-.29.47-.7.19-1,.12-1.77-.38-1.77-.39-2.15,1.39s-.67,1.71,1.36,2.12c.5.1.7.34.9.85a1.63,1.63,0,0,1-.86,2.24,3.73,3.73,0,0,0-.46.35.4.4,0,0,0-.09.67c.55.67,1.09,1.35,1.63,2a.44.44,0,0,0,.73.08c.36-.3.72-.57,1.07-.87a.7.7,0,0,1,1-.08,1.13,1.13,0,0,0,.51.26c.73.13.87.58.86,1.25,0,1.72-.19,1.56,1.54,1.56,1.9,0,1.9,0,2-1.94,0-.29,0-.55.33-.73,1.43-.78,1.42-.79,2.72.23l.4.31c.28.25.51.19.73-.1l1.54-1.92a.54.54,0,0,0-.11-.87c-.39-.29-.76-.6-1.15-.89s-.32-.49-.28-.87a1.71,1.71,0,0,1,1.78-1.74,2.7,2.7,0,0,0,.56-.14.47.47,0,0,0,.38-.65c-.19-.8-.37-1.6-.55-2.4-.1-.44-.36-.52-.76-.42s-.94.24-1.41.33a.77.77,0,0,1-.91-.73c0-.47.48-.23.73-.23,1.45,0,2.9-.05,4.35,0,.7,0,.94-.26.92-.94,0-1,0-2,0-3,0-1.81,0-3.63,0-5.44,0-.29,0-.76-.48-.48-.75.4-.77,0-.8-.59-.13-2.41-.3-4.82-.42-7.23,0-.51-.24-.67-.72-.66-.84,0-1.69,0-2.53,0-.62,0-.84.2-.87.83-.13,2.68-.31,5.35-.48,8.24-.13-1.13-.6-.57-.91-.39s-.57.22-.6-.31c-.12-2.53-.29-5.06-.42-7.59,0-.54-.2-.81-.77-.77s-1.07,0-1.6,0c-1.9.06-1.69-.42-1.85,1.8-.21,3-.33,5.93-.5,8.89h-.1c0-.31,0-.62,0-.92s.22-1.07-.16-1.3-.81.27-1.2.48c-.77.43-.88.36-.93-.51-.14-2.6-.3-5.2-.43-7.81,0-.45-.22-.65-.67-.64-.87,0-1.74,0-2.61,0-.57,0-.8.17-.84.78-.2,3.66-.46,7.32-.67,11a1.15,1.15,0,0,1-.75,1.18,1.12,1.12,0,0,0-.73,1.26c0,1.09,0,2.17,0,3.26m17.27,2.81c1-.23,1-.19,1.2.74.1.45-.07.66-.47.69-1.22.1-2,.6-1.87,2a1.64,1.64,0,0,1-.07.28c-.4,1.3-.4,1.3.71,2.17a.91.91,0,0,1-.21,1.6.37.37,0,0,1-.4-.09l-.45-.35a4.1,4.1,0,0,0-1.11-.8c-.44-.12-.66.46-1,.66a3.57,3.57,0,0,1-1.23.41c-.42.05-.57.28-.56.68s0,.73,0,1.09c0,.56-.21.74-.76.79s-.88-.1-.82-.72c0-.2,0-.39,0-.58.09-.78-.05-1.31-1-1.33a1.56,1.56,0,0,1-1.21-.73c-.31-.45-.57-.4-.92-.06s-.56.45-.84.68-.67.58-1.11,0-.43-.92.17-1.27c.08-.05.15-.12.23-.18.91-.72.91-.72.49-1.79a2.35,2.35,0,0,1-.16-1.28c.1-.58-.17-.78-.69-.86a10.35,10.35,0,0,1-1.2-.27c-.6-.16-.4-.59-.33-1s.26-.7.73-.51c1.2.49,2.08.31,2.64-1,.35-.81,1.11-.89,2-.69a4.49,4.49,0,0,0-1,6.91,4.32,4.32,0,0,0,6.47-.31c1.76-2.08,1.14-4.75-1.55-6.7,1.25-.28,1.75,0,2.55,1.14.66,1,.66,1,1.84.7m-6.24-1.15a3.3,3.3,0,1,1,0,6.59,3.28,3.28,0,0,1-3.25-3.23,3.35,3.35,0,0,1,3.29-3.36m5.68-9.23c.15-2.7.28-5.39.44-8.09.05-.84.22-.89,1.52-.87.72,0,.72.42.75,1q.18,3.42.4,6.86a.88.88,0,0,1-.5,1c-.66.34-1.3.74-1.95,1.11s-.68.32-.69-.38v-.58h0m-6.1-8.35c0-.43.23-.57.63-.6,1.43-.11,1.58,0,1.65,1.42.09,1.93.2,3.86.31,6,.46,1-.29,1.51-1.21,1.95-.5.23-1,.55-1.44.83-.3.17-.51.2-.48-.26.18-3.1.37-6.21.54-9.32m-7.55.06c.05-.83.62-.62,1.06-.66,1.11,0,1.17.07,1.23,1.13.13,2.41.27,4.81.42,7.22a1,1,0,0,1-.55,1.05c-.77.4-1.52.85-2.27,1.28-.34.2-.47.14-.45-.27q.3-4.87.56-9.75m.05,11.11a37,37,0,0,0,4.08-2.34c.75-.43.76-.42.77.43s0,1.44,0,2.17.18.74.72.43q2.59-1.51,5.2-3c.2-.12.41-.38.63-.27s.12.44.12.66c0,.68,0,1.35,0,2s.11.74.7.4c1.67-1,3.35-1.91,5-2.89.51-.3.69-.3.68.36,0,1.93,0,3.87,0,5.8,0,.59-.19.8-.8.8-2.07,0-4.15,0-7.26,0s-7,.21-11,.14c-.94,0-.84,0-1-1a3.08,3.08,0,0,1,2.11-3.73" transform="translate(-431.24 -911.77)" fill="#484747"/><path d="M479.1,1047.16c-1.9-1.45-3.76-3-5.65-4.42a1.21,1.21,0,0,1-.56-1.1,4.64,4.64,0,0,0-.58-2.36,4.82,4.82,0,0,0-2-2.15,6.43,6.43,0,0,0-2.78-1.18c-.23,0-.36-.31-.5-.5l-4-5.22a4,4,0,0,1-.69-1.26,1.5,1.5,0,0,0-.8-1.07c-1.12-.47-1.43-1.59-2-2.46-.32-.48.34-.64.61-.9s.26-.13.39.07c.4.66,1.05.75,1.5.13a8,8,0,0,1,3.73-2.85c.19-.07.42-.25.6,0s0,.37-.09.54a12.73,12.73,0,0,0-.85,2.62,6.51,6.51,0,0,0,.69,4.49c.16.29.35.56.71.53s.54.22.7.5a10.27,10.27,0,0,0,2.92,3.46,7.46,7.46,0,0,1,3.24,4.63c.07.33.23.68.65.68s.64-.29.75-.66.24-.89.38-1.44a13.54,13.54,0,0,1,2,4.15c.08.27.16.53.54.42s.36-.36.28-.64a14.2,14.2,0,0,0-2.56-5.07.66.66,0,0,0-.78-.25.65.65,0,0,0-.43.68c0,.39,0,.78,0,1.16a9.55,9.55,0,0,0-3.38-4.24,9.5,9.5,0,0,1-3-3.72c-.22-.45-.42-.88-1.05-.82-.26,0-.36-.21-.44-.42a6.41,6.41,0,0,1-.35-1.25c-.29-1.87.43-3.51,1.15-5.15.17-.37.47-.72.12-1.13s-.75-.22-1.14-.12a8.8,8.8,0,0,0-4.81,3.17c-.52-.78-.8-.85-1.56-.38a5.86,5.86,0,0,0-.69.51c-.32.29-.55.27-.79-.12s-.52-.76-.78-1.14c-1.1-1.62-1.09-1.61-2.66-.43-.36.27-.38.49-.14.84.61.87,1.18,1.76,1.8,2.63a1.08,1.08,0,0,1,.11,1.26,9.27,9.27,0,0,0-.93,4.12,17.2,17.2,0,0,0,.7,5.38c-.51-.05-.92-.15-1.15.3s.07.69.27,1a10.65,10.65,0,0,1,1.83,5,7.74,7.74,0,0,1,0,1.8c0,.32,0,.6.42.63s.41-.26.44-.53a1.62,1.62,0,0,0,0-.22,10.82,10.82,0,0,0-1.4-6.27c-.14-.25-.37-.47.15-.62s.54-.62.37-1.07a16.2,16.2,0,0,1-.71-6.3,6.47,6.47,0,0,1,.6-2.52c.08-.16.2-.55.43-.25.4.54,1,1,1,1.78a1.7,1.7,0,0,0,.8,1.48,2.18,2.18,0,0,1,.57.6c1.56,2.42,3.11,4.84,4.68,7.25a1,1,0,0,1,0,1,2.68,2.68,0,0,0-.25,1.92,2.52,2.52,0,0,1-1,2.61,48.81,48.81,0,0,1-7.69,5.81.44.44,0,0,0,0,.75.45.45,0,0,0,.5,0l3-2a22,22,0,0,0,2.84-2.23c.42-.4.67-.43.91.12a8.55,8.55,0,0,0,2.64,3.4c.35.27.42.5.09.82a4.28,4.28,0,0,0-.4.45.47.47,0,0,0-.08.34.43.43,0,0,0,.73.21l1.1-1.21c.07-.09.2-.22.18-.29-.22-.57.2-.84.53-1.14s.51-.63,0-1c-.26-.2-.23-.44-.1-.72a1.85,1.85,0,0,1,.84-1,3.91,3.91,0,0,0,1.47-1.27c.61-.87.47-.6,1.61.75s2.11,2.7,3.12,4.09c.37.5.67.49,1.18,0a16.42,16.42,0,0,1,2.48-1.84c1-.56,1.17-.78.51-1.29m-19.33-18.64c-.35.13-.4-.32-.59-.41a2.17,2.17,0,0,1-1-1.26,12.18,12.18,0,0,0-1.47-2.49.35.35,0,0,1,.09-.55c.36-.26.73-.21.82,1.23a3.31,3.31,0,0,0,2.39,2.81c.11.05.12.18.15.26a.52.52,0,0,1-.38.41m12,12c-.09-.11-.23-.21-.26-.33-.24-.87-1-1.22-1.69-1.55a1.14,1.14,0,0,1-.7-1,3.46,3.46,0,0,1,2.65,2.92m-8.39-5.73c-.77-1.19-1.54-2.38-2.3-3.58-.12-.19-.38-.39-.13-.63a6.28,6.28,0,0,1,.71-.5.58.58,0,0,1,.46.31c1,1.3,2,2.61,3,3.9.32.42.17.61-.22.83-.94.52-.93.54-1.49-.33m1.31,2.06a.5.5,0,0,1,.2-.76,7.08,7.08,0,0,0,.66-.38.51.51,0,0,1,.8.18A2.09,2.09,0,0,0,468,1037a3.26,3.26,0,0,0-1.4,1.63c-.26.47-.47.56-.79,0s-.77-1.22-1.18-1.81m1.52,12.52a7.74,7.74,0,0,1-2.47-3.59c-.09-.26.05-.42.26-.53s.32.06.4.21a9.05,9.05,0,0,0,2.54,3,1.38,1.38,0,0,1,.23.29c0,.44-.65.83-1,.59m4.71-7.53a4.38,4.38,0,0,0-.83,2,2.94,2.94,0,0,1-1.72,2.12,2,2,0,0,0-1.07,1.09c-.06.15-.1.34-.36.34a3.29,3.29,0,0,1-.31-.26,10.61,10.61,0,0,1-1.24-1.59c-.41-.62-.67-1.19,0-1.87.33-.36.25-.92.24-1.4s0-1,0-1.44c0-.3.05-.73.54-.26.32.31.47-.07.55-.29a18.19,18.19,0,0,1,1.12-1.85c.08-.14.16-.33.36-.31s.25.26.3.44.08.47.13.71.16.46.41.4c1.18-.26,1.49.73,2,1.39a.64.64,0,0,1-.08.81m6.81,6.28c-.6.4-1.2.82-1.76,1.27s-.69-.19-1.75-2.09a10.45,10.45,0,0,0-2.79-3.1.85.85,0,0,1-.36-.74,1,1,0,0,1,.45-.87c.33-.21.52.12.74.29,1.82,1.42,3.63,2.87,5.47,4.27.55.42.47.65,0,1" transform="translate(-431.24 -911.77)" fill="#484747"/><path d="M486,1002.33a4.18,4.18,0,0,0,0,8.36,4.18,4.18,0,0,0,0-8.36m0,7a2.88,2.88,0,0,1-2.89-2.84,3,3,0,0,1,2.91-2.93,2.88,2.88,0,0,1,2.86,2.87,2.82,2.82,0,0,1-2.88,2.9" transform="translate(-431.24 -911.77)" fill="#484747"/><path d="M517.76,1021a.41.41,0,0,0-.54.17,72.75,72.75,0,0,1-6.94,9.83l-1.68,2.15a7.76,7.76,0,0,0-4.23,4c0-.1,0-.21-.05-.31.11-.7.25-1.42.43-2.21,3.67-1.11,3-6,2.64-8.34a.42.42,0,0,0-.19-.29.39.39,0,0,0-.35,0l-.05,0a6,6,0,0,0-2.83,8.47l-.12.52a9,9,0,0,0-4.41-4.88.39.39,0,0,0-.41.05.39.39,0,0,0-.15.39c.54,2.78,1.59,6.49,4.52,7.19a23.7,23.7,0,0,0,.22,6.07.39.39,0,0,0,.39.34h.06a.39.39,0,0,0,.33-.45,27.08,27.08,0,0,1-.3-3.55h0c4,0,5.86-4.83,6.46-6.9h0a.4.4,0,0,0-.08-.35.41.41,0,0,0-.36-.15l-.28.06c.33-.43.67-.86,1-1.31a73.64,73.64,0,0,0,7-10,.41.41,0,0,0-.16-.54m-13.52,8.88a5.1,5.1,0,0,1,2.44-3c.37,2.9.36,5.8-1.72,6.78l.42-1.69a.39.39,0,0,0-.29-.48.39.39,0,0,0-.48.28c-.13.5-.24,1-.35,1.41a5.16,5.16,0,0,1,0-3.34m-4.41,1.35a8.24,8.24,0,0,1,3.44,4.51,10.2,10.2,0,0,0-1-1.21.4.4,0,0,0-.56,0,.41.41,0,0,0,0,.56,10,10,0,0,1,1.23,1.66c-1.78-.87-2.63-3.33-3.12-5.5m5.31,8a8.44,8.44,0,0,1,1.91-1.56.4.4,0,0,0,.14-.55.39.39,0,0,0-.54-.14,9.57,9.57,0,0,0-1.92,1.53,6.87,6.87,0,0,1,4.9-4.84c-.62,1.86-2,4.88-4.49,5.56" transform="translate(-431.24 -911.77)" fill="#484747"/><path d="M516,1035.44l-6.35,6.21a3.59,3.59,0,0,0-1-1.56.4.4,0,0,0-.55.57,2.84,2.84,0,0,1,.81,2.56c-.31,2-2.29,4.21-5.15,5.65a12.49,12.49,0,0,1-2.92.78c-.54.09-1.08.17-1.59.21a2.65,2.65,0,0,0-.25-.37.94.94,0,0,1-.2-.32.68.68,0,0,1,.05-.58c.36-.6,1.74-.86,2.2-.94a2.89,2.89,0,0,0,.52-.14,2.67,2.67,0,0,0,.55-.33,2,2,0,0,1,.33-.21,2.66,2.66,0,0,1,.95-.24.51.51,0,0,0,.28-.07.66.66,0,0,0,.22-.23,1.43,1.43,0,0,1,.87-.65.41.41,0,0,0,.29-.49.4.4,0,0,0-.49-.28,2.2,2.2,0,0,0-1.3.94,3.16,3.16,0,0,0-1.16.3,2.58,2.58,0,0,0-.46.29,1.93,1.93,0,0,1-.38.23,2.43,2.43,0,0,1-.37.1c-1,.19-2.24.51-2.73,1.31a1.5,1.5,0,0,0,.14,1.71,4.41,4.41,0,0,1-.89-.09,2.09,2.09,0,0,1-.4-.13c-.14-.06-.18-.11-.18-.13a.31.31,0,0,1,0-.13,1.63,1.63,0,0,1,.35-.5l.22-.27,0,0,0,0v0s.07-.07.08-.12c.22-.82,1.2-1.37,2.14-1.9a6.9,6.9,0,0,0,1.91-1.36.4.4,0,1,0-.6-.52,6.85,6.85,0,0,1-1.69,1.19,5.56,5.56,0,0,0-2.31,1.87l-.07-.07a1.32,1.32,0,0,1-.24-.55.63.63,0,0,1,.24-.62,5.1,5.1,0,0,1,.51-.36,4.66,4.66,0,0,0,.47-.3l.31-.23.71-.53a10,10,0,0,0,1.45-1.11,4.9,4.9,0,0,0,1.42-3,.37.37,0,0,0-.16-.36.36.36,0,0,0-.4,0,4.79,4.79,0,0,1-1.64.33.39.39,0,0,0-.32.14.4.4,0,0,0-.08.35,1.52,1.52,0,0,1-.66,1.52,1.73,1.73,0,0,1-1.19.35c0-.14.07-.28.11-.41.69-2.52,1-3.68,3.85-4.67a.39.39,0,0,0,.25-.5.41.41,0,0,0-.51-.25c-3.24,1.13-3.64,2.58-4.36,5.21q-.09.36-.21.75a.42.42,0,0,0,.18.45,2.18,2.18,0,0,0,2.35-.29,2.3,2.3,0,0,0,1-1.88,6.45,6.45,0,0,0,.86-.15,3.82,3.82,0,0,1-1.07,1.87,9.38,9.38,0,0,1-1.33,1c-.26.18-.51.37-.75.55l-.3.23-.41.27a3.49,3.49,0,0,0-.61.42,1.41,1.41,0,0,0-.52,1.35,2.11,2.11,0,0,0,.4.91,3.65,3.65,0,0,0,.26.29,2.21,2.21,0,0,0-.49.77.94.94,0,0,0,.6,1.21,2.93,2.93,0,0,0,.57.19,6.36,6.36,0,0,0,1.24.12,15.28,15.28,0,0,0,2.47-.27,13,13,0,0,0,3.13-.84c3.1-1.57,5.25-4,5.6-6.25a3.56,3.56,0,0,0,0-.72h0l6.75-6.6a.39.39,0,0,0,0-.56.4.4,0,0,0-.56,0" transform="translate(-431.24 -911.77)" fill="#484747"/><path d="M492.1,975.22h0c.67,0,1.09.53,1.57,1.15a2.92,2.92,0,0,0,2.28,1.5h0c1.17,0,1.67-.88,2.07-1.58s.67-1.11,1.28-1.12,1.09.53,1.57,1.15a3,3,0,0,0,2.31,1.5c1.16,0,1.66-.88,2.07-1.58s.67-1.11,1.28-1.12h0c.67,0,1.08.53,1.56,1.15a2.94,2.94,0,0,0,2.3,1.5c1.17,0,1.67-.88,2.08-1.58s.67-1.11,1.28-1.12a.46.46,0,0,0,0-.92h0c-1.17,0-1.67.88-2.07,1.58s-.67,1.11-1.28,1.12-1.1-.53-1.57-1.15a3,3,0,0,0-2.29-1.5h0c-1.17,0-1.67.88-2.07,1.58s-.67,1.11-1.28,1.12h0c-.67,0-1.08-.53-1.56-1.15a3,3,0,0,0-2.31-1.5c-1.16,0-1.66.88-2.07,1.58s-.67,1.11-1.28,1.12h0c-.67,0-1.08-.53-1.56-1.15a2.93,2.93,0,0,0-2.3-1.5.47.47,0,0,0-.46.47.46.46,0,0,0,.46.45" transform="translate(-431.24 -911.77)" fill="#484747"/><path d="M492.1,979.42h0c.67,0,1.09.53,1.57,1.14a2.89,2.89,0,0,0,2.28,1.5h0a2.42,2.42,0,0,0,2.07-1.57c.41-.72.67-1.12,1.28-1.12h0c.67,0,1.08.53,1.56,1.14a2.92,2.92,0,0,0,2.29,1.5h0c1.17,0,1.67-.88,2.08-1.57s.67-1.12,1.28-1.12h0c.67,0,1.08.53,1.56,1.14a2.92,2.92,0,0,0,2.29,1.5h0c1.17,0,1.67-.88,2.08-1.58s.67-1.11,1.28-1.11a.46.46,0,0,0,0-.92c-1.17,0-1.67.88-2.07,1.58S511,981,510.43,981h0c-.67,0-1.09-.53-1.56-1.14a3,3,0,0,0-2.29-1.5h0c-1.17,0-1.67.88-2.07,1.58s-.67,1.11-1.28,1.11h0c-.67,0-1.08-.53-1.56-1.14a3,3,0,0,0-2.29-1.5h0c-1.16,0-1.66.88-2.07,1.58s-.67,1.11-1.28,1.11h0c-.67,0-1.08-.53-1.56-1.14a3,3,0,0,0-2.29-1.5h0a.46.46,0,0,0,0,.92" transform="translate(-431.24 -911.77)" fill="#484747"/><path d="M492.1,983.82h0c.67,0,1.09.53,1.57,1.15a2.91,2.91,0,0,0,2.28,1.49h0c1.17,0,1.67-.87,2.07-1.57s.67-1.11,1.28-1.12,1.09.53,1.57,1.15a3,3,0,0,0,2.31,1.5c1.16,0,1.66-.88,2.07-1.58s.67-1.11,1.28-1.12h0c.67,0,1.08.53,1.56,1.15a2.94,2.94,0,0,0,2.3,1.5c1.17,0,1.67-.88,2.08-1.58s.67-1.11,1.28-1.12a.46.46,0,0,0,0-.92h0c-1.17,0-1.67.88-2.07,1.58s-.67,1.11-1.28,1.11-1.1-.52-1.57-1.14a3,3,0,0,0-2.29-1.5h0c-1.17,0-1.67.88-2.07,1.58s-.67,1.11-1.28,1.12h0c-.67,0-1.08-.53-1.56-1.15a3,3,0,0,0-2.31-1.5c-1.16,0-1.66.88-2.07,1.58s-.67,1.11-1.28,1.12h0c-.67,0-1.08-.53-1.56-1.15a3,3,0,0,0-2.29-1.5h0a.47.47,0,0,0-.46.47.46.46,0,0,0,.46.45" transform="translate(-431.24 -911.77)" fill="#484747"/><path d="M492.1,988.56h0c.67,0,1.09.53,1.57,1.15A2.91,2.91,0,0,0,496,991.2h0a2.4,2.4,0,0,0,2.07-1.57c.41-.71.67-1.11,1.28-1.12h0c.67,0,1.08.53,1.56,1.15a2.94,2.94,0,0,0,2.29,1.49h0c1.17,0,1.67-.87,2.08-1.57s.67-1.11,1.28-1.12,1.09.53,1.57,1.14a2.92,2.92,0,0,0,2.29,1.5h0c1.17,0,1.67-.87,2.08-1.57s.67-1.11,1.28-1.12a.46.46,0,0,0,0-.92h0c-1.17,0-1.67.88-2.07,1.58s-.67,1.11-1.28,1.11-1.1-.52-1.57-1.14a2.9,2.9,0,0,0-2.31-1.5c-1.17,0-1.67.88-2.07,1.58s-.67,1.11-1.28,1.11-1.09-.52-1.57-1.14a2.9,2.9,0,0,0-2.31-1.5c-1.16,0-1.66.88-2.07,1.58s-.67,1.11-1.28,1.11-1.09-.52-1.57-1.14a3,3,0,0,0-2.29-1.5h0a.46.46,0,0,0,0,.92" transform="translate(-431.24 -911.77)" fill="#484747"/><path d="M492.1,993.3h0c.68,0,1.1.53,1.58,1.14a2.89,2.89,0,0,0,2.28,1.5h0a2.42,2.42,0,0,0,2.07-1.57c.41-.71.67-1.12,1.28-1.12h0c.67,0,1.08.53,1.56,1.14a2.92,2.92,0,0,0,2.29,1.5h0c1.17,0,1.67-.88,2.08-1.57s.67-1.12,1.28-1.12h0c.67,0,1.08.53,1.56,1.14a2.92,2.92,0,0,0,2.29,1.5h0c1.17,0,1.67-.88,2.08-1.57s.67-1.12,1.28-1.12a.46.46,0,0,0,0-.92h0c-1.17,0-1.67.88-2.07,1.58s-.67,1.11-1.28,1.11h0c-.67,0-1.09-.53-1.56-1.14a3,3,0,0,0-2.29-1.5h0c-1.17,0-1.67.88-2.07,1.58s-.67,1.11-1.28,1.11-1.09-.53-1.57-1.14a3,3,0,0,0-2.29-1.5h0c-1.16,0-1.66.88-2.07,1.58S496.58,995,496,995h0c-.67,0-1.08-.53-1.56-1.14a2.9,2.9,0,0,0-2.3-1.5.46.46,0,0,0,0,.92" transform="translate(-431.24 -911.77)" fill="#484747"/><path d="M519.61,971.24a.45.45,0,0,0-.45.46v2l-1.53-2.22,0,0-.07-.07-.07,0-.08,0-.1,0h-.08l-.09,0a.19.19,0,0,0-.08,0l0,0,0,0a.23.23,0,0,0-.07.07l0,.07,0,.08s0,.06,0,.09v24.82a.45.45,0,0,0,.46.46.46.46,0,0,0,.46-.46v-3.05l1.43,2.08,0,0v1a.45.45,0,0,0,.45.46.46.46,0,0,0,.47-.46V971.7a.46.46,0,0,0-.47-.46m-1.83,13.92,1.38-2v4Zm-.07-1.51v-3.72l1.28,1.86Zm.07-5.24,1.38-2v4Zm-.07-1.51v-3.72L519,975Zm0,9.78,1.28,1.86-1.28,1.86Zm.07,5.23,1.38-2v4Z" transform="translate(-431.24 -911.77)" fill="#484747"/><path d="M555.84,942.11h21.84c12.09,0,20.29,5.5,20.29,17.95v.52c0,13.19-9,18.32-20.29,18.32h-7.26v14.51H555.84Zm20.44,23.82c4.62,0,7.26-1.32,7.26-5.35v-.22c0-3.81-2.57-5.06-7.26-5.06h-5.86v10.63Z" transform="translate(-431.24 -911.77)" fill="#911635"/><path d="M601.42,976.41v-34.3H616v31.07c0,4.32,2.86,7,7.62,7h.22c5.21,0,7.7-2.64,7.7-7V942.11h14.58v34.22c0,11.51-8.06,17.88-22.06,17.88h-.22c-14.36,0-22.42-6.37-22.42-17.8" transform="translate(-431.24 -911.77)" fill="#911635"/><polygon points="220.16 30.34 258.12 30.34 258.12 43.53 234.74 43.53 234.74 50.64 257.46 50.64 257.46 61.04 234.74 61.04 234.74 68.44 258.05 68.44 258.05 81.63 220.16 81.63 220.16 30.34" fill="#911635"/><path d="M693.9,942.11h24.7c10.62,0,16.12,4.54,16.12,12.53,0,6.74-4,10.85-9.82,11.73v.36c6.08.66,11.94,4,11.94,12.83s-6.23,13.85-18.9,13.85h-24Zm21.18,20.81c3.15,0,4.69-1.32,4.69-4.1s-1.54-3.81-5-3.81h-6.31v7.91Zm.51,17.59c4.11,0,5.94-1,5.94-4.1s-1.76-4.33-5.5-4.33h-7.55v8.43Z" transform="translate(-431.24 -911.77)" fill="#911635"/><polygon points="309.79 30.34 324.37 30.34 324.37 68.44 346.28 68.44 346.28 81.63 309.79 81.63 309.79 30.34" fill="#911635"/><path d="M796.71,942.11h17.52l18.1,51.3H816.94l-3.37-10H796.28l-3.16,10H777.81Zm14.15,30.12-5.94-18.54-5.79,18.54Z" transform="translate(-431.24 -911.77)" fill="#911635"/><path d="M562.27,1042.43v0a1.62,1.62,0,0,0-1.85-1.69h-.11c-1.11,0-1.9.54-2.1,2l-2.3-.3c.29-2.59,1.86-3.7,4.44-3.7h.16c2.87,0,4.23,1.46,4.23,3.54v.06c0,3.75-4.87,5-6.14,7h6v2h-8.8v-.9c0-4.08,6.47-5,6.47-8" transform="translate(-431.24 -911.77)" fill="#484747"/><path d="M589.25,1045.36v-.21c0-4.16,2.24-6.37,5.13-6.37h.13c2.77,0,5,2.14,5,6.35v.21c0,4.09-2.12,6.25-5.1,6.25h-.12c-2.81,0-5-2.1-5-6.23m7.81-.12v-.18c0-2.38-1-4.06-2.66-4.06h-.12c-1.57,0-2.7,1.56-2.7,4.11v.18c0,2.45,1.08,4.07,2.7,4.07h.12c1.61,0,2.66-1.55,2.66-4.12" transform="translate(-431.24 -911.77)" fill="#484747"/><path d="M630.36,1042.43v0a1.62,1.62,0,0,0-1.85-1.69h-.11c-1.11,0-1.9.54-2.1,2l-2.31-.3c.3-2.59,1.87-3.7,4.45-3.7h.15c2.88,0,4.24,1.46,4.24,3.54v.06c0,3.75-4.87,5-6.14,7h6v2h-8.8v-.9c0-4.08,6.47-5,6.47-8" transform="translate(-431.24 -911.77)" fill="#484747"/><path d="M662.33,1048.62h-5.85v-1.87l5.62-7.74h2.59v7.66h1.47v1.95h-1.55v2.74h-2.28Zm.12-1.94v-4.86l-3.61,4.86Z" transform="translate(-431.24 -911.77)" fill="#484747"/><rect x="259.52" y="134.01" width="4.23" height="1.34" fill="#484747"/><path d="M726.45,1042.43v0a1.62,1.62,0,0,0-1.85-1.69h-.11c-1.11,0-1.9.54-2.1,2l-2.3-.3c.29-2.59,1.86-3.7,4.44-3.7h.16c2.87,0,4.23,1.46,4.23,3.54v.06c0,3.75-4.87,5-6.14,7h6v2H720v-.9c0-4.08,6.47-5,6.47-8" transform="translate(-431.24 -911.77)" fill="#484747"/><path d="M753.43,1045.36v-.21c0-4.16,2.24-6.37,5.13-6.37h.13c2.77,0,5,2.14,5,6.35v.21c0,4.09-2.11,6.25-5.09,6.25h-.12c-2.81,0-5.05-2.1-5.05-6.23m7.81-.12v-.18c0-2.38-1-4.06-2.66-4.06h-.12c-1.57,0-2.7,1.56-2.7,4.11v.18c0,2.45,1.08,4.07,2.7,4.07h.12c1.61,0,2.66-1.55,2.66-4.12" transform="translate(-431.24 -911.77)" fill="#484747"/><path d="M788,1048l2.35-.46a2.21,2.21,0,0,0,2.38,2.15h0a2,2,0,0,0,2.14-2v-.08c0-1.41-.8-1.93-2.7-1.93h-.57v-1.41H792c1.66,0,2.6-.66,2.6-1.86v0a1.58,1.58,0,0,0-1.75-1.69h-.09a2,2,0,0,0-2.15,1.94l-2.36-.37c.35-2.49,2.24-3.53,4.53-3.53h.12c2.56,0,4.06,1.46,4.06,3.28v0a2.75,2.75,0,0,1-2,2.79v0a2.7,2.7,0,0,1,2.43,3v0c0,2.35-2,3.67-4.67,3.67h0c-2.64,0-4.41-1.25-4.69-3.63" transform="translate(-431.24 -911.77)" fill="#484747"/><path d="M821.85,1045.36v-.21c0-4.16,2.24-6.37,5.14-6.37h.12c2.77,0,5,2.14,5,6.35v.21c0,4.09-2.12,6.25-5.1,6.25h-.12c-2.81,0-5-2.1-5-6.23m7.82-.12v-.18c0-2.38-1.06-4.06-2.67-4.06h-.12c-1.57,0-2.7,1.56-2.7,4.11v.18c0,2.45,1.08,4.07,2.7,4.07H827c1.61,0,2.67-1.55,2.67-4.12" transform="translate(-431.24 -911.77)" fill="#484747"/><path d="M555.7,1011.44v-.21c0-6.79,2.62-10.86,9.31-10.86,5.49,0,8.14,2.68,8.58,7.56l-4.2.77c-.34-3.43-1.88-4.41-4.32-4.41H565c-3.39,0-5,2.12-5,7.28v.12c0,5,1.3,7.28,4.91,7.28H565c2.65,0,4.29-1.39,4.5-5h-4v-2.47h8.33v10.92h-3.7v-3c-1.05,2.44-3.05,3.46-5.86,3.46h-.09c-6.27,0-8.42-4.48-8.42-11.51m9.34-11.07h0Z" transform="translate(-431.24 -911.77)" fill="#484747"/><path d="M575.71,1015.17v-.34c0-4.93,3.09-8.29,8.46-8.29h.37c5.24,0,8,3.27,8,8v.27c0,4.63-2.75,8.18-8.36,8.18h-.28c-5.52,0-8.21-3.27-8.21-7.78m12.9-.43v-.21c0-2.59-1.27-4.63-4.29-4.63H584c-3,0-4.53,2-4.53,4.75v.25c0,2.62,1.29,4.65,4.41,4.65h.15c3.27,0,4.54-2.19,4.54-4.81" transform="translate(-431.24 -911.77)" fill="#484747"/><path d="M598.76,1020.11v2.34h-4v-21.9h4v8.82a6.24,6.24,0,0,1,5.36-2.83h.34c3.7,0,6.51,3.14,6.51,7.8v.31c0,5.64-2.71,8.3-6.75,8.3H604a5.5,5.5,0,0,1-5.21-2.84m8.23-5.43v-.22c0-2.68-1.36-4.53-4-4.53h-.15a4.13,4.13,0,0,0-4.13,3.64v2.28a3.88,3.88,0,0,0,4,3.55H603c2.78,0,4-1.79,4-4.72" transform="translate(-431.24 -911.77)" fill="#484747"/><path d="M612.76,1000.83a2.37,2.37,0,0,1,2.41-2.41,2.41,2.41,0,1,1-2.41,2.41m.34,6.2h4v15.42h-4Z" transform="translate(-431.24 -911.77)" fill="#484747"/><path d="M619.33,1014.77v-.34c0-4.41,2.65-7.92,7.83-7.92h.22c5,0,7.9,2.8,8,7.49l0,1.45H623c.31,2.9,2,4.32,4.47,4.32h.13c1.91,0,3.51-.86,3.91-2.71l3.49,1.35c-1,2.87-3.49,4.54-7.4,4.54h-.16c-4.87,0-8.08-2.81-8.08-8.18m12.15-1.51v-.34c0-2.25-1.45-3.64-4-3.64h-.15a4,4,0,0,0-4.44,4Z" transform="translate(-431.24 -911.77)" fill="#484747"/><path d="M637.34,1007h4V1010a5.8,5.8,0,0,1,5.49-2.93h.62v3.76H646.2c-2.69,0-4.17.93-4.82,3.15v8.51h-4Z" transform="translate(-431.24 -911.77)" fill="#484747"/><path d="M656.75,1010.36a4.13,4.13,0,0,0-4.14,2.93v9.16h-4V1007h4v2.38a6.37,6.37,0,0,1,5.71-2.87c3.79,0,5.77,2,5.77,5.73v10.18H660v-9c0-2-1.17-3.06-3.26-3.06" transform="translate(-431.24 -911.77)" fill="#484747"/><path d="M666.25,1015.17v-.34c0-4.93,3.08-8.29,8.45-8.29h.37c5.24,0,8,3.27,8,8v.27c0,4.63-2.75,8.18-8.36,8.18h-.28c-5.52,0-8.2-3.27-8.2-7.78m12.89-.43v-.21c0-2.59-1.26-4.63-4.29-4.63h-.28c-3.05,0-4.53,2-4.53,4.75v.25c0,2.62,1.3,4.65,4.41,4.65h.16c3.27,0,4.53-2.19,4.53-4.81" transform="translate(-431.24 -911.77)" fill="#484747"/><path d="M701.22,1020.11a5.36,5.36,0,0,1-5.12,2.84h-.24c-4,0-6.82-2.66-6.82-8.3v-.31c0-4.78,2.93-7.8,6.79-7.8h.34a5.68,5.68,0,0,1,5.05,2.83v-8.82h4v21.9h-4Zm0-4.26v-2.09a4.06,4.06,0,0,0-4-3.83h-.19c-2.59,0-4,1.73-4,4.47v.22c0,3,1.33,4.78,4.1,4.78h.22a3.78,3.78,0,0,0,3.88-3.55" transform="translate(-431.24 -911.77)" fill="#484747"/><path d="M707.42,1014.77v-.34c0-4.41,2.66-7.92,7.84-7.92h.22c5,0,7.89,2.8,8,7.49l0,1.45H711.06c.31,2.9,2,4.32,4.48,4.32h.12c1.91,0,3.52-.86,3.92-2.71l3.48,1.35c-1,2.87-3.48,4.54-7.4,4.54h-.15c-4.88,0-8.09-2.81-8.09-8.18m12.16-1.51v-.34c0-2.25-1.45-3.64-4-3.64h-.15a4,4,0,0,0-4.45,4Z" transform="translate(-431.24 -911.77)" fill="#484747"/><rect x="294.2" y="88.78" width="4.04" height="21.9" fill="#484747"/><path d="M753,1018.6l3.83-.4c.49,1.38,2.13,2,4.32,2h.15c2.87,0,3.61-1,3.61-2.19v0c0-3.52-11.47-.86-11.47-6.76V1011c0-3,3-4.47,7.18-4.47h.22c3.73,0,6.69,1.35,7.15,4.9l-3.51.28c-.34-2.19-2.16-2.72-3.86-2.72h-.15c-2.32,0-3.3.81-3.3,2v0c0,3,11.19.62,11.19,7v.09c0,3-2,4.85-7.21,4.85H761c-5,0-7.49-1.61-8-4.35" transform="translate(-431.24 -911.77)" fill="#484747"/><path d="M772,1017.3v-7.18h-3.3V1007h3.43v-6.17H776V1007h3.37v3.09H776v6.57c0,1.72.4,2.43,1.76,2.43h1.11v3.33h-1.69c-3.58,0-5.22-1.54-5.22-5.15" transform="translate(-431.24 -911.77)" fill="#484747"/><path d="M791.2,1019.24a6.42,6.42,0,0,1-5.83,3.68h-.25c-3.24,0-5.39-1.61-5.39-4.42v-.15c0-3.21,2.34-4.41,6.75-5l4.57-.49v-.22a2.93,2.93,0,0,0-3.27-3.17h-.19c-1.73,0-3.24.65-3.61,2.68l-3.58-.74c.78-3.39,3.8-4.9,7.32-4.9H788c4.63,0,7.1,2,7.1,5.92v10H791.2Zm-.25-4.44-3.45.4c-2.68.34-3.73,1.11-3.73,2.53v.19a2.3,2.3,0,0,0,2.56,2.1h.27c2.13,0,4.08-1.85,4.35-5.22" transform="translate(-431.24 -911.77)" fill="#484747"/><path d="M809.43,1020.11a5.37,5.37,0,0,1-5.12,2.84h-.25c-4,0-6.81-2.66-6.81-8.3v-.31c0-4.78,2.93-7.8,6.78-7.8h.34a5.68,5.68,0,0,1,5.06,2.83v-8.82h4v21.9h-4Zm0-4.26v-2.09a4.06,4.06,0,0,0-4-3.83h-.18c-2.59,0-4,1.73-4,4.47v.22c0,3,1.32,4.78,4.1,4.78h.21a3.79,3.79,0,0,0,3.89-3.55" transform="translate(-431.24 -911.77)" fill="#484747"/><path d="M815.63,1015.17v-.34c0-4.93,3.09-8.29,8.45-8.29h.37c5.25,0,8,3.27,8,8v.27c0,4.63-2.74,8.18-8.36,8.18h-.27c-5.53,0-8.21-3.27-8.21-7.78m12.89-.43v-.21c0-2.59-1.26-4.63-4.28-4.63H824c-3.05,0-4.54,2-4.54,4.75v.25c0,2.62,1.3,4.65,4.42,4.65H824c3.27,0,4.53-2.19,4.53-4.81" transform="translate(-431.24 -911.77)" fill="#484747"/><polygon points="306.73 89.4 320.78 89.4 320.78 93.08 310.81 93.08 310.81 98.4 320.38 98.4 320.38 101.38 310.81 101.38 310.81 107 320.81 107 320.81 110.68 306.73 110.68 306.73 89.4" fill="#484747"/><path d="M1329.36,936.94a20.4,20.4,0,0,1,14.5,5.45q5.81,5.46,5.81,14.53t-5.81,14.53a20.37,20.37,0,0,1-14.5,5.46H1323v15.76h-15.93V936.94Zm0,24.52a4.3,4.3,0,0,0,3.11-1.23,4.94,4.94,0,0,0,0-6.61,4.3,4.3,0,0,0-3.11-1.23H1323v9.07Z" transform="translate(-431.24 -911.77)" fill="#484747"/><path d="M1363.49,978.51q1.86,3.88,7.92,3.88a10.22,10.22,0,0,0,6.6-2.48l9.39,7.92q-5.82,6.28-16.46,6.29-9.95,0-16-5.79a19.34,19.34,0,0,1-6-14.56,20.1,20.1,0,0,1,20.65-20.65,19.61,19.61,0,0,1,14.56,5.78,19.91,19.91,0,0,1,5.71,14.56,20.49,20.49,0,0,1-.63,5Zm-.24-9.24h13q-1.32-4.66-6.29-4.66a6.59,6.59,0,0,0-6.76,4.66" transform="translate(-431.24 -911.77)" fill="#484747"/><path d="M1416.21,953.12a12.89,12.89,0,0,1,10.21,4.39q3.84,4.38,3.84,13.08V993H1415.9V972.14q0-5.21-4.82-5.2a4.82,4.82,0,0,0-3.92,1.63,6.87,6.87,0,0,0-1.36,4.5v20h-14.36V954.21h14.36V958q3.57-4.89,10.41-4.89" transform="translate(-431.24 -911.77)" fill="#484747"/><path d="M1447.27,965.62c0,.62.47,1.11,1.43,1.47a15.48,15.48,0,0,0,3.61.82,28.45,28.45,0,0,1,9.32,3,9.23,9.23,0,0,1,3.61,3.69,12.09,12.09,0,0,1,1.44,6.09,12.54,12.54,0,0,1-1.67,6.53,10.89,10.89,0,0,1-4.39,4.19,24.07,24.07,0,0,1-5.55,2.06,25.74,25.74,0,0,1-5.86.66q-14.06,0-18.17-9.24l12.5-5.59a5.47,5.47,0,0,0,5.51,4q2.64,0,2.64-1.71c0-.68-.65-1.22-1.94-1.63s-2.85-.84-4.66-1.29a37,37,0,0,1-5.47-1.78,10.76,10.76,0,0,1-6.64-10.37,11.46,11.46,0,0,1,4.85-9.86,18.72,18.72,0,0,1,11.22-3.49q12.73,0,16.85,9.86L1454,967.25q-1.39-3.25-4.35-3.26c-1.6,0-2.4.54-2.4,1.63" transform="translate(-431.24 -911.77)" fill="#484747"/><path d="M1494.71,954.21h14.36V993h-14.36v-3.5c-2.49,3.06-6,4.59-10.41,4.59a16.07,16.07,0,0,1-12.81-5.83q-5-5.82-5-14.67t5-14.68a16.06,16.06,0,0,1,12.81-5.82c4.46,0,7.92,1.53,10.41,4.58Zm-11.92,24.61a7,7,0,0,0,10,0,8.07,8.07,0,0,0,0-10.4,7,7,0,0,0-10,0,8.07,8.07,0,0,0,0,10.4" transform="translate(-431.24 -911.77)" fill="#484747"/><path d="M1526.93,961.74a10.58,10.58,0,0,1,4.27-6.14,12.75,12.75,0,0,1,7.38-2.17V969a11.1,11.1,0,0,0-8.15,1.82c-2.33,1.63-3.5,4.24-3.5,7.81V987h-14.36V954.21h14.36Z" transform="translate(-431.24 -911.77)" fill="#484747"/><path d="M1387.54,1012.63a10.53,10.53,0,0,1,4.27-6.14,12.75,12.75,0,0,1,7.38-2.17v15.53a11.13,11.13,0,0,0-8.16,1.82q-3.49,2.45-3.49,7.81v14.44h-14.37v-38.83h14.37Z" transform="translate(-431.24 -911.77)" fill="#484747"/><path d="M1426.44,1005.09h14.37v38.83h-14.37v-3.5q-3.72,4.59-10.4,4.58a16.1,16.1,0,0,1-12.82-5.82q-5-5.82-5-14.67t5-14.68A16.1,16.1,0,0,1,1416,1004q6.68,0,10.4,4.58Zm-11.92,24.62a7,7,0,0,0,10,0,8.08,8.08,0,0,0,0-10.41,7,7,0,0,0-10,0,8.08,8.08,0,0,0,0,10.41" transform="translate(-431.24 -911.77)" fill="#484747"/><path d="M1469.07,1004a12.92,12.92,0,0,1,10.21,4.38q3.84,4.4,3.84,13.09v22.44h-14.36V1023q0-5.21-4.82-5.2a4.81,4.81,0,0,0-3.92,1.63,6.87,6.87,0,0,0-1.36,4.5v20H1444.3v-38.83h14.36v3.81q3.57-4.89,10.41-4.89" transform="translate(-431.24 -911.77)" fill="#484747"/><path d="M1512.55,989.57h14.36v54.35h-14.36v-3.5q-3.72,4.59-10.4,4.58a16.1,16.1,0,0,1-12.82-5.82q-5-5.82-5-14.67t5-14.68a16.1,16.1,0,0,1,12.82-5.82q6.67,0,10.4,4.58Zm-11.92,40.14a7,7,0,0,0,10,0,8.08,8.08,0,0,0,0-10.41,7,7,0,0,0-10,0,8.08,8.08,0,0,0,0,10.41" transform="translate(-431.24 -911.77)" fill="#484747"/><path d="M1543.06,1029.4q1.88,3.88,7.92,3.88a10.2,10.2,0,0,0,6.6-2.48l9.4,7.92q-5.82,6.29-16.46,6.29-9.94,0-16-5.79a19.35,19.35,0,0,1-6-14.56A20.12,20.12,0,0,1,1549.2,1004a19.61,19.61,0,0,1,14.56,5.78,19.9,19.9,0,0,1,5.7,14.56,20.48,20.48,0,0,1-.62,5.05Zm-.23-9.24h13.05c-.89-3.11-3-4.66-6.29-4.66a6.59,6.59,0,0,0-6.76,4.66" transform="translate(-431.24 -911.77)" fill="#484747"/><path d="M1361.51,992.91h0" transform="translate(-431.24 -911.77)" fill="#5a5a59"/><path d="M1326.8,1019.76c.72-.56,1.43-1.14,2.12-1.73l.27-.27v-.07a13,13,0,0,1,3.55-9.47,12.3,12.3,0,0,1,9-3.67L1353.58,992a28.74,28.74,0,0,0-11.86-2.44,26.74,26.74,0,0,0-19.87,8.06,27.36,27.36,0,0,0-7.95,20,30.55,30.55,0,0,0,1.16,8.54,27,27,0,0,0,7.31-3.3,51.09,51.09,0,0,0,4.43-3.1" transform="translate(-431.24 -911.77)" fill="#484747"/><path d="M1352.27,1009.44l13-7.42a25.38,25.38,0,0,0-6-6.61c-2.85,3.11-6.54,7-10.25,10.85a10.26,10.26,0,0,1,3.25,3.18" transform="translate(-431.24 -911.77)" fill="#484747"/><path d="M1342.75,1012.73l-.87.89v12.1h11.39q-2.68,5.65-10.63,5.66c-4.59,0-8-1.37-10.17-4.09a15,15,0,0,1-1.76-2.76l-.08.07a54.63,54.63,0,0,1-4.94,3.54,39.08,39.08,0,0,1-5.51,2.95,25.59,25.59,0,0,1-2.59,1,27,27,0,0,0,4.26,5.49q8,8,20.49,8,12,0,19.37-7.49t7.38-19v-6.34Z" transform="translate(-431.24 -911.77)" fill="#484747"/><path d="M1359.27,995.41c.84-.93,1.61-1.78,2.29-2.55l0,0h0l0,0v-9.28c-.19.18-3.52,3.7-8,8.43.63.28,1.25.59,1.87.92a27.22,27.22,0,0,1,3.82,2.48" transform="translate(-431.24 -911.77)" fill="#911635"/><path d="M1313.11,1026.5a8,8,0,0,1-2.09,0,2.58,2.58,0,0,1-1.29-.45,2.64,2.64,0,0,1-.82-1,8.75,8.75,0,0,1-.66-1.94c-.37-1.55-.54-3.38-.79-5.34-.12-1-.26-2-.49-3.1a15.21,15.21,0,0,0-1.14-3.49,8.57,8.57,0,0,0-3-3.51,8.7,8.7,0,0,0-4.38-1.37c-.35,0-.68,0-1,0s-.73,0-1.08.09a11.28,11.28,0,0,0-2.06.51,14.19,14.19,0,0,0-3.35,1.79,25.54,25.54,0,0,0-4.77,4.6l0,0q.76-3.28,1.51-6.57l-7.15-3h0a32.57,32.57,0,0,1-3.82,5.12,52.67,52.67,0,0,1-4.72,4.73,58.24,58.24,0,0,1-10.88,7.77,27.76,27.76,0,0,1-5.87,2.41c-1.9.53-3.83.59-4.77.09a2.62,2.62,0,0,1-1.2-1.19,5.76,5.76,0,0,1-.63-1.68,32,32,0,0,0,12.36-6.76,23.55,23.55,0,0,0,5.07-6.31,14.57,14.57,0,0,0,1.48-4.18,8.57,8.57,0,0,0-.6-5.23,7.09,7.09,0,0,0-1.82-2.35,7.84,7.84,0,0,0-2.39-1.37,8.31,8.31,0,0,0-1.23-.36,7.93,7.93,0,0,0-1.37-.19,8.9,8.9,0,0,0-2.61.28,12.66,12.66,0,0,0-4.15,2,20,20,0,0,0-3.06,2.79,30.48,30.48,0,0,0-4.42,6.46,33.61,33.61,0,0,0-2.77,7.26,21.82,21.82,0,0,0-.59,8.17,12.91,12.91,0,0,0,1.41,4.4,10.36,10.36,0,0,0,1.51,2.09,8.5,8.5,0,0,0,2.22,1.65,10.41,10.41,0,0,0,4.85,1.09,17.91,17.91,0,0,0,4.25-.53,34.81,34.81,0,0,0,7.31-2.78,68,68,0,0,0,12.48-8.18l.55-.47-.87,4c-1.29,5.82-2.6,11.66-4,17.43h0l6.93,2.07c1.21-3.43,2.64-7,4.17-10.33a88.76,88.76,0,0,1,5.12-9.78,45,45,0,0,1,3-4.36,19,19,0,0,1,3.41-3.41,7.28,7.28,0,0,1,1.68-.95,4,4,0,0,1,.72-.2l.35,0h.43a2.09,2.09,0,0,1,1.06.25,2,2,0,0,1,.67.82,16.31,16.31,0,0,1,1.07,4.52,58.48,58.48,0,0,0,1,6,14.72,14.72,0,0,0,1.27,3.45,8.77,8.77,0,0,0,6.94,4.79,14.82,14.82,0,0,0,3.64,0,20.16,20.16,0,0,0,3.83-.82,26,26,0,0,1-2.53-5.88,13.75,13.75,0,0,1-2,.34m-64.2-12a27.32,27.32,0,0,1,5.72-11.23,9.66,9.66,0,0,1,4.31-3.11c1.16-.39,2.61.33,2.76.89a3,3,0,0,1,.11,1.72,8.58,8.58,0,0,1-.91,2.45,16.56,16.56,0,0,1-3.82,4.65,25,25,0,0,1-8.19,4.72s0-.06,0-.09" transform="translate(-431.24 -911.77)" fill="#911635"/><path d="M1361.56,992.86l0,0,0,0" transform="translate(-431.24 -911.77)" fill="#5a5a59"/><path d="M1341.73,1004.55c-6,6.31-11.28,11.92-12.54,13.21a15.33,15.33,0,0,0,1.52,6.77c.76-.6,1.5-1.22,2.23-1.86.26-.23,4.06-4,8.94-9v-.89h.87c2-2.05,4.13-4.25,6.27-6.47a13.31,13.31,0,0,0-7-1.71h-.3" transform="translate(-431.24 -911.77)" fill="#911635"/><path d="M1325.69,1028.14a54.63,54.63,0,0,0,4.94-3.54l.08-.07a15.33,15.33,0,0,1-1.52-6.77l-.27.27c-.69.59-1.4,1.17-2.12,1.73a48.87,48.87,0,0,1-4.43,3.09,26.69,26.69,0,0,1-7.31,3.31,26,26,0,0,0,2.53,5.88,25.59,25.59,0,0,0,2.59-1,39.08,39.08,0,0,0,5.51-2.95" transform="translate(-431.24 -911.77)" fill="#484747"/><path d="M1342,1004.55a13.29,13.29,0,0,1,7,1.71c3.71-3.86,7.4-7.74,10.24-10.85a26.65,26.65,0,0,0-3.82-2.48c-.61-.33-1.23-.64-1.86-.92l-11.85,12.54h.3" transform="translate(-431.24 -911.77)" fill="#911635"/><path d="M1341.88,1013.62l.87-.89h-.87Z" transform="translate(-431.24 -911.77)" fill="#5a5a59"/><path d="M954.3,1009c0,10-6.33,18.52-17.29,18.52H925.9v14.82H906.14V990.46H937c11,0,17.29,8.48,17.29,18.52m-19.76.62c0-3.79-2.23-5.56-4.93-5.56H925.9v11.11h3.71c2.7,0,4.93-1.7,4.93-5.55" transform="translate(-431.24 -911.77)" fill="#484747"/><path d="M1006.4,990.46v29.63c0,13.66-9.88,23.46-25.94,23.46s-25.93-9.8-25.93-23.46V990.46h19.76v28.4c0,6.17,1.85,8.64,6.17,8.64s6.18-2.47,6.18-8.64v-28.4Z" transform="translate(-431.24 -911.77)" fill="#484747"/><polygon points="597.62 93.5 597.62 98.44 609.97 98.44 609.97 110.79 597.62 110.79 597.62 115.73 613.67 115.73 613.67 130.55 577.86 130.55 577.86 78.68 613.67 78.68 613.67 93.5 597.62 93.5" fill="#484747"/><path d="M1095.77,1026.73c0,9-6.64,15.59-17.75,15.59h-30.41V990.46h27.86c11.11,0,17.83,5.32,17.83,14.27a14.47,14.47,0,0,1-4.87,10.42c4.25,2.39,7.34,6.41,7.34,11.58m-28.4-15.28h2.23c2.16,0,3.94-1.16,3.94-3.71s-1.78-3.7-3.94-3.7h-2.23ZM1076,1025c0-2.55-2.55-3.7-5.79-3.7h-2.85v7.4h2.85c3.24,0,5.79-1.15,5.79-3.7" transform="translate(-431.24 -911.77)" fill="#484747"/><polygon points="701.19 115.73 701.19 130.54 665.38 130.54 665.38 78.68 685.14 78.68 685.14 115.73 701.19 115.73" fill="#484747"/><path d="M1190.69,1042.32h-19.75l-2.09-6.18h-15.59l-2.08,6.18h-19.76L1152,990.46h18.06Zm-26.7-21-2.93-8.8-2.93,8.8Z" transform="translate(-431.24 -911.77)" fill="#484747"/><path d="M1085.07,945.05c-11.73,0-21.25,9.13-21.25,20.33s9.52,20.32,21.25,20.32,21.24-9.12,21.24-20.32-9.52-20.33-21.24-20.33m13.16,21a24.33,24.33,0,0,1-3.26,4.12c-3.3,3.58-6.63,7.16-9.92,10.73q-5-5.36-9.89-10.73a24.33,24.33,0,0,1-3.26-4.12,9.3,9.3,0,0,1-1.37-5.24,7.23,7.23,0,0,1,4.53-6.14,8,8,0,0,1,10,5.33,7.29,7.29,0,0,1,3.65-4.7,7.83,7.83,0,0,1,6.37-.63,7.23,7.23,0,0,1,4.53,6.14,9.3,9.3,0,0,1-1.37,5.24" transform="translate(-431.24 -911.77)" fill="#911635"/><path d="M924.32,966.87c0,4.94-3.29,8.82-8.85,8.82h-5.56v9.09h-3.77V958.45h8.15c6.86,0,10,3.44,10,8.42m-3.76.24c0-3.45-2.55-4.9-5.29-4.9h-5.36v9.71h5.6c2.74,0,5-1.41,5-4.81" transform="translate(-431.24 -911.77)" fill="#484747"/><path d="M952.34,971.61a13.48,13.48,0,1,1-13.48-13.48,13.49,13.49,0,0,1,13.48,13.48m-3.77,0a9.72,9.72,0,1,0-9.71,9.72,9.66,9.66,0,0,0,9.71-9.72" transform="translate(-431.24 -911.77)" fill="#484747"/><path d="M969.06,984.78l-6.54-9.09h-4.11v9.09h-3.76V958.45h8.15c6.85,0,10,3.44,10,8.42,0,4.08-2.24,7.41-6.16,8.46l6.78,9.45Zm-10.65-12.86H964c2.74,0,5-1.41,5-4.81s-2.23-4.9-5-4.9h-5.68Z" transform="translate(-431.24 -911.77)" fill="#484747"/><path d="M1017.46,984.78h-14.78l-1.56-4.62H989.45l-1.55,4.62H973.12L988.53,946H1002Zm-20-15.71-2.19-6.58-2.2,6.58Z" transform="translate(-431.24 -911.77)" fill="#911635"/><polygon points="633.33 73 619.48 73 618.73 55.45 614.11 73 603.02 73 598.23 55.45 597.48 73 583.62 73 586.39 34.2 602.1 34.2 608.56 55.45 615.95 34.2 630.56 34.2 633.33 73" fill="#911635"/><path d="M1145.75,984.78h-16.63l-7.39-11.09v11.09H1107V946H1130c8.26,0,12.93,6.35,12.93,13.85,0,5.37-2.42,10.11-6.81,12.42Zm-17.56-24.48c0-2.83-1.67-4.16-3.69-4.16h-2.77v8.31h2.77c2,0,3.69-1.27,3.69-4.15" transform="translate(-431.24 -911.77)" fill="#911635"/><path d="M1162.84,979.13H1151l-2.55,5.65h-4.07l12.53-27,12.54,27h-4.07Zm-1.72-3.76-4.2-9.24-4.19,9.24Z" transform="translate(-431.24 -911.77)" fill="#484747"/><polygon points="776.19 43.72 776.19 126.4 777.39 126.4 777.39 43.72 776.71 43.72 776.19 43.72" fill="#484747"/></svg>