<svg id="Capa_1" data-name="Capa 1" xmlns="http://www.w3.org/2000/svg" viewBox="0 0 882.16 172.26"><polygon points="401.04 117.58 124.26 117.58 124.26 120.47 401.04 120.47 401.04 118.83 401.04 117.58" fill="#911635"/><path d="M575.86,914.13a13,13,0,0,0,2.59-1.27c1.12-.61,1.16-1.46.11-2.23-.68-.5-1.36-1-2-1.49a.81.81,0,0,1-.36-1c.41-1.87.78-3.74,1.15-5.61.11-.57.13-1.13-.47-1.47s-1.05-.07-1.5.32c-1,.81-1.91,1.61-3,2.55.14-.61.22-1,.31-1.35a1.2,1.2,0,0,0-.28-1.4,1.36,1.36,0,0,0-1.5-.08c-1.62.69-3.26,1.35-4.89,2a4,4,0,0,1-.84.23c-.53.08-.82-.09-.79-.7,0-.77,0-1.54,0-2.32a1.52,1.52,0,0,0-1.41-1.56,7.48,7.48,0,0,0-.95,0c-5.53,0-11.06,0-16.6,0-.68,0-.93-.2-.92-.9,0-1.79,0-3.58,0-5.37a1.57,1.57,0,0,0-1.65-1.71H504.37a1.5,1.5,0,0,0-1.57,1.69c0,1.69,0,3.38,0,5.07,0,1.21,0,1.21-1.2,1.21H484.77a1.69,1.69,0,0,0-1.95,1.89c0,.51,0,1,0,1.52,0,.76-.09.81-.8.53l-3.9-1.58a1.24,1.24,0,0,0-1.42.09,1.29,1.29,0,0,0-.26,1.41,2,2,0,0,1,.13,1.18c-1-.86-2-1.67-2.94-2.46a1.12,1.12,0,0,0-1.45-.22,1.19,1.19,0,0,0-.44,1.41c.39,1.82.73,3.65,1.13,5.46a1.07,1.07,0,0,1-.5,1.29c-.72.48-1.43,1-2.1,1.54a1.06,1.06,0,0,0,0,1.87,13.9,13.9,0,0,0,2.56,1.34c.66.24.61.48.4,1-.72,1.67-1.41,3.34-2.09,5-.34.82-.22,1.36.46,1.66a.92.92,0,0,1,.6,1q0,5,0,10a1,1,0,0,1-.58,1,2.8,2.8,0,0,0-.14,5,1.28,1.28,0,0,1,.72,1.27q0,13.74,0,27.48a1.19,1.19,0,0,1-.68,1.2,2.81,2.81,0,0,0,.06,5,1,1,0,0,1,.62,1.08q0,13.78,0,27.56a1,1,0,0,1-.58,1,2.8,2.8,0,0,0,0,5,1,1,0,0,1,.59,1q0,13.82,0,27.63a1.09,1.09,0,0,1-.62,1.09,2.82,2.82,0,0,0,0,5,1.11,1.11,0,0,1,.62,1.1,28.5,28.5,0,0,0,.1,3.33,8.19,8.19,0,0,0,8,7.16h4.85a.94.94,0,0,1,1,.55,2.65,2.65,0,0,0,2.6,1.62,2.69,2.69,0,0,0,2.57-1.67.73.73,0,0,1,.78-.5c.77,0,1.55,0,2.32,0,.53,0,.74.19.73.72,0,1,0,1.93,0,2.9a1.73,1.73,0,0,0,1.31,1.78,9.68,9.68,0,0,0,3.6,0,2.34,2.34,0,0,1,1.26,0l8.64,2.72a3.86,3.86,0,0,0,1.85.18c1.07-.16,2.16-.22,3.24-.34l5.54-.59a1.25,1.25,0,0,0,.74-2.2c-.21-.19-.4-.41-.63-.6-.5-.41-.35-.63.2-.79s.87-.31,1.3-.47a1.58,1.58,0,0,0,1.24-1.73c0-1.06,0-2.13,0-3.19a1.64,1.64,0,0,0-1.06-1.65c-.66-.3-1.3-.65-2-.92-.5-.21-.63-.34-.12-.73a18.59,18.59,0,0,0,1.58-1.5.91.91,0,0,0,.3-1,1,1,0,0,0-.89-.62l-9.51-1a4.65,4.65,0,0,0-1.92.22c-3,1-6,1.88-9,2.82a1.61,1.61,0,0,1-.78.11,12.45,12.45,0,0,0-3.11-.06,1.79,1.79,0,0,0-1.84,2c0,.65,0,1.31,0,2,0,.47-.2.65-.65.64q-1.2,0-2.4,0a.77.77,0,0,1-.78-.5,2.77,2.77,0,0,0-2.59-1.68,2.72,2.72,0,0,0-2.58,1.66.81.81,0,0,1-.85.52c-1.64,0-3.28,0-4.93,0a6.82,6.82,0,0,1-6.55-5.54,24.78,24.78,0,0,1-.12-3.55,1.14,1.14,0,0,1,.62-1.16,2.8,2.8,0,0,0-.12-5.07c-.49-.27-.5-.64-.5-1.09v-27.48c0-.44,0-.83.52-1.06a2.84,2.84,0,0,0,.1-5.09,1.11,1.11,0,0,1-.63-1.16q0-13.67,0-27.34a1.21,1.21,0,0,1,.68-1.21,2.8,2.8,0,0,0,0-5,1.18,1.18,0,0,1-.66-1.22q0-13.7,0-27.41a1.25,1.25,0,0,1,.7-1.26c1.78-1,2.07-3.57.41-4.6a2.24,2.24,0,0,1-1.1-2.45,4.33,4.33,0,0,0,0-.72.92.92,0,0,1,.58-1c1.67-.89,3.32-1.79,5-2.7.89-.49.95-.48.94.53,0,4.88-.08,9.76-.09,14.64q-.09,42.88,0,85.79a20.9,20.9,0,0,0,.11,2.09,12.17,12.17,0,0,0,9.74,10.56,95.85,95.85,0,0,0,11.61,1c3.11.21,6.21.42,9.29.91a38.36,38.36,0,0,1,12,3.8,3.07,3.07,0,0,0,3.15,0,30.16,30.16,0,0,1,5.49-2.25c5.29-1.63,10.76-2,16.24-2.31,3-.18,6-.32,9-.77a13.8,13.8,0,0,0,8.12-4.15,14.15,14.15,0,0,0,4-10.19q0-38.58,0-77.16,0-11,0-22c0-.89.05-.93.83-.51a41.55,41.55,0,0,0,3.84,2,2.79,2.79,0,0,1,2,3.43c-.08.47-.15.77-.62,1a2.8,2.8,0,0,0-.16,5,1.38,1.38,0,0,1,.76,1.44q0,13.59,0,27.19a1.26,1.26,0,0,1-.73,1.32,2.82,2.82,0,0,0,.13,5,.93.93,0,0,1,.59,1q0,13.82,0,27.63c0,.07,0,.15,0,.22a.66.66,0,0,1-.46.72,2.69,2.69,0,0,0-1.69,2.57,2.72,2.72,0,0,0,1.64,2.61.87.87,0,0,1,.52.92q0,13.88,0,27.77a.9.9,0,0,1-.58,1,2.68,2.68,0,0,0-1.58,2.57,2.6,2.6,0,0,0,1.62,2.53.82.82,0,0,1,.54.89c0,.87,0,1.74,0,2.61a6.81,6.81,0,0,1-5.68,6.57,48.53,48.53,0,0,1-6.15.13c-.39,0-.54-.25-.68-.55a2.71,2.71,0,0,0-2.62-1.61,2.75,2.75,0,0,0-2.58,1.69.69.69,0,0,1-.71.48c-.85,0-1.7,0-2.54,0-.44,0-.61-.2-.6-.62,0-.8,0-1.59,0-2.39a1.68,1.68,0,0,0-1.51-1.82,8.79,8.79,0,0,0-3.39.1,2,2,0,0,1-1.19,0c-2.83-.89-5.67-1.77-8.5-2.68a5.4,5.4,0,0,0-2.29-.21l-5.32.55c-1.06.12-2.12.21-3.17.34a1.26,1.26,0,0,0-.73,2.25c.25.23.48.48.73.71s.3.45-.12.58-1,.39-1.57.56a1.67,1.67,0,0,0-1.24,1.75c0,.89,0,1.79,0,2.68a2.14,2.14,0,0,0,1.54,2.34,12.54,12.54,0,0,1,1.84.85c-.49.6-1,1.23-1.5,1.82-.33.37-.7.7-.5,1.26s.72.61,1.19.66c2.84.31,5.67.57,8.5.9a7.4,7.4,0,0,0,3.2-.35c2.77-.92,5.57-1.76,8.36-2.63a1.61,1.61,0,0,1,.7-.13,21,21,0,0,0,3,.06c1.39,0,2-.64,2-2.05,0-.77,0-1.55,0-2.32,0-.61.16-.89.82-.85a18.39,18.39,0,0,0,2.1,0,.94.94,0,0,1,1,.61,2.66,2.66,0,0,0,2.49,1.57,2.61,2.61,0,0,0,2.58-1.54,1,1,0,0,1,1.08-.64c1.55,0,3.09,0,4.64,0a8.1,8.1,0,0,0,8.2-8.17c0-.75,0-1.5,0-2.25a1.08,1.08,0,0,1,.69-1.18,2.85,2.85,0,0,0,0-5,1.12,1.12,0,0,1-.69-1.18q0-13.67,0-27.34a1.2,1.2,0,0,1,.72-1.25,2.86,2.86,0,0,0,0-5,1.1,1.1,0,0,1-.68-1.19q0-13.64,0-27.27a1.17,1.17,0,0,1,.72-1.24,2.85,2.85,0,0,0,0-5,1.21,1.21,0,0,1-.73-1.3q0-11.28,0-22.56v-4.93c0-.41,0-.75.48-.94a2.67,2.67,0,0,0,1.69-2.56,2.72,2.72,0,0,0-1.66-2.66.79.79,0,0,1-.51-.78V922.44a.61.61,0,0,1,.28-.61c1.14-.7,1.19-.9.67-2.14-.69-1.64-1.37-3.3-2-5-.09-.23-.28-.48.17-.6M520,1054.19c.11-.35-.3-1.06.55-1.07s.48.74.57,1.17a3.47,3.47,0,0,1,0,.72c0,.41-.25.52-.61.51s-.52-.2-.51-.54v-.79m-17-4.68c2.5-.8,5-1.56,7.53-2.38a4.65,4.65,0,0,1,1.93,0c2.35.21,4.7.47,7,.72.15,0,.32,0,.39.14s-.09.3-.2.42a.9.9,0,0,1-.94.21c-1.59-.29-3.18-.55-4.77-.86a2.17,2.17,0,0,0-1.46.21c-3.42,1.7-6.85,3.38-10.27,5.07-.87.43-.87.43-.87-.56v-.8c0-1.68,0-1.68,1.61-2.19m15.36,1a.87.87,0,0,1,.83,1c0,.41,0,.77-.6.74-.78,0-.43-.64-.58-1,.17-.26-.2-.8.35-.77m.81,3.81c0,.26,0,.53,0,.79s-.23.4-.5.4-.57,0-.59-.38c0-.54,0-1.07,0-1.6,0-.34.23-.44.53-.44s.54.09.56.43,0,.53,0,.8m-1.11,3.12c0-.19,0-.39,0-.58s.08-.38.31-.42.49-.09.68.11a1.71,1.71,0,0,1-.25,1.76c-.54.28-.73.17-.76-.44v-.43Zm-2,.88a3.75,3.75,0,0,1,0-.58h0V1057c0-.42.21-.54.59-.54s.52.18.52.54,0,.91,0,1.37-.3.66-.74.68-.33-.41-.37-.68m.56-2.82c-.86,0-.49-.69-.56-1.12a5.74,5.74,0,0,1,0-.72c0-.38.15-.57.55-.57s.58.16.57.55c0,.24,0,.48,0,.79s.33,1.07-.55,1.07m-.57-4.57c0-.22,0-.44,0-.65s-.08-.61.3-.63.73.1.77.51a12,12,0,0,1,0,1.8c0,.32-.29.34-.54.34s-.5,0-.52-.36,0-.68,0-1h0M514.1,1057c0-.32,0-.58.42-.58s.62.09.62.51v1.88c0,.42-.31.52-.64.55s-.36-.3-.38-.55,0-.68-.06-1h0c0-.27,0-.53,0-.8m.46-1.47c-.42,0-.55-.23-.54-.6v-1.23c0-.43.2-.61.63-.6s.5.29.5.64v.57c0,.2,0,.39,0,.58,0,.41-.14.64-.59.64m-.54-4.76v-.94c0-.3.1-.52.46-.52s.64.1.65.51c0,.67,0,1.34,0,2,0,.32-.19.47-.51.47s-.58-.08-.6-.46,0-.72,0-1.08Zm-.79,4.24c0,.37-.19.52-.54.52s-.57-.11-.57-.48,0-1,0-1.44.2-.51.55-.51.59.14.58.54c0,.24,0,.48,0,.72h0v.65m-.55-2.69c-.4,0-.58-.18-.57-.57v-1.6c0-.49.39-.63.76-.75s.35.1.36.32,0,.72,0,1.08h0c0,.32,0,.63,0,1s-.16.57-.56.57m-.55,4.48c0-.36.31-.37.59-.37s.49.07.5.38,0,.77,0,1.15h0a3.52,3.52,0,0,1,0,.65c0,.23.17.64-.21.64s-.83-.12-.88-.58a14.59,14.59,0,0,1,0-1.87m-.89-5.56c-.1.44.22,1.07-.6,1.08-.67,0-.54-.48-.55-.87,0-.61.43-1.19.87-1.09s.14.61.28.88m-.34,7a.85.85,0,0,1-.82-1c.05-.38-.06-.8.54-.81.81,0,.54.6.62,1-.15.24.25.82-.34.8m-.81-4.54c0-.41.12-.64.57-.63s.58.25.56.64v.58h0c0,.26,0,.53,0,.79s-.26.41-.56.41-.53-.08-.54-.43,0-.91,0-1.36m-.79,1.29c0,.37-.2.51-.55.51s-.55-.14-.56-.51,0-.48,0-.72,0-.48,0-.72a.44.44,0,0,1,.51-.48c.33,0,.58.1.6.47s0,1,0,1.45m-2-1.43v.72h0c0,.26,0,.52,0,.79s-.25.43-.54.42-.54-.07-.55-.42,0-1,0-1.51.21-.49.55-.49.56.11.56.49m-2,1.31c0,.44-.14.58-.56.36s-.9-.45-1.35-.68-.33-.33,0-.49l1.16-.58c.67-.32.73-.28.75.45v.43a4.34,4.34,0,0,0,0,.51m-3.91,1.22c0-.89.05-.92.82-.54,3.14,1.55,6.3,3.06,9.41,4.66a4.59,4.59,0,0,0,3.4.47c1.19-.3,2.42-.45,3.63-.67.82-.14.82-.14,1.48.67l-5.71.6c-.43,0-.87.06-1.29.15a8.32,8.32,0,0,1-4.46-.51c-2.12-.73-4.27-1.37-6.42-2-.63-.19-.94-.47-.87-1.17.05-.54,0-1.11,0-1.66m-4.23-6.06q1.05,0,2.1,0c.54,0,.66.37.66.84v3.54c0,1.2,0,2.41,0,3.62,0,.55-.23.79-.78.79h-1.95a.63.63,0,0,1-.71-.71c0-2.44,0-4.87,0-7.31a.67.67,0,0,1,.69-.76m-8.46,2.47a1.49,1.49,0,0,1,0,3,1.49,1.49,0,0,1,0-3m41.05-4.67,7.7-.81a2.75,2.75,0,0,1,1.14.09l8,2.52c1.16.36,1.16.36,1.16,1.59v.51c0,1.78,0,1.78-1.62,1l-9.54-4.71a2.39,2.39,0,0,0-1.6-.24c-1.51.3-3,.56-4.55.83a2.15,2.15,0,0,1-.71,0c-.3-.05-.61-.27-.61-.54s.4-.23.63-.26m16.1,6.65a3.92,3.92,0,0,1-.58.29c-.48.17-1.06.83-1.39.5s-.11-1.19-.14-1.81c0-.17.08-.28.36-.22.55.27,1.18.58,1.79.91.18.1.12.24,0,.33m-3-.2c0,.24,0,.48,0,.72a.44.44,0,0,1-.5.47c-.32,0-.5-.14-.51-.46v-1.44q0-.52.54-.51a.44.44,0,0,1,.47.5c0,.24,0,.48,0,.72m-1.91.58c0,.41-.13.63-.58.62s-.56-.27-.55-.65v-.58h0v-.72c0-.38.24-.47.57-.47s.55.14.55.5,0,.87,0,1.3m-3.16,2.54c.08-.43-.19-1,.58-1s.57.45.57.85c0,.58-.41,1.12-.85,1s-.17-.59-.3-.86m1.14-2.46c0,.41-.21.54-.59.54s-.54-.16-.53-.52,0-.82,0-1.22.09-.7.59-.69.56.29.55.67c0,.17,0,.34,0,.5h0v.72m-.54-2.78c-.82,0-.49-.63-.62-1,.16-.25-.2-.8.31-.78a.87.87,0,0,1,.86,1c0,.38,0,.8-.55.8m-2.5,5.69h0v-.94c0-.41.24-.54.61-.53s.51.2.51.55,0,1,0,1.52a.55.55,0,0,1-.14.39c-.22.22-.5.46-.81.37s-.14-.41-.16-.64,0-.48,0-.72m1.13-3.54h0v.72c0,.34-.22.44-.53.45s-.58-.08-.58-.46,0-1,0-1.44.24-.53.61-.52a.45.45,0,0,1,.51.53v.72m0-2.57c0,.34-.25.42-.55.42s-.53-.1-.55-.43,0-.72,0-1.08h0a3.75,3.75,0,0,1,0-.58c0-.25-.15-.68.29-.66a.74.74,0,0,1,.8.6,16.61,16.61,0,0,1,0,1.73m-3.12,1.83c0-.37.19-.51.54-.51s.57.09.57.47V1055c0,.36-.19.5-.54.51s-.58-.15-.57-.55v-.72h0v-.64m0,3.28c0-.39.26-.48.59-.47s.51.12.52.46v1h0c0,.32,0,.63,0,.94s0,.59-.38.54-.72,0-.73-.53v-1.95m1.11-6.2v1c0,.36-.2.5-.55.5s-.56-.12-.56-.49c0-.6,0-1.21,0-1.81s.33-.57.72-.6.38.32.39.59,0,.53,0,.8Zm-3.13,3.66a4.33,4.33,0,0,1,0-.72c0-.34.14-.53.51-.53s.61.1.61.52v.8c-.12.35.33,1.11-.59,1.09s-.44-.74-.53-1.16m0-4c0-.52.29-.68.71-.7s.4.37.43.66,0,.39,0,.58v.64c0,.39-.1.66-.55.67s-.59-.23-.58-.63,0-.82,0-1.22m0,6.44c0-.31.25-.38.52-.38s.54.06.57.41,0,.58,0,.87h0c0,.22,0,.43,0,.65s0,.63-.41.62-.66-.13-.69-.51a15.32,15.32,0,0,1,0-1.66m-1.09,1.37c-.49.06-.85-.42-.85-1,0-.39,0-.73.57-.72.77,0,.51.59.58,1-.11.22.21.67-.3.73m-.33-6a.67.67,0,0,1-.34-.1c-.36-.27-.19-1.57.23-1.77s.71-.19.73.43v.42c-.08.37.25,1-.62,1m.07.89c.54,0,.56.35.55.73v.43c0,.22,0,.44,0,.65,0,.41-.13.63-.58.63s-.56-.27-.55-.66,0-.72,0-1.08.08-.7.59-.7M529,1054.3c0,.27,0,.53,0,.79s-.26.42-.56.42-.54-.07-.54-.42,0-1,0-1.51.22-.49.56-.49.56.11.56.49v.72h0m18.08,4.52-8.63,2.71a5.57,5.57,0,0,1-2.3-.07c-2.25-.22-4.51-.47-6.76-.71a.35.35,0,0,1-.34-.17,1,1,0,0,1,1.14-.57c1.54.3,3.09.54,4.63.83a2.73,2.73,0,0,0,1.82-.25c3.43-1.72,6.88-3.41,10.32-5.1.71-.36.73-.35.74.47s0,1.35,0,2a.74.74,0,0,1-.62.84m5.43-1c0,.53-.27.73-.77.72s-1.16,0-1.74,0-1-.25-1-.94c0-1.16,0-2.32,0-3.48s0-2.27,0-3.4c0-.67.26-.92.91-.89s1.2,0,1.81,0,.75.22.75.74q0,3.63,0,7.25m7.74-2.35a1.49,1.49,0,0,1,.09-3,1.49,1.49,0,0,1-.09,3m15.22-152.82c.16-.13.3-.41.53-.28s.1.39.06.59c-.31,1.51-.67,3-.91,4.54-.13.8-.56,1-1.27,1.06-1.66.08-3.32.19-5,.28l-6.07.31v0h-.72c-.69,0-1-.32-.95-1,.06-.45.46-.38.74-.39,1.24-.09,2.5-.16,3.75-.18,1.06,0,2.12-.07,3.18-.15a2.18,2.18,0,0,0,.93-.34,47.16,47.16,0,0,0,5.7-4.45m-24.25,9.26-8.42-1.43c-.43-.08-.73-.21-.74-.72s.15-.79.7-.74h.72v0l5.48.42c.36,0,.72,0,1.08,0s.46-.28.48-.59-.16-.42-.44-.45c-.53,0-1-.14-1.58-.14s-.64-.37-.64-.82.06-.76.62-.75a6.14,6.14,0,0,1,2.36.17,18.25,18.25,0,0,1,2.16,1.63c.09.06.06.32.07.49a1,1,0,0,0,.68,1,8,8,0,0,0,3.7.46,4.59,4.59,0,0,0,2.13-1c.16-.12.29-.43.51-.28s.18.38.19.59a7.39,7.39,0,0,1-1.51,5c-1,1.44-2.13,2-4,1.33-3.25-1.16-6.61-2-9.93-3a2.57,2.57,0,0,1-.73-.28c-.29-.2-.56-.53-.44-.85s.5-.14.77-.09l6.64,1.12c.37.06.65.09.74-.4s-.2-.62-.6-.68m3-3.25c0-.23.23-.29.42-.33l4.63-1.1c.15,0,.3-.07.41.07a.35.35,0,0,1,0,.46,3.93,3.93,0,0,1-3.07,1.66l-1.91-.36c-.2-.05-.45-.11-.44-.4m4.62,7.75c.27-.14.4.07.53.23,1.19,1.46,2.38,2.91,3.56,4.38a2,2,0,0,1-.14,1.82.42.42,0,0,1-.25.09,1.12,1.12,0,0,1-.36-.05c-2.15-.44-2.15-.44-2.77-2.6-.31-1.09-.61-2.18-.88-3.14,0-.41.07-.61.31-.73m4.1,2.95a30.35,30.35,0,0,0-2.9-3.61c-.38-.44-.12-.67.07-1s.47-.21.72-.06l9,5.34c.35.2.49.38.08.68s-.79.63-1.19,1a1,1,0,0,1-.76.21c-1.66-.64-3.81-.53-5.07-2.51m6.64-.77-8.22-4.85c-.31-.19-.61-.35-.35-.78a.35.35,0,0,1,.39-.21l.4.22,8.2,4.87c.23.14.71.21.49.65s-.56.32-.91.1M565,904.43a4.05,4.05,0,0,0,1.54-.33c1.4-.59,2.81-1.16,4.22-1.74.22-.08.46-.28.68-.13s0,.45,0,.68a3.73,3.73,0,0,0-.12.56c0,1.44-1,2.17-2.09,2.77a1.31,1.31,0,0,1-.61.18l-7.08.3a1.28,1.28,0,0,1-1.07-.32,1.44,1.44,0,0,0-1.44-.19c-1.53.35-3.06.7-4.58,1.09a2.08,2.08,0,0,1-1.82-.43l3.57-2a1.69,1.69,0,0,1,.63-.13l8.17-.3m-80.69-3.28c0-.92,0-.95.93-.95H502c1.62,0,2.13-.51,2.13-2.13s0-3.34,0-5c0-.62.17-.86.82-.86h37.33c.65,0,.84.24.83.86,0,1.66,0,3.33,0,5s.46,2.13,2.16,2.13h17.18a.46.46,0,0,1,.52.54v2.1a.49.49,0,0,1-.52.56c-.46,0-.91.09-1.37.1l-4.63.16a2,2,0,0,0-1,.33c-.78.44-1.56.87-2.32,1.34a2.65,2.65,0,0,1-1.45.38c-1.18,0-2.37,0-3.55,0-.91,0-1.21.31-1.23,1.22a2.16,2.16,0,0,0,0,.44c.09.72-.28.85-.91.79-1.18-.11-2.36-.2-3.54-.25s-1.45.38-1.47,1.42a7.94,7.94,0,0,0,0,1.09c0,.32.1.68.41.8.82.31,1.1,1,1.42,1.74a2.07,2.07,0,0,0,1.4,1.14c4,1.14,7.94,2.3,11.91,3.45a1.1,1.1,0,0,0,.48.12c.89-.16,1.08.4,1.25,1.09.32,1.26.71,2.51,1.06,3.76a1.14,1.14,0,0,0,.9.94c1.22.22,2.37.88,3.67.59a.68.68,0,0,1,.41.1l3.13,1.69a.77.77,0,0,1,.44.76c0,3.75,0,7.49,0,11.24a1.18,1.18,0,0,1-.06.19c-.31-.14-.45-.43-.63-.65q-7.71-9.66-15.4-19.34a2.16,2.16,0,0,0-2.08-.89c-.7.07-1.39.13-2.09.18a3,3,0,0,0-1.65.84,23.25,23.25,0,0,0-5.23,6.87,2,2,0,0,1-2.08,1.15c-2-.11-4-.1-6-.17a2.41,2.41,0,0,0-2,.8,1.21,1.21,0,0,1-1.62.3c-.18-.09-.37-.13-.54-.22-1.6-.92-3.32-.62-5-.51a2.39,2.39,0,0,0-1.2.48c-.6.42-1.21.81-1.8,1.22a.82.82,0,0,1-1.26-.15,2.55,2.55,0,0,0-4.14.24c-.73,1-1.48,2-2.23,3-.55.76-.84.8-1.6.22-3-2.33-6-4.67-9.06-7l-2.7-2.09a2.53,2.53,0,0,0-2.11-.41,7.15,7.15,0,0,0-4.72,3.23c-3.27,4.52-6.71,8.92-10.09,13.36-.13.18-.21.44-.49.5-.18-.22-.1-.47-.1-.7,0-3.8,0-7.59,0-11.38,0-.63.13-1.08.76-1.31a2.49,2.49,0,0,0,.76-.43c1.49-1.25,3.39-1.12,5.14-1.44a2.41,2.41,0,0,0,2.25-2.12c.23-1.19.65-2.33,1-3.5.1-.38.22-.61.68-.48a1.7,1.7,0,0,0,1-.15c3.81-1.1,7.6-2.24,11.42-3.3a2.73,2.73,0,0,0,2-1.63,2,2,0,0,1,1.1-1.27.88.88,0,0,0,.52-.89c0-.33,0-.67,0-1,0-1.19-.38-1.56-1.58-1.51s-2.22.13-3.33.23c-.79.07-.88,0-.9-.77,0-1.4-.31-1.67-1.67-1.66-.67,0-1.36,0-2,0a4.59,4.59,0,0,1-3.47-.9c-1.52-1.23-3.35-1.2-5.15-1.27-1.64-.06-3.29-.13-4.93-.15-.57,0-.77-.24-.74-.79s0-1,0-1.45m53.58,34.78a6.14,6.14,0,0,0-3.16-1.13,14.69,14.69,0,0,1-7.55-2.86,6.82,6.82,0,0,0-4.3-.87,1.52,1.52,0,0,0-.79.34c-.88.56-1.79,1.06-2.62,1.69a31.61,31.61,0,0,1-8.58,4.13,5.6,5.6,0,0,0-.68.26,16.8,16.8,0,0,1-7.72,1.48c-6-.13-11.93,0-17.9-.05-.27,0-.65.16-.79-.14s.2-.46.36-.67c3.41-4.5,6.84-9,10.23-13.52a3.51,3.51,0,0,1,1.69-1,2.79,2.79,0,0,1,3.27.6c1.6,1.39,3.33,2.63,5,3.94a.61.61,0,0,1,.35.49h-6.13c-.5,0-.68.21-.67.7s.23.63.67.63c2,0,4,.08,6,0a4.65,4.65,0,0,1,3.8,1.3,19.47,19.47,0,0,0,1.89,1.47,2,2,0,0,0,3-.41c.83-1.08,1.6-2.19,2.4-3.27a1.25,1.25,0,0,1,2.2-.07,2,2,0,0,0,2.55.46c.56-.33,1.1-.71,1.63-1.08,1.44-1,3-.81,4.6-.52a11.08,11.08,0,0,1,1.76.66,2,2,0,0,0,2.34-.39,2.46,2.46,0,0,1,2.23-.72c2,.21,4.11.1,6.16.13a3,3,0,0,1,1.25.29c4.32,2.05,8.65,4.08,13,6.14.45.21.77.3,1-.26s0-.75-.48-.95c-4.09-1.93-8.16-3.89-12.25-5.8-.65-.3-.68-.57-.3-1.12a21.45,21.45,0,0,0,1.51-2.47,17.12,17.12,0,0,1,3.79-4.34c.61-.59,1.48-.31,2.22-.47a1.62,1.62,0,0,1,1.73.74c2.26,2.9,4.56,5.75,6.84,8.63.16.2.49.39.34.66s-.45.09-.68.09h-4.06c-.47,0-.79.11-.81.67s.32.67.79.66c1.82,0,3.63,0,5.44,0a1.24,1.24,0,0,1,1,.5c2,2.6,4.11,5.19,6.17,7.78.13.16.39.31.3.54s-.42.13-.65.17a2.8,2.8,0,0,1-.29,0c-7.12,0-14.25,0-21.38,0a3.29,3.29,0,0,1-1.84-.53c-1.32-.84-2.68-1.63-4-2.48m1.94,3H510.63l0-.13c.77-.29,1.53-.63,2.33-.88A27.55,27.55,0,0,0,520.5,934c.45-.31.94-.59,1.39-.91a3.63,3.63,0,0,1,4.25-.13c1.36.79,2.75,1.52,4.13,2.27a8.1,8.1,0,0,0,3.51.75c2.44.13,4.12,1.69,6,2.91M479.3,920l6-3.56,2.87-1.7c.23-.13.49-.39.75,0s.48.6.14,1c-1.33,1.6-2.63,3.22-3.94,4.83a.67.67,0,0,1-.22.19c-1.3.52-2.68.78-3.9,1.17a5.68,5.68,0,0,1-2.08-1.42c-.09-.34.22-.39.41-.5m-.84-1.56c-.11-.25.15-.32.3-.41l8.64-5.13c.16-.09.34-.27.52-.09a1.16,1.16,0,0,1,.2.38.62.62,0,0,1-.4.54l-8.21,4.86a1.72,1.72,0,0,1-.47.19.55.55,0,0,1-.58-.34m11.45-8.66a4.56,4.56,0,0,0,3.19.67c.41-.06.8-.18,1.21-.23.95-.12,1.67-.48,1.71-1.59a.3.3,0,0,1,.06-.2c.7-.41,1.22-1.11,1.86-1.47a4.61,4.61,0,0,1,2.77-.19c.53.06.35.55.37.89s-.09.6-.51.63-1.05.11-1.58.15c-.35,0-.54.17-.52.54a.46.46,0,0,0,.56.5l2.74-.19,4.48-.25c.38,0,.74,0,.76.52s-.07.82-.66.92c-2.83.46-5.66,1-8.49,1.44-.34.05-.71.07-.68.56s.3.63.79.54c2.21-.39,4.42-.76,6.63-1.13.27,0,.66-.26.77.07s-.16.65-.42.86a1.68,1.68,0,0,1-.6.24c-3.75,1.1-7.51,2.18-11.25,3.31a1.56,1.56,0,0,1-1.74-.45c-1.88-1.85-2.58-3.29-2.6-5.58,0-.36-.19-1,.12-1.17s.68.38,1,.61m-.61-2.35a.33.33,0,0,1,.43-.17l4.71,1.11c.17,0,.33.14.34.33s-.18.32-.38.36l-1.91.38a4.07,4.07,0,0,1-3.1-1.61.36.36,0,0,1-.09-.4m1.22,9.76c-.33,1.14-.65,2.28-1,3.41-.54,1.92-.73,2.08-2.74,2.32l-.14,0c-.24,0-.44-.05-.51-.31-.14-.54-.5-1.06,0-1.63,1-1.24,2-2.51,3.06-3.76.14-.17.27-.35.41-.51s.31-.49.64-.28a.59.59,0,0,1,.28.74m-12.39-14.93c1.07.46,2.18.82,3.21,1.34a10.37,10.37,0,0,0,4.55.93c2.07.07,4.15.13,6.22.17a2.36,2.36,0,0,1,1.16.33c.85.51,1.72,1,2.58,1.48.16.09.41.14.41.36s-.3.27-.48.38a1.25,1.25,0,0,1-1,.07l-4.58-1.08c-.26-.06-.52-.1-.8-.15s-.43,0-.54.12c-.87.84-1.92.47-2.89.46-1.78,0-3.56-.17-5.35-.26a3.37,3.37,0,0,1-2.71-2.23c-.12-.49-.22-1-.34-1.48s0-.65.53-.44m-5.32.05.19-.09c1.22,1,2.45,2,3.65,3.07a20.19,20.19,0,0,0,2.72,1.91,4.83,4.83,0,0,0,2.41.37c1.73.1,3.47.12,5.21.2.85.05.93.22.76,1.05-.09.43-.31.44-.67.42l-9.18-.51-3-.18a.91.91,0,0,1-.95-.87c-.33-1.79-.73-3.58-1.1-5.37m-1.75,9.51c-.2-.09,0-.25.1-.33.8-.58,1.59-1.17,2.41-1.72.4-.27.89-.12,1.39-.14l12,.72c.31,0,.58,0,.61.45s-.21.55-.56.59c-1.67.2-3.34.41-5,.6-2.75.33-5.5.66-8.26,1-1.07.12-1.8-.7-2.67-1.13m1.13,8.63a37,37,0,0,0,1.69-4.21c.52-1.86,1.56-2.55,3.48-2.64,2.66-.11,5.3-.58,8-.77l-13,7.73-.15-.11m2.21,120.16a1.37,1.37,0,0,1-1.49,1.41,1.42,1.42,0,0,1-1.39-1.52,1.44,1.44,0,0,1,2.88.11m0-34.83a1.44,1.44,0,0,1-2.88.06,1.45,1.45,0,0,1,1.42-1.5,1.38,1.38,0,0,1,1.46,1.44m0-34.68a1.38,1.38,0,0,1-1.37,1.45,1.46,1.46,0,0,1-1.51-1.49,1.44,1.44,0,0,1,2.88,0m0-34.81a1.42,1.42,0,0,1-1.47,1.44,1.47,1.47,0,1,1,1.47-1.44m0-7.62c-.73.39-.75.38-.76-.49v-1.67c-.55-1.93.41-3,2.09-3.66a6.85,6.85,0,0,0,.69-.4.39.39,0,0,0,.17-.65c-.17-.27-.35-.46-.69-.26l-1.75,1c-.33.19-.47.13-.51-.27-.08-.78,0-1.42.85-1.8a18.18,18.18,0,0,0,2.26-1.31.61.61,0,0,1,.79,0c.3.23.24.45.11.75a1.1,1.1,0,0,0,.36,1.36,12.93,12.93,0,0,0,1,.81c.4.29.38.51,0,.75L477.1,924c-.33.18-.47.35-.25.73a.47.47,0,0,0,.77.18l.25-.14a17.44,17.44,0,0,1,6.31-2.62c.3-.07.61-.23.76.24s0,.61-.38.8l-10.12,5.49m93,98.38a12.73,12.73,0,0,1-11.34,13c-2.92.41-5.86.54-8.8.72-5.72.34-11.43.75-16.92,2.57a31.4,31.4,0,0,0-5,2.1,1.85,1.85,0,0,1-1.91,0,42.36,42.36,0,0,0-14.81-4.28c-4-.48-8-.65-12-.88a60,60,0,0,1-6.13-.58,10.91,10.91,0,0,1-9.08-9.52c-.07-.75-.11-1.49-.11-2.24q0-38.91,0-77.8c0-2.7.1-5.41.12-8.11a1.76,1.76,0,0,1,1.8-1.75l23.2,0,58.78,0h.43c1.32,0,1.72.42,1.72,1.75v42.92h0q0,21.06,0,42.13m5.18-104.5c.7.42,1.4.85,2.13,1.23a1.14,1.14,0,0,1,.67,1.16c0,1.18,0,2.37,0,3.55,0,.54-.14.65-.62.38l-8.71-4.75-1.59-.87a.65.65,0,0,1-.37-.94c.2-.47.53-.21.8-.15a16.56,16.56,0,0,1,6,2.51,4.11,4.11,0,0,0,.51.27c.3.18.48,0,.64-.22s.16-.5-.13-.67c-.67-.39-1.33-.79-2-1.17-.37-.21-.44-.41-.06-.69s.75-.6,1.12-.92a1,1,0,0,0,.34-1.41.49.49,0,0,1,.15-.69.54.54,0,0,1,.72,0c.91.55,1.81,1.11,2.74,1.63.5.28.51.71.47,1.28,0,.17.17.54-.13.7s-.48-.16-.7-.29c-.49-.27-1-.54-1.44-.84s-.58-.27-.83.14,0,.61.33.78m5,118a1.44,1.44,0,0,1-1.49,1.44,1.45,1.45,0,1,1,0-2.89,1.41,1.41,0,0,1,1.46,1.45m0-34.77a1.39,1.39,0,0,1-1.49,1.42,1.45,1.45,0,1,1,0-2.89,1.49,1.49,0,0,1,1.47,1.47m0-34.66a1.44,1.44,0,0,1-1.46,1.4,1.47,1.47,0,0,1-1.47-1.47,1.45,1.45,0,0,1,1.51-1.42,1.4,1.4,0,0,1,1.42,1.49m0-34.88a1.49,1.49,0,0,1-1.41,1.46,1.47,1.47,0,0,1-1.52-1.43,1.54,1.54,0,0,1,1.46-1.51,1.47,1.47,0,0,1,1.47,1.48m-.75-15.86-.14.14-13-7.69.06-.14,6.43.75,3.24.38c.36,0,.72.08.88.49.84,2,1.67,4,2.51,6.07m-2.79-7.55c-3.81-.58-7.65-.94-11.49-1.39l-.57-.09c-.35,0-.6-.15-.57-.57s.36-.44.67-.46l10.26-.59a9.2,9.2,0,0,1,1.83-.1,2.25,2.25,0,0,1,2.09.64c.46.39,1,.73,1.46,1.08.34.23.45.4,0,.65a5.55,5.55,0,0,1-3.68.83" transform="translate(-469.73 -890.77)" fill="#484747"/><path d="M564.58,946.91a2.3,2.3,0,0,0-2.7-2.24,3.75,3.75,0,0,1-1,0c-12.43-.09-24.87,0-37.31-.1-12.18-.16-24.35,0-36.53,0a4.34,4.34,0,0,0-.51,0,2.38,2.38,0,0,0-2.14,2,9.15,9.15,0,0,0-.1,1.38q0,3.62,0,7.25,0,34.75,0,69.53a12,12,0,0,0,1.41,6c2.22,3.91,5.74,5.6,10.09,5.92,3.71.27,7.43.33,11.14.54,5.69.33,11.23,1.2,16.34,3.93a2.46,2.46,0,0,0,2.37,0c.58-.3,1.17-.58,1.76-.85,4.65-2.08,9.61-2.62,14.62-2.89,3.52-.18,7-.23,10.55-.58a12.93,12.93,0,0,0,12-13.22V947.78c0-.29,0-.58,0-.87M553,1035.38c-2.86.34-5.73.43-8.59.55-4.83.19-9.65.47-14.32,1.9a25.46,25.46,0,0,0-4.69,1.9,1.89,1.89,0,0,1-1.92,0,34.11,34.11,0,0,0-11-3.34c-3.52-.48-7.06-.63-10.61-.76a52.25,52.25,0,0,1-8.29-.64,9.66,9.66,0,0,1-7.82-9.5q0-19.4,0-38.79V947.89c0-.29,0-.58,0-.87a.93.93,0,0,1,1-1h.8c12,0,23.92.11,35.87,0,12.45-.14,24.89,0,37.33-.09h.79c1.31,0,1.62.34,1.62,1.63,0,25.45,0,50.9,0,76.35A11.59,11.59,0,0,1,553,1035.38" transform="translate(-469.73 -890.77)" fill="#484747"/><path d="M509,903.27a4.53,4.53,0,0,0-.28.59c-.81,2-.09,3.38,2,3.87a3.2,3.2,0,0,0,.42.1c.64.06.69.34.4.86a4.62,4.62,0,0,0-.1,4.39.83.83,0,0,1,0,.87,2.11,2.11,0,0,0,.26,2.67,3,3,0,0,1,.88,1.52A1.29,1.29,0,0,0,514,919.2a1.34,1.34,0,0,1,1.42.54.89.89,0,0,0,.78.31,2,2,0,0,1,1.85.49.94.94,0,0,0,.84.11c.53-.12,1,.18,1.41.26a16,16,0,0,0,3.85.37c.2,0,.39-.15.62,0a2,2,0,0,0,1.81-.11.77.77,0,0,1,.63-.09,2,2,0,0,0,2-.35.49.49,0,0,1,.48-.09c1.37.38,2.42-1,3.78-.72.09,0,.26-.13.34-.24a.78.78,0,0,1,1-.42c1.1,0,1.64-.33,1.81-1.32a1.81,1.81,0,0,1,.63-1.08,2.1,2.1,0,0,0,.39-2.92.63.63,0,0,1,0-.72,4.84,4.84,0,0,0,0-4.4c-.38-.8-.38-.8.5-1l.43-.08c2.19-.49,2.38-2.05,1.83-3.78a2,2,0,0,0-.25-.53,1.76,1.76,0,0,1,.26-2.34c1.23-1.51.66-2.89-1.26-3.25a8.08,8.08,0,0,0-.86-.08,1,1,0,0,1-.66-.24c-1.88-1.67-3-1.77-5.19-.45a.48.48,0,0,1-.73-.09,2.47,2.47,0,0,0-3.77-.06c-.26.27-.39.3-.69.05a3.71,3.71,0,0,0-5.24,0c-.3.23-.45.3-.76,0a2.36,2.36,0,0,0-3.64,0c-.36.38-.55.42-1,.08a3.44,3.44,0,0,0-4.41,0,3.5,3.5,0,0,1-2,.89c-2.12.27-2.68,1.71-1.32,3.34a1.63,1.63,0,0,1,.24,2.11m17.08,5.94,1,.9c.11.1.23.21.18.37s-.23.16-.37.16H522.1c-.14,0-.32,0-.38-.13s.08-.32.2-.43c.39-.36.8-.69,1.18-1.06a1.4,1.4,0,0,0,.36-1.89,1.78,1.78,0,0,0-1.79-1.1,5.18,5.18,0,0,0-1.41.33,1.54,1.54,0,0,1-1.84-.4,19.53,19.53,0,0,1,12.21,0c-.45.43-.87.73-1.51.5a11.6,11.6,0,0,0-1.4-.38,1.8,1.8,0,0,0-2.1,1,1.61,1.61,0,0,0,.49,2.13m-7.44-1.89a1.23,1.23,0,0,0,1.08.19,11.37,11.37,0,0,1,1.82-.49.93.93,0,0,1,1,.51c.21.44,0,.75-.35,1a6.58,6.58,0,0,0-1.8,2,.84.84,0,0,1-.84.33c-.33,0-.25-.37-.31-.58a3.16,3.16,0,0,0-3.94-2.34,3.2,3.2,0,0,0-1.94,4.18c.1.29.42.62-.15.8s-.83.18-1-.39a4,4,0,0,1-.28-1.56,4.34,4.34,0,0,1,2.56-3.9,3.76,3.76,0,0,1,4.17.29m-1.14,4.53c-.5.24-1,.47-1.49.74a1,1,0,0,1-1.44-.34,2.1,2.1,0,0,1-.21-2.31,1.79,1.79,0,0,1,1.82-1.17,2,2,0,0,1,1.91,1.08,1.3,1.3,0,0,1-.59,2M516.46,919c-.58,0-.69-.4-.72-.86-.06-.73.53-.7,1-.79s.43.31.46.6c0,.49,0,1-.7,1m3,0a.64.64,0,0,1-.66.7.59.59,0,0,1-.7-.57,10.43,10.43,0,0,1,0-2.09c.08-.55.68-.69,1.12-.9.22-.1.23.17.24.33,0,.44,0,.87,0,1.3V919m2.33-1.23c0,.55,0,1.11,0,1.66s-.17.71-.63.72a.66.66,0,0,1-.76-.69c0-1.13,0-2.27,0-3.4,0-.52.43-.48.8-.5s.6.14.6.54c0,.56,0,1.11,0,1.67m2.2,1.94c0,.36-.08.7-.54.7a.6.6,0,0,1-.63-.65v-3.68c0-.37.2-.51.55-.51s.61.11.61.52v2h0v1.67m2.29-.08c0,.5-.22.79-.73.79s-.55-.37-.55-.76V918c0-.58,0-1.16,0-1.74s.22-.63.67-.62.61.16.61.6c0,1.16,0,2.31,0,3.47m2.32-.16a.64.64,0,0,1-.74.69.62.62,0,0,1-.66-.69c0-.58,0-1.15,0-1.73h0c0-.53,0-1.06,0-1.59s.19-.6.61-.59.8,0,.8.58c0,1.11,0,2.22,0,3.33m2.34-1.83a1.61,1.61,0,0,0,0,.44h0c0,.36,0,.72,0,1.08a.56.56,0,0,1-.63.55.57.57,0,0,1-.62-.57c0-.89,0-1.78,0-2.67,0-.37.2-.38.47-.22.54.31,1,.64.84,1.39m1.68,1.38c-.67,0-.67-.46-.67-1,.06-.23-.15-.73.42-.64.4.06,1,0,1,.68,0,.44-.05.95-.72.95m4.16-3.21a2.06,2.06,0,0,1-1.67.87,6.53,6.53,0,0,1-4.15-1,6,6,0,0,0-3.69-1c-1.91.06-3.82,0-5.72,0a5.37,5.37,0,0,0-3.29.92,6.51,6.51,0,0,1-4.26,1.12,2.18,2.18,0,0,1-1.71-.81,1.11,1.11,0,0,1,.4-1.81,3.37,3.37,0,0,1,1.74-.26,4.47,4.47,0,0,0,2.72-.72,9.89,9.89,0,0,1,6.21-1.48c1.58.11,3.18,0,4.77,0a2.75,2.75,0,0,1,1.2.25c.7.33,1.42.62,2.09,1a6.36,6.36,0,0,0,3.86,1,1.8,1.8,0,0,1,1.11.27,1.13,1.13,0,0,1,.39,1.73m-6.12-5a2.1,2.1,0,0,1,2.2-2.1A1.8,1.8,0,0,1,534.7,910a2.21,2.21,0,0,1-.37,2.38.9.9,0,0,1-1.17.26l-2-1a.81.81,0,0,1-.48-.81m6.1,1.77a.53.53,0,0,1-.69.33c-.54-.12-.7-.27-.46-.86a3.17,3.17,0,0,0-1.8-4.17,3.12,3.12,0,0,0-4.05,2.42c0,.21,0,.49-.33.48a.87.87,0,0,1-.84-.34,7.46,7.46,0,0,0-1.91-2,.69.69,0,0,1-.29-.82.85.85,0,0,1,.82-.6,5.91,5.91,0,0,1,1.9.44,1.34,1.34,0,0,0,1.29-.16,3.8,3.8,0,0,1,4.3-.2,4.49,4.49,0,0,1,2.46,3.76,4.2,4.2,0,0,1-.4,1.77m1.59-13.11c0-.25-.26-.63.18-.73a1.27,1.27,0,0,1,1.27.36.64.64,0,0,1,.12.85c-.22.35-.47.67-.72,1a2.06,2.06,0,0,0-.2,2.31,4.38,4.38,0,0,1,.62,2.05,1.2,1.2,0,0,1-.9,1.25c-.65.18-1.31.31-2,.47a.66.66,0,0,1-.54-.15c-1.58-1.25-3.53-1.48-5.39-2-1.19-.3-2.39-.54-3.73-.84a6.13,6.13,0,0,0,2.16-2c.24-.41.39,0,.49.14,1.14,1.91,4,2.52,6.14,1.55a4.32,4.32,0,0,0,2.47-4.31m-7.91,1.67c2.43,2,4.61,1.66,6.63-.65a2.86,2.86,0,0,1-2.71,2.66,3.47,3.47,0,0,1-3.92-2m1.89-2.39a2.69,2.69,0,0,1,2.37-1.61,2.61,2.61,0,0,1,2.38,1.58c.08.2.3.48,0,.63s-.46-.11-.59-.37a1.84,1.84,0,0,0-2.32-1.16A1.63,1.63,0,0,0,533,899c-.08.31-.25.5-.56.39s-.15-.41-.08-.62m3.06,1.74c-.74,1.21-2.72,1.24-3.92,0Zm-6.54-3.16a1.49,1.49,0,0,1,1.71,0,1.6,1.6,0,0,1,.61,1.61.49.49,0,0,1-.55.46h-.94a1.38,1.38,0,0,1-.29,0c-.42-.05-1,.21-1.13-.46a1.48,1.48,0,0,1,.59-1.61M522,898.72a2.85,2.85,0,0,1,2.54-1.83,2.73,2.73,0,0,1,2.62,1.9c.06.21.27.49-.07.62s-.53-.06-.64-.39a1.82,1.82,0,0,0-1.69-1.44,1.78,1.78,0,0,0-2,1.37c-.1.32-.2.57-.57.47s-.26-.44-.18-.7m4.8,1.65c-1,1.26-3.45,1.32-4.14.18a21,21,0,0,1,4.14-.18m-5.62.43a4.4,4.4,0,0,0,6.7.15c.21-.21.38-.74.75-.46s0,.63-.14.93c-.61,1.33-2,2.11-4.33,2.11a3.84,3.84,0,0,1-3.42-2.11,4.36,4.36,0,0,1-.23-.6c0-.14-.08-.3.09-.38a.3.3,0,0,1,.33.09,3.2,3.2,0,0,1,.25.27M518,898a1.49,1.49,0,0,1,1.93-.78,1.58,1.58,0,0,1,.85,1.87.45.45,0,0,1-.48.34h-1.37c-1,0-1.34-.48-.93-1.44m.52,3.25c-.36,1.33-2,2.15-3.7,1.94-1.54-.18-2.87-1.23-2.77-2.67,2,2.17,4.12,2.43,6.47.73m-1.43-.9c.14,0,.31,0,.36.17s-.1.25-.22.34a3,3,0,0,1-3.74-.51h3.6m-5.17-1.5a2.73,2.73,0,0,1,2.48-1.68,2.65,2.65,0,0,1,2.37,1.73l.06.21c0,.31-.23.35-.46.26s-.17-.16-.23-.26c-1.12-1.85-2.55-1.86-3.6,0-.13.22-.27.34-.51.24s-.16-.32-.11-.51m-2.72.33a1.27,1.27,0,0,1,1.18-.43c.31,0,.37.2.37.49,0,1.91.42,3.65,2.33,4.52a5,5,0,0,0,5.46-.6,4,4,0,0,0,.87-1c.12-.2.29-.32.43,0a5.57,5.57,0,0,0,2.19,2c-1.4.31-2.57.55-3.73.83-1.92.47-3.9.76-5.53,2a.68.68,0,0,1-.62.08c-.51-.12-1-.22-1.55-.35a1.38,1.38,0,0,1-1.14-1.84,4.82,4.82,0,0,1,.56-1.48,2,2,0,0,0-.23-2.48c-.15-.19-.3-.38-.44-.58a.9.9,0,0,1-.15-1.13" transform="translate(-469.73 -890.77)" fill="#484747"/><path d="M556.39,992.28H537.47c-.35,0-.51-.18-.56-.53a20,20,0,0,1-.17-3.18.57.57,0,0,1,.53-.64c1.77-.28,2.72-1.88,1.61-3.82s-2.29-3.81-3.42-5.73a.55.55,0,0,0-.83-.26,11.34,11.34,0,0,1-2.27.73,7.47,7.47,0,0,1-6.3-1.06,1.87,1.87,0,0,1-.91-1.73c0-5.63,0-11.26,0-16.89,0-.25,0-.49,0-.73a.46.46,0,0,0-.49-.5c-.63-.07-.82.12-.82.93,0,5.41-.08,10.83,0,16.24a3.16,3.16,0,0,1-2,3.16,7,7,0,0,1-1.83.68,10,10,0,0,1-5.8-.78c-.42-.17-.74-.23-1,.26-1.11,1.92-2.31,3.8-3.39,5.74s-.36,3.23,1.63,3.73a.67.67,0,0,1,.59.75,25.21,25.21,0,0,1-.17,2.6c-.08,1-.14,1-1.15,1H492.29a.46.46,0,0,0-.5.49c-.07.66.08.82.91.82h17.76c1.06,0,1.05,0,.79,1.06-.3,1.22-.75,2.4-1,3.63a7,7,0,0,0,4.51,8.38,18.49,18.49,0,0,0,4.33,1.17c.71.11,1.43.2,2.15.3a4.2,4.2,0,0,1,2.36,1.46c.44.44.22,1.06.22,1.6,0,3.07,0,6.14,0,9.21q0,5,0,10c0,.37-.07.8.49.89s.82-.09.82-.89q0-9.84,0-19.66a2.34,2.34,0,0,1,1.89-2.49,5.47,5.47,0,0,1,.7-.16,30.21,30.21,0,0,0,4.63-.86,9.21,9.21,0,0,0,5-3.12c1.58-2.11,1.47-4.47.86-6.87-.21-.81-.49-1.62-.71-2.43-.33-1.22-.32-1.23.91-1.23h18.2c.5,0,.67-.27.66-.74,0-.69-.52-.57-.94-.57m-21.17,12.15a10.28,10.28,0,0,1-4.17,1.76c-1.15.24-2.32.41-3.49.58a4.76,4.76,0,0,0-2.71,1.27c-.32.32-.61.35-.92,0a5.54,5.54,0,0,0-3.63-1.43,15.43,15.43,0,0,1-5.94-1.69c-.32-.18-.62-.39-.91-.59-.13-.1-.35-.18-.27-.38s.28-.17.44-.18c3.69-.39,7.35-1.17,11.06-.85a47.58,47.58,0,0,1,10.4.81c.18,0,.45,0,.5.18s-.19.36-.36.49m-19.78-6c0-1,0-1.89,0-2.83,0-.52.26-.65.73-.66s.71.16.7.67c0,1.74,0,3.48,0,5.22a1.21,1.21,0,0,1-1.16.94c-.33-.06-.25-.32-.25-.52,0-.94,0-1.88,0-2.82m5.79,2c0,.54-.14.78-.73.79-2.32.06-2.32.08-2.32-2.24,0-1.5,0-3,0-4.49a.88.88,0,0,1,.85-1,5.08,5.08,0,0,1,.87,0c1.13,0,1.34.25,1.34,1.37v2.61c0,1,0,2,0,3m5.22.48h-.12c0-.94,0-1.89,0-2.83a1.81,1.81,0,1,0-3.61,0c0,.67,0,2.86,0,2.86h-.13v-7.23c0-.39.18-.58.57-.58.87,0,1.74,0,2.61,0,.54,0,.71.23.71.75,0,2.34,0,4.73,0,7.07m-1.32-.7c0,.38-.15.57-.56.57s-.59-.15-.58-.55c0-.72,0-1.44,0-2.15,0-.32.13-.58.49-.59a.56.56,0,0,1,.62.56Zm5.8-2.75c0,1,0,2.07,0,3.1,0,.46-.17.67-.64.65h-1.94c-.4,0-.57-.17-.57-.56v-6.37a.76.76,0,0,1,0-.21c.14-.52,1-.8,2-.64.57.08,1.1.22,1.08,1,0,1,0,2,0,3m2.74,3.5c0,.28.18.69-.31.77a1.05,1.05,0,0,1-1.09-.82c0-.91,0-1.83,0-2.75s0-1.64,0-2.46c0-.54.22-.72.74-.72s.69.2.68.7c0,.91,0,1.83,0,2.75s0,1.69,0,2.53m3.46.94c-.19.81-.66.85-1.33.76s-.94-.34-.93-1.06c0-2.34,0-4.69,0-7,0-.7-.24-1-.92-.9-.32,0-.63,0-1,0a1,1,0,0,1-.89-.43,3.72,3.72,0,0,0-3.58-1.08c-.35.06-.68.24-.91-.24-.09-.19-.4-.13-.61-.13H522c-.15,0-.37,0-.42,0-.47.65-1.08.25-1.64.26a3.33,3.33,0,0,0-3.08,1.35c-.14.23-.35.23-.57.23-.46,0-.92,0-1.37,0s-.79.19-.78.76c0,1.23,0,2.46,0,3.69h0c0,1.24,0,2.47,0,3.7,0,.56-.23.77-.76.84-1.46.18-1.58.08-1.85-1.39a8.88,8.88,0,0,1,.48-4.28,26.06,26.06,0,0,0,1.41-8.54c0-.16,0-.33,0-.5-.12-1.22-.12-1.22-1.34-1.25s-1.58-.74-1-1.75c.93-1.67,2-3.28,2.91-4.93.26-.43.57-.24.88-.14a11,11,0,0,0,5.28.52,7.71,7.71,0,0,0,3.82-1.81c.34-.29.58-.32.92,0,2.55,2.17,5.45,2.35,8.53,1.5,1.51-.41,1.09-.61,1.93.76s1.62,2.69,2.41,4c.24.41.49.87.14,1.35a1.48,1.48,0,0,1-1.37.47c-.93,0-1,0-1.05,1a24.69,24.69,0,0,0,1.45,9.67,8.75,8.75,0,0,1,.26,4.57" transform="translate(-469.73 -890.77)" fill="#484747"/><path d="M491.79,968.82c0,.93.07,1,1,1h4.49c.19,0,.44-.08.54.11s-.13.39-.23.56c-.3.47-.7.19-1.05.12-1.77-.38-1.76-.39-2.14,1.39s-.68,1.71,1.36,2.12c.5.1.7.34.9.85a1.64,1.64,0,0,1-.86,2.24,3.1,3.1,0,0,0-.46.35.41.41,0,0,0-.1.67c.55.67,1.1,1.35,1.64,2a.44.44,0,0,0,.73.08c.35-.3.72-.57,1.07-.87s.64-.4,1-.08a1.16,1.16,0,0,0,.52.26c.72.13.87.58.86,1.25,0,1.72-.19,1.56,1.54,1.56,1.9,0,1.9,0,2-1.94,0-.29,0-.55.33-.73,1.43-.78,1.42-.79,2.71.23.14.11.28.2.41.31.28.25.5.19.73-.1.5-.64,1-1.28,1.53-1.92a.54.54,0,0,0-.11-.87c-.38-.29-.75-.6-1.14-.89s-.33-.49-.28-.87a1.71,1.71,0,0,1,1.78-1.74,2.7,2.7,0,0,0,.56-.14.47.47,0,0,0,.38-.65c-.19-.8-.37-1.6-.56-2.4-.09-.44-.35-.52-.75-.42s-.94.24-1.41.33a.78.78,0,0,1-.92-.73c0-.47.49-.23.74-.23,1.45,0,2.9-.05,4.34,0,.7,0,1-.26.92-.94,0-1,0-2,0-3,0-1.81,0-3.63,0-5.44,0-.29,0-.76-.48-.48-.75.4-.78,0-.81-.59-.12-2.41-.29-4.82-.41-7.23,0-.51-.25-.67-.72-.66-.84,0-1.69,0-2.54,0-.61,0-.83.2-.86.83-.13,2.68-.31,5.35-.49,8.24-.12-1.13-.59-.57-.9-.39s-.57.22-.6-.31c-.13-2.53-.3-5.06-.42-7.59,0-.54-.21-.81-.78-.77s-1.06,0-1.59,0c-1.9.06-1.69-.42-1.85,1.8-.21,3-.34,5.93-.5,8.89h-.1c0-.31,0-.62,0-.92s.22-1.07-.16-1.3-.81.27-1.2.48c-.78.43-.89.36-.93-.51-.14-2.6-.3-5.2-.44-7.81,0-.45-.21-.65-.67-.64-.87,0-1.74,0-2.6,0-.58,0-.81.17-.84.78-.2,3.66-.46,7.32-.67,11a1.15,1.15,0,0,1-.75,1.18,1.13,1.13,0,0,0-.74,1.26c0,1.09,0,2.17,0,3.26m17.27,2.81c1-.23,1-.19,1.21.74.1.45-.08.66-.47.69-1.23.1-2,.6-1.88,2a.77.77,0,0,1-.07.28c-.39,1.3-.4,1.3.72,2.17a.91.91,0,0,1-.21,1.6.37.37,0,0,1-.4-.09c-.16-.11-.3-.23-.46-.35a3.91,3.91,0,0,0-1.1-.8c-.44-.12-.67.46-1,.66a3.65,3.65,0,0,1-1.23.41.57.57,0,0,0-.57.68c0,.36,0,.73,0,1.09,0,.56-.22.74-.77.79s-.87-.1-.81-.72c0-.2,0-.39,0-.58.09-.78-.05-1.31-1-1.33a1.56,1.56,0,0,1-1.2-.73c-.31-.45-.58-.4-.92-.06s-.57.45-.85.68-.66.58-1.1,0-.43-.92.16-1.27a1.41,1.41,0,0,0,.23-.18c.92-.72.92-.72.5-1.79a2.36,2.36,0,0,1-.17-1.28c.1-.58-.17-.78-.68-.86a10.35,10.35,0,0,1-1.2-.27c-.61-.16-.4-.59-.33-1s.26-.7.73-.51c1.2.49,2.07.31,2.63-1,.35-.81,1.12-.89,2-.69a4.49,4.49,0,0,0-1,6.91,4.34,4.34,0,0,0,6.48-.31c1.76-2.08,1.14-4.75-1.55-6.7,1.25-.28,1.75,0,2.55,1.14.66,1,.66,1,1.83.7m-6.23-1.15a3.3,3.3,0,1,1-3.29,3.36,3.35,3.35,0,0,1,3.29-3.36m5.68-9.23c.14-2.7.28-5.39.44-8.09.05-.84.22-.89,1.52-.87.72,0,.72.42.75,1,.11,2.28.25,4.57.4,6.86a.91.91,0,0,1-.5,1c-.67.34-1.3.74-1.95,1.11s-.68.32-.69-.38v-.58h0m-6.11-8.35c0-.43.24-.57.64-.6,1.42-.11,1.58,0,1.65,1.42.09,1.93.2,3.86.31,6,.45,1-.29,1.51-1.21,1.95-.5.23-1,.55-1.45.83-.29.17-.5.2-.47-.26q.27-4.65.53-9.32m-7.54.06c0-.83.62-.62,1.05-.66,1.12,0,1.18.07,1.24,1.13.13,2.41.26,4.81.42,7.22a1,1,0,0,1-.56,1.05c-.77.4-1.51.85-2.26,1.28-.34.2-.48.14-.45-.27.19-3.25.39-6.5.56-9.75m.05,11.11a37,37,0,0,0,4.08-2.34c.75-.43.76-.42.76.43s0,1.44,0,2.17.18.74.71.43c1.74-1,3.47-2,5.21-3,.2-.12.4-.38.63-.27s.11.44.12.66c0,.68,0,1.35,0,2s.1.74.7.4c1.67-1,3.35-1.91,5-2.89.5-.3.69-.3.68.36,0,1.93,0,3.87,0,5.8,0,.59-.19.8-.79.8-2.07,0-4.15,0-7.26,0s-7,.21-11,.14c-.95,0-.84,0-1-1a3.07,3.07,0,0,1,2.11-3.73" transform="translate(-469.73 -890.77)" fill="#484747"/><path d="M517.6,1026.16c-1.9-1.45-3.76-3-5.65-4.42a1.19,1.19,0,0,1-.56-1.1,4.64,4.64,0,0,0-.58-2.36,4.84,4.84,0,0,0-2-2.15,6.39,6.39,0,0,0-2.77-1.18c-.23,0-.36-.31-.51-.5l-4-5.22a3.61,3.61,0,0,1-.69-1.26,1.51,1.51,0,0,0-.81-1.07c-1.12-.47-1.42-1.59-2-2.46-.32-.48.35-.64.62-.9s.26-.13.39.07c.39.66,1.05.75,1.49.13a8,8,0,0,1,3.74-2.85c.18-.07.42-.25.59,0s0,.37-.08.54a12.15,12.15,0,0,0-.85,2.62,6.51,6.51,0,0,0,.69,4.49c.16.29.35.56.7.53s.54.22.7.5a10.3,10.3,0,0,0,2.93,3.46,7.46,7.46,0,0,1,3.24,4.63c.07.33.23.68.65.68s.64-.29.75-.66.24-.89.38-1.44a13.54,13.54,0,0,1,2,4.15c.08.27.16.53.54.42s.36-.36.28-.64a14.07,14.07,0,0,0-2.57-5.07.66.66,0,0,0-1.21.43v1.16a9.48,9.48,0,0,0-3.38-4.24,9.68,9.68,0,0,1-3-3.72c-.22-.45-.42-.88-1-.82-.27,0-.36-.21-.44-.42a5.78,5.78,0,0,1-.35-1.25c-.3-1.87.42-3.51,1.15-5.15.16-.37.47-.72.12-1.13s-.75-.22-1.15-.12A8.87,8.87,0,0,0,500,1003c-.51-.78-.79-.85-1.55-.38a5.86,5.86,0,0,0-.69.51c-.32.29-.56.27-.79-.12s-.53-.76-.78-1.14c-1.1-1.62-1.09-1.61-2.67-.43-.35.27-.38.49-.13.84.61.87,1.18,1.76,1.8,2.63a1.07,1.07,0,0,1,.1,1.26,9.27,9.27,0,0,0-.93,4.12,17.2,17.2,0,0,0,.7,5.38c-.5,0-.91-.15-1.14.3s.07.69.27,1a10.76,10.76,0,0,1,1.83,5,8.33,8.33,0,0,1,0,1.8c0,.32,0,.6.41.63s.41-.26.45-.53a1.62,1.62,0,0,1,0-.22,10.9,10.9,0,0,0-1.4-6.27c-.14-.25-.38-.47.14-.62s.54-.62.38-1.07a15.84,15.84,0,0,1-.71-6.3,6.47,6.47,0,0,1,.6-2.52c.08-.16.2-.55.42-.25.41.54,1,1,1,1.78a1.74,1.74,0,0,0,.81,1.48,2.14,2.14,0,0,1,.56.6q2.34,3.63,4.69,7.25a1,1,0,0,1,0,1,2.79,2.79,0,0,0-.25,1.92,2.53,2.53,0,0,1-1,2.61,49.27,49.27,0,0,1-7.69,5.81.44.44,0,0,0,0,.75.47.47,0,0,0,.51,0l3-2a23.41,23.41,0,0,0,2.84-2.23c.42-.4.66-.43.91.12a8.55,8.55,0,0,0,2.64,3.4c.34.27.41.5.09.82a3.39,3.39,0,0,0-.4.45.39.39,0,0,0-.08.34.43.43,0,0,0,.73.21c.36-.4.73-.8,1.09-1.21.08-.09.21-.22.19-.29-.22-.57.2-.84.52-1.14s.51-.63.05-1c-.26-.2-.23-.44-.1-.72a1.85,1.85,0,0,1,.84-1,3.88,3.88,0,0,0,1.46-1.27c.62-.87.48-.6,1.61.75s2.11,2.7,3.12,4.09c.37.5.67.49,1.19,0a16.85,16.85,0,0,1,2.47-1.84c.95-.56,1.18-.78.52-1.29m-19.34-18.64c-.34.13-.39-.32-.58-.41a2.13,2.13,0,0,1-1-1.26,11.78,11.78,0,0,0-1.48-2.49.35.35,0,0,1,.09-.55c.37-.26.74-.21.82,1.23a3.31,3.31,0,0,0,2.4,2.81c.11,0,.12.18.14.26a.5.5,0,0,1-.38.41m12,12c-.09-.11-.23-.21-.27-.33-.23-.87-1-1.22-1.68-1.55a1.13,1.13,0,0,1-.7-1,3.48,3.48,0,0,1,2.65,2.92m-8.4-5.73c-.77-1.19-1.54-2.38-2.29-3.58-.12-.19-.38-.39-.13-.63a5.44,5.44,0,0,1,.7-.5.56.56,0,0,1,.46.31c1,1.3,2,2.61,3,3.9.31.42.17.61-.23.83-.93.52-.93.54-1.49-.33m1.32,2.06a.5.5,0,0,1,.2-.76c.22-.12.44-.24.66-.38a.51.51,0,0,1,.8.18,2.08,2.08,0,0,0,1.7,1.11,3.24,3.24,0,0,0-1.39,1.63c-.27.47-.48.56-.79,0s-.77-1.22-1.18-1.81m1.52,12.52a7.74,7.74,0,0,1-2.47-3.59c-.1-.26.05-.42.26-.53s.31.06.39.21a9.08,9.08,0,0,0,2.55,3,1.81,1.81,0,0,1,.23.29c0,.44-.66.83-1,.59m4.71-7.53a4.51,4.51,0,0,0-.84,2,3,3,0,0,1-1.71,2.12,1.94,1.94,0,0,0-1.07,1.09c-.06.15-.11.34-.37.34a3.25,3.25,0,0,1-.3-.26,10,10,0,0,1-1.24-1.59c-.41-.62-.67-1.19,0-1.87.33-.36.24-.92.24-1.4a13.83,13.83,0,0,1,0-1.44c0-.3.05-.73.53-.26.33.31.48-.07.56-.29a16.54,16.54,0,0,1,1.12-1.85c.08-.14.15-.33.36-.31s.25.26.29.44.09.47.13.71.17.46.42.4c1.18-.26,1.49.73,2,1.39a.65.65,0,0,1-.08.81m6.81,6.28c-.6.4-1.21.82-1.77,1.27s-.68-.19-1.74-2.09a10.59,10.59,0,0,0-2.79-3.1.84.84,0,0,1-.37-.74,1,1,0,0,1,.46-.87c.32-.21.52.12.74.29,1.82,1.42,3.62,2.87,5.47,4.27.55.42.46.65,0,1" transform="translate(-469.73 -890.77)" fill="#484747"/><path d="M524.45,981.33a4.18,4.18,0,0,0,0,8.36,4.18,4.18,0,0,0,0-8.36m0,7a2.87,2.87,0,0,1-2.89-2.84,3,3,0,0,1,2.91-2.93,2.87,2.87,0,0,1,2.85,2.87,2.82,2.82,0,0,1-2.87,2.9" transform="translate(-469.73 -890.77)" fill="#484747"/><path d="M556.25,1000a.41.41,0,0,0-.54.17,72.75,72.75,0,0,1-6.94,9.83l-1.67,2.15a7.73,7.73,0,0,0-4.23,4c0-.1,0-.21,0-.31.11-.7.25-1.42.42-2.21,3.68-1.11,3-6,2.65-8.34a.4.4,0,0,0-.2-.29.37.37,0,0,0-.34,0l-.05,0a6,6,0,0,0-2.84,8.47c0,.18-.08.35-.11.52a9,9,0,0,0-4.41-4.88.4.4,0,0,0-.42,0,.41.41,0,0,0-.15.39c.54,2.78,1.6,6.49,4.53,7.19a24.12,24.12,0,0,0,.21,6.07.4.4,0,0,0,.4.34h0a.4.4,0,0,0,.34-.45,29.11,29.11,0,0,1-.31-3.55h0c4,0,5.86-4.83,6.47-6.9h0a.37.37,0,0,0-.07-.35.43.43,0,0,0-.36-.15l-.28.06,1-1.31a73.75,73.75,0,0,0,7-10,.4.4,0,0,0-.17-.54m-13.51,8.88a5.08,5.08,0,0,1,2.43-3c.38,2.9.37,5.8-1.71,6.78.12-.53.26-1.09.42-1.69a.4.4,0,0,0-.29-.48.39.39,0,0,0-.48.28c-.13.5-.25,1-.36,1.41a5.16,5.16,0,0,1,0-3.34m-4.41,1.35a8.29,8.29,0,0,1,3.44,4.51,10.28,10.28,0,0,0-1-1.21.4.4,0,1,0-.58.54,9.46,9.46,0,0,1,1.22,1.66c-1.78-.87-2.63-3.33-3.11-5.5m5.31,8a8.61,8.61,0,0,1,1.9-1.56.4.4,0,1,0-.4-.69,9.23,9.23,0,0,0-1.91,1.53,6.85,6.85,0,0,1,4.9-4.84c-.62,1.86-2,4.88-4.49,5.56" transform="translate(-469.73 -890.77)" fill="#484747"/><path d="M554.51,1014.44l-6.35,6.21a3.59,3.59,0,0,0-.95-1.56.4.4,0,0,0-.56,0,.39.39,0,0,0,0,.56,2.84,2.84,0,0,1,.82,2.56c-.32,2-2.3,4.21-5.15,5.65a12.56,12.56,0,0,1-2.93.78c-.54.09-1.07.17-1.59.21a2.62,2.62,0,0,0-.24-.37,1.17,1.17,0,0,1-.21-.32.72.72,0,0,1,0-.58c.37-.6,1.75-.86,2.21-.94a2.6,2.6,0,0,0,.51-.14,2.23,2.23,0,0,0,.55-.33,2.27,2.27,0,0,1,1.29-.45.47.47,0,0,0,.27-.07.51.51,0,0,0,.22-.23,1.48,1.48,0,0,1,.88-.65.4.4,0,0,0,.28-.49.39.39,0,0,0-.48-.28,2.22,2.22,0,0,0-1.31.94,3.11,3.11,0,0,0-1.15.3,2.27,2.27,0,0,0-.46.29,2.26,2.26,0,0,1-.38.23,3.29,3.29,0,0,1-.37.1c-1,.19-2.25.51-2.74,1.31a1.47,1.47,0,0,0-.13,1.22,1.29,1.29,0,0,0,.28.49,4.33,4.33,0,0,1-.89-.09,2.19,2.19,0,0,1-.41-.13c-.13-.06-.17-.11-.18-.13a.27.27,0,0,1,0-.13,1.48,1.48,0,0,1,.35-.5l.22-.27,0,0,0,0v0a.54.54,0,0,0,.09-.12c.21-.82,1.19-1.37,2.14-1.9a7.05,7.05,0,0,0,1.91-1.36.41.41,0,0,0,0-.56.39.39,0,0,0-.56,0,6.74,6.74,0,0,1-1.7,1.19,5.69,5.69,0,0,0-2.31,1.87l-.06-.07a1.35,1.35,0,0,1-.25-.55.64.64,0,0,1,.25-.62,4.16,4.16,0,0,1,.51-.36,4.66,4.66,0,0,0,.47-.3l.3-.23c.24-.18.47-.36.72-.53a9.9,9.9,0,0,0,1.44-1.11,4.91,4.91,0,0,0,1.43-3,.4.4,0,0,0-.56-.4,4.84,4.84,0,0,1-1.64.33.4.4,0,0,0-.33.14.47.47,0,0,0-.08.35,1.5,1.5,0,0,1-.65,1.52,1.75,1.75,0,0,1-1.2.35l.12-.41c.69-2.52,1-3.68,3.85-4.67a.38.38,0,0,0,.24-.5.4.4,0,0,0-.5-.25c-3.25,1.13-3.64,2.58-4.36,5.21-.07.24-.13.49-.21.75a.39.39,0,0,0,.18.45,2.16,2.16,0,0,0,2.34-.29,2.31,2.31,0,0,0,1-1.88,6.75,6.75,0,0,0,.86-.15,4,4,0,0,1-1.07,1.87,9.47,9.47,0,0,1-1.34,1l-.75.55-.3.23c-.13.1-.27.18-.41.27a4.44,4.44,0,0,0-.61.42,1.43,1.43,0,0,0-.51,1.35,2.08,2.08,0,0,0,.39.91s.12.14.27.29a2.08,2.08,0,0,0-.49.77,1,1,0,0,0,0,.6,1,1,0,0,0,.61.61,2.93,2.93,0,0,0,.57.19,6.28,6.28,0,0,0,1.24.12,15.41,15.41,0,0,0,2.47-.27,13,13,0,0,0,3.13-.84c3.1-1.57,5.24-4,5.6-6.25a6,6,0,0,0,0-.72h0l6.74-6.6a.4.4,0,0,0-.55-.57" transform="translate(-469.73 -890.77)" fill="#484747"/><path d="M530.6,954.22h0c.67,0,1.08.53,1.56,1.15a3,3,0,0,0,2.29,1.5h0c1.16,0,1.66-.88,2.07-1.58s.67-1.11,1.28-1.12,1.09.53,1.57,1.15a3,3,0,0,0,2.3,1.5c1.17,0,1.67-.88,2.07-1.58s.67-1.11,1.28-1.12h0c.68,0,1.09.53,1.57,1.15a2.93,2.93,0,0,0,2.3,1.5c1.17,0,1.67-.88,2.07-1.58s.67-1.11,1.28-1.12a.46.46,0,0,0,.46-.46.47.47,0,0,0-.46-.46h0c-1.17,0-1.67.88-2.07,1.58s-.67,1.11-1.29,1.12-1.09-.53-1.57-1.15a3,3,0,0,0-2.29-1.5h0c-1.17,0-1.67.88-2.07,1.58s-.68,1.11-1.28,1.12h0c-.68,0-1.09-.53-1.57-1.15a3,3,0,0,0-2.3-1.5c-1.17,0-1.67.88-2.07,1.58s-.67,1.11-1.28,1.12h0c-.67,0-1.09-.53-1.56-1.15a2.93,2.93,0,0,0-2.31-1.5.46.46,0,0,0-.45.47.45.45,0,0,0,.46.45" transform="translate(-469.73 -890.77)" fill="#484747"/><path d="M530.6,958.42h0c.67,0,1.08.53,1.56,1.14a2.92,2.92,0,0,0,2.29,1.5h0c1.16,0,1.66-.88,2.07-1.57s.67-1.12,1.28-1.12h0c.67,0,1.08.53,1.56,1.14a2.91,2.91,0,0,0,2.28,1.5h0a2.42,2.42,0,0,0,2.07-1.57c.41-.71.67-1.12,1.28-1.12h0c.67,0,1.09.53,1.57,1.14a2.91,2.91,0,0,0,2.28,1.5h0c1.17,0,1.67-.88,2.07-1.58s.67-1.11,1.28-1.11a.46.46,0,1,0,0-.92c-1.17,0-1.67.88-2.07,1.58s-.67,1.11-1.29,1.11h0c-.68,0-1.09-.53-1.57-1.14a3,3,0,0,0-2.29-1.5h0c-1.17,0-1.67.88-2.07,1.58s-.68,1.11-1.28,1.11h0c-.68,0-1.09-.53-1.57-1.14a2.92,2.92,0,0,0-2.28-1.5h0c-1.17,0-1.67.88-2.07,1.58s-.67,1.11-1.28,1.11h0c-.67,0-1.09-.53-1.56-1.14a3,3,0,0,0-2.29-1.5h0a.46.46,0,0,0,0,.92" transform="translate(-469.73 -890.77)" fill="#484747"/><path d="M530.6,962.82h0c.67,0,1.08.53,1.56,1.15a2.94,2.94,0,0,0,2.29,1.49h0c1.16,0,1.66-.87,2.07-1.57s.67-1.11,1.28-1.12,1.09.53,1.57,1.15a3,3,0,0,0,2.3,1.5c1.17,0,1.67-.88,2.07-1.58s.67-1.11,1.28-1.12h0c.68,0,1.09.53,1.57,1.15a2.93,2.93,0,0,0,2.3,1.5c1.17,0,1.67-.88,2.07-1.58s.67-1.11,1.28-1.12a.46.46,0,0,0,.46-.46.47.47,0,0,0-.46-.46h0c-1.17,0-1.67.88-2.07,1.58s-.67,1.11-1.29,1.11-1.09-.52-1.57-1.14a3,3,0,0,0-2.29-1.5h0c-1.17,0-1.67.88-2.07,1.58s-.68,1.11-1.28,1.12h0c-.68,0-1.09-.53-1.57-1.15a3,3,0,0,0-2.3-1.5c-1.17,0-1.67.88-2.07,1.58s-.67,1.11-1.28,1.12h0c-.67,0-1.09-.53-1.56-1.15a3,3,0,0,0-2.29-1.5h0a.46.46,0,0,0-.45.47.45.45,0,0,0,.46.45" transform="translate(-469.73 -890.77)" fill="#484747"/><path d="M530.6,967.56h0c.67,0,1.08.53,1.56,1.15a2.94,2.94,0,0,0,2.29,1.49h0c1.16,0,1.66-.87,2.07-1.57s.67-1.11,1.28-1.12h0c.67,0,1.08.53,1.56,1.15a2.92,2.92,0,0,0,2.28,1.49h0c1.17,0,1.67-.87,2.07-1.57s.67-1.11,1.28-1.12,1.1.53,1.58,1.14a2.89,2.89,0,0,0,2.28,1.5h0a2.4,2.4,0,0,0,2.07-1.57c.41-.71.67-1.11,1.28-1.12a.46.46,0,1,0,0-.92h0c-1.17,0-1.67.88-2.07,1.58s-.67,1.11-1.29,1.11-1.09-.52-1.57-1.14a2.9,2.9,0,0,0-2.3-1.5c-1.17,0-1.67.88-2.07,1.58s-.68,1.11-1.28,1.11-1.1-.52-1.58-1.14a2.88,2.88,0,0,0-2.3-1.5c-1.17,0-1.67.88-2.07,1.58s-.67,1.11-1.28,1.11-1.09-.52-1.57-1.14a3,3,0,0,0-2.29-1.5h0a.46.46,0,0,0,0,.92" transform="translate(-469.73 -890.77)" fill="#484747"/><path d="M530.6,972.3h0c.67,0,1.09.53,1.57,1.14a2.92,2.92,0,0,0,2.29,1.5h0c1.16,0,1.66-.88,2.07-1.57s.67-1.12,1.28-1.12h0c.67,0,1.08.53,1.56,1.14a2.91,2.91,0,0,0,2.28,1.5h0a2.42,2.42,0,0,0,2.07-1.57c.41-.71.67-1.12,1.28-1.12h0c.67,0,1.09.53,1.57,1.14a2.91,2.91,0,0,0,2.28,1.5h0a2.42,2.42,0,0,0,2.07-1.57c.41-.72.67-1.12,1.28-1.12a.46.46,0,1,0,0-.92h0c-1.17,0-1.67.88-2.07,1.58s-.67,1.11-1.29,1.11h0c-.68,0-1.09-.53-1.57-1.14a3,3,0,0,0-2.29-1.5h0c-1.17,0-1.67.88-2.07,1.58S542.3,974,541.7,974s-1.1-.53-1.58-1.14a2.92,2.92,0,0,0-2.28-1.5h0c-1.17,0-1.67.88-2.07,1.58s-.67,1.11-1.28,1.11h0c-.67,0-1.09-.53-1.56-1.14a2.9,2.9,0,0,0-2.31-1.5.46.46,0,0,0,0,.92" transform="translate(-469.73 -890.77)" fill="#484747"/><path d="M558.11,950.24a.46.46,0,0,0-.46.46v2l-1.53-2.22,0,0-.07-.07-.07,0-.07,0-.1,0h-.08l-.09,0-.09,0,0,0,0,0-.06.07a.18.18,0,0,0,0,.07l0,.08a.29.29,0,0,0,0,.09s0,0,0,0v24.78a.46.46,0,0,0,.46.46.45.45,0,0,0,.46-.46v-3.05l1.44,2.08v1a.46.46,0,0,0,.92,0V950.7a.46.46,0,0,0-.46-.46m-1.84,13.92,1.38-2v4Zm-.07-1.51v-3.72l1.28,1.86Zm.07-5.24,1.38-2v4Zm-.07-1.51v-3.72l1.28,1.86Zm0,9.78,1.28,1.86-1.28,1.86Zm.07,5.23,1.38-2v4Z" transform="translate(-469.73 -890.77)" fill="#484747"/><path d="M594.33,921.11h21.84c12.09,0,20.3,5.5,20.3,17.95v.52c0,13.19-9,18.32-20.3,18.32h-7.25v14.51H594.33Zm20.45,23.82c4.62,0,7.25-1.32,7.25-5.35v-.22c0-3.81-2.56-5.06-7.25-5.06h-5.86v10.63Z" transform="translate(-469.73 -890.77)" fill="#911635"/><path d="M639.92,955.41v-34.3H654.5v31.07c0,4.32,2.86,7,7.62,7h.22c5.2,0,7.69-2.64,7.69-7V921.11h14.59v34.22c0,11.51-8.06,17.88-22.06,17.88h-.22c-14.36,0-22.42-6.37-22.42-17.8" transform="translate(-469.73 -890.77)" fill="#911635"/><polygon points="220.16 30.34 258.12 30.34 258.12 43.53 234.74 43.53 234.74 50.64 257.46 50.64 257.46 61.04 234.74 61.04 234.74 68.44 258.05 68.44 258.05 81.63 220.16 81.63 220.16 30.34" fill="#911635"/><path d="M732.4,921.11h24.69c10.63,0,16.12,4.54,16.12,12.53,0,6.74-4,10.85-9.82,11.73v.36c6.09.66,12,4,12,12.83s-6.23,13.85-18.91,13.85h-24Zm21.18,20.81c3.15,0,4.69-1.32,4.69-4.1s-1.54-3.81-5-3.81H747v7.91Zm.51,17.59c4.1,0,5.93-1,5.93-4.1s-1.75-4.33-5.49-4.33H747v8.43Z" transform="translate(-469.73 -890.77)" fill="#911635"/><polygon points="309.79 30.34 324.37 30.34 324.37 68.44 346.28 68.44 346.28 81.63 309.79 81.63 309.79 30.34" fill="#911635"/><path d="M835.21,921.11h17.51l18.1,51.3H855.44l-3.38-10H834.77l-3.15,10H816.31Zm14.14,30.12-5.93-18.54-5.79,18.54Z" transform="translate(-469.73 -890.77)" fill="#911635"/><path d="M600.77,1021.43v0a1.62,1.62,0,0,0-1.85-1.69h-.11c-1.11,0-1.9.54-2.1,2l-2.31-.3c.3-2.59,1.87-3.7,4.45-3.7H599c2.88,0,4.24,1.46,4.24,3.54v.06c0,3.75-4.87,5-6.14,7h6v2h-8.8v-.9c0-4.08,6.47-5,6.47-8" transform="translate(-469.73 -890.77)" fill="#484747"/><path d="M627.75,1024.36v-.21c0-4.16,2.24-6.37,5.13-6.37H633c2.77,0,5,2.14,5,6.35v.21c0,4.09-2.11,6.25-5.09,6.25h-.13c-2.8,0-5-2.1-5-6.23m7.81-.12v-.18c0-2.38-1.06-4.06-2.66-4.06h-.13c-1.57,0-2.69,1.56-2.69,4.11v.18c0,2.45,1.07,4.07,2.69,4.07h.13c1.6,0,2.66-1.55,2.66-4.12" transform="translate(-469.73 -890.77)" fill="#484747"/><path d="M668.86,1021.43v0a1.63,1.63,0,0,0-1.86-1.69h-.1c-1.11,0-1.91.54-2.1,2l-2.31-.3c.3-2.59,1.87-3.7,4.44-3.7h.16c2.88,0,4.23,1.46,4.23,3.54v.06c0,3.75-4.86,5-6.13,7h6v2h-8.8v-.9c0-4.08,6.48-5,6.48-8" transform="translate(-469.73 -890.77)" fill="#484747"/><path d="M700.83,1027.62H695v-1.87l5.63-7.74h2.59v7.66h1.46v1.95H703.1v2.74h-2.27Zm.12-1.94v-4.86l-3.61,4.86Z" transform="translate(-469.73 -890.77)" fill="#484747"/><rect x="259.52" y="134.01" width="4.23" height="1.34" fill="#484747"/><path d="M765,1021.43v0a1.62,1.62,0,0,0-1.85-1.69H763c-1.11,0-1.9.54-2.1,2l-2.31-.3c.3-2.59,1.87-3.7,4.45-3.7h.15c2.88,0,4.24,1.46,4.24,3.54v.06c0,3.75-4.87,5-6.14,7h6v2h-8.8v-.9c0-4.08,6.47-5,6.47-8" transform="translate(-469.73 -890.77)" fill="#484747"/><path d="M791.93,1024.36v-.21c0-4.16,2.24-6.37,5.13-6.37h.12c2.77,0,5,2.14,5,6.35v.21c0,4.09-2.11,6.25-5.1,6.25H797c-2.8,0-5-2.1-5-6.23m7.81-.12v-.18c0-2.38-1.06-4.06-2.66-4.06H797c-1.57,0-2.69,1.56-2.69,4.11v.18c0,2.45,1.07,4.07,2.69,4.07h.13c1.6,0,2.66-1.55,2.66-4.12" transform="translate(-469.73 -890.77)" fill="#484747"/><path d="M826.53,1027l2.34-.46a2.22,2.22,0,0,0,2.38,2.15h0a1.94,1.94,0,0,0,2.13-2v-.08c0-1.41-.79-1.93-2.7-1.93h-.56v-1.41h.37c1.66,0,2.59-.66,2.59-1.86v0a1.58,1.58,0,0,0-1.74-1.69h-.09a2,2,0,0,0-2.15,1.94l-2.37-.37c.36-2.49,2.24-3.53,4.54-3.53h.12c2.56,0,4.06,1.46,4.06,3.28v0a2.76,2.76,0,0,1-2,2.79v0a2.71,2.71,0,0,1,2.44,3v0c0,2.35-2,3.67-4.68,3.67h0c-2.65,0-4.41-1.25-4.69-3.63" transform="translate(-469.73 -890.77)" fill="#484747"/><path d="M860.35,1024.36v-.21c0-4.16,2.24-6.37,5.13-6.37h.13c2.77,0,5,2.14,5,6.35v.21c0,4.09-2.11,6.25-5.09,6.25h-.13c-2.8,0-5-2.1-5-6.23m7.81-.12v-.18c0-2.38-1-4.06-2.66-4.06h-.12c-1.57,0-2.7,1.56-2.7,4.11v.18c0,2.45,1.07,4.07,2.7,4.07h.12c1.61,0,2.66-1.55,2.66-4.12" transform="translate(-469.73 -890.77)" fill="#484747"/><path d="M594.19,990.44v-.21c0-6.79,2.62-10.86,9.32-10.86,5.49,0,8.14,2.68,8.57,7.56l-4.19.77c-.34-3.43-1.88-4.41-4.32-4.41h-.13c-3.39,0-5,2.12-5,7.28v.12c0,5,1.29,7.28,4.9,7.28h.13c2.65,0,4.28-1.39,4.5-5h-4v-2.47h8.33v10.92h-3.7v-3c-1.05,2.44-3.06,3.46-5.87,3.46h-.09c-6.26,0-8.42-4.48-8.42-11.51m9.35-11.07h0Z" transform="translate(-469.73 -890.77)" fill="#484747"/><path d="M614.21,994.17v-.34c0-4.93,3.08-8.29,8.45-8.29H623c5.25,0,8,3.27,8,8v.27c0,4.63-2.74,8.18-8.36,8.18h-.27c-5.53,0-8.21-3.27-8.21-7.78m12.89-.43v-.21c0-2.59-1.26-4.63-4.28-4.63h-.28c-3.06,0-4.54,2-4.54,4.75v.25c0,2.62,1.3,4.65,4.42,4.65h.15c3.27,0,4.53-2.19,4.53-4.81" transform="translate(-469.73 -890.77)" fill="#484747"/><path d="M637.25,999.11v2.34h-4v-21.9h4v8.82a6.26,6.26,0,0,1,5.37-2.83H643c3.7,0,6.51,3.14,6.51,7.8v.31c0,5.64-2.72,8.3-6.76,8.3h-.25a5.53,5.53,0,0,1-5.21-2.84m8.24-5.43v-.22c0-2.68-1.36-4.53-4-4.53h-.16a4.14,4.14,0,0,0-4.13,3.64v2.28a3.9,3.9,0,0,0,4,3.55h.22c2.77,0,4-1.79,4-4.72" transform="translate(-469.73 -890.77)" fill="#484747"/><path d="M651.26,979.83a2.37,2.37,0,0,1,2.4-2.41,2.41,2.41,0,1,1-2.4,2.41m.33,6.2h4v15.42h-4Z" transform="translate(-469.73 -890.77)" fill="#484747"/><path d="M657.83,993.77v-.34c0-4.41,2.65-7.92,7.83-7.92h.22c5,0,7.89,2.8,8,7.49l0,1.45H661.47c.3,2.9,2,4.32,4.47,4.32h.12c1.91,0,3.52-.86,3.92-2.71l3.48,1.35c-1,2.87-3.48,4.54-7.4,4.54h-.15c-4.88,0-8.08-2.81-8.08-8.18M670,992.26v-.34c0-2.25-1.45-3.64-4-3.64h-.15a4,4,0,0,0-4.45,4Z" transform="translate(-469.73 -890.77)" fill="#484747"/><path d="M675.84,986h4V989c1-1.91,3-2.93,5.49-2.93H686v3.76h-1.3c-2.68,0-4.16.93-4.81,3.15v8.51h-4Z" transform="translate(-469.73 -890.77)" fill="#484747"/><path d="M695.24,989.36a4.12,4.12,0,0,0-4.13,2.93v9.16h-4V986h4v2.38a6.35,6.35,0,0,1,5.7-2.87c3.8,0,5.77,2,5.77,5.73v10.18h-4.07v-9c0-2-1.17-3.06-3.27-3.06" transform="translate(-469.73 -890.77)" fill="#484747"/><path d="M704.74,994.17v-.34c0-4.93,3.09-8.29,8.45-8.29h.37c5.25,0,8,3.27,8,8v.27c0,4.63-2.74,8.18-8.36,8.18H713c-5.52,0-8.21-3.27-8.21-7.78m12.9-.43v-.21c0-2.59-1.27-4.63-4.29-4.63h-.28c-3.05,0-4.53,2-4.53,4.75v.25c0,2.62,1.29,4.65,4.41,4.65h.15c3.27,0,4.54-2.19,4.54-4.81" transform="translate(-469.73 -890.77)" fill="#484747"/><path d="M739.72,999.11a5.37,5.37,0,0,1-5.12,2.84h-.25c-4,0-6.81-2.66-6.81-8.3v-.31c0-4.78,2.93-7.8,6.78-7.8h.34a5.68,5.68,0,0,1,5.06,2.83v-8.82h4v21.9h-4Zm0-4.26v-2.09a4.06,4.06,0,0,0-4-3.83h-.18c-2.59,0-4,1.73-4,4.47v.22c0,3,1.32,4.78,4.1,4.78h.21a3.79,3.79,0,0,0,3.89-3.55" transform="translate(-469.73 -890.77)" fill="#484747"/><path d="M745.92,993.77v-.34c0-4.41,2.65-7.92,7.84-7.92H754c5,0,7.9,2.8,8,7.49l0,1.45H749.56c.31,2.9,2,4.32,4.47,4.32h.13c1.91,0,3.51-.86,3.91-2.71l3.49,1.35c-1,2.87-3.49,4.54-7.4,4.54H754c-4.87,0-8.08-2.81-8.08-8.18m12.15-1.51v-.34c0-2.25-1.45-3.64-3.94-3.64H754a4,4,0,0,0-4.44,4Z" transform="translate(-469.73 -890.77)" fill="#484747"/><rect x="294.2" y="88.78" width="4.04" height="21.9" fill="#484747"/><path d="M791.51,997.6l3.83-.4c.49,1.38,2.12,2,4.31,2h.16c2.87,0,3.61-1,3.61-2.19v0c0-3.52-11.48-.86-11.48-6.76V990c0-3,3-4.47,7.19-4.47h.22c3.73,0,6.69,1.35,7.15,4.9l-3.52.28c-.33-2.19-2.15-2.72-3.85-2.72H799c-2.32,0-3.31.81-3.31,2v0c0,3,11.2.62,11.2,7v.09c0,3-2,4.85-7.22,4.85h-.12c-5,0-7.5-1.61-8-4.35" transform="translate(-469.73 -890.77)" fill="#484747"/><path d="M810.45,996.3v-7.18h-3.3V986h3.42v-6.17h3.92V986h3.36v3.09h-3.36v6.57c0,1.72.4,2.43,1.76,2.43h1.11v3.33h-1.7c-3.58,0-5.21-1.54-5.21-5.15" transform="translate(-469.73 -890.77)" fill="#484747"/><path d="M829.7,998.24a6.43,6.43,0,0,1-5.83,3.68h-.25c-3.24,0-5.4-1.61-5.4-4.42v-.15c0-3.21,2.35-4.41,6.76-5l4.56-.49v-.22a2.93,2.93,0,0,0-3.27-3.17h-.18c-1.73,0-3.24.65-3.61,2.68l-3.58-.74c.77-3.39,3.8-4.9,7.31-4.9h.28c4.63,0,7.09,2,7.09,5.92v10H829.7Zm-.25-4.44-3.45.4c-2.69.34-3.74,1.11-3.74,2.53v.19a2.3,2.3,0,0,0,2.56,2.1h.28c2.13,0,4.07-1.85,4.35-5.22" transform="translate(-469.73 -890.77)" fill="#484747"/><path d="M847.93,999.11a5.38,5.38,0,0,1-5.12,2.84h-.25c-4,0-6.82-2.66-6.82-8.3v-.31c0-4.78,2.93-7.8,6.79-7.8h.34a5.7,5.7,0,0,1,5.06,2.83v-8.82h4v21.9h-4Zm0-4.26v-2.09a4.07,4.07,0,0,0-4-3.83h-.19c-2.59,0-4,1.73-4,4.47v.22c0,3,1.33,4.78,4.1,4.78H844a3.79,3.79,0,0,0,3.89-3.55" transform="translate(-469.73 -890.77)" fill="#484747"/><path d="M854.13,994.17v-.34c0-4.93,3.08-8.29,8.45-8.29H863c5.24,0,8,3.27,8,8v.27c0,4.63-2.75,8.18-8.36,8.18h-.28c-5.52,0-8.2-3.27-8.2-7.78m12.89-.43v-.21c0-2.59-1.26-4.63-4.29-4.63h-.27c-3.06,0-4.54,2-4.54,4.75v.25c0,2.62,1.3,4.65,4.41,4.65h.16c3.27,0,4.53-2.19,4.53-4.81" transform="translate(-469.73 -890.77)" fill="#484747"/><polygon points="306.73 89.4 320.78 89.4 320.78 93.08 310.81 93.08 310.81 98.4 320.38 98.4 320.38 101.38 310.81 101.38 310.81 107 320.81 107 320.81 110.68 306.73 110.68 306.73 89.4" fill="#484747"/><path d="M1006,920.18c0,11.82-8.64,21-20.22,21H969.08v-42h16.68C997.34,899.18,1006,908.36,1006,920.18Zm-7.92,0c0-7.74-5-13.08-12.3-13.08h-8.4v26.16h8.4C993,933.26,998.06,927.92,998.06,920.18Z" transform="translate(-469.73 -890.77)" fill="#484747"/><path d="M1026.5,935a8.32,8.32,0,0,0,6.72-3l6.24,3.6c-2.82,4.08-7.32,6.42-13.08,6.42-10.08,0-16.44-6.9-16.44-15.84s6.42-15.84,15.84-15.84c8.88,0,15.18,7,15.18,15.84a17.88,17.88,0,0,1-.3,3.18H1018C1019.12,933.32,1022.42,935,1026.5,935Zm6.72-11.64a7.28,7.28,0,0,0-7.44-6.06c-4.14,0-7,2.22-7.86,6.06Z" transform="translate(-469.73 -890.77)" fill="#484747"/><path d="M1067.78,932.42c0,6.48-5.64,9.6-12.06,9.6-6,0-10.44-2.52-12.6-7.14l6.72-3.78c.84,2.46,2.88,3.9,5.88,3.9,2.46,0,4.14-.84,4.14-2.58,0-4.38-15.48-2-15.48-12.54,0-6.12,5.22-9.54,11.4-9.54a12.64,12.64,0,0,1,11.4,6.36l-6.6,3.6a5.07,5.07,0,0,0-4.8-3.06c-1.92,0-3.48.84-3.48,2.46C1052.3,924.14,1067.78,921.38,1067.78,932.42Z" transform="translate(-469.73 -890.77)" fill="#484747"/><path d="M1102.88,911.18v30h-7.74v-3.54a11.94,11.94,0,0,1-9.78,4.38c-8,0-14.58-6.9-14.58-15.84s6.6-15.84,14.58-15.84a11.94,11.94,0,0,1,9.78,4.38v-3.54Zm-7.74,15a8.31,8.31,0,1,0-8.34,8.46A8.07,8.07,0,0,0,1095.14,926.18Z" transform="translate(-469.73 -890.77)" fill="#484747"/><path d="M1126.76,910.58v8.64c-4-.48-9.12,1.32-9.12,7.62v14.34h-7.74v-30h7.74v5.16C1119.2,912.26,1123,910.58,1126.76,910.58Z" transform="translate(-469.73 -890.77)" fill="#484747"/><path d="M1148.12,910.58v8.64c-4-.48-9.12,1.32-9.12,7.62v14.34h-7.74v-30H1139v5.16C1140.56,912.26,1144.34,910.58,1148.12,910.58Z" transform="translate(-469.73 -890.77)" fill="#484747"/><path d="M1149.92,926.18A15.87,15.87,0,1,1,1165.76,942,15.67,15.67,0,0,1,1149.92,926.18Zm24,0a8.13,8.13,0,1,0-8.16,8.28A8,8,0,0,0,1173.92,926.18Z" transform="translate(-469.73 -890.77)" fill="#484747"/><path d="M1187.12,897.38h7.74v43.8h-7.74Z" transform="translate(-469.73 -890.77)" fill="#484747"/><path d="M1201.94,897.38h7.74v43.8h-7.74Z" transform="translate(-469.73 -890.77)" fill="#484747"/><path d="M1215.2,926.18A15.87,15.87,0,1,1,1231,942,15.67,15.67,0,0,1,1215.2,926.18Zm24,0a8.13,8.13,0,1,0-8.15,8.28A8,8,0,0,0,1239.19,926.18Z" transform="translate(-469.73 -890.77)" fill="#484747"/><path d="M966.92,985.64,974,981.5c1.5,3.9,4.44,6.42,9.66,6.42,5,0,6.72-2.1,6.72-4.44,0-3.12-2.82-4.32-9.06-6.12-6.42-1.86-12.66-4.56-12.66-12.54s6.6-12.48,13.8-12.48a16,16,0,0,1,15,9.42l-7,4c-1.5-3.18-3.78-5.4-8-5.4-3.48,0-5.52,1.8-5.52,4.2,0,2.58,1.62,4,8,5.88,6.66,2.1,13.74,4.32,13.74,12.9,0,7.86-6.3,12.66-15.24,12.66C974.84,996,969.2,991.88,966.92,985.64Z" transform="translate(-469.73 -890.77)" fill="#484747"/><path d="M1031.24,965.18v30h-7.74v-3.36c-1.8,2.7-4.92,4.2-8.94,4.2-6.36,0-11.34-4.44-11.34-12.42V965.18H1011v17.46c0,4.08,2.46,6.18,5.94,6.18,3.78,0,6.6-2.22,6.6-7.44v-16.2Z" transform="translate(-469.73 -890.77)" fill="#484747"/><path d="M1060.7,986.42c0,6.48-5.64,9.6-12.06,9.6-6,0-10.44-2.52-12.6-7.14l6.72-3.78c.84,2.46,2.88,3.9,5.88,3.9,2.46,0,4.14-.84,4.14-2.58,0-4.38-15.48-2-15.48-12.54,0-6.12,5.22-9.54,11.4-9.54a12.64,12.64,0,0,1,11.4,6.36l-6.6,3.6a5.07,5.07,0,0,0-4.8-3.06c-1.92,0-3.48.84-3.48,2.46C1045.22,978.14,1060.7,975.38,1060.7,986.42Z" transform="translate(-469.73 -890.77)" fill="#484747"/><path d="M1075.16,972.62V985.1c0,3.24,2.34,3.3,6.78,3.06v7c-10.86,1.2-14.52-2-14.52-10.08V972.62h-5.22v-7.44h5.22v-6.06l7.74-2.34v8.4h6.78v7.44Z" transform="translate(-469.73 -890.77)" fill="#484747"/><path d="M1101.5,989a8.32,8.32,0,0,0,6.72-3l6.24,3.6c-2.82,4.08-7.32,6.42-13.08,6.42-10.08,0-16.44-6.9-16.44-15.84s6.42-15.84,15.84-15.84c8.88,0,15.18,7,15.18,15.84a17.88,17.88,0,0,1-.3,3.18H1093C1094.12,987.32,1097.42,989,1101.5,989Zm6.72-11.64a7.28,7.28,0,0,0-7.44-6.06c-4.14,0-7,2.22-7.86,6.06Z" transform="translate(-469.73 -890.77)" fill="#484747"/><path d="M1149.38,976.76v18.42h-7.74V977.72c0-4.08-2.46-6.18-5.94-6.18-3.78,0-6.6,2.22-6.6,7.44v16.2h-7.74v-30h7.74v3.36c1.8-2.7,4.92-4.2,8.94-4.2C1144.4,964.34,1149.38,968.78,1149.38,976.76Z" transform="translate(-469.73 -890.77)" fill="#484747"/><path d="M1166.36,972.62V985.1c0,3.24,2.34,3.3,6.78,3.06v7c-10.86,1.2-14.52-2-14.52-10.08V972.62h-5.22v-7.44h5.22v-6.06l7.74-2.34v8.4h6.78v7.44Z" transform="translate(-469.73 -890.77)" fill="#484747"/><path d="M1208.24,965.18v30h-7.74v-3.54a11.94,11.94,0,0,1-9.78,4.38c-8,0-14.58-6.9-14.58-15.84s6.6-15.84,14.58-15.84a11.94,11.94,0,0,1,9.78,4.38v-3.54Zm-7.74,15a8.31,8.31,0,1,0-8.34,8.46A8.07,8.07,0,0,0,1200.5,980.18Z" transform="translate(-469.73 -890.77)" fill="#484747"/><path d="M1247.36,980.18c0,8.94-6.6,15.84-14.64,15.84-4.38,0-7.56-1.62-9.72-4.38v3.54h-7.74v-42H1223v15.54c2.16-2.76,5.34-4.38,9.72-4.38C1240.76,964.34,1247.36,971.24,1247.36,980.18Zm-7.74,0a8.31,8.31,0,1,0-8.34,8.46A8.07,8.07,0,0,0,1239.62,980.18Z" transform="translate(-469.73 -890.77)" fill="#484747"/><path d="M1252.82,951.38h7.74v43.8h-7.74Z" transform="translate(-469.73 -890.77)" fill="#484747"/><path d="M1282.63,989a8.3,8.3,0,0,0,6.72-3l6.24,3.6c-2.82,4.08-7.32,6.42-13.08,6.42-10.07,0-16.43-6.9-16.43-15.84s6.42-15.84,15.84-15.84c8.87,0,15.17,7,15.17,15.84a17.88,17.88,0,0,1-.3,3.18h-22.61C1275.25,987.32,1278.55,989,1282.63,989Zm6.72-11.64a7.27,7.27,0,0,0-7.43-6.06c-4.14,0-7,2.22-7.86,6.06Z" transform="translate(-469.73 -890.77)" fill="#484747"/><path d="M966,1022.2l2.36-1.38a3.14,3.14,0,0,0,3.22,2.14c1.66,0,2.24-.71,2.24-1.48,0-1.05-.94-1.44-3-2.05s-4.22-1.52-4.22-4.18,2.2-4.16,4.6-4.16a5.32,5.32,0,0,1,5,3.14l-2.32,1.34a2.75,2.75,0,0,0-2.68-1.8c-1.16,0-1.84.6-1.84,1.4s.54,1.32,2.66,2,4.58,1.44,4.58,4.31c0,2.62-2.1,4.22-5.08,4.22S966.76,1024.28,966,1022.2Z" transform="translate(-469.73 -890.77)" fill="#484747"/><path d="M983.54,1023.32a2.77,2.77,0,0,0,2.24-1l2.08,1.2a5.06,5.06,0,0,1-4.36,2.14,5.29,5.29,0,1,1-.2-10.57,5.06,5.06,0,0,1,5.06,5.29,6.14,6.14,0,0,1-.1,1.06h-7.54A2.63,2.63,0,0,0,983.54,1023.32Zm2.24-3.89a2.43,2.43,0,0,0-2.48-2,2.49,2.49,0,0,0-2.62,2Z" transform="translate(-469.73 -890.77)" fill="#484747"/><path d="M989.56,1020.38a5.17,5.17,0,0,1,5.28-5.29,5,5,0,0,1,4.48,2.58l-2.22,1.3a2.47,2.47,0,0,0-2.28-1.34,2.74,2.74,0,0,0,0,5.47,2.47,2.47,0,0,0,2.3-1.32l2.24,1.28a5.26,5.26,0,0,1-9.8-2.68Z" transform="translate(-469.73 -890.77)" fill="#484747"/><path d="M1006.42,1015.17v2.88a2.5,2.5,0,0,0-3,2.54v4.79h-2.58v-10h2.58v1.72A3.08,3.08,0,0,1,1006.42,1015.17Z" transform="translate(-469.73 -890.77)" fill="#484747"/><path d="M1012.54,1023.32a2.77,2.77,0,0,0,2.24-1l2.08,1.2a5.06,5.06,0,0,1-4.36,2.14,5.29,5.29,0,1,1-.2-10.57,5.06,5.06,0,0,1,5.06,5.29,6.14,6.14,0,0,1-.1,1.06h-7.54A2.63,2.63,0,0,0,1012.54,1023.32Zm2.24-3.89a2.43,2.43,0,0,0-2.48-2,2.49,2.49,0,0,0-2.62,2Z" transform="translate(-469.73 -890.77)" fill="#484747"/><path d="M1022.32,1017.85V1022c0,1.08.78,1.1,2.26,1v2.34c-3.62.4-4.84-.66-4.84-3.36v-4.17H1018v-2.48h1.74v-2l2.58-.78v2.8h2.26v2.48Z" transform="translate(-469.73 -890.77)" fill="#484747"/><path d="M1036.28,1015.37v10h-2.58v-1.18a4,4,0,0,1-3.26,1.46,5.3,5.3,0,0,1,0-10.57,4,4,0,0,1,3.26,1.46v-1.18Zm-2.58,5a2.77,2.77,0,1,0-2.78,2.82A2.69,2.69,0,0,0,1033.7,1020.38Z" transform="translate(-469.73 -890.77)" fill="#484747"/><path d="M1044.24,1015.17v2.88a2.5,2.5,0,0,0-3,2.54v4.79h-2.58v-10h2.58v1.72A3.08,3.08,0,0,1,1044.24,1015.17Z" transform="translate(-469.73 -890.77)" fill="#484747"/><path d="M1045.74,1015.37h2.58v10h-2.58Zm2.5-1.1,1.32-2.9h-3l-.84,2.9Z" transform="translate(-469.73 -890.77)" fill="#484747"/><path d="M1060.86,1015.37v10h-2.58v-1.18a4,4,0,0,1-3.26,1.46,5.3,5.3,0,0,1,0-10.57,4,4,0,0,1,3.26,1.46v-1.18Zm-2.58,5a2.77,2.77,0,1,0-2.78,2.82A2.69,2.69,0,0,0,1058.28,1020.38Z" transform="translate(-469.73 -890.77)" fill="#484747"/><path d="M1078.36,1011.37v14h-2.58v-1.18a3.89,3.89,0,0,1-3.24,1.46,5.3,5.3,0,0,1,0-10.57,3.89,3.89,0,0,1,3.24,1.46v-5.18Zm-2.58,9a2.77,2.77,0,1,0-2.76,2.82A2.69,2.69,0,0,0,1075.78,1020.38Z" transform="translate(-469.73 -890.77)" fill="#484747"/><path d="M1085.72,1023.32a2.77,2.77,0,0,0,2.24-1l2.08,1.2a5.06,5.06,0,0,1-4.36,2.14,5.29,5.29,0,1,1-.2-10.57,5.06,5.06,0,0,1,5.06,5.29,6.14,6.14,0,0,1-.1,1.06h-7.55A2.64,2.64,0,0,0,1085.72,1023.32Zm2.24-3.89a2.43,2.43,0,0,0-2.48-2,2.5,2.5,0,0,0-2.63,2Z" transform="translate(-469.73 -890.77)" fill="#484747"/><path d="M1111.16,1025.38h-2.74v-9.09l-3.94,6.51h-.32l-4-6.49v9.07h-2.76v-14h2.84l4,6.62,4-6.62h2.84Z" transform="translate(-469.73 -890.77)" fill="#484747"/><path d="M1118.64,1023.32a2.77,2.77,0,0,0,2.24-1l2.08,1.2a5.06,5.06,0,0,1-4.36,2.14,5.29,5.29,0,1,1-.2-10.57,5.06,5.06,0,0,1,5.06,5.29,6.14,6.14,0,0,1-.1,1.06h-7.55A2.64,2.64,0,0,0,1118.64,1023.32Zm2.24-3.89a2.43,2.43,0,0,0-2.48-2,2.5,2.5,0,0,0-2.63,2Z" transform="translate(-469.73 -890.77)" fill="#484747"/><path d="M1135.34,1011.37v14h-2.58v-1.18a3.89,3.89,0,0,1-3.24,1.46,5.3,5.3,0,0,1,0-10.57,3.89,3.89,0,0,1,3.24,1.46v-5.18Zm-2.58,9a2.78,2.78,0,1,0-2.76,2.82A2.69,2.69,0,0,0,1132.76,1020.38Z" transform="translate(-469.73 -890.77)" fill="#484747"/><path d="M1137.39,1012.59a1.59,1.59,0,1,1,1.58,1.58A1.6,1.6,0,0,1,1137.39,1012.59Zm.3,2.78h2.58v10h-2.58Z" transform="translate(-469.73 -890.77)" fill="#484747"/><path d="M1142.11,1020.38a5.3,5.3,0,1,1,5.28,5.28A5.23,5.23,0,0,1,1142.11,1020.38Zm8,0a2.72,2.72,0,1,0-2.73,2.76A2.67,2.67,0,0,0,1150.12,1020.38Z" transform="translate(-469.73 -890.77)" fill="#484747"/><path d="M1167.8,1022.86h-5.59l-.83,2.52h-3l4.9-14h3.43l4.92,14h-3Zm-.86-2.59-1.92-5.72-1.93,5.72Z" transform="translate(-469.73 -890.77)" fill="#484747"/><path d="M1187.72,1019.21v6.17h-2.58v-6c0-1.18-.6-1.9-1.68-1.9s-1.86.76-1.86,2.26v5.63H1179v-6c0-1.18-.59-1.9-1.68-1.9s-1.88.76-1.88,2.26v5.63h-2.58v-10h2.58v1.06a3.16,3.16,0,0,1,2.78-1.34,3,3,0,0,1,2.73,1.44,3.43,3.43,0,0,1,3-1.44C1186.22,1015.09,1187.72,1016.71,1187.72,1019.21Z" transform="translate(-469.73 -890.77)" fill="#484747"/><path d="M1200.62,1020.38a5.06,5.06,0,0,1-4.88,5.28,3.89,3.89,0,0,1-3.25-1.46v1.18h-2.58v-14h2.58v5.18a3.89,3.89,0,0,1,3.25-1.46A5.06,5.06,0,0,1,1200.62,1020.38Zm-2.58,0a2.78,2.78,0,1,0-2.79,2.82A2.69,2.69,0,0,0,1198,1020.38Z" transform="translate(-469.73 -890.77)" fill="#484747"/><path d="M1202.13,1012.59a1.59,1.59,0,1,1,1.58,1.58A1.6,1.6,0,0,1,1202.13,1012.59Zm.3,2.78H1205v10h-2.58Z" transform="translate(-469.73 -890.77)" fill="#484747"/><path d="M1212.38,1023.32a2.79,2.79,0,0,0,2.24-1l2.08,1.2a5.08,5.08,0,0,1-4.37,2.14,5.29,5.29,0,1,1-.2-10.57,5.06,5.06,0,0,1,5.07,5.29,6.14,6.14,0,0,1-.1,1.06h-7.55A2.63,2.63,0,0,0,1212.38,1023.32Zm2.24-3.89a2.44,2.44,0,0,0-2.49-2,2.49,2.49,0,0,0-2.62,2Z" transform="translate(-469.73 -890.77)" fill="#484747"/><path d="M1228.33,1019.23v6.15h-2.58v-5.83a1.86,1.86,0,0,0-2-2.06c-1.26,0-2.2.74-2.2,2.48v5.41H1219v-10h2.58v1.12a3.4,3.4,0,0,1,3-1.4C1226.67,1015.09,1228.33,1016.57,1228.33,1019.23Z" transform="translate(-469.73 -890.77)" fill="#484747"/><path d="M1234,1017.85V1022c0,1.08.78,1.1,2.26,1v2.34c-3.62.4-4.84-.66-4.84-3.36v-4.17h-1.74v-2.48h1.74v-2l2.58-.78v2.8h2.26v2.48Z" transform="translate(-469.73 -890.77)" fill="#484747"/><path d="M1242.77,1023.32a2.77,2.77,0,0,0,2.24-1l2.08,1.2a5,5,0,0,1-4.36,2.14,5.29,5.29,0,1,1-.2-10.57,5.05,5.05,0,0,1,5.06,5.29,7.33,7.33,0,0,1-.09,1.06H1240A2.63,2.63,0,0,0,1242.77,1023.32Zm2.24-3.89a2.43,2.43,0,0,0-2.48-2,2.49,2.49,0,0,0-2.62,2Z" transform="translate(-469.73 -890.77)" fill="#484747"/><path d="M1250.49,1028.18h-2.1l.8-5.56h2.8Z" transform="translate(-469.73 -890.77)" fill="#484747"/><path d="M1271.58,1018.37a6.75,6.75,0,0,1-6.75,7h-5.56v-14h5.56A6.74,6.74,0,0,1,1271.58,1018.37Zm-2.65,0a4,4,0,0,0-4.1-4.36H1262v8.73h2.8A4,4,0,0,0,1268.93,1018.37Z" transform="translate(-469.73 -890.77)" fill="#484747"/><path d="M1278.41,1023.32a2.77,2.77,0,0,0,2.24-1l2.08,1.2a5.06,5.06,0,0,1-4.36,2.14,5.29,5.29,0,1,1-.2-10.57,5.06,5.06,0,0,1,5.06,5.29,6.14,6.14,0,0,1-.1,1.06h-7.54A2.63,2.63,0,0,0,1278.41,1023.32Zm2.24-3.89a2.43,2.43,0,0,0-2.48-2,2.49,2.49,0,0,0-2.62,2Z" transform="translate(-469.73 -890.77)" fill="#484747"/><path d="M1292.17,1022.46c0,2.16-1.88,3.2-4,3.2a4.3,4.3,0,0,1-4.2-2.38l2.24-1.26a1.92,1.92,0,0,0,2,1.3c.82,0,1.38-.28,1.38-.86,0-1.46-5.16-.67-5.16-4.19,0-2,1.74-3.18,3.8-3.18a4.21,4.21,0,0,1,3.8,2.12l-2.2,1.2a1.69,1.69,0,0,0-1.6-1c-.64,0-1.16.28-1.16.82C1287,1019.69,1292.17,1018.77,1292.17,1022.46Z" transform="translate(-469.73 -890.77)" fill="#484747"/><path d="M1303.88,1015.37v10h-2.59v-1.18a4,4,0,0,1-3.26,1.46,5.3,5.3,0,0,1,0-10.57,4,4,0,0,1,3.26,1.46v-1.18Zm-2.59,5a2.77,2.77,0,1,0-2.78,2.82A2.69,2.69,0,0,0,1301.29,1020.38Z" transform="translate(-469.73 -890.77)" fill="#484747"/><path d="M1311.83,1015.17v2.88a2.5,2.5,0,0,0-3,2.54v4.79h-2.58v-10h2.58v1.72A3.08,3.08,0,0,1,1311.83,1015.17Z" transform="translate(-469.73 -890.77)" fill="#484747"/><path d="M1319,1015.17v2.88a2.5,2.5,0,0,0-3,2.54v4.79h-2.58v-10h2.58v1.72A3.08,3.08,0,0,1,1319,1015.17Z" transform="translate(-469.73 -890.77)" fill="#484747"/><path d="M1319.55,1020.38a5.29,5.29,0,1,1,5.28,5.28A5.23,5.23,0,0,1,1319.55,1020.38Zm8,0a2.71,2.71,0,1,0-2.72,2.76A2.66,2.66,0,0,0,1327.55,1020.38Z" transform="translate(-469.73 -890.77)" fill="#484747"/><path d="M1332,1010.77h2.58v14.61H1332Z" transform="translate(-469.73 -890.77)" fill="#484747"/><path d="M1336.89,1010.77h2.58v14.61h-2.58Z" transform="translate(-469.73 -890.77)" fill="#484747"/><path d="M1341.31,1020.38a5.29,5.29,0,1,1,5.28,5.28A5.23,5.23,0,0,1,1341.31,1020.38Zm8,0a2.71,2.71,0,1,0-2.72,2.76A2.66,2.66,0,0,0,1349.31,1020.38Z" transform="translate(-469.73 -890.77)" fill="#484747"/><path d="M966,1046.2l2.36-1.38a3.14,3.14,0,0,0,3.22,2.14c1.66,0,2.24-.71,2.24-1.48,0-1-.94-1.44-3-2s-4.22-1.52-4.22-4.18,2.2-4.16,4.6-4.16a5.32,5.32,0,0,1,5,3.14l-2.32,1.34a2.75,2.75,0,0,0-2.68-1.8c-1.16,0-1.84.6-1.84,1.4s.54,1.32,2.66,2,4.58,1.44,4.58,4.31c0,2.62-2.1,4.22-5.08,4.22S966.76,1048.28,966,1046.2Z" transform="translate(-469.73 -890.77)" fill="#484747"/><path d="M987.44,1039.37v10h-2.58v-1.12a3.4,3.4,0,0,1-3,1.4c-2.12,0-3.78-1.48-3.78-4.14v-6.15h2.58v5.83a1.86,1.86,0,0,0,2,2.06c1.26,0,2.2-.74,2.2-2.48v-5.41Z" transform="translate(-469.73 -890.77)" fill="#484747"/><path d="M997.26,1046.46c0,2.16-1.88,3.2-4,3.2a4.3,4.3,0,0,1-4.2-2.38l2.24-1.26a1.92,1.92,0,0,0,2,1.3c.82,0,1.38-.28,1.38-.86,0-1.46-5.16-.67-5.16-4.19,0-2,1.74-3.18,3.8-3.18a4.21,4.21,0,0,1,3.8,2.12l-2.2,1.2a1.69,1.69,0,0,0-1.6-1c-.64,0-1.16.28-1.16.82C992.1,1043.69,997.26,1042.77,997.26,1046.46Z" transform="translate(-469.73 -890.77)" fill="#484747"/><path d="M1002.08,1041.85V1046c0,1.08.78,1.1,2.26,1v2.34c-3.62.4-4.84-.66-4.84-3.36v-4.17h-1.74v-2.48h1.74v-2l2.58-.78v2.8h2.26v2.48Z" transform="translate(-469.73 -890.77)" fill="#484747"/><path d="M1010.86,1047.32a2.77,2.77,0,0,0,2.24-1l2.08,1.2a5.06,5.06,0,0,1-4.36,2.14,5.29,5.29,0,1,1-.2-10.57,5.06,5.06,0,0,1,5.06,5.29,6.14,6.14,0,0,1-.1,1.06H1008A2.63,2.63,0,0,0,1010.86,1047.32Zm2.24-3.89a2.43,2.43,0,0,0-2.48-2,2.49,2.49,0,0,0-2.62,2Z" transform="translate(-469.73 -890.77)" fill="#484747"/><path d="M1026.82,1043.23v6.15h-2.58v-5.83a1.86,1.86,0,0,0-2-2.06c-1.26,0-2.2.74-2.2,2.48v5.41h-2.58v-10h2.58v1.12a3.4,3.4,0,0,1,3-1.4C1025.16,1039.09,1026.82,1040.57,1026.82,1043.23Z" transform="translate(-469.73 -890.77)" fill="#484747"/><path d="M1032.48,1041.85V1046c0,1.08.78,1.1,2.26,1v2.34c-3.62.4-4.84-.66-4.84-3.36v-4.17h-1.74v-2.48h1.74v-2l2.58-.78v2.8h2.26v2.48Z" transform="translate(-469.73 -890.77)" fill="#484747"/><path d="M1046.44,1039.37v10h-2.58v-1.18a4,4,0,0,1-3.26,1.46,5.3,5.3,0,0,1,0-10.57,4,4,0,0,1,3.26,1.46v-1.18Zm-2.58,5a2.77,2.77,0,1,0-2.78,2.82A2.69,2.69,0,0,0,1043.86,1044.38Z" transform="translate(-469.73 -890.77)" fill="#484747"/><path d="M1059.48,1044.38a5.06,5.06,0,0,1-4.88,5.28,3.89,3.89,0,0,1-3.24-1.46v1.18h-2.58v-14h2.58v5.18a3.89,3.89,0,0,1,3.24-1.46A5.06,5.06,0,0,1,1059.48,1044.38Zm-2.58,0a2.77,2.77,0,1,0-2.78,2.82A2.69,2.69,0,0,0,1056.9,1044.38Z" transform="translate(-469.73 -890.77)" fill="#484747"/><path d="M1061.3,1034.77h2.58v14.61h-2.58Z" transform="translate(-469.73 -890.77)" fill="#484747"/><path d="M1071.24,1047.32a2.77,2.77,0,0,0,2.24-1l2.08,1.2a5.06,5.06,0,0,1-4.36,2.14,5.29,5.29,0,1,1-.2-10.57,5.06,5.06,0,0,1,5.06,5.29,6.14,6.14,0,0,1-.1,1.06h-7.54A2.63,2.63,0,0,0,1071.24,1047.32Zm2.24-3.89a2.43,2.43,0,0,0-2.48-2,2.49,2.49,0,0,0-2.62,2Z" transform="translate(-469.73 -890.77)" fill="#484747"/><path d="M1092.14,1039.37l-3.64,10c-1,2.88-2.74,4.14-5.29,4V1051a2.44,2.44,0,0,0,2.63-1.92l-4.11-9.69h2.83l2.6,6.73,2.22-6.73Z" transform="translate(-469.73 -890.77)" fill="#484747"/><path d="M1097.83,1042.37a7.28,7.28,0,1,1,7.27,7.29A7.21,7.21,0,0,1,1097.83,1042.37Zm11.79,0a4.52,4.52,0,1,0-4.52,4.59A4.44,4.44,0,0,0,1109.62,1042.37Z" transform="translate(-469.73 -890.77)" fill="#484747"/><path d="M1119.82,1039.17v2.88a2.5,2.5,0,0,0-3,2.54v4.79h-2.58v-10h2.58v1.72A3.08,3.08,0,0,1,1119.82,1039.17Z" transform="translate(-469.73 -890.77)" fill="#484747"/><path d="M1131.1,1035.37v14h-2.58v-1.18a3.89,3.89,0,0,1-3.24,1.46,5.3,5.3,0,0,1,0-10.57,3.89,3.89,0,0,1,3.24,1.46v-5.18Zm-2.58,9a2.77,2.77,0,1,0-2.76,2.82A2.69,2.69,0,0,0,1128.52,1044.38Z" transform="translate(-469.73 -890.77)" fill="#484747"/><path d="M1138.46,1047.32a2.77,2.77,0,0,0,2.24-1l2.08,1.2a5.06,5.06,0,0,1-4.36,2.14,5.29,5.29,0,1,1-.2-10.57,5.06,5.06,0,0,1,5.06,5.29,6.14,6.14,0,0,1-.1,1.06h-7.55A2.64,2.64,0,0,0,1138.46,1047.32Zm2.24-3.89a2.43,2.43,0,0,0-2.48-2,2.5,2.5,0,0,0-2.63,2Z" transform="translate(-469.73 -890.77)" fill="#484747"/><path d="M1154.42,1043.23v6.15h-2.58v-5.83a1.86,1.86,0,0,0-2-2.06c-1.26,0-2.2.74-2.2,2.48v5.41h-2.58v-10h2.58v1.12a3.4,3.4,0,0,1,3-1.4C1152.76,1039.09,1154.42,1040.57,1154.42,1043.23Z" transform="translate(-469.73 -890.77)" fill="#484747"/><path d="M1166.8,1039.37v10h-2.58v-1.18a4,4,0,0,1-3.26,1.46,5.3,5.3,0,0,1,0-10.57,4,4,0,0,1,3.26,1.46v-1.18Zm-2.58,5a2.78,2.78,0,1,0-2.78,2.82A2.69,2.69,0,0,0,1164.22,1044.38Z" transform="translate(-469.73 -890.77)" fill="#484747"/><path d="M1184,1043.21v6.17h-2.58v-6c0-1.18-.6-1.9-1.68-1.9s-1.86.76-1.86,2.26v5.63h-2.58v-6c0-1.18-.6-1.9-1.68-1.9s-1.89.76-1.89,2.26v5.63h-2.58v-10h2.58v1.06a3.18,3.18,0,0,1,2.79-1.34,3,3,0,0,1,2.72,1.44,3.43,3.43,0,0,1,3-1.44C1182.48,1039.09,1184,1040.71,1184,1043.21Z" transform="translate(-469.73 -890.77)" fill="#484747"/><path d="M1185.87,1036.59a1.59,1.59,0,1,1,3.18,0,1.59,1.59,0,0,1-3.18,0Zm.3,2.78h2.58v10h-2.58Z" transform="translate(-469.73 -890.77)" fill="#484747"/><path d="M1196.12,1047.32a2.77,2.77,0,0,0,2.24-1l2.08,1.2a5.06,5.06,0,0,1-4.36,2.14,5.29,5.29,0,1,1-.2-10.57,5.06,5.06,0,0,1,5.06,5.29,6.14,6.14,0,0,1-.1,1.06h-7.55A2.63,2.63,0,0,0,1196.12,1047.32Zm2.24-3.89a2.43,2.43,0,0,0-2.48-2,2.5,2.5,0,0,0-2.63,2Z" transform="translate(-469.73 -890.77)" fill="#484747"/><path d="M1212.08,1043.23v6.15h-2.58v-5.83a1.87,1.87,0,0,0-2-2.06c-1.26,0-2.2.74-2.2,2.48v5.41h-2.58v-10h2.58v1.12a3.42,3.42,0,0,1,3-1.4C1210.42,1039.09,1212.08,1040.57,1212.08,1043.23Z" transform="translate(-469.73 -890.77)" fill="#484747"/><path d="M1217.73,1041.85V1046c0,1.08.78,1.1,2.27,1v2.34c-3.63.4-4.85-.66-4.85-3.36v-4.17h-1.74v-2.48h1.74v-2l2.58-.78v2.8H1220v2.48Z" transform="translate(-469.73 -890.77)" fill="#484747"/><path d="M1221,1044.38a5.3,5.3,0,1,1,5.29,5.28A5.23,5.23,0,0,1,1221,1044.38Zm8,0a2.72,2.72,0,1,0-2.72,2.76A2.66,2.66,0,0,0,1229,1044.38Z" transform="translate(-469.73 -890.77)" fill="#484747"/><path d="M1247.78,1038H1244v11.37h-2.77V1038h-3.76v-2.64h10.31Z" transform="translate(-469.73 -890.77)" fill="#484747"/><path d="M1252.38,1047.32a2.79,2.79,0,0,0,2.24-1l2.08,1.2a5.08,5.08,0,0,1-4.37,2.14,5.29,5.29,0,1,1-.2-10.57,5.06,5.06,0,0,1,5.07,5.29,6.14,6.14,0,0,1-.1,1.06h-7.55A2.63,2.63,0,0,0,1252.38,1047.32Zm2.24-3.89a2.44,2.44,0,0,0-2.49-2,2.49,2.49,0,0,0-2.62,2Z" transform="translate(-469.73 -890.77)" fill="#484747"/><path d="M1264.62,1039.17v2.88a2.5,2.5,0,0,0-3,2.54v4.79H1259v-10h2.58v1.72A3.08,3.08,0,0,1,1264.62,1039.17Z" transform="translate(-469.73 -890.77)" fill="#484747"/><path d="M1271.74,1039.17v2.88a2.5,2.5,0,0,0-3,2.54v4.79h-2.58v-10h2.58v1.72A3.08,3.08,0,0,1,1271.74,1039.17Z" transform="translate(-469.73 -890.77)" fill="#484747"/><path d="M1272.93,1036.59a1.59,1.59,0,1,1,1.58,1.58A1.6,1.6,0,0,1,1272.93,1036.59Zm.3,2.78h2.58v10h-2.58Z" transform="translate(-469.73 -890.77)" fill="#484747"/><path d="M1281.63,1041.85V1046c0,1.08.78,1.1,2.26,1v2.34c-3.62.4-4.84-.66-4.84-3.36v-4.17h-1.74v-2.48h1.74v-2l2.58-.78v2.8h2.26v2.48Z" transform="translate(-469.73 -890.77)" fill="#484747"/><path d="M1284.89,1044.38a5.29,5.29,0,1,1,5.28,5.28A5.23,5.23,0,0,1,1284.89,1044.38Zm8,0a2.71,2.71,0,1,0-2.72,2.76A2.66,2.66,0,0,0,1292.89,1044.38Z" transform="translate(-469.73 -890.77)" fill="#484747"/><path d="M1302.91,1039.17v2.88a2.5,2.5,0,0,0-3,2.54v4.79h-2.58v-10h2.58v1.72A3.08,3.08,0,0,1,1302.91,1039.17Z" transform="translate(-469.73 -890.77)" fill="#484747"/><path d="M1304.11,1036.59a1.59,1.59,0,1,1,1.58,1.58A1.6,1.6,0,0,1,1304.11,1036.59Zm.3,2.78H1307v10h-2.58Z" transform="translate(-469.73 -890.77)" fill="#484747"/><path d="M1319.53,1039.37v10H1317v-1.18a4,4,0,0,1-3.26,1.46,5.3,5.3,0,0,1,0-10.57,4,4,0,0,1,3.26,1.46v-1.18Zm-2.58,5a2.77,2.77,0,1,0-2.78,2.82A2.69,2.69,0,0,0,1317,1044.38Z" transform="translate(-469.73 -890.77)" fill="#484747"/><path d="M1321.87,1034.77h2.58v14.61h-2.58Z" transform="translate(-469.73 -890.77)" fill="#484747"/><line x1="454.27" y1="54.23" x2="454.27" y2="116.23" fill="#484747" stroke="#484747" stroke-miterlimit="10"/></svg>