<svg id="Capa_1" data-name="Capa 1" xmlns="http://www.w3.org/2000/svg" viewBox="0 0 92.54 71.84"><path d="M2937.81,1569.14c-1.12-.42-2,.07-2.75,1.17-.21.32-.68.75-.95.7-3.82-.76-6.77,3.06-10.62,2a1.43,1.43,0,0,0-1.35.26,5.51,5.51,0,0,1-5.54,1,2.1,2.1,0,0,0-1.76.24,5.55,5.55,0,0,1-5.09.32c-.64-.28-1.18.11-1.76.15a46.16,46.16,0,0,1-10.81-1c-1.28-.22-2.48-1.07-4-.73a2.58,2.58,0,0,1-2.36-.32c-1.5-1.55-3.25-1.62-5.19-1.38a2.4,2.4,0,0,1-2.2-.88c-1-1.52-2.35-1.62-4-1.5a3.62,3.62,0,0,1-4.05-3,8.41,8.41,0,0,0-2.46-4.25c-2.08-2.14-2.27-4.8-.75-7.5a2.35,2.35,0,0,0,.09-2.46,12.84,12.84,0,0,1,.3-12.32c.78-1.48.65-2.27-1.13-2.44a12,12,0,0,1-1.19-.26c-5.78-1.38-7.8-5.35-5.54-10.88a11,11,0,0,1,.79-1.66c1.35-2.16.93-4-.67-5.92-3.83-4.59-2.27-8.64,3.71-9.42a9.79,9.79,0,0,0,5.72-2.48c3.36-3,8.67-2.91,12.39.07,1.2,1,1.71.85,2.73-.21,3.11-3.2,7-3.17,10.23,0,.88.88,1.3.68,2.13,0,5-4,9.84-4,14.73.11.84.7,1.21.62,1.95-.14,3.17-3.22,7.35-3.15,10.58.19a1.35,1.35,0,0,0,2.05.25c6-3.73,9.32-3.44,14.61,1.25a2.75,2.75,0,0,0,1.84.69,18,18,0,0,1,2.43.22c5.4,1,7,4.88,3.53,9.12-1.79,2.2-2.31,4.19-.72,6.6a5.68,5.68,0,0,1,.7,1.47c1.55,4.87,1,9.25-5.16,10.62l-1.2.23c-2.48.5-2.48.5-1.4,2.75a13.53,13.53,0,0,1,0,12.37,1.79,1.79,0,0,0,.05,2c1.87,3,1.5,5.74-1.12,8.19a5.13,5.13,0,0,0-1.76,3c-.48,2.78-2,3.81-5.1,3.7M2880.73,1554c-1.88,0-3.45-.09-4.88.73-2.15,1.22-2.6,3.13-1.12,5.1a6.18,6.18,0,0,0,4.81,2.28,18.27,18.27,0,0,0,12-3.16,15.21,15.21,0,0,1,9.23-2.58c5.36.12,10.73.17,16.09,0a16.91,16.91,0,0,1,10.37,2.91,18.35,18.35,0,0,0,11.66,2.84,5.76,5.76,0,0,0,4.7-2.45,3.18,3.18,0,0,0-1.09-4.86,5.14,5.14,0,0,0-3.11-.78,18,18,0,0,1-10.87-2.7c-1.88-1.07-3.92-1.88-5.88-2.81a7.59,7.59,0,0,0-3.35-.71c-4.48,0-9,.35-13.43,0a27.84,27.84,0,0,0-17.45,4.15,12.47,12.47,0,0,1-7.65,2m35.61-27.24c3.76.84,7.13,1.5,10.46,2.36,5.22,1.34,10.71,2,15.15,5.51a1.76,1.76,0,0,0,1.52.4c1.85-.43,3.71-.8,5.54-1.31a3.37,3.37,0,0,0,2.53-3.51,12.14,12.14,0,0,0-1.76-5.77,5.76,5.76,0,0,1,.59-6.49c.69-.92,1.4-1.83,2-2.8a1.8,1.8,0,0,0-.33-2.41,3.67,3.67,0,0,0-3.56-1c-1.24.28-.55,1.35-.53,2.06.15,5.64-2.33,10-6.95,12.11-6,2.72-14.05,1-17.23-4.37-.3-.5-.72-1.54-1.38-.36-1.36,2.38-3.51,3.89-6.06,5.59m-14.3,0c-2.76-1.73-4.9-3.27-6.15-5.72-.4-.76-.86-.42-1.21.13a10.91,10.91,0,0,1-2.45,3,14.07,14.07,0,0,1-15.33,1.69c-5.38-2.45-6.58-7.34-6.57-12.7,0-.81-.14-1.36-1-1.39-1.25,0-2.51.1-3.29,1.2s-.32,2.2.41,3.19c.4.55.8,1.1,1.23,1.62a5.68,5.68,0,0,1,.66,7,13.51,13.51,0,0,0-1.58,4.17c-.52,2.86.42,4.42,3.21,5.16,1.44.38,2.91.64,4.36,1a1.89,1.89,0,0,0,1.74-.22c4.56-3.56,10.13-4.39,15.52-5.69,3.28-.79,6.57-1.48,10.49-2.35m-10.11,5.19a4.33,4.33,0,0,0,5.18,1.11,15.5,15.5,0,0,1,3.94-.93,5,5,0,0,1,5,3.1c1,2.16.82,3.5-1,5.3-1.06,1-2.23,2-3.32,3-.34.3-.78.66-.57,1.2s.68.37,1.07.37q6.82,0,13.63,0c.4,0,.89,0,1.05-.44s-.2-.77-.49-1c-1-.86-1.95-1.68-2.91-2.55-2.07-1.89-2.49-3.73-1.39-6a5.08,5.08,0,0,1,5.92-2.82,29.5,29.5,0,0,1,3.92,1.07c1.81.63,3-.2,4.25-1.39a54.62,54.62,0,0,0-34.31,0m52.68,13.76a12.57,12.57,0,0,0-6.9-10.56c-4.08-2.23-8.21-2.22-12.09.55a3.72,3.72,0,0,1-3.63.46,16.32,16.32,0,0,0-5.33-1.24,2.34,2.34,0,0,0-2.3,1.68,1.92,1.92,0,0,0,.8,2.32,20.24,20.24,0,0,1,5.38,5.76,2.5,2.5,0,0,0,2.36.95c.83,0,.8-.76.92-1.35a8.79,8.79,0,0,1,11.4-6.81c4.39,1.3,7,7,5,11.72-.67,1.68-.22,2.09,1.29,2.42a1.47,1.47,0,0,0,1.94-.91,11.52,11.52,0,0,0,1.12-5m-70.88.2a10.75,10.75,0,0,0,.77,4.38c.59,1.6,1.62,1.51,2.92,1.11,1.59-.5.72-1.44.44-2.25-1.72-5,.75-10.36,5.43-11.75,4.83-1.44,9.66,1.44,11.09,6.57.16.6-.05,1.57.87,1.62a2.31,2.31,0,0,0,2.36-.92,18.4,18.4,0,0,1,5-5.49c.88-.72,1.56-1.58,1-2.82a2.6,2.6,0,0,0-2.88-1.43c-1.78.14-3.39.94-5.1,1.36a3.36,3.36,0,0,1-3-.54,10.56,10.56,0,0,0-11.71-.79c-4.32,2.3-7.11,5.79-7.19,10.95m58.8-6.09a5.89,5.89,0,0,0-6.18,5.88,2.33,2.33,0,0,0,1.34,2.3l5.67,2.76a2.59,2.59,0,0,0,3.29-.75,6.24,6.24,0,0,0,1-6.67,5.05,5.05,0,0,0-5.16-3.52m-46.81,0a5,5,0,0,0-5.12,3.28,5.93,5.93,0,0,0,.58,6.51c1.09,1.37,2.37,1.91,4.07.94,1.35-.76,2.78-1.39,4.17-2.09,2.37-1.17,3.08-3.4,1.65-5.62-1.23-1.9-2.91-3.2-5.35-3m22.2-14.72c6.46,0,10.46-2.19,12.17-5.95.38-.84,1.15-2.05.4-2.61-1-.77-1.53.71-2.11,1.31-5.47,5.66-13.57,5.49-18.85-.44a8.06,8.06,0,0,0-.69-.74.78.78,0,0,0-.92-.26c-.48.23-.37.68-.25,1.06a10.38,10.38,0,0,0,.65,1.71,10.8,10.8,0,0,0,9.6,5.92m8.68,40h0c0,1.62,0,3.25,0,4.87a1.75,1.75,0,0,0,1.88,1.93,1.77,1.77,0,0,0,2.06-1.94c0-3.12,0-6.23,0-9.34,0-1.55-1.08-1.62-2.24-1.64s-1.77.42-1.74,1.66c0,1.48,0,3,0,4.46m-15.16.08c0-1.56,0-3.12,0-4.68,0-1.15-.61-1.55-1.68-1.51s-2.21-.08-2.24,1.39q-.08,4.79,0,9.56a1.85,1.85,0,0,0,2.13,1.94c1.28,0,1.76-.86,1.77-2,0-1.56,0-3.12,0-4.68m9,.43c0,1.63,0,3.26,0,4.88,0,1.1.14,2.14,1.55,2.15s2-.82,2-2.22c0-3.26,0-6.51,0-9.77,0-1.22-.53-1.67-1.72-1.68s-1.91.41-1.87,1.76c0,1.62,0,3.25,0,4.88m13.15-52v0h2.64a1.39,1.39,0,0,0,1.56-1.29,4.45,4.45,0,0,0-1.73-4.51,4.2,4.2,0,0,0-6.46,4.5c.39,1.88,2,1.17,3.17,1.32a7.48,7.48,0,0,0,.82,0m-29.25,0v0h2.82a1.26,1.26,0,0,0,1.36-.95,4.42,4.42,0,0,0-2.38-5.25,4.17,4.17,0,0,0-5.42,2.18c-1.17,2.71-.32,4,2.61,4h1m-20.36,3.06c-.27,4,3.48,7,7.8,7.5,4.81.58,9.38-1.71,10.4-5.47-6.63,4.8-12.61,4.06-18.2-2M2907.6,1566h0v-5.49c0-1.15-.67-1.5-1.72-1.48s-1.54.41-1.55,1.43c0,3.46,0,6.91,0,10.37a1.65,1.65,0,0,0,1.77,1.81c1.29,0,1.48-.94,1.49-2,0-1.56,0-3.11,0-4.67m36.78-49.29c-5.68,6.49-11.81,7.59-18.63,1.84,1.4,4.08,6.06,6.37,11,5.64,4.42-.65,7.58-3.58,7.63-7.48M2909,1506.4a8,8,0,0,0-7.14,5.15c-.23.73-.75,1.65.5,2,1,.27,1.33-.43,1.61-1.32a5,5,0,0,1,5.62-3.86,5.13,5.13,0,0,1,4.77,4c.29.94.84,1.46,1.78,1.1s.39-1.16.22-1.74a7.71,7.71,0,0,0-7.36-5.35m-14.12,58.78c0-1.21,0-2.43,0-3.65,0-.44-.06-1.22-.67-.94-1.23.58-2.93,1-3.14,2.55a29.42,29.42,0,0,0,0,5.86,1.68,1.68,0,0,0,2,1.6,1.77,1.77,0,0,0,1.84-2c0-1.15,0-2.3,0-3.45m32.18.86h.06a4.89,4.89,0,0,1,0-1.21c.55-2.12-.82-3-2.35-3.91-.77-.44-1.32-.44-1.33.61,0,2.5,0,5,.06,7.5a1.6,1.6,0,0,0,1.75,1.6,1.58,1.58,0,0,0,1.78-1.55c.08-1,0-2,0-3m10.64-58.8a7.59,7.59,0,0,0-6.66,4.55c-.2.57-.72,1.37.24,1.72s1.33-.21,1.57-1.08a4.6,4.6,0,0,1,3.31-3.27c2.78-.84,5,.25,6.53,3.28.37.73.79,1.42,1.65,1s.29-1.2.07-1.75a7.38,7.38,0,0,0-6.71-4.47m-50.28,5.47c-.06-.2-.11-.4-.16-.59-.71-2.58-3.7-4.77-6.65-4.86s-6.21,2.18-7,4.73c-.15.53-.36,1.11.3,1.41s1.08,0,1.44-.68c2.95-5.24,7-5.23,10.12,0,.16.27.37.62.64.72.65.25,1.22.15,1.28-.73m16.28,4c2,3.19,8.87,3,11.64-.51-4,0-7.83-.32-11.64.51m-25.65-.51c2.67,3,7.71,3.55,10.51,1.43.32-.25.74-.48.61-.94s-.62-.48-1-.48h-10.1m50.57.48c3.4,3.49,9,3.41,11,0Zm-40.23,49c-.1-.81.1-2-1.29-1.67-1.23.24-2.86.18-2.71,2.21.1,1.31.4,2.48,2,2.41,1.92-.08,1.85-1.57,2-3m41.59.19c0,1.5,0,2.81,1.9,2.8s1.92-1.44,2-2.68c.12-1.94-1.61-1.73-2.73-1.91-1.59-.25-1,1.16-1.18,1.79" transform="translate(-2862.79 -1503.45)" fill="#484747"/></svg>