<svg id="Capa_1" data-name="Capa 1" xmlns="http://www.w3.org/2000/svg" viewBox="0 0 807.9 470"><path d="M1155.62,1120.52a21.08,21.08,0,0,1,15,5.64q6,5.65,6,15t-6,15a21,21,0,0,1-15,5.65H1149v16.32h-16.48v-57.7Zm0,25.39a4.45,4.45,0,0,0,3.21-1.28,5.09,5.09,0,0,0,0-6.84,4.41,4.41,0,0,0-3.21-1.28H1149v9.4Z" transform="translate(-596.31 -762.94)" fill="#484747"/><path d="M1191,1163.55q1.92,4,8.2,4A10.52,10.52,0,0,0,1206,1165l9.73,8.2q-6,6.51-17,6.51-10.29,0-16.52-6a20,20,0,0,1-6.23-15.07,20.82,20.82,0,0,1,21.39-21.38,20.24,20.24,0,0,1,15.07,6,20.56,20.56,0,0,1,5.91,15.07,21.81,21.81,0,0,1-.64,5.22Zm-.24-9.56h13.5q-1.37-4.83-6.51-4.83a6.81,6.81,0,0,0-7,4.83" transform="translate(-596.31 -762.94)" fill="#484747"/><path d="M1245.53,1137.27a13.34,13.34,0,0,1,10.57,4.54q4,4.55,4,13.54v23.24h-14.87V1157q0-5.39-5-5.38a5,5,0,0,0-4.06,1.68,7.08,7.08,0,0,0-1.41,4.67v20.66h-14.87v-40.2h14.87v3.94q3.69-5.07,10.77-5.06" transform="translate(-596.31 -762.94)" fill="#484747"/><path d="M1277.69,1150.21c0,.64.49,1.15,1.48,1.53a17.1,17.1,0,0,0,3.74.84,27.89,27.89,0,0,1,4.83,1.09,26.86,26.86,0,0,1,4.82,2,9.47,9.47,0,0,1,3.74,3.81,12.63,12.63,0,0,1,1.49,6.32,12.94,12.94,0,0,1-1.73,6.75,11.28,11.28,0,0,1-4.55,4.34,25.25,25.25,0,0,1-5.74,2.13,27,27,0,0,1-6.07.68q-14.55,0-18.81-9.56l12.94-5.79a5.68,5.68,0,0,0,5.71,4.1q2.73,0,2.73-1.77c0-.7-.67-1.26-2-1.69s-3-.87-4.82-1.33a39.77,39.77,0,0,1-5.67-1.84,11.3,11.3,0,0,1-4.86-3.9,11.16,11.16,0,0,1-2-6.84,11.86,11.86,0,0,1,5-10.21,19.37,19.37,0,0,1,11.62-3.61q13.18,0,17.44,10.21l-12.3,4.42q-1.44-3.37-4.5-3.38c-1.66,0-2.49.56-2.49,1.69" transform="translate(-596.31 -762.94)" fill="#484747"/><path d="M1326.81,1138.39h14.87v40.2h-14.87V1175q-3.87,4.74-10.78,4.74a16.63,16.63,0,0,1-13.26-6q-5.14-6-5.15-15.19t5.15-15.19a16.63,16.63,0,0,1,13.26-6q6.92,0,10.78,4.74Zm-12.34,25.49a7.28,7.28,0,0,0,10.37,0,8.36,8.36,0,0,0,0-10.78,7.28,7.28,0,0,0-10.37,0,8.36,8.36,0,0,0,0,10.78" transform="translate(-596.31 -762.94)" fill="#484747"/><path d="M1360.17,1146.19a10.89,10.89,0,0,1,4.42-6.35,13.22,13.22,0,0,1,7.64-2.25v16.08a11.52,11.52,0,0,0-8.44,1.89c-2.42,1.68-3.62,4.38-3.62,8.07v8.67H1345.3v-33.91h14.87Z" transform="translate(-596.31 -762.94)" fill="#484747"/><path d="M1215.85,1198.88a10.86,10.86,0,0,1,4.42-6.35,13.23,13.23,0,0,1,7.64-2.26v16.08a11.52,11.52,0,0,0-8.44,1.89q-3.62,2.54-3.62,8.08v15H1201v-40.19h14.87Z" transform="translate(-596.31 -762.94)" fill="#484747"/><path d="M1256.13,1191.08H1271v40.19h-14.87v-3.61q-3.87,4.74-10.78,4.74a16.63,16.63,0,0,1-13.26-6q-5.14-6-5.15-15.19t5.15-15.2a16.63,16.63,0,0,1,13.26-6q6.92,0,10.78,4.75Zm-12.34,25.48a7.28,7.28,0,0,0,10.37,0,8.34,8.34,0,0,0,0-10.77,7.28,7.28,0,0,0-10.37,0,8.34,8.34,0,0,0,0,10.77" transform="translate(-596.31 -762.94)" fill="#484747"/><path d="M1300.26,1190a13.36,13.36,0,0,1,10.57,4.55q4,4.53,4,13.54v23.23h-14.87v-21.62q0-5.39-5-5.39a5,5,0,0,0-4.06,1.69,7.06,7.06,0,0,0-1.4,4.66v20.66h-14.88v-40.19h14.88V1195q3.69-5.07,10.77-5.07" transform="translate(-596.31 -762.94)" fill="#484747"/><path d="M1345.28,1175h14.87v56.27h-14.87v-3.61c-2.57,3.16-6.17,4.74-10.77,4.74a16.64,16.64,0,0,1-13.27-6q-5.15-6-5.14-15.19t5.14-15.2a16.64,16.64,0,0,1,13.27-6c4.6,0,8.2,1.58,10.77,4.75Zm-12.34,41.56a7.28,7.28,0,0,0,10.37,0,8.34,8.34,0,0,0,0-10.77,7.28,7.28,0,0,0-10.37,0,8.34,8.34,0,0,0,0,10.77" transform="translate(-596.31 -762.94)" fill="#484747"/><path d="M1376.87,1216.24q1.94,4,8.2,4a10.57,10.57,0,0,0,6.83-2.57l9.73,8.2q-6,6.51-17,6.51-10.29,0-16.52-6a20,20,0,0,1-6.23-15.07,20.82,20.82,0,0,1,21.38-21.39,20.26,20.26,0,0,1,15.07,6,20.6,20.6,0,0,1,5.91,15.08,21.38,21.38,0,0,1-.64,5.22Zm-.24-9.57h13.51q-1.38-4.82-6.52-4.82a6.83,6.83,0,0,0-7,4.82" transform="translate(-596.31 -762.94)" fill="#484747"/><path d="M1188.9,1178.47h0" transform="translate(-596.31 -762.94)" fill="#5a5a59"/><path d="M1153,1206.26c.74-.58,1.47-1.17,2.18-1.79a2.76,2.76,0,0,0,.29-.28v-.07a13.49,13.49,0,0,1,3.68-9.81,12.72,12.72,0,0,1,9.3-3.79l12.27-13a29.87,29.87,0,0,0-12.27-2.53,27.7,27.7,0,0,0-20.58,8.35,28.32,28.32,0,0,0-8.23,20.7,31.53,31.53,0,0,0,1.2,8.84,28,28,0,0,0,7.57-3.42,51.92,51.92,0,0,0,4.59-3.21" transform="translate(-596.31 -762.94)" fill="#484747"/><path d="M1179.34,1195.58l13.45-7.68a26.16,26.16,0,0,0-6.21-6.85c-2.95,3.22-6.77,7.24-10.61,11.24a10.57,10.57,0,0,1,3.37,3.29" transform="translate(-596.31 -762.94)" fill="#484747"/><path d="M1169.48,1199l-.91.93v12.52h11.8q-2.77,5.86-11,5.86-7.11,0-10.52-4.23a15.56,15.56,0,0,1-1.83-2.86l-.08.08a55.72,55.72,0,0,1-5.12,3.66,40.23,40.23,0,0,1-5.7,3.06c-.86.36-1.75.69-2.68,1a28.18,28.18,0,0,0,4.41,5.68q8.23,8.28,21.21,8.27,12.42,0,20.06-7.75t7.64-19.63V1199Z" transform="translate(-596.31 -762.94)" fill="#484747"/><path d="M1186.58,1181.05c.87-1,1.67-1.84,2.37-2.64l0,.06h0l0-.06v-9.6c-.19.18-3.64,3.83-8.26,8.72.65.3,1.3.61,1.93,1a29.58,29.58,0,0,1,4,2.57" transform="translate(-596.31 -762.94)" fill="#911635"/><path d="M1138.79,1213.25a8.65,8.65,0,0,1-2.17,0,2.74,2.74,0,0,1-1.33-.46,2.82,2.82,0,0,1-.84-1.06,8.69,8.69,0,0,1-.69-2,54.4,54.4,0,0,1-.81-5.53c-.13-1-.28-2.09-.52-3.21a15.94,15.94,0,0,0-1.17-3.62,8.61,8.61,0,0,0-7.64-5c-.36,0-.7,0-1,0s-.75,0-1.12.09a11.06,11.06,0,0,0-2.13.53,14.63,14.63,0,0,0-3.47,1.85,26.41,26.41,0,0,0-4.94,4.76l0,0c.52-2.26,1-4.53,1.56-6.8l-7.4-3.06h0a35.36,35.36,0,0,1-4,5.3,56.52,56.52,0,0,1-4.89,4.9,61.12,61.12,0,0,1-11.27,8,30,30,0,0,1-6.07,2.5c-2,.55-4,.61-4.94.09a2.74,2.74,0,0,1-1.25-1.24,6,6,0,0,1-.65-1.74,33.12,33.12,0,0,0,12.8-7,24.26,24.26,0,0,0,5.24-6.53,15,15,0,0,0,1.54-4.34,8.87,8.87,0,0,0-.62-5.41,7.36,7.36,0,0,0-1.89-2.43,8.17,8.17,0,0,0-2.47-1.42,10.38,10.38,0,0,0-1.27-.38,7.67,7.67,0,0,0-1.42-.18,9.28,9.28,0,0,0-2.71.28,13.13,13.13,0,0,0-4.29,2.11,20.43,20.43,0,0,0-3.17,2.88,31.61,31.61,0,0,0-4.57,6.69,34.38,34.38,0,0,0-2.87,7.51,22.53,22.53,0,0,0-.61,8.46,13.47,13.47,0,0,0,1.46,4.56,10,10,0,0,0,1.56,2.16,8.72,8.72,0,0,0,2.3,1.71,10.88,10.88,0,0,0,5,1.14,18.58,18.58,0,0,0,4.4-.56,36.42,36.42,0,0,0,7.56-2.87,70,70,0,0,0,12.93-8.48l.57-.48-.9,4.18c-1.33,6-2.69,12.07-4.1,18h0l7.18,2.14c1.24-3.55,2.73-7.2,4.31-10.69a91.58,91.58,0,0,1,5.3-10.13,45.66,45.66,0,0,1,3.15-4.51,19.7,19.7,0,0,1,3.53-3.54,7.78,7.78,0,0,1,1.74-1,3.91,3.91,0,0,1,.74-.2l.36,0h.45a2.34,2.34,0,0,1,1.1.26,1.92,1.92,0,0,1,.69.86,16.65,16.65,0,0,1,1.11,4.68c.28,1.89.47,4,1,6.22a15.42,15.42,0,0,0,1.32,3.56,9.42,9.42,0,0,0,3,3.42,9.57,9.57,0,0,0,4.21,1.55,15.29,15.29,0,0,0,3.76,0,20.69,20.69,0,0,0,4-.84,27,27,0,0,1-2.62-6.09,14.8,14.8,0,0,1-2,.36m-66.47-12.46a28.11,28.11,0,0,1,5.93-11.63,10,10,0,0,1,4.46-3.22c1.19-.4,2.7.34,2.86.92a3.12,3.12,0,0,1,.1,1.78,8.85,8.85,0,0,1-.93,2.54,17.56,17.56,0,0,1-4,4.82,26.28,26.28,0,0,1-8.49,4.88l0-.09" transform="translate(-596.31 -762.94)" fill="#911635"/><path d="M1189,1178.41l0,.06,0-.06" transform="translate(-596.31 -762.94)" fill="#5a5a59"/><path d="M1168.42,1190.52c-6.18,6.53-11.68,12.34-13,13.67a15.79,15.79,0,0,0,1.57,7c.79-.62,1.56-1.27,2.31-1.93.27-.23,4.2-4.19,9.25-9.36V1199h.91c2.06-2.11,4.28-4.4,6.49-6.69a13.66,13.66,0,0,0-7.24-1.78h-.31" transform="translate(-596.31 -762.94)" fill="#911635"/><path d="M1151.81,1214.94a55.72,55.72,0,0,0,5.12-3.66l.08-.08a15.79,15.79,0,0,1-1.57-7,2.76,2.76,0,0,1-.29.28c-.71.62-1.44,1.21-2.18,1.79a51.92,51.92,0,0,1-4.59,3.21,28,28,0,0,1-7.57,3.42,27,27,0,0,0,2.62,6.09c.93-.29,1.82-.62,2.68-1a40.23,40.23,0,0,0,5.7-3.06" transform="translate(-596.31 -762.94)" fill="#484747"/><path d="M1168.73,1190.51a13.66,13.66,0,0,1,7.24,1.78c3.84-4,7.66-8,10.61-11.24a29.58,29.58,0,0,0-4-2.57c-.63-.34-1.28-.65-1.93-1l-12.27,13h.31" transform="translate(-596.31 -762.94)" fill="#911635"/><path d="M1168.57,1199.91l.91-.93h-.91Z" transform="translate(-596.31 -762.94)" fill="#5a5a59"/><path d="M646.17,1195.1c0,10.39-6.55,19.18-17.9,19.18H616.76v15.34H596.31v-53.7h32c11.43,0,17.9,8.79,17.9,19.18m-20.46.64c0-3.92-2.31-5.75-5.11-5.75h-3.84v11.5h3.84c2.8,0,5.11-1.76,5.11-5.75" transform="translate(-596.31 -762.94)" fill="#484747"/><path d="M700.1,1175.92v30.69c0,14.14-10.22,24.29-26.84,24.29s-26.85-10.15-26.85-24.29v-30.69h20.45v29.41c0,6.39,1.92,9,6.4,9s6.39-2.56,6.39-9v-29.41Z" transform="translate(-596.31 -762.94)" fill="#484747"/><polygon points="127.05 428.33 127.05 433.44 139.83 433.44 139.83 446.23 127.05 446.23 127.05 451.34 143.67 451.34 143.67 466.68 106.59 466.68 106.59 412.99 143.67 412.99 143.67 428.33 127.05 428.33" fill="#484747"/><path d="M792.63,1213.48c0,9.27-6.87,16.14-18.38,16.14H742.77v-53.7h28.85c11.5,0,18.45,5.52,18.45,14.78a15,15,0,0,1-5,10.79c4.4,2.48,7.59,6.63,7.59,12m-29.4-15.82h2.31c2.24,0,4.08-1.2,4.08-3.84s-1.84-3.83-4.08-3.83h-2.31Zm8.95,14.06c0-2.64-2.64-3.84-6-3.84h-2.95v7.67h2.95c3.36,0,6-1.19,6-3.83" transform="translate(-596.31 -762.94)" fill="#484747"/><polygon points="234.28 451.34 234.28 466.68 197.2 466.68 197.2 412.99 217.66 412.99 217.66 451.34 234.28 451.34" fill="#484747"/><path d="M890.92,1229.62H870.46l-2.16-6.39H852.16l-2.16,6.39H829.55l21.33-53.7h18.7Zm-27.65-21.74-3-9.1-3,9.1Z" transform="translate(-596.31 -762.94)" fill="#484747"/><path d="M781.55,1128.92c-12.13,0-22,9.44-22,21s9.86,21,22,21,22-9.45,22-21-9.86-21-22-21m13.63,21.69a25.1,25.1,0,0,1-3.38,4.27c-3.41,3.7-6.86,7.41-10.27,11.11l-10.23-11.11a25.1,25.1,0,0,1-3.38-4.27,9.66,9.66,0,0,1-1.42-5.42,7.5,7.5,0,0,1,4.69-6.36,8.22,8.22,0,0,1,10.34,5.52,7.58,7.58,0,0,1,3.79-4.87,8.07,8.07,0,0,1,6.59-.65,7.5,7.5,0,0,1,4.69,6.36,9.51,9.51,0,0,1-1.42,5.42" transform="translate(-596.31 -762.94)" fill="#911635"/><path d="M615.13,1151.5c0,5.12-3.41,9.13-9.17,9.13H600.2V1170h-3.89v-27.26h8.44c7.09,0,10.38,3.57,10.38,8.72m-3.89.25c0-3.57-2.64-5.07-5.48-5.07H600.2v10.06H606c2.84,0,5.24-1.46,5.24-5" transform="translate(-596.31 -762.94)" fill="#484747"/><path d="M644.13,1156.41a14,14,0,1,1-14-14,14,14,0,0,1,14,14m-3.89,0a10.06,10.06,0,1,0-10.06,10.06,10,10,0,0,0,10.06-10.06" transform="translate(-596.31 -762.94)" fill="#484747"/><path d="M661.45,1170l-6.77-9.41h-4.26V1170h-3.89v-27.26H655c7.1,0,10.39,3.57,10.39,8.72,0,4.22-2.31,7.67-6.37,8.77l7,9.77Zm-11-13.3h5.8c2.84,0,5.23-1.46,5.23-5s-2.31-5.07-5.15-5.07h-5.88Z" transform="translate(-596.31 -762.94)" fill="#484747"/><path d="M711.55,1170h-15.3l-1.61-4.78H682.56L681,1170h-15.3l16-40.17h14Zm-20.68-16.26L688.6,1147l-2.27,6.81Z" transform="translate(-596.31 -762.94)" fill="#911635"/><polygon points="164.02 407.11 149.68 407.11 148.9 388.94 144.12 407.11 132.64 407.11 127.68 388.94 126.9 407.11 112.56 407.11 115.43 366.94 131.69 366.94 138.38 388.94 146.03 366.94 161.16 366.94 164.02 407.11" fill="#911635"/><path d="M844.38,1170H827.16l-7.65-11.47V1170h-15.3v-40.17h23.91c8.55,0,13.39,6.58,13.39,14.35,0,5.56-2.51,10.46-7,12.85Zm-18.17-25.34c0-2.93-1.74-4.31-3.83-4.31h-2.87V1149h2.87c2.09,0,3.83-1.31,3.83-4.3" transform="translate(-596.31 -762.94)" fill="#911635"/><path d="M862.08,1164.2H849.82l-2.63,5.84H843l13-27.91,13,27.91h-4.22Zm-1.79-3.89-4.34-9.58-4.34,9.58Z" transform="translate(-596.31 -762.94)" fill="#484747"/><polygon points="381.3 376.78 381.3 462.39 382.54 462.39 382.54 376.78 381.83 376.78 381.3 376.78" fill="#484747"/><polygon points="760.64 221.02 240.37 221.02 240.37 226.45 760.64 226.45 760.64 223.36 760.64 221.02" fill="#911635"/><path d="M802.59,806.84a24.53,24.53,0,0,0,4.88-2.39c2.11-1.15,2.18-2.75.21-4.18-1.29-.94-2.56-1.89-3.86-2.8a1.55,1.55,0,0,1-.68-1.86c.77-3.5,1.46-7,2.17-10.54.21-1.07.24-2.12-.88-2.76s-2-.13-2.83.6c-1.78,1.53-3.59,3-5.69,4.79.26-1.13.4-1.84.58-2.54a2.27,2.27,0,0,0-.53-2.62,2.52,2.52,0,0,0-2.81-.15c-3.06,1.29-6.13,2.54-9.2,3.78a7.74,7.74,0,0,1-1.57.42c-1,.17-1.55-.16-1.5-1.3.06-1.45,0-2.91,0-4.36a2.85,2.85,0,0,0-2.65-2.94,13,13,0,0,0-1.77-.06c-10.4,0-20.8,0-31.2,0-1.29,0-1.76-.38-1.73-1.71.07-3.36,0-6.72,0-10.09a3,3,0,0,0-3.11-3.21c-.32,0-.64,0-.95,0H669.3c-.36,0-.73,0-1.09,0a2.81,2.81,0,0,0-3,3.16c0,3.18,0,6.36,0,9.55,0,2.26,0,2.26-2.26,2.26H631.38c-2.48,0-3.59,1.09-3.67,3.55,0,1,0,1.91,0,2.86,0,1.43-.16,1.52-1.5,1l-7.32-3a2.33,2.33,0,0,0-2.68.16,2.48,2.48,0,0,0-.49,2.66,3.65,3.65,0,0,1,.25,2.22c-1.93-1.62-3.71-3.14-5.52-4.64a2.13,2.13,0,0,0-2.74-.4,2.22,2.22,0,0,0-.82,2.64c.73,3.42,1.38,6.86,2.13,10.28a2,2,0,0,1-.94,2.42,48.85,48.85,0,0,0-4,2.9c-1.37,1.11-1.36,2.62.08,3.51a26,26,0,0,0,4.81,2.52c1.24.44,1.14.89.74,1.84-1.35,3.13-2.64,6.28-3.92,9.43-.63,1.55-.41,2.57.87,3.13a1.71,1.71,0,0,1,1.12,1.89q0,9.41,0,18.81a1.88,1.88,0,0,1-1.09,1.94,5.28,5.28,0,0,0-.26,9.33,2.45,2.45,0,0,1,1.36,2.38q0,25.83,0,51.66a2.27,2.27,0,0,1-1.29,2.27,5.28,5.28,0,0,0,.11,9.33,2,2,0,0,1,1.17,2q0,25.89,0,51.79a1.92,1.92,0,0,1-1.1,1.95,5.27,5.27,0,0,0,0,9.47,2,2,0,0,1,1.1,2q0,26,0,51.94a2.05,2.05,0,0,1-1.17,2,5.29,5.29,0,0,0,0,9.42,2.08,2.08,0,0,1,1.17,2.06,50.35,50.35,0,0,0,.18,6.26A15.39,15.39,0,0,0,623,1071c3,0,6.09,0,9.13,0a1.76,1.76,0,0,1,1.85,1,5,5,0,0,0,4.89,3.06,5.07,5.07,0,0,0,4.83-3.15,1.4,1.4,0,0,1,1.47-.94c1.46,0,2.91,0,4.36,0,1,0,1.39.36,1.37,1.36q-.08,2.73,0,5.46a3.26,3.26,0,0,0,2.48,3.35,18.51,18.51,0,0,0,6.76,0,4.43,4.43,0,0,1,2.37,0c5.41,1.73,10.83,3.42,16.24,5.13a7.44,7.44,0,0,0,3.48.33c2-.3,4.06-.42,6.09-.64l10.41-1.11a2.34,2.34,0,0,0,1.39-4.13c-.4-.37-.76-.78-1.18-1.13-.94-.78-.67-1.19.37-1.49.83-.25,1.63-.57,2.44-.88,1.74-.65,2.31-1.42,2.33-3.25,0-2,0-4,0-6a3.11,3.11,0,0,0-2-3.1c-1.25-.57-2.45-1.21-3.71-1.73-.93-.39-1.18-.63-.23-1.38a32.69,32.69,0,0,0,3-2.8,1.71,1.71,0,0,0,.57-1.85A1.79,1.79,0,0,0,700,1056l-17.86-1.89a8.77,8.77,0,0,0-3.62.42c-5.63,1.8-11.27,3.54-16.9,5.3a2.92,2.92,0,0,1-1.46.2,23.3,23.3,0,0,0-5.84-.1c-2.27.17-3.42,1.42-3.46,3.72,0,1.22,0,2.45,0,3.68,0,.88-.37,1.22-1.23,1.2q-2.25,0-4.5,0a1.46,1.46,0,0,1-1.47-.94,5.21,5.21,0,0,0-4.86-3.15,5.14,5.14,0,0,0-4.87,3.12,1.51,1.51,0,0,1-1.59,1c-3.08,0-6.17,0-9.26,0a12.8,12.8,0,0,1-12.31-10.42c-.44-2.21-.12-4.44-.24-6.66a2.15,2.15,0,0,1,1.18-2.19c4-2.5,3.86-7.21-.24-9.52-.92-.52-.93-1.22-.93-2V986c0-.83,0-1.56,1-2a5.33,5.33,0,0,0,.19-9.55,2.1,2.1,0,0,1-1.18-2.19q0-25.69,0-51.39a2.26,2.26,0,0,1,1.28-2.27,5.26,5.26,0,0,0,0-9.32,2.21,2.21,0,0,1-1.22-2.3q0-25.76,0-51.52a2.34,2.34,0,0,1,1.32-2.38c3.34-1.91,3.88-6.71.76-8.65-2-1.26-2.2-2.69-2.06-4.59a8.94,8.94,0,0,0,0-1.37,1.72,1.72,0,0,1,1.1-1.82c3.13-1.66,6.23-3.36,9.34-5.07,1.68-.93,1.78-.89,1.77,1q-.12,13.77-.17,27.52-.18,80.64,0,161.26a34.67,34.67,0,0,0,.21,3.94,22.83,22.83,0,0,0,18.3,19.84c7.2,1.36,14.53,1.37,21.81,1.86,5.85.38,11.68.79,17.47,1.71a71.73,71.73,0,0,1,22.63,7.13,5.79,5.79,0,0,0,5.93.09,56.56,56.56,0,0,1,10.32-4.24c9.94-3.07,20.23-3.74,30.52-4.35,5.66-.33,11.32-.6,16.94-1.44a26,26,0,0,0,15.25-7.8,26.5,26.5,0,0,0,7.47-19.16q-.08-72.51,0-145,0-20.73,0-41.44c0-1.67.09-1.74,1.55-1a78.07,78.07,0,0,0,7.22,3.83c3.09,1.24,4.26,3.22,3.72,6.46-.15.88-.28,1.45-1.15,1.9a5.27,5.27,0,0,0-.31,9.33,2.57,2.57,0,0,1,1.44,2.69q0,25.56,0,51.12a2.33,2.33,0,0,1-1.36,2.47,4.93,4.93,0,0,0-2.71,4.84,4.87,4.87,0,0,0,3,4.54,1.76,1.76,0,0,1,1.11,1.91q0,26,0,51.93c0,.14,0,.28,0,.41a1.26,1.26,0,0,1-.87,1.36,5,5,0,0,0-3.18,4.83,5.12,5.12,0,0,0,3.07,4.91,1.64,1.64,0,0,1,1,1.72q0,26.1,0,52.2a1.71,1.71,0,0,1-1.09,1.8,5,5,0,0,0-3,4.81,4.88,4.88,0,0,0,3,4.76,1.56,1.56,0,0,1,1,1.69c0,1.63,0,3.27,0,4.9a12.79,12.79,0,0,1-10.67,12.35c-3.84.58-7.71.14-11.57.25-.73,0-1-.48-1.28-1a5.38,5.38,0,0,0-9.75.14,1.33,1.33,0,0,1-1.36.9c-1.58,0-3.17,0-4.76,0-.82,0-1.14-.37-1.13-1.16,0-1.5,0-3,0-4.5a3.18,3.18,0,0,0-2.85-3.42,16,16,0,0,0-6.36.19,3.83,3.83,0,0,1-2.25-.05c-5.32-1.68-10.66-3.32-16-5a10.3,10.3,0,0,0-4.3-.39l-10,1c-2,.21-4,.4-5.95.64a2.37,2.37,0,0,0-1.37,4.23c.47.43.9.9,1.37,1.32s.57.85-.22,1.1c-1,.32-2,.73-3,1a3.15,3.15,0,0,0-2.33,3.28c0,1.69.08,3.37,0,5a4,4,0,0,0,2.89,4.39,23.5,23.5,0,0,1,3.46,1.61c-.92,1.12-1.83,2.31-2.83,3.42-.62.7-1.31,1.32-.92,2.37s1.34,1.14,2.24,1.24c5.32.57,10.65,1.07,16,1.68a13.6,13.6,0,0,0,6-.66c5.21-1.73,10.48-3.31,15.73-4.94a3.08,3.08,0,0,1,1.32-.24,40,40,0,0,0,5.58.12c2.6,0,3.79-1.21,3.81-3.86,0-1.45.05-2.91,0-4.36-.06-1.15.31-1.67,1.54-1.59a37.17,37.17,0,0,0,4,0,1.75,1.75,0,0,1,1.9,1.14,5.36,5.36,0,0,0,9.54.06,1.88,1.88,0,0,1,2-1.2c2.91,0,5.81,0,8.72,0a15.21,15.21,0,0,0,15.41-15.36c0-1.41,0-2.82,0-4.22a2.08,2.08,0,0,1,1.31-2.23,5.35,5.35,0,0,0,0-9.41,2.1,2.1,0,0,1-1.31-2.22q0-25.69,0-51.39a2.27,2.27,0,0,1,1.36-2.36,5.36,5.36,0,0,0-.08-9.41,2.06,2.06,0,0,1-1.27-2.24q0-25.63,0-51.26a2.2,2.2,0,0,1,1.36-2.33,4.94,4.94,0,0,0,2.75-4.67,4.85,4.85,0,0,0-2.74-4.67,2.3,2.3,0,0,1-1.37-2.45q0-21.2,0-42.4c0-3.08,0-6.18,0-9.26,0-.77.07-1.41.91-1.78a5,5,0,0,0,3.18-4.81,5.11,5.11,0,0,0-3.13-5,1.51,1.51,0,0,1-1-1.48q0-9.81,0-19.63a1.16,1.16,0,0,1,.52-1.16c2.15-1.31,2.24-1.69,1.26-4-1.3-3.1-2.57-6.21-3.85-9.32-.18-.44-.53-.91.31-1.14M697.51,1070.11c.22-.64-.55-2,1-2s.9,1.39,1.07,2.22a6,6,0,0,1,0,1.34c0,.77-.47,1-1.15,1s-1-.38-1-1c0-.45,0-.9,0-1.5m-31.9-8.79c4.72-1.5,9.45-2.94,14.16-4.47a8.53,8.53,0,0,1,3.63,0c4.43.39,8.84.89,13.26,1.34.27,0,.59,0,.73.28s-.17.56-.38.79a1.72,1.72,0,0,1-1.76.39c-3-.55-6-1-9-1.62a4.07,4.07,0,0,0-2.75.39q-9.64,4.79-19.3,9.53c-1.64.81-1.64.82-1.64-1v-1.5c0-3.15,0-3.16,3-4.12m28.88,1.9a1.64,1.64,0,0,1,1.57,2c-.06.78-.06,1.46-1.13,1.4-1.47-.08-.81-1.22-1.09-1.93.32-.47-.38-1.5.65-1.44m1.52,7.15c0,.51,0,1,0,1.5s-.43.75-.94.76-1.07-.07-1.1-.73c-.05-1,0-2,0-3,0-.65.44-.83,1-.83s1,.17,1.06.81c0,.49,0,1,0,1.49m-2.07,5.88c0-.37,0-.73,0-1.09s.16-.72.59-.79.92-.17,1.29.2c.56.56.2,2.94-.49,3.31-1,.53-1.36.33-1.41-.82,0-.27,0-.54,0-.81Zm-3.79,1.65a7.92,7.92,0,0,1,0-1.09h0c0-.49,0-1,0-1.49,0-.78.41-1,1.12-1s1,.34,1,1c0,.86,0,1.72,0,2.58s-.57,1.25-1.39,1.28c-1,0-.63-.78-.7-1.28m1.06-5.29c-1.63,0-.92-1.31-1.06-2.12a8.67,8.67,0,0,1,0-1.35c0-.72.28-1.08,1-1.08s1.09.31,1.07,1c0,.45,0,.9,0,1.48-.25.63.61,2-1,2m-1.07-8.61c0-.4,0-.81,0-1.22s-.14-1.14.57-1.18,1.38.2,1.45,1a24.1,24.1,0,0,1,0,3.4c0,.6-.55.63-1,.64s-.95-.08-1-.68,0-1.27,0-1.91h0m-3.64,11.4c0-.6,0-1.09.79-1.09s1.17.16,1.17,1c0,1.18,0,2.36,0,3.54,0,.79-.58,1-1.2,1s-.69-.56-.72-1-.07-1.27-.11-1.9h.08c0-.5,0-1,0-1.5m.87-2.76c-.79,0-1-.44-1-1.13s0-1.54,0-2.32.39-1.14,1.18-1.12,1,.54.94,1.2v1.08c0,.37,0,.73,0,1.09,0,.76-.26,1.2-1.1,1.2m-1-9c0-.59,0-1.18,0-1.77s.19-1,.85-1,1.21.18,1.23,1c0,1.26,0,2.53,0,3.79,0,.62-.35.89-1,.9s-1.1-.16-1.13-.87,0-1.36,0-2Zm-1.47,8c0,.69-.36,1-1,1s-1.07-.19-1.08-.9c0-.9,0-1.81,0-2.71,0-.69.37-.94,1-1s1.11.27,1.09,1c0,.45,0,.9,0,1.35h0c0,.41,0,.82,0,1.22m-1-5.06c-.75,0-1.08-.34-1.07-1.07,0-1,0-2,0-3s.72-1.19,1.42-1.42c.49-.15.66.18.67.6,0,.68,0,1.36,0,2h0c0,.59,0,1.18,0,1.77,0,.74-.29,1.08-1,1.08m-1,8.42c0-.68.58-.7,1.1-.7s.92.14.94.73,0,1.44,0,2.16h0a8.27,8.27,0,0,1,0,1.22c-.07.43.3,1.19-.41,1.21s-1.56-.24-1.64-1.11a24.18,24.18,0,0,1,0-3.51m-1.68-10.44c-.19.81.42,2-1.14,2-1.24,0-1-.9-1-1.63,0-1.14.8-2.24,1.64-2s.26,1.14.52,1.66m-.64,13.2a1.58,1.58,0,0,1-1.54-2c.08-.7-.12-1.5,1-1.52,1.53,0,1,1.13,1.17,2-.29.46.46,1.54-.64,1.49m-1.53-8.53c0-.76.23-1.19,1.08-1.19s1.08.48,1.06,1.22c0,.36,0,.72,0,1.08h0c0,.49,0,1,0,1.49,0,.65-.5.78-1,.78s-1-.17-1-.81c0-.86,0-1.72,0-2.57m-1.47,2.43c0,.69-.38,1-1,1s-1-.26-1.05-1c0-.45,0-.9,0-1.36s0-.9,0-1.36c0-.62.36-.88,1-.89s1.1.18,1.12.89c0,.91,0,1.81,0,2.72M673.7,1069v1.35h0c0,.49,0,1,0,1.49s-.47.8-1,.8-1-.15-1-.8c0-.94,0-1.88,0-2.83,0-.71.39-.93,1-.93s1.05.21,1,.92m-3.76,2.46c0,.82-.25,1.09-1,.67s-1.7-.84-2.55-1.27c-.6-.3-.61-.61,0-.92s1.45-.73,2.19-1.08c1.25-.61,1.36-.54,1.4.84v.81c0,.32,0,.63,0,1m-7.35,2.3c0-1.67.09-1.73,1.55-1,5.9,2.91,11.84,5.75,17.69,8.75a8.53,8.53,0,0,0,6.38.88c2.24-.56,4.55-.84,6.82-1.25,1.56-.28,1.56-.28,2.79,1.25l-10.73,1.14a24.21,24.21,0,0,0-2.42.28,15.66,15.66,0,0,1-8.39-1c-4-1.38-8-2.58-12.07-3.77-1.19-.35-1.77-.88-1.64-2.18.1-1,0-2.09,0-3.13m-8-11.39c1.32,0,2.63,0,3.94,0,1,0,1.26.71,1.25,1.58v6.66c0,2.26,0,4.53,0,6.79,0,1-.44,1.51-1.47,1.49-1.22,0-2.44,0-3.66,0a1.2,1.2,0,0,1-1.35-1.34c0-4.58,0-9.16,0-13.73a1.24,1.24,0,0,1,1.29-1.43m-15.9,4.64a2.86,2.86,0,0,1,2.79,2.76,2.83,2.83,0,0,1-2.73,2.81,2.79,2.79,0,0,1-.06-5.57m77.17-8.77c4.82-.52,9.64-1,14.46-1.54a5.15,5.15,0,0,1,2.14.17l15,4.74c2.17.68,2.17.69,2.17,3v1c0,3.35,0,3.34-3,1.84-6-3-12-5.88-17.93-8.85a4.45,4.45,0,0,0-3-.46c-2.84.58-5.7,1.06-8.56,1.56a3.8,3.8,0,0,1-1.34.08c-.55-.1-1.14-.51-1.14-1,0-.72.76-.43,1.19-.47m30.26,12.49a7.42,7.42,0,0,1-1.09.55c-.91.32-2,1.56-2.62.94s-.21-2.24-.25-3.41c0-.31.13-.53.67-.42,1,.52,2.21,1.1,3.37,1.72.34.18.21.45-.08.62m-5.65-.37c0,.45,0,.9,0,1.35s-.33.88-.94.88-.94-.26-1-.87c0-.9,0-1.8,0-2.7,0-.66.34-1,1-1a.83.83,0,0,1,.9.94v1.35m-3.58,1.09c0,.76-.25,1.17-1.09,1.16s-1.06-.51-1-1.23c0-.36,0-.72,0-1.08h0c0-.45,0-.9,0-1.35,0-.72.46-.89,1.08-.89s1,.26,1,1,0,1.62,0,2.44m-5.94,4.77c.15-.8-.36-1.91,1.08-1.92,1.21,0,1.07.84,1.07,1.6,0,1.09-.76,2.1-1.58,1.94-1-.19-.33-1.12-.57-1.62m2.15-4.62c0,.76-.41,1-1.12,1s-1-.3-1-1,0-1.53,0-2.3.16-1.31,1.11-1.28,1,.54,1,1.25v1h0c0,.45,0,.9,0,1.35m-1-5.22c-1.55,0-.93-1.2-1.17-2,.31-.47-.37-1.5.58-1.46a1.63,1.63,0,0,1,1.62,1.92c-.06.72.06,1.5-1,1.51m-4.7,10.68h0v-1.77c0-.77.44-1,1.14-1s1,.38,1,1c0,1,0,1.91,0,2.86a1.19,1.19,0,0,1-.26.74c-.42.41-.95.86-1.54.7s-.26-.79-.3-1.21,0-.9,0-1.36m2.13-6.65h0c0,.45,0,.9,0,1.35,0,.64-.4.84-1,.84s-1.09-.14-1.1-.86c0-.9,0-1.8,0-2.7s.44-1,1.13-1,1,.34,1,1c0,.45,0,.9,0,1.35m0-4.83c0,.64-.47.8-1,.8s-1-.19-1-.82,0-1.36,0-2h0a7.93,7.93,0,0,1,0-1.09c.08-.46-.28-1.28.55-1.25.63,0,1.43.33,1.5,1.14a27.06,27.06,0,0,1,0,3.25m-5.86,3.43c0-.69.35-1,1-1s1.07.16,1.07.89c0,.9,0,1.8,0,2.7,0,.69-.35.95-1,1s-1.11-.28-1.09-1c0-.45,0-.9,0-1.35h0V1069m0,6.17c0-.73.48-.89,1.1-.88s1,.23,1,.87,0,1.27,0,1.9h0c0,.59,0,1.18,0,1.77s0,1.1-.73,1c-.61-.07-1.35-.07-1.35-1,0-1.22,0-2.45,0-3.67m2.07-11.65v1.89c0,.7-.38,1-1,1s-1.05-.24-1.05-.94c0-1.13,0-2.26,0-3.39,0-.94.61-1.08,1.35-1.13.9-.05.72.61.74,1.11s0,1,0,1.5Zm-5.87,6.88a6.66,6.66,0,0,1,0-1.34c0-.66.27-1,1-1s1.14.2,1.14,1v1.51c-.23.65.62,2.09-1.11,2s-.83-1.38-1-2.18m0-7.5c-.06-1,.54-1.27,1.33-1.31s.76.69.8,1.24c0,.36,0,.72,0,1.08v1.22c0,.71-.18,1.22-1,1.24s-1.1-.42-1.08-1.18,0-1.53,0-2.29m0,12.1c0-.58.47-.71,1-.71s1,.12,1.07.77,0,1.09,0,1.64h0c0,.4,0,.81,0,1.22s0,1.19-.77,1.17c-.63,0-1.23-.25-1.29-1a29.69,29.69,0,0,1,0-3.13m-2,2.58c-.92.11-1.59-.78-1.59-1.93,0-.74.07-1.37,1.06-1.36,1.46,0,1,1.11,1.1,1.91-.22.43.39,1.27-.57,1.38m-.62-11.22a1.26,1.26,0,0,1-.64-.18c-.68-.52-.36-3,.43-3.34,1.06-.52,1.34-.36,1.38.82v.78c-.16.7.47,2-1.17,1.92m.14,1.68c1,0,1,.64,1,1.37,0,.27,0,.54,0,.81s0,.81,0,1.22c0,.77-.25,1.19-1.09,1.18s-1.06-.52-1.05-1.24,0-1.36,0-2,.15-1.32,1.11-1.31m-2.79,2.29c0,.5,0,1,0,1.49,0,.65-.49.79-1.05.79s-1-.14-1-.79c0-1,0-1.9,0-2.85,0-.71.41-.92,1-.92s1.05.22,1.05.92v1.36h0m34,8.49-16.23,5.1c-1.44.44-2.89,0-4.32-.13-4.24-.43-8.47-.89-12.71-1.34-.21,0-.46,0-.63-.32a1.84,1.84,0,0,1,2.14-1.08c2.89.58,5.81,1,8.7,1.57a5,5,0,0,0,3.41-.48c6.46-3.22,12.93-6.4,19.4-9.59,1.35-.66,1.38-.64,1.39.89,0,1.27,0,2.54,0,3.81a1.4,1.4,0,0,1-1.16,1.57m10.19-1.82c0,1-.5,1.37-1.44,1.35-1.09,0-2.18,0-3.27,0-1.26.05-1.83-.48-1.8-1.77,0-2.18,0-4.36,0-6.54s.05-4.27,0-6.41c0-1.25.49-1.72,1.7-1.66s2.27,0,3.41,0c1,0,1.41.4,1.41,1.38q0,6.83,0,13.63m14.55-4.43a2.63,2.63,0,0,1-2.55-2.79,2.66,2.66,0,0,1,2.73-2.78,2.79,2.79,0,0,1-.18,5.57m28.62-287.24c.3-.25.56-.77,1-.54s.17.74.1,1.11c-.57,2.85-1.24,5.68-1.7,8.54-.24,1.51-1.05,1.92-2.38,2-3.12.15-6.24.37-9.36.54-3.8.21-7.6.39-11.4.59v.05c-.45,0-.91,0-1.36,0-1.3.09-2-.61-1.79-1.91.12-.86.87-.72,1.39-.76,2.35-.15,4.7-.28,7.06-.32,2,0,4-.14,6-.28a4,4,0,0,0,1.76-.65c3.95-2.31,7.19-5.5,10.71-8.35m-45.58,17.39L740.52,800c-.79-.13-1.36-.38-1.38-1.34s.27-1.48,1.31-1.4c.45,0,.91,0,1.36,0v0l10.3.79c.68.06,1.36.07,2,.08s.86-.53.91-1.11-.31-.8-.84-.84c-1-.09-2-.26-3-.26s-1.19-.7-1.19-1.54.1-1.43,1.15-1.42c1.5,0,3.12-.27,4.45.31,1.53.67,2.6,2.17,4.06,3.08.16.11.09.6.12.92a1.88,1.88,0,0,0,1.28,1.78c2.26.64,4.55,1.31,7,.88a8.81,8.81,0,0,0,4-1.92c.3-.24.55-.82,1-.54s.33.72.36,1.12a13.93,13.93,0,0,1-2.84,9.42c-2,2.71-4,3.77-7.55,2.51-6.1-2.18-12.42-3.74-18.65-5.56a5,5,0,0,1-1.38-.54c-.54-.36-1-1-.83-1.58s1-.27,1.45-.18q6.24,1,12.48,2.11c.7.12,1.23.16,1.39-.76s-.37-1.16-1.12-1.28m5.59-6.09c0-.44.42-.56.77-.64l8.72-2c.27-.07.56-.14.75.12a.66.66,0,0,1-.06.87,7.43,7.43,0,0,1-5.77,3.12c-1-.19-2.3-.42-3.59-.69-.39-.08-.85-.21-.82-.73m8.67,14.56c.5-.26.75.13,1,.44,2.23,2.73,4.47,5.46,6.69,8.22a3.71,3.71,0,0,1-.27,3.41.75.75,0,0,1-.47.19,2.59,2.59,0,0,1-.67-.1c-4-.83-4.06-.83-5.22-4.9-.58-2-1.15-4.09-1.66-5.9-.08-.77.14-1.13.59-1.36m7.72,5.53a57.13,57.13,0,0,0-5.47-6.78c-.71-.82-.22-1.26.14-1.88s.88-.4,1.36-.11l17,10c.66.38.91.72.14,1.27s-1.48,1.2-2.23,1.79a1.83,1.83,0,0,1-1.43.41c-3.13-1.21-7.17-1-9.52-4.74m12.46-1.43q-7.69-4.59-15.44-9.13c-.58-.34-1.14-.65-.65-1.46a.62.62,0,0,1,.73-.39c.19.11.47.25.74.41q7.73,4.57,15.43,9.16c.43.26,1.33.39.91,1.21s-1,.6-1.72.2m-8.69-26.68A7.81,7.81,0,0,0,785,788c2.63-1.1,5.28-2.18,7.92-3.27.41-.16.87-.53,1.27-.24s.09.84,0,1.27a7.7,7.7,0,0,0-.23,1.06c0,2.7-1.79,4.08-3.91,5.2a2.67,2.67,0,0,1-1.16.33l-13.31.57a2.41,2.41,0,0,1-2-.59,2.66,2.66,0,0,0-2.7-.37c-2.88.66-5.75,1.32-8.61,2a3.89,3.89,0,0,1-3.42-.81c2.38-1.34,4.54-2.57,6.72-3.77a2.9,2.9,0,0,1,1.18-.25c5.11-.2,10.23-.4,15.35-.56m-151.68-6.17c0-1.72.06-1.78,1.74-1.78h31.61c3.05,0,4-.95,4-4s0-6.27,0-9.4c0-1.15.32-1.61,1.54-1.61q35.09,0,70.17,0c1.22,0,1.57.45,1.55,1.61,0,3.13,0,6.27,0,9.4s.85,4,4.07,4h32.29c.68,0,1,.36,1,1q0,2,0,4a.93.93,0,0,1-1,1c-.85.06-1.71.16-2.57.2-2.9.11-5.81.2-8.71.29a4.06,4.06,0,0,0-1.92.61c-1.46.84-2.93,1.66-4.36,2.53a4.83,4.83,0,0,1-2.72.71c-2.22,0-4.45-.06-6.67,0-1.72,0-2.27.58-2.32,2.29a4.49,4.49,0,0,0,0,.82c.17,1.36-.53,1.61-1.71,1.49q-3.32-.32-6.65-.47c-2-.08-2.73.71-2.76,2.67a20,20,0,0,0,0,2.05c.05.59.2,1.29.78,1.51,1.54.59,2.07,1.95,2.68,3.26a3.84,3.84,0,0,0,2.63,2.15c7.47,2.14,14.92,4.32,22.38,6.48a2.29,2.29,0,0,0,.91.24c1.67-.32,2,.74,2.34,2,.6,2.38,1.34,4.72,2,7.08a2.15,2.15,0,0,0,1.69,1.76c2.29.43,4.45,1.66,6.91,1.11a1.3,1.3,0,0,1,.77.19c2,1.05,3.92,2.11,5.88,3.17a1.48,1.48,0,0,1,.83,1.44q0,10.56,0,21.12a1.43,1.43,0,0,1-.12.36c-.57-.26-.84-.8-1.19-1.23Q771,832.35,756.54,814.16a4.08,4.08,0,0,0-3.91-1.68c-1.31.14-2.62.24-3.93.35a5.46,5.46,0,0,0-3.09,1.56,43.73,43.73,0,0,0-9.84,12.93,3.66,3.66,0,0,1-3.91,2.15c-3.76-.21-7.53-.18-11.3-.31a4.51,4.51,0,0,0-3.78,1.49,2.27,2.27,0,0,1-3,.57c-.32-.17-.69-.24-1-.42-3-1.71-6.25-1.15-9.45-.94a4.51,4.51,0,0,0-2.25.9c-1.12.78-2.27,1.52-3.38,2.29a1.53,1.53,0,0,1-2.36-.28,4.8,4.8,0,0,0-7.79.44c-1.38,1.92-2.78,3.82-4.18,5.72-1.05,1.42-1.59,1.51-3,.41q-8.53-6.55-17-13.16-2.53-1.95-5.06-3.91a4.64,4.64,0,0,0-4-.78c-3.92.69-6.55,2.85-8.88,6.06-6.14,8.5-12.61,16.78-19,25.13-.26.33-.41.82-.94.93-.32-.41-.18-.88-.18-1.32,0-7.13,0-14.26,0-21.39,0-1.19.25-2,1.43-2.45a5.13,5.13,0,0,0,1.42-.81c2.81-2.36,6.37-2.12,9.66-2.71,2.45-.44,3.75-1.55,4.23-4,.43-2.22,1.22-4.37,1.81-6.56.19-.71.41-1.16,1.28-.91a3.33,3.33,0,0,0,1.86-.27c7.15-2.09,14.29-4.23,21.46-6.22a5.11,5.11,0,0,0,3.69-3.06,3.7,3.7,0,0,1,2.06-2.39,1.66,1.66,0,0,0,1-1.66c0-.64,0-1.27,0-1.91,0-2.23-.72-2.93-3-2.83-2.08.09-4.16.25-6.24.43-1.5.12-1.67,0-1.71-1.46-.06-2.61-.57-3.12-3.13-3.11-1.27,0-2.55-.08-3.81,0a8.61,8.61,0,0,1-6.52-1.69c-2.87-2.32-6.31-2.26-9.7-2.39-3.08-.12-6.16-.24-9.25-.29-1.08,0-1.45-.45-1.4-1.48s0-1.82,0-2.73m100.72,65.38a11.46,11.46,0,0,0-5.95-2.11c-5.34-.18-9.88-2.58-14.19-5.39-2.56-1.67-5.25-1.76-8.08-1.63a2.94,2.94,0,0,0-1.48.63c-1.65,1-3.38,2-4.93,3.17-4.86,3.69-10.48,5.74-16.12,7.77a11.64,11.64,0,0,0-1.28.49,31.29,31.29,0,0,1-14.51,2.78c-11.21-.24-22.43-.07-33.65-.09-.51,0-1.23.3-1.49-.27s.38-.85.68-1.24c6.41-8.48,12.85-16.93,19.23-25.43.85-1.15,2-1.37,3.18-1.88,2.37-1,4.2-.54,6.14,1.14,3,2.61,6.27,4.94,9.43,7.4a1.16,1.16,0,0,1,.65.93h-1.57c-3.31,0-6.63,0-10,0-.94,0-1.28.4-1.27,1.33s.43,1.17,1.27,1.17c3.77,0,7.54.16,11.3-.05a8.75,8.75,0,0,1,7.16,2.43,34,34,0,0,0,3.55,2.76c2.11,1.58,4.08,1.34,5.68-.76s3-4.11,4.51-6.16c1.25-1.69,2.75-1.72,4.14-.11a3.66,3.66,0,0,0,4.79.85c1.05-.61,2.06-1.32,3.06-2,2.71-1.89,5.69-1.51,8.64-1a19.81,19.81,0,0,1,3.31,1.24c1.61.61,3.17.6,4.41-.73a4.59,4.59,0,0,1,4.19-1.36c3.85.39,7.71.2,11.57.25a5.51,5.51,0,0,1,2.36.54q12.18,5.78,24.38,11.54c.84.4,1.45.57,2-.49s-.1-1.4-.91-1.79c-7.67-3.62-15.33-7.3-23-10.89-1.22-.56-1.28-1.07-.56-2.1a40.9,40.9,0,0,0,2.83-4.65c1.71-3.32,4.52-5.66,7.13-8.17,1.14-1.09,2.78-.57,4.18-.88a3,3,0,0,1,3.24,1.4c4.25,5.44,8.58,10.81,12.87,16.23.28.36.91.72.63,1.23s-.84.17-1.28.17c-2.55,0-5.09,0-7.63,0-.89,0-1.5.2-1.52,1.27s.6,1.24,1.49,1.24c3.4,0,6.81,0,10.22,0a2.21,2.21,0,0,1,2,.94c3.85,4.89,7.74,9.74,11.61,14.62.25.3.74.59.57,1s-.8.25-1.22.31a5,5,0,0,1-.55,0q-20.1,0-40.19,0a6.21,6.21,0,0,1-3.46-1c-2.49-1.58-5-3.06-7.52-4.66m3.64,5.56H680a2.17,2.17,0,0,1-.07-.24c1.46-.55,2.89-1.19,4.38-1.65a51.26,51.26,0,0,0,14.23-7.29c.86-.59,1.77-1.11,2.62-1.71a6.83,6.83,0,0,1,8-.25c2.56,1.48,5.17,2.85,7.75,4.27a15.22,15.22,0,0,0,6.6,1.4c4.59.25,7.76,3.19,11.3,5.47M621.08,817.89q5.61-3.36,11.24-6.68c1.79-1.06,3.58-2.15,5.38-3.19.44-.26.92-.75,1.42-.07s.9,1.13.25,1.92c-2.48,3-4.93,6-7.4,9.08a1.22,1.22,0,0,1-.4.35c-2.45,1-5,1.47-7.34,2.21a11.08,11.08,0,0,1-3.92-2.68c-.17-.64.42-.74.77-.94M619.51,815c-.2-.47.28-.6.57-.78q8.11-4.81,16.24-9.63c.3-.18.63-.51,1-.17a2.25,2.25,0,0,1,.38.71,1.17,1.17,0,0,1-.76,1l-15.43,9.13a2.63,2.63,0,0,1-.87.36,1,1,0,0,1-1.1-.64M641,798.68a8.52,8.52,0,0,0,6,1.27c.76-.11,1.51-.34,2.27-.44,1.8-.23,3.15-.9,3.21-3,0-.13,0-.33.13-.38,1.3-.78,2.28-2.08,3.49-2.77,1.45-.83,3.45-.55,5.21-.35,1,.11.65,1,.7,1.66s-.17,1.14-1,1.2c-1,.06-2,.2-3,.27-.66.05-1,.32-1,1a.89.89,0,0,0,1.06,1c1.72-.11,3.43-.26,5.15-.36,2.81-.17,5.61-.33,8.42-.48.71,0,1.38,0,1.42,1s-.13,1.54-1.23,1.72c-5.33.87-10.64,1.79-16,2.7-.63.11-1.33.13-1.27,1.06s.56,1.18,1.47,1c4.15-.73,8.31-1.42,12.47-2.11.5-.09,1.23-.49,1.45.13s-.3,1.21-.8,1.61a3,3,0,0,1-1.12.46c-7,2.06-14.12,4.09-21.16,6.2a2.92,2.92,0,0,1-3.27-.83c-3.52-3.48-4.84-6.18-4.88-10.49.06-.68-.35-1.87.22-2.2s1.29.72,1.95,1.14m-1.15-4.41a.62.62,0,0,1,.8-.33l8.87,2.09a.73.73,0,0,1,.63.63c0,.48-.35.6-.71.67-1.28.27-2.57.51-3.6.71a7.67,7.67,0,0,1-5.83-3,.68.68,0,0,1-.16-.75m2.28,18.34c-.62,2.14-1.21,4.28-1.81,6.42-1,3.61-1.37,3.91-5.15,4.35l-.27,0a.78.78,0,0,1-1-.57c-.27-1-1-2,0-3.06,1.94-2.34,3.83-4.72,5.74-7.07.26-.32.5-.65.77-1s.58-.91,1.2-.53a1.1,1.1,0,0,1,.52,1.39m-23.28-28.06c2,.86,4.09,1.53,6,2.52a19.53,19.53,0,0,0,8.56,1.75q5.84.2,11.69.32a4.43,4.43,0,0,1,2.18.62c1.6,1,3.23,1.85,4.85,2.77.3.17.77.28.77.69s-.56.51-.89.7a2.31,2.31,0,0,1-1.84.14c-2.87-.7-5.74-1.36-8.61-2-.48-.12-1-.19-1.5-.29-.34.06-.81,0-1,.22-1.62,1.58-3.61.89-5.43.86-3.35-.05-6.7-.32-10-.48a6.31,6.31,0,0,1-5.1-4.19c-.22-.92-.41-1.86-.65-2.78s.06-1.23,1-.83m-10,.09.35-.16c2.29,1.91,4.6,3.81,6.86,5.76a36.88,36.88,0,0,0,5.12,3.6c1.37.84,3,.61,4.52.7,3.26.18,6.53.22,9.79.37,1.61.08,1.76.42,1.43,2-.17.81-.59.82-1.26.78q-8.64-.51-17.26-1l-5.71-.34a1.71,1.71,0,0,1-1.79-1.63c-.62-3.38-1.36-6.73-2.05-10.1m-3.3,17.89c-.37-.18,0-.48.18-.62,1.51-1.1,3-2.21,4.54-3.25.76-.51,1.68-.21,2.62-.27l22.55,1.36c.58,0,1.09.08,1.15.85s-.39,1-1,1.11c-3.15.38-6.29.77-9.44,1.14-5.17.61-10.35,1.23-15.52,1.8-2,.22-3.39-1.33-5-2.12m2.13,16.21a71.37,71.37,0,0,0,3.18-7.91c1-3.5,2.92-4.8,6.53-5,5-.22,10-1.09,15-1.45L608,818.94l-.28-.2m4.15,225.87a2.58,2.58,0,0,1-2.79,2.65,2.67,2.67,0,0,1-2.63-2.85,2.71,2.71,0,0,1,5.42.2m0-65.47a2.71,2.71,0,0,1-5.42.12,2.71,2.71,0,0,1,2.68-2.82,2.58,2.58,0,0,1,2.74,2.7m0-65.2a2.57,2.57,0,0,1-2.57,2.73,2.72,2.72,0,0,1-2.85-2.8,2.71,2.71,0,0,1,5.42.07m0-65.43a2.65,2.65,0,0,1-2.77,2.71,2.71,2.71,0,0,1-2.65-2.86,2.76,2.76,0,0,1,2.73-2.66,2.73,2.73,0,0,1,2.69,2.81m.08-14.32c-1.38.75-1.42.71-1.43-.93,0-1,0-2.08,0-3.13-1-3.63.77-5.63,3.93-6.88a12,12,0,0,0,1.29-.75c.56-.3.68-.66.33-1.21s-.66-.88-1.31-.5c-1.1.65-2.2,1.28-3.29,1.93-.61.37-.87.24-1-.5-.16-1.47-.06-2.68,1.6-3.39a36.67,36.67,0,0,0,4.24-2.45,1.14,1.14,0,0,1,1.48,0c.57.43.47.85.21,1.41a2.06,2.06,0,0,0,.69,2.56c.61.54,1.25,1,1.91,1.53s.71,1-.07,1.4c-1.22.7-2.42,1.44-3.64,2.12-.62.34-.89.66-.46,1.38a.88.88,0,0,0,1.44.34c.16-.1.33-.17.48-.28,3.55-2.59,7.64-3.89,11.85-4.9.57-.14,1.15-.44,1.43.44s0,1.14-.71,1.5c-6.35,3.42-12.67,6.88-19,10.32m174.87,184.92c0,12.8-8.62,22.62-21.33,24.38-5.49.76-11,1-16.54,1.34-10.74.65-21.48,1.42-31.8,4.84a58.3,58.3,0,0,0-9.41,3.94,3.48,3.48,0,0,1-3.59,0c-8.73-4.6-18.13-6.87-27.84-8-7.49-.91-15-1.23-22.53-1.66-3.84-.22-7.69-.5-11.51-1.09a20.5,20.5,0,0,1-17.06-17.9,39.75,39.75,0,0,1-.21-4.22q0-73.11,0-146.24c0-5.07.18-10.16.23-15.24a3.31,3.31,0,0,1,3.38-3.29c14.53,0,29.07,0,43.6,0q55.25,0,110.49,0h.82c2.47,0,3.23.79,3.23,3.29v80.68h0q0,39.6,0,79.18m9.73-196.42c1.33.79,2.64,1.6,4,2.32a2.1,2.1,0,0,1,1.25,2.17c-.07,2.23,0,4.45,0,6.68,0,1-.27,1.21-1.17.71q-8.17-4.49-16.37-8.94c-1-.54-2-1.1-3-1.62a1.23,1.23,0,0,1-.7-1.78c.37-.88,1-.38,1.5-.27a31,31,0,0,1,11.23,4.71c.29.2.64.33,1,.52.58.34.91.06,1.22-.43s.3-.93-.25-1.25c-1.25-.74-2.5-1.49-3.76-2.2-.7-.4-.82-.77-.12-1.3s1.42-1.13,2.11-1.72a2,2,0,0,0,.65-2.66.92.92,0,0,1,.28-1.29,1,1,0,0,1,1.34,0c1.71,1,3.41,2.09,5.16,3.06.94.53,1,1.34.88,2.41-.08.32.32,1-.25,1.31s-.89-.31-1.31-.54c-.92-.51-1.83-1-2.71-1.57-.63-.4-1.09-.52-1.56.26s.07,1.13.62,1.46m9.31,221.87a2.71,2.71,0,0,1-2.8,2.7,2.78,2.78,0,0,1-2.72-2.68,2.73,2.73,0,0,1,2.77-2.74,2.63,2.63,0,0,1,2.75,2.72m0-65.36a2.62,2.62,0,0,1-2.81,2.66,2.73,2.73,0,0,1-2.71-2.66,2.77,2.77,0,0,1,2.75-2.77,2.82,2.82,0,0,1,2.77,2.77m0-65.16a2.72,2.72,0,0,1-2.75,2.63,2.77,2.77,0,0,1-2.77-2.76,2.74,2.74,0,0,1,2.85-2.66,2.63,2.63,0,0,1,2.67,2.79m0-65.57a2.76,2.76,0,0,1-5.52.06,2.92,2.92,0,0,1,2.75-2.83,2.75,2.75,0,0,1,2.77,2.77m-1.41-29.8-.26.27-24.4-14.46.11-.27L792,805.62l6.08.71c.69.08,1.35.16,1.67.93,1.56,3.8,3.14,7.6,4.71,11.41m-5.24-14.2c-7.17-1.08-14.4-1.76-21.6-2.61-.36,0-.71-.13-1.07-.17-.66-.07-1.14-.28-1.09-1.08s.69-.82,1.28-.86l19.27-1.1a17.08,17.08,0,0,1,3.45-.2,4.27,4.27,0,0,1,3.93,1.22,33.79,33.79,0,0,0,2.74,2c.64.44.84.76,0,1.23a10.31,10.31,0,0,1-6.9,1.56" transform="translate(-596.31 -762.94)" fill="#484747"/><path d="M781.39,868.47c-.18-3-2.83-4.81-5.06-4.21a7.52,7.52,0,0,1-1.9.06c-23.38-.16-46.76.1-70.15-.19-22.88-.28-45.77-.06-68.66-.06-.32,0-.64,0-1,0a4.48,4.48,0,0,0-4,3.82,18.54,18.54,0,0,0-.18,2.58c0,4.55,0,9.09,0,13.63q0,65.36,0,130.7a22.41,22.41,0,0,0,2.66,11.28c4.18,7.36,10.79,10.52,19,11.12,7,.52,14,.62,20.93,1,10.7.62,21.12,2.27,30.73,7.39a4.58,4.58,0,0,0,4.44,0c1.1-.55,2.2-1.09,3.32-1.59,8.74-3.91,18.07-4.93,27.48-5.43,6.62-.35,13.24-.44,19.84-1.09,13.31-1.33,22.6-11.47,22.6-24.85V870.1c0-.54,0-1.09,0-1.63m-21.76,166.28c-5.38.64-10.77.83-16.16,1-9.08.36-18.13.9-26.91,3.57a48.53,48.53,0,0,0-8.82,3.58,3.52,3.52,0,0,1-3.6,0,64.24,64.24,0,0,0-20.76-6.27c-6.62-.9-13.27-1.18-19.94-1.43-5.2-.19-10.44-.19-15.59-1.22a18.12,18.12,0,0,1-14.69-17.84q0-36.46,0-72.92V870.31c0-.55,0-1.09,0-1.64a1.74,1.74,0,0,1,1.88-1.87h1.5c22.48,0,45,.2,67.43,0,23.39-.26,46.77,0,70.16-.17.5,0,1,0,1.5,0,2.45.06,3,.65,3,3.08,0,47.84-.08,95.68.06,143.52a21.79,21.79,0,0,1-19.12,21.58" transform="translate(-596.31 -762.94)" fill="#484747"/><path d="M677,786.44a6.19,6.19,0,0,0-.53,1.1c-1.52,3.71-.17,6.36,3.7,7.28a5.42,5.42,0,0,0,.8.17c1.19.12,1.28.65.75,1.63a8.63,8.63,0,0,0-.2,8.25,1.56,1.56,0,0,1,0,1.64,4,4,0,0,0,.49,5,5.67,5.67,0,0,1,1.66,2.84,2.4,2.4,0,0,0,2.7,2,2.53,2.53,0,0,1,2.67,1,1.6,1.6,0,0,0,1.47.58,3.74,3.74,0,0,1,3.47.93,1.74,1.74,0,0,0,1.58.21c1-.22,1.79.34,2.65.49a30.79,30.79,0,0,0,7.23.7c.39,0,.75-.28,1.18-.1A3.69,3.69,0,0,0,710,820a1.44,1.44,0,0,1,1.18-.17,3.67,3.67,0,0,0,3.7-.66,1,1,0,0,1,.9-.17c2.58.71,4.55-1.85,7.11-1.34.18,0,.49-.25.63-.46a1.48,1.48,0,0,1,1.84-.79c2.08.07,3.1-.62,3.42-2.48a3.39,3.39,0,0,1,1.17-2,3.94,3.94,0,0,0,.75-5.48,1.21,1.21,0,0,1,0-1.37,9,9,0,0,0,0-8.26c-.71-1.51-.72-1.51.94-1.85.27,0,.54-.09.8-.15,4.14-.92,4.49-3.85,3.46-7.11a4,4,0,0,0-.47-1c-1.07-1.61-.72-2.94.48-4.41,2.31-2.84,1.25-5.42-2.37-6.1a12.51,12.51,0,0,0-1.62-.15,1.83,1.83,0,0,1-1.23-.46c-3.53-3.14-5.74-3.33-9.77-.84a.9.9,0,0,1-1.37-.16c-2.16-2.23-5-2.29-7.08-.13-.5.51-.74.56-1.3.1-3.27-2.74-6.52-2.76-9.85-.08-.56.44-.84.58-1.43,0-2.13-2.14-4.76-2.16-6.84,0-.68.71-1,.79-1.82.14a6.45,6.45,0,0,0-8.29,0,6.58,6.58,0,0,1-3.83,1.66c-4,.52-5,3.22-2.48,6.29a3.06,3.06,0,0,1,.45,4m32.1,11.15c.64.57,1.3,1.12,1.94,1.7.2.18.43.39.33.69s-.43.29-.7.3h-9.11c-.26,0-.6.06-.72-.25s.16-.6.38-.8c.73-.68,1.52-1.3,2.23-2,1.22-1.21,1.37-2.1.67-3.55a3.36,3.36,0,0,0-3.37-2.06,9.94,9.94,0,0,0-2.64.61,2.87,2.87,0,0,1-3.46-.74,36.58,36.58,0,0,1,22.94,0c-.83.81-1.63,1.36-2.84.94a18.13,18.13,0,0,0-2.62-.72,3.4,3.4,0,0,0-4,1.89c-.73,1.51-.46,2.74.93,4m-14-3.56a2.25,2.25,0,0,0,2,.37,20.18,20.18,0,0,1,3.41-.91,1.73,1.73,0,0,1,1.93,1c.38.83-.08,1.4-.66,1.89a12.25,12.25,0,0,0-3.39,3.67,1.55,1.55,0,0,1-1.57.62c-.62,0-.48-.69-.59-1.09a5.92,5.92,0,0,0-7.41-4.39,6,6,0,0,0-3.63,7.85c.18.55.77,1.17-.3,1.51-.87.27-1.56.33-1.95-.74a7.2,7.2,0,0,1-.52-2.93c.06-3.46,1.92-5.79,4.82-7.33a7.06,7.06,0,0,1,7.83.53M693,802.55c-.93.46-1.89.88-2.79,1.4a1.92,1.92,0,0,1-2.72-.64,4,4,0,0,1-.39-4.35,3.35,3.35,0,0,1,3.42-2.19,3.78,3.78,0,0,1,3.58,2,2.44,2.44,0,0,1-1.1,3.76m-2,13.52c-1.1,0-1.3-.74-1.36-1.62-.11-1.36,1-1.31,1.81-1.48s.8.58.86,1.12c-.07.92,0,1.92-1.31,2m5.65,0a1.2,1.2,0,0,1-1.24,1.32A1.13,1.13,0,0,1,694,816.3a20.53,20.53,0,0,1,0-3.92c.15-1,1.28-1.32,2.11-1.71.4-.19.44.34.44.64,0,.81,0,1.62,0,2.43v2.31m4.39-2.31c0,1,0,2.08,0,3.13,0,.78-.32,1.33-1.19,1.35a1.24,1.24,0,0,1-1.42-1.3q-.06-3.2,0-6.39c0-1,.81-.91,1.5-.94s1.12.25,1.12,1c0,1,0,2.08,0,3.13m4.12,3.64c0,.69-.14,1.33-1,1.32a1.12,1.12,0,0,1-1.19-1.21c0-2.31,0-4.62,0-6.93,0-.69.37-.95,1-1s1.15.22,1.15,1v3.67h0v3.12m4.3-.14c0,.94-.41,1.49-1.36,1.49s-1-.7-1-1.44V814c0-1.08,0-2.17,0-3.26,0-.9.41-1.18,1.25-1.18s1.16.31,1.16,1.13c0,2.18,0,4.35,0,6.53m4.36-.31a1.18,1.18,0,0,1-1.38,1.3,1.17,1.17,0,0,1-1.25-1.29c0-1.09,0-2.17,0-3.26h0c0-1,0-2,0-3,0-.83.38-1.13,1.16-1.11s1.5.06,1.5,1.1c0,2.08,0,4.16,0,6.24m4.4-3.42a3.64,3.64,0,0,0,0,.81h0c0,.67,0,1.35,0,2a1.05,1.05,0,0,1-1.19,1,1.07,1.07,0,0,1-1.17-1.07c0-1.67,0-3.34,0-5,0-.7.37-.71.89-.41,1,.58,1.94,1.19,1.57,2.62m3.17,2.58c-1.26,0-1.27-.87-1.26-1.87.11-.43-.28-1.37.79-1.2.75.12,1.91,0,1.82,1.28-.05.82-.1,1.78-1.35,1.79m7.82-6a3.86,3.86,0,0,1-3.14,1.63,12.24,12.24,0,0,1-7.8-1.89,11.29,11.29,0,0,0-6.94-1.95c-3.58.12-7.17.09-10.76,0a10.12,10.12,0,0,0-6.17,1.73,12.26,12.26,0,0,1-8,2.1,4.13,4.13,0,0,1-3.22-1.51,2.11,2.11,0,0,1,.75-3.42,6.29,6.29,0,0,1,3.27-.49,8.31,8.31,0,0,0,5.11-1.35,18.68,18.68,0,0,1,11.67-2.77c3,.21,6,0,9,0a5.1,5.1,0,0,1,2.24.47c1.31.62,2.67,1.16,3.93,1.88a12.09,12.09,0,0,0,7.27,1.81,3.36,3.36,0,0,1,2.08.52,2.12,2.12,0,0,1,.73,3.25m-11.51-9.37a3.94,3.94,0,0,1,4.13-3.94,3.37,3.37,0,0,1,3.45,2.36,4.17,4.17,0,0,1-.69,4.46,1.74,1.74,0,0,1-2.21.5l-3.78-1.84a1.56,1.56,0,0,1-.9-1.54M729.11,804a1,1,0,0,1-1.29.61c-1-.22-1.32-.5-.86-1.62,1.27-3.16-.44-7-3.38-7.84a5.88,5.88,0,0,0-7.62,4.56c-.09.39-.06.91-.62.9s-1.26-.06-1.57-.63a13.81,13.81,0,0,0-3.6-3.86,1.27,1.27,0,0,1-.54-1.55,1.56,1.56,0,0,1,1.54-1.12,11.19,11.19,0,0,1,3.56.82,2.45,2.45,0,0,0,2.43-.3,7.15,7.15,0,0,1,8.09-.37,8.39,8.39,0,0,1,4.61,7.06,7.66,7.66,0,0,1-.75,3.34m3-24.65c0-.48-.47-1.19.36-1.38a2.46,2.46,0,0,1,2.38.68,1.2,1.2,0,0,1,.22,1.6c-.41.65-.89,1.26-1.35,1.88a3.88,3.88,0,0,0-.39,4.34,8.11,8.11,0,0,1,1.18,3.86,2.27,2.27,0,0,1-1.7,2.35c-1.22.34-2.47.59-3.7.87a1.18,1.18,0,0,1-1-.27c-3-2.35-6.64-2.78-10.13-3.68-2.23-.57-4.48-1-7-1.58a11.69,11.69,0,0,0,4.06-3.74c.44-.78.72-.09.92.25,2.13,3.6,7.51,4.74,11.53,2.92,3.09-1.41,4.74-4.33,4.64-8.1m-14.86,3.14c4.57,3.85,8.67,3.11,12.47-1.23,0,2.61-2.15,4.57-5.11,5-3.3.48-6.42-1-7.36-3.78m3.55-4.49a5.07,5.07,0,0,1,4.45-3,4.94,4.94,0,0,1,4.49,3c.15.37.56.89-.05,1.17s-.85-.19-1.1-.68c-1-2-2.51-2.76-4.37-2.19a3,3,0,0,0-2.21,2.18c-.16.58-.47.94-1.06.72s-.29-.76-.15-1.15m5.75,3.27c-1.39,2.28-5.1,2.34-7.37,0Zm-12.29-5.94a2.75,2.75,0,0,1,3.21,0,3,3,0,0,1,1.16,3,.92.92,0,0,1-1,.86h-1.77v0a5,5,0,0,1-.55,0c-.79-.1-1.86.37-2.12-.88a2.78,2.78,0,0,1,1.11-3m-13,2.51a5.36,5.36,0,0,1,4.77-3.44A5.16,5.16,0,0,1,711,778c.11.38.49.92-.15,1.16s-1-.11-1.19-.74a3.45,3.45,0,0,0-3.19-2.7,3.33,3.33,0,0,0-3.76,2.59c-.19.59-.38,1.06-1.08.87s-.49-.83-.33-1.32m9,3.11c-1.86,2.36-6.48,2.47-7.79.34,2.54-.55,5.09-.31,7.79-.34m-10.58.8a8.28,8.28,0,0,0,12.6.29c.4-.4.72-1.39,1.42-.87.5.37,0,1.18-.27,1.74-1.14,2.52-3.82,4-8.14,4a7.23,7.23,0,0,1-6.42-4,6.52,6.52,0,0,1-.43-1.14c-.09-.26-.16-.55.17-.71s.44,0,.61.17a5.45,5.45,0,0,1,.46.5m-5.89-5.22a2.79,2.79,0,0,1,3.63-1.46,3,3,0,0,1,1.59,3.51.83.83,0,0,1-.91.63h-1.89v0h-.67c-2,0-2.53-.89-1.75-2.7m1,6.1c-.68,2.52-3.74,4.05-6.95,3.66-2.9-.35-5.4-2.32-5.22-5,3.74,4.08,7.74,4.57,12.17,1.36M692.1,781c.27,0,.59,0,.68.32s-.19.47-.41.63a5.54,5.54,0,0,1-7-.95h6.76m-9.7-2.81a5.09,5.09,0,0,1,4.66-3.16,4.94,4.94,0,0,1,4.44,3.24c0,.13.07.26.11.4,0,.59-.42.65-.86.49a1.1,1.1,0,0,1-.43-.49c-2.1-3.49-4.79-3.5-6.76,0-.24.43-.51.65-1,.45s-.3-.59-.19-.94m-5.12.6a2.38,2.38,0,0,1,2.21-.8c.59,0,.69.38.69.92,0,3.59.8,6.86,4.4,8.5a9.4,9.4,0,0,0,10.24-1.13,7.29,7.29,0,0,0,1.65-2c.23-.37.54-.59.8-.08.84,1.63,2.27,2.66,4.12,3.82-2.62.58-4.83,1-7,1.57-3.6.87-7.33,1.42-10.38,3.81a1.29,1.29,0,0,1-1.16.15c-1-.23-2-.41-2.92-.66-1.86-.5-2.49-1.54-2.14-3.45a8.66,8.66,0,0,1,1.06-2.79,3.8,3.8,0,0,0-.45-4.66c-.29-.35-.55-.72-.82-1.09a1.71,1.71,0,0,1-.28-2.13" transform="translate(-596.31 -762.94)" fill="#484747"/><path d="M766,953.74H730.44a1,1,0,0,1-1.06-1,37.41,37.41,0,0,1-.32-6,1.06,1.06,0,0,1,1-1.21c3.33-.52,5.1-3.53,3-7.17s-4.3-7.17-6.42-10.77a1,1,0,0,0-1.56-.5,22.16,22.16,0,0,1-4.27,1.38c-4.21,1-8.19.59-11.84-2a3.57,3.57,0,0,1-1.72-3.26c.07-10.59,0-21.17,0-31.76,0-.45,0-.91,0-1.36a.87.87,0,0,0-.91-1c-1.19-.13-1.56.24-1.56,1.75,0,10.17-.13,20.35.08,30.53.07,3.09-1.3,4.69-3.71,5.93a13.23,13.23,0,0,1-3.44,1.29c-3.8.78-7.39-.06-10.9-1.46-.8-.32-1.39-.44-1.92.48-2.1,3.62-4.34,7.15-6.37,10.8-1.89,3.39-.68,6.07,3.05,7a1.25,1.25,0,0,1,1.11,1.41,42.11,42.11,0,0,1-.32,4.89c-.14,1.87-.26,1.94-2.15,1.94H646.87l-1.36,0c-.61,0-.88.31-1,.92-.13,1.24.16,1.54,1.72,1.54h33.38c2,0,2,0,1.49,2-.56,2.29-1.41,4.5-1.86,6.83-1.39,7.32,1.61,12.9,8.48,15.75A34.67,34.67,0,0,0,695.9,983c1.34.21,2.7.38,4,.57a8,8,0,0,1,4.45,2.73c.82.84.41,2,.41,3,0,5.77,0,11.54,0,17.31q0,9.4,0,18.81c0,.71-.13,1.51.92,1.68s1.55-.17,1.55-1.68q0-18.48,0-36.94a4.44,4.44,0,0,1,3.56-4.7,11.64,11.64,0,0,1,1.33-.29,58.3,58.3,0,0,0,8.69-1.61c3.67-1.12,7.08-2.7,9.44-5.87,3-4,2.76-8.4,1.61-12.91-.39-1.54-.91-3-1.33-4.58-.62-2.28-.6-2.3,1.72-2.3h34.2c1,0,1.26-.5,1.24-1.38,0-1.3-1-1.08-1.76-1.08m-39.8,22.84a19.19,19.19,0,0,1-7.83,3.32c-2.17.45-4.37.77-6.57,1.08a8.87,8.87,0,0,0-5.08,2.39c-.61.6-1.15.66-1.75,0-1.87-1.91-4.28-2.42-6.8-2.69A28.84,28.84,0,0,1,687,977.56c-.59-.33-1.14-.73-1.7-1.12-.24-.17-.66-.32-.51-.7s.53-.32.84-.35c6.93-.72,13.81-2.19,20.78-1.59,6.64-.53,13.09.63,19.55,1.52.34,0,.84-.1.95.34s-.37.68-.69.92M689,965.2c0-1.77,0-3.54,0-5.31,0-1,.49-1.23,1.36-1.23s1.34.3,1.33,1.25c0,3.27,0,6.54,0,9.81a2.27,2.27,0,0,1-2.19,1.76c-.61-.1-.45-.6-.46-1,0-1.77,0-3.54,0-5.31m10.91,3.7c0,1-.27,1.46-1.38,1.49-4.37.1-4.37.13-4.37-4.22,0-2.82.05-5.63,0-8.44a1.67,1.67,0,0,1,1.61-1.94,8.82,8.82,0,0,1,1.62-.1c2.12.07,2.52.49,2.52,2.59,0,1.63,0,3.26,0,4.9,0,1.91,0,3.81,0,5.72m9.8.89h-.23c0-1.76,0-3.55,0-5.32a3.39,3.39,0,1,0-6.78-.06c0,1.27-.06,5.38-.06,5.38h-.24q0-6.79,0-13.59a.94.94,0,0,1,1.08-1.08c1.63,0,3.27,0,4.9,0,1,0,1.35.43,1.34,1.39,0,4.41,0,8.89,0,13.29m-2.49-1.32c0,.72-.28,1.08-1,1.08s-1.11-.28-1.1-1c0-1.35,0-2.7,0-4,0-.6.24-1.08.92-1.1a1.06,1.06,0,0,1,1.17,1Zm10.91-5.17c0,2,0,3.9,0,5.85,0,.85-.31,1.24-1.19,1.22-1.22,0-2.45,0-3.67,0-.74,0-1.07-.32-1.07-1.06,0-4,0-8,0-12a1.37,1.37,0,0,1,0-.4c.28-1,1.87-1.5,3.85-1.21,1.06.16,2.06.43,2,1.87,0,1.9,0,3.8,0,5.7m5.15,6.6c0,.51.33,1.28-.57,1.44a2,2,0,0,1-2.05-1.54c0-1.72,0-3.45,0-5.17,0-1.55,0-3.09,0-4.63,0-1,.42-1.36,1.39-1.35s1.31.38,1.29,1.31c0,1.72,0,3.45,0,5.17s0,3.18,0,4.77m6.5,1.76c-.36,1.52-1.23,1.59-2.5,1.43s-1.77-.64-1.74-2c.08-4.4,0-8.81.05-13.21,0-1.32-.44-1.83-1.74-1.7-.58.06-1.17,0-1.77,0a2,2,0,0,1-1.68-.82,7,7,0,0,0-6.72-2c-.66.11-1.28.46-1.72-.45-.17-.37-.74-.25-1.14-.25h-9.54c-.27,0-.69-.06-.79.08-.87,1.23-2,.46-3.07.49-2.27,0-4.44.39-5.79,2.54-.27.43-.67.42-1.07.43-.86,0-1.73,0-2.59,0-1.05-.06-1.47.37-1.45,1.43.05,2.31,0,4.63,0,6.95h0c0,2.31,0,4.63,0,7,0,1-.44,1.45-1.42,1.57-2.75.35-3,.15-3.49-2.62a16.62,16.62,0,0,1,.91-8c1.59-5.23,2.83-10.52,2.64-16,0-.31,0-.63,0-1-.23-2.28-.23-2.28-2.52-2.35-2.13-.06-3-1.39-1.92-3.29,1.74-3.13,3.66-6.17,5.47-9.26.48-.81,1.06-.46,1.65-.26a20.56,20.56,0,0,0,9.93,1,14.34,14.34,0,0,0,7.17-3.38,1.13,1.13,0,0,1,1.74-.06c4.79,4.07,10.25,4.41,16,2.81,2.82-.77,2-1.15,3.62,1.43s3,5.06,4.52,7.61c.45.78.94,1.64.28,2.54a2.77,2.77,0,0,1-2.59.88c-1.74-.07-1.79,0-2,1.82-.6,6.29.9,12.26,2.71,18.19a16.26,16.26,0,0,1,.49,8.59" transform="translate(-596.31 -762.94)" fill="#484747"/><path d="M644.58,909.65c0,1.74.13,1.87,1.85,1.87,2.81,0,5.63,0,8.44,0,.35,0,.82-.15,1,.2s-.23.73-.44,1.06c-.54.89-1.31.35-2,.21-3.32-.7-3.31-.72-4,2.62s-1.28,3.22,2.55,4a2.06,2.06,0,0,1,1.69,1.59c.78,2.05,0,3.23-1.62,4.21a9.05,9.05,0,0,0-.87.66.78.78,0,0,0-.17,1.27c1,1.26,2.06,2.54,3.07,3.82a.83.83,0,0,0,1.38.15c.66-.55,1.35-1.06,2-1.63a1.32,1.32,0,0,1,1.93-.15,2.17,2.17,0,0,0,1,.5c1.37.24,1.64,1.08,1.62,2.35,0,3.22-.35,2.92,2.9,2.92,3.57,0,3.57,0,3.7-3.64,0-.55,0-1,.62-1.38,2.68-1.46,2.67-1.47,5.1.44.25.2.52.37.76.58.53.47.95.35,1.37-.18.95-1.21,1.93-2.41,2.89-3.61a1,1,0,0,0-.21-1.64c-.72-.55-1.41-1.14-2.15-1.67s-.61-.92-.52-1.64c.26-2,1.23-3.19,3.34-3.27a5.66,5.66,0,0,0,1.06-.26.89.89,0,0,0,.71-1.23c-.36-1.51-.7-3-1-4.52-.19-.81-.67-1-1.43-.77s-1.76.44-2.65.6a1.43,1.43,0,0,1-1.71-1.36c-.07-.88.9-.42,1.37-.43,2.72-.07,5.45-.1,8.18,0,1.31,0,1.77-.48,1.72-1.77-.07-1.86,0-3.72,0-5.58,0-3.41,0-6.82,0-10.22,0-.56.07-1.43-.9-.91-1.41.75-1.45,0-1.51-1.11-.24-4.53-.55-9-.79-13.58,0-1-.45-1.27-1.34-1.25-1.59,0-3.18.06-4.77,0-1.16-.05-1.57.38-1.63,1.56-.24,5-.58,10.05-.91,15.49-.24-2.13-1.11-1.07-1.7-.73-.8.46-1.08.41-1.13-.6-.23-4.75-.55-9.51-.79-14.26,0-1-.38-1.51-1.45-1.45s-2,0-3,0c-3.57.1-3.17-.8-3.47,3.38-.4,5.56-.64,11.14-.94,16.71l-.19,0c0-.59,0-1.17,0-1.75-.07-.84.42-2-.3-2.44s-1.52.51-2.25.9c-1.46.81-1.67.69-1.76-.95-.25-4.89-.55-9.79-.81-14.68,0-.85-.41-1.22-1.26-1.21-1.63,0-3.27,0-4.9,0-1.08,0-1.51.31-1.57,1.46-.39,6.88-.87,13.76-1.26,20.64a2.17,2.17,0,0,1-1.42,2.22,2.12,2.12,0,0,0-1.38,2.37c.07,2,0,4.08,0,6.13M677,914.93c1.83-.44,1.89-.36,2.27,1.38.18.85-.15,1.26-.9,1.31-2.29.18-3.72,1.12-3.52,3.68a1.29,1.29,0,0,1-.13.52c-.74,2.45-.75,2.45,1.34,4.08a1.72,1.72,0,0,1-.39,3,.72.72,0,0,1-.75-.17l-.86-.67a7.37,7.37,0,0,0-2.07-1.49c-.83-.24-1.25.87-2,1.23a7.15,7.15,0,0,1-2.31.77,1.08,1.08,0,0,0-1.07,1.28c0,.68,0,1.37,0,2,.07,1.06-.4,1.4-1.43,1.49s-1.65-.18-1.53-1.36c0-.36,0-.73,0-1.09.17-1.45-.09-2.46-1.9-2.49a2.91,2.91,0,0,1-2.27-1.37c-.58-.85-1.07-.74-1.73-.12-.48.48-1.06.86-1.58,1.29-.7.58-1.25,1.08-2.08,0s-.81-1.72.31-2.39a4.35,4.35,0,0,0,.43-.32c1.72-1.37,1.73-1.37.93-3.38a4.41,4.41,0,0,1-.31-2.4c.19-1.09-.32-1.47-1.28-1.62a19.85,19.85,0,0,1-2.26-.5c-1.14-.3-.75-1.12-.61-1.88s.48-1.31,1.37-1c2.25.93,3.89.58,5-1.86.66-1.52,2.09-1.67,3.78-1.29-5.66,3.9-4.77,10.09-2,13a8.14,8.14,0,0,0,12.17-.59c3.31-3.91,2.16-8.92-2.9-12.59,2.35-.52,3.29-.1,4.79,2.15,1.24,1.85,1.24,1.85,3.45,1.31m-11.73-2.17a6.12,6.12,0,0,1,6.25,6.32,6.06,6.06,0,0,1-6.33,6.06,6.16,6.16,0,0,1-6.1-6.06,6.29,6.29,0,0,1,6.18-6.32M676,895.42c.28-5.07.53-10.14.83-15.21.1-1.59.42-1.67,2.85-1.64,1.36,0,1.36.79,1.42,1.78q.31,6.45.75,12.9a1.67,1.67,0,0,1-.94,1.88c-1.25.64-2.44,1.4-3.67,2.09s-1.28.6-1.29-.71v-1.09h0m-11.47-15.7c.05-.81.43-1.08,1.2-1.14,2.67-.19,3,.07,3.09,2.69.17,3.62.37,7.24.59,11.23.85,1.89-.54,2.84-2.28,3.66-.94.45-1.81,1-2.71,1.56-.55.32-.95.39-.9-.48.34-5.84.69-11.68,1-17.52m-14.18.11c.08-1.55,1.17-1.17,2-1.24,2.09,0,2.21.13,2.32,2.13q.36,6.78.79,13.57a1.79,1.79,0,0,1-1,2c-1.45.74-2.85,1.59-4.26,2.41-.65.38-.89.25-.85-.51.37-6.11.74-12.22,1.06-18.33m.09,20.89a74.24,74.24,0,0,0,7.67-4.39c1.41-.82,1.43-.8,1.44.79,0,1.36,0,2.72,0,4.08,0,1.14.34,1.4,1.34.82q4.89-2.85,9.78-5.65c.38-.22.77-.71,1.19-.5s.22.82.23,1.24c0,1.27,0,2.54,0,3.81s.19,1.39,1.3.76c3.15-1.8,6.31-3.6,9.43-5.44.95-.56,1.29-.57,1.27.69-.06,3.63-.05,7.26,0,10.89,0,1.12-.36,1.51-1.49,1.5-3.9-.05-7.81,0-13.65,0-5.59-.18-13.11.4-20.64.28-1.78,0-1.58-.06-1.85-1.84-.51-3.48.64-5.63,4-7" transform="translate(-596.31 -762.94)" fill="#484747"/><path d="M693.08,1017.43c-3.57-2.73-7.07-5.56-10.62-8.32a2.25,2.25,0,0,1-1.05-2.05,8.76,8.76,0,0,0-1.09-4.45,9.14,9.14,0,0,0-3.72-4c-1.66-.93-3.19-2.11-5.21-2.22-.43,0-.67-.57-.95-.93l-7.56-9.82a6.82,6.82,0,0,1-1.3-2.36,2.88,2.88,0,0,0-1.52-2c-2.1-.87-2.67-3-3.78-4.62-.6-.89.65-1.19,1.16-1.69.26-.25.49-.25.73.14.75,1.23,2,1.4,2.82.23a14.83,14.83,0,0,1,7-5.34c.35-.14.79-.48,1.13-.07s0,.7-.17,1a23.75,23.75,0,0,0-1.59,4.92,12.23,12.23,0,0,0,1.29,8.44c.3.54.66,1.06,1.33,1s1,.41,1.32.94a19.17,19.17,0,0,0,5.5,6.5,14,14,0,0,1,6.08,8.71c.14.62.43,1.27,1.22,1.28s1.21-.55,1.42-1.25.44-1.67.71-2.7a25.49,25.49,0,0,1,3.69,7.8c.14.5.3,1,1,.78s.68-.68.54-1.19a26.57,26.57,0,0,0-4.83-9.54,1.25,1.25,0,0,0-2.27.81c0,.73,0,1.46,0,2.19a17.84,17.84,0,0,0-6.35-8,18,18,0,0,1-5.72-7c-.41-.84-.79-1.66-2-1.54-.49,0-.67-.4-.82-.78a12.7,12.7,0,0,1-.66-2.36c-.55-3.52.8-6.6,2.16-9.68.32-.7.89-1.36.23-2.12s-1.41-.43-2.15-.22a16.42,16.42,0,0,0-9,5.94c-1-1.46-1.5-1.6-2.93-.7a10,10,0,0,0-1.29,1c-.61.54-1.05.51-1.49-.23s-1-1.42-1.47-2.13c-2.06-3.06-2-3-5-.82-.67.51-.71.93-.25,1.58,1.14,1.63,2.22,3.32,3.38,4.94a2,2,0,0,1,.2,2.38,17.46,17.46,0,0,0-1.75,7.73,32.76,32.76,0,0,0,1.32,10.13c-1-.1-1.72-.28-2.15.56s.13,1.29.5,1.85a20.25,20.25,0,0,1,3.45,9.5,14.78,14.78,0,0,1,0,3.39c-.08.59.06,1.12.79,1.18s.76-.49.83-1c0-.14,0-.27,0-.41a20.41,20.41,0,0,0-2.63-11.79c-.27-.47-.71-.88.27-1.16s1-1.16.71-2A30,30,0,0,1,651.16,986a12.27,12.27,0,0,1,1.14-4.75c.14-.3.37-1,.79-.47.76,1,1.92,1.94,1.9,3.35a3.24,3.24,0,0,0,1.51,2.79,4.19,4.19,0,0,1,1.06,1.12q4.4,6.82,8.81,13.63a1.9,1.9,0,0,1,0,2,5.24,5.24,0,0,0-.48,3.62c.5,2.12-.44,3.6-1.92,4.91a91.77,91.77,0,0,1-14.46,10.9.84.84,0,0,0-.06,1.42.83.83,0,0,0,1,0c1.95-1.31,3.8-2.53,5.62-3.78a43.19,43.19,0,0,0,5.34-4.19c.79-.75,1.25-.81,1.71.23a16.18,16.18,0,0,0,5,6.39c.65.5.78.93.16,1.53a10.26,10.26,0,0,0-.75.86.82.82,0,0,0-.14.64.8.8,0,0,0,1.37.39c.69-.75,1.37-1.51,2.06-2.27.14-.17.39-.43.34-.55-.4-1.07.38-1.58,1-2.14s1-1.2.08-1.87c-.48-.37-.43-.83-.18-1.34a3.53,3.53,0,0,1,1.58-1.79,7.29,7.29,0,0,0,2.75-2.39c1.16-1.63.89-1.13,3,1.41s4,5.08,5.87,7.68c.69,1,1.26.93,2.22.08a31.87,31.87,0,0,1,4.65-3.46c1.79-1.05,2.22-1.46,1-2.42m-36.35-35c-.64.25-.74-.59-1.09-.75a4.05,4.05,0,0,1-1.9-2.39,22.35,22.35,0,0,0-2.78-4.66.68.68,0,0,1,.17-1.05c.69-.49,1.39-.38,1.55,2.32s2.08,4.4,4.5,5.29c.21.08.22.32.27.48a1,1,0,0,1-.72.76m22.48,22.52c-.17-.2-.43-.38-.5-.61-.44-1.64-1.85-2.3-3.17-2.91a2.13,2.13,0,0,1-1.31-2,6.53,6.53,0,0,1,5,5.48m-15.78-10.76q-2.17-3.36-4.32-6.73c-.22-.35-.71-.74-.24-1.19a11.63,11.63,0,0,1,1.33-.93,1.06,1.06,0,0,1,.86.59c1.86,2.44,3.71,4.9,5.59,7.33.6.77.32,1.13-.42,1.55-1.75,1-1.75,1-2.8-.62M665.9,998a.93.93,0,0,1,.37-1.42c.43-.22.85-.46,1.25-.7a1,1,0,0,1,1.5.33,3.92,3.92,0,0,0,3.21,2.09c-1.41.62-2,1.89-2.63,3.05-.5.89-.89,1.06-1.48.07-.69-1.17-1.45-2.3-2.22-3.42m2.86,23.54a14.48,14.48,0,0,1-4.65-6.75c-.17-.48.1-.78.5-1s.59.1.73.39a17.07,17.07,0,0,0,4.79,5.69,2.74,2.74,0,0,1,.43.54c0,.83-1.23,1.56-1.8,1.11m8.85-14.15a8.37,8.37,0,0,0-1.57,3.7,5.58,5.58,0,0,1-3.22,4,3.76,3.76,0,0,0-2,2c-.11.28-.19.64-.68.64-.17-.14-.38-.3-.57-.49a18.83,18.83,0,0,1-2.33-3c-.78-1.16-1.26-2.23-.08-3.51.62-.67.46-1.72.45-2.62s-.08-1.82,0-2.72c0-.56.1-1.36,1-.48.61.59.9-.14,1-.54a29.35,29.35,0,0,1,2.1-3.49c.14-.27.29-.62.67-.58s.48.49.56.83.16.89.24,1.33.32.87.79.76c2.22-.48,2.79,1.37,3.77,2.62a1.19,1.19,0,0,1-.15,1.51m12.8,11.8c-1.13.77-2.26,1.54-3.32,2.4s-1.29-.36-3.27-3.94a20,20,0,0,0-5.25-5.83,1.57,1.57,0,0,1-.68-1.38,1.91,1.91,0,0,1,.85-1.63c.61-.4,1,.22,1.39.53,3.42,2.68,6.82,5.41,10.28,8,1,.78.88,1.21,0,1.81" transform="translate(-596.31 -762.94)" fill="#484747"/><path d="M706,933.17a7.85,7.85,0,0,0,.08,15.7,7.85,7.85,0,0,0-.08-15.7m0,13.23a5.41,5.41,0,0,1-5.43-5.35,5.62,5.62,0,0,1,5.47-5.5,5.41,5.41,0,0,1,5.37,5.4,5.31,5.31,0,0,1-5.41,5.45" transform="translate(-596.31 -762.94)" fill="#484747"/><path d="M765.74,968.26a.75.75,0,0,0-1,.32c-3,5.75-8.35,12.51-13,18.48-1.12,1.41-2.18,2.77-3.16,4a14.59,14.59,0,0,0-7.95,7.51c0-.2-.06-.39-.09-.59.2-1.32.47-2.68.8-4.15,6.91-2.09,5.61-11.22,5-15.68a.75.75,0,0,0-.37-.54.72.72,0,0,0-.64,0l-.1,0a11.31,11.31,0,0,0-5.33,15.93c-.07.33-.15.66-.21,1a17,17,0,0,0-8.29-9.17.75.75,0,0,0-.79.08.73.73,0,0,0-.27.73c1,5.24,3,12.21,8.5,13.53a44.75,44.75,0,0,0,.4,11.41.76.76,0,0,0,.74.64H740a.74.74,0,0,0,.63-.84,54.59,54.59,0,0,1-.58-6.67h.06c7.55,0,11-9.07,12.16-13a0,0,0,0,1,0,0,.75.75,0,0,0-.15-.66.77.77,0,0,0-.68-.27l-.52.1,1.92-2.45c4.74-6,10.1-12.83,13.19-18.71a.75.75,0,0,0-.31-1m-25.4,16.68a9.55,9.55,0,0,1,4.57-5.56c.71,5.45.69,10.91-3.22,12.75.24-1,.5-2,.79-3.18a.75.75,0,1,0-1.45-.37c-.24.93-.46,1.8-.66,2.65a9.67,9.67,0,0,1,0-6.29m-8.29,2.55a15.45,15.45,0,0,1,6.46,8.47,20.81,20.81,0,0,0-1.81-2.28.75.75,0,1,0-1.09,1,19,19,0,0,1,2.29,3.12c-3.34-1.64-4.94-6.26-5.85-10.33m10,15a16,16,0,0,1,3.58-2.94.75.75,0,1,0-.76-1.29,17.31,17.31,0,0,0-3.59,2.88,12.88,12.88,0,0,1,9.22-9.1c-1.17,3.48-3.77,9.18-8.45,10.45" transform="translate(-596.31 -762.94)" fill="#484747"/><path d="M762.46,995.4l-11.94,11.68a6.59,6.59,0,0,0-1.78-2.93.75.75,0,1,0-1,1.06,5.32,5.32,0,0,1,1.54,4.81c-.59,3.84-4.32,7.92-9.68,10.63a23.65,23.65,0,0,1-5.5,1.46c-1,.17-2,.32-3,.4a4.24,4.24,0,0,0-.46-.7,1.93,1.93,0,0,1-.38-.6,1.25,1.25,0,0,1,.09-1.08c.69-1.14,3.28-1.62,4.14-1.79a4.21,4.21,0,0,0,1-.25,4.91,4.91,0,0,0,1-.61,3.75,3.75,0,0,1,.63-.41,4.76,4.76,0,0,1,1.79-.44,1.25,1.25,0,0,0,.5-.13,1.18,1.18,0,0,0,.42-.43,2.72,2.72,0,0,1,1.65-1.24.74.74,0,0,0,.53-.91.75.75,0,0,0-.91-.54,4.29,4.29,0,0,0-2.46,1.77,6.07,6.07,0,0,0-2.16.57,4.62,4.62,0,0,0-.87.55,3.69,3.69,0,0,1-.72.43,3.62,3.62,0,0,1-.69.18c-1.91.35-4.22,1-5.14,2.47a2.82,2.82,0,0,0,.27,3.22,9,9,0,0,1-1.66-.18,3.87,3.87,0,0,1-.77-.24c-.25-.12-.33-.22-.34-.25a.45.45,0,0,1,0-.23,2.93,2.93,0,0,1,.65-.95,6.4,6.4,0,0,0,.41-.5l.06-.06s0,0,.06-.07l0-.05a.76.76,0,0,0,.15-.23c.41-1.52,2.25-2.56,4-3.57a13.11,13.11,0,0,0,3.59-2.56.74.74,0,0,0-.08-1,.76.76,0,0,0-1.06.08,12,12,0,0,1-3.18,2.23c-1.72,1-3.47,2-4.34,3.52l-.12-.13a2.29,2.29,0,0,1-.46-1,1.18,1.18,0,0,1,.45-1.16,7.84,7.84,0,0,1,1-.66c.3-.19.6-.37.88-.58l.57-.44c.45-.33.89-.67,1.35-1a19,19,0,0,0,2.71-2.1,9.1,9.1,0,0,0,2.68-5.6.74.74,0,0,0-.3-.7.73.73,0,0,0-.75-.07,8.82,8.82,0,0,1-3.09.62.77.77,0,0,0-.6.27.73.73,0,0,0-.15.65,2.83,2.83,0,0,1-1.24,2.86,3.2,3.2,0,0,1-2.24.66l.21-.77c1.3-4.74,1.89-6.91,7.24-8.77a.75.75,0,0,0-.49-1.41c-6.1,2.12-6.84,4.84-8.19,9.78-.12.45-.25.93-.39,1.42a.75.75,0,0,0,.32.84,4.13,4.13,0,0,0,4.42-.53,4.34,4.34,0,0,0,1.92-3.54,11.74,11.74,0,0,0,1.62-.29,7.31,7.31,0,0,1-2,3.51,18.8,18.8,0,0,1-2.51,1.93c-.49.33-.95.68-1.41,1l-.57.43a8.49,8.49,0,0,1-.77.5,9.09,9.09,0,0,0-1.14.8,2.64,2.64,0,0,0-1,2.53,3.74,3.74,0,0,0,.75,1.71,5,5,0,0,0,.49.55,3.93,3.93,0,0,0-.92,1.45,1.9,1.9,0,0,0,0,1.13,2,2,0,0,0,1.14,1.15,5.15,5.15,0,0,0,1.07.34,10.68,10.68,0,0,0,2.34.23,28.09,28.09,0,0,0,4.64-.5,25.14,25.14,0,0,0,5.88-1.57c5.83-3,9.86-7.46,10.53-11.76a7.93,7.93,0,0,0,.08-1.36l0,0,12.69-12.4a.75.75,0,0,0,0-1.06.75.75,0,0,0-1.06,0" transform="translate(-596.31 -762.94)" fill="#484747"/><path d="M717.52,882.21h0c1.26,0,2,1,2.94,2.15,1,1.32,2.19,2.81,4.3,2.81h0c2.19,0,3.13-1.65,3.89-3s1.26-2.09,2.41-2.1,2,1,2.95,2.16c1,1.32,2.19,2.8,4.33,2.81s3.14-1.65,3.89-3,1.26-2.09,2.41-2.1h0c1.26,0,2,1,2.94,2.15,1,1.33,2.21,2.85,4.33,2.82s3.13-1.65,3.89-3,1.26-2.09,2.41-2.1a.86.86,0,1,0,0-1.72h0c-2.2,0-3.14,1.65-3.9,3s-1.26,2.09-2.41,2.1-2.05-1-3-2.15c-1-1.32-2.2-2.82-4.3-2.82h0c-2.2,0-3.14,1.65-3.89,3s-1.27,2.08-2.41,2.09h0c-1.26,0-2-1-2.94-2.15-1-1.32-2.22-2.8-4.33-2.82s-3.13,1.65-3.89,3-1.26,2.09-2.41,2.1h0c-1.27,0-2-1-2.94-2.15-1-1.33-2.2-2.85-4.33-2.82a.87.87,0,0,0,0,1.73" transform="translate(-596.31 -762.94)" fill="#484747"/><path d="M717.52,890.1h0c1.26,0,2,1,2.94,2.15,1,1.32,2.19,2.81,4.3,2.81h0c2.19,0,3.13-1.65,3.89-3S730,890,731.11,890h0c1.26,0,2,1,2.94,2.15,1,1.32,2.19,2.82,4.3,2.82h0c2.19,0,3.14-1.65,3.89-3s1.26-2.08,2.41-2.09h0c1.26,0,2,1,2.94,2.15,1,1.32,2.19,2.81,4.3,2.81h0c2.19,0,3.13-1.65,3.89-3s1.26-2.09,2.41-2.1a.86.86,0,0,0,.86-.87.88.88,0,0,0-.87-.86c-2.2,0-3.14,1.65-3.9,3s-1.26,2.09-2.41,2.09h0c-1.26,0-2-1-2.94-2.15-1-1.32-2.2-2.81-4.3-2.81h0c-2.2,0-3.14,1.65-3.89,3s-1.27,2.09-2.41,2.1h0c-1.26,0-2-1-2.94-2.15-1-1.32-2.19-2.82-4.29-2.82h0c-2.19,0-3.13,1.65-3.89,3s-1.26,2.09-2.41,2.09h0c-1.27,0-2-1-2.94-2.15-1-1.32-2.19-2.81-4.3-2.81h0a.87.87,0,0,0,0,1.73" transform="translate(-596.31 -762.94)" fill="#484747"/><path d="M717.52,898.37h0c1.26,0,2,1,2.94,2.15,1,1.32,2.19,2.82,4.3,2.82h0c2.19,0,3.13-1.65,3.89-3s1.26-2.09,2.41-2.1,2,1,2.95,2.15c1,1.32,2.19,2.8,4.33,2.81s3.14-1.64,3.89-3,1.26-2.09,2.41-2.1h0c1.26,0,2,1,2.94,2.15,1,1.33,2.21,2.85,4.33,2.82s3.13-1.65,3.89-3,1.26-2.09,2.41-2.1a.87.87,0,1,0,0-1.73h0c-2.2,0-3.14,1.65-3.9,3s-1.26,2.09-2.41,2.1-2.05-1-3-2.15c-1-1.32-2.2-2.81-4.3-2.81h0c-2.2,0-3.14,1.65-3.89,3s-1.27,2.09-2.41,2.1h0c-1.26,0-2-1-2.94-2.16-1-1.32-2.22-2.8-4.33-2.81s-3.13,1.65-3.89,3-1.26,2.09-2.41,2.1h0c-1.27,0-2-1-2.94-2.15-1-1.32-2.19-2.82-4.3-2.82h0a.88.88,0,0,0-.86.87.86.86,0,0,0,.87.86" transform="translate(-596.31 -762.94)" fill="#484747"/><path d="M717.52,907.28h0c1.26,0,2,1,2.94,2.15,1,1.32,2.19,2.82,4.3,2.82h0c2.19,0,3.13-1.65,3.89-3s1.26-2.09,2.41-2.1h0c1.26,0,2,1,2.94,2.16,1,1.32,2.19,2.81,4.3,2.81h0c2.19,0,3.14-1.65,3.89-3s1.26-2.09,2.41-2.1,2,1,3,2.15c1,1.32,2.19,2.82,4.29,2.82h0c2.19,0,3.13-1.65,3.89-3s1.26-2.09,2.41-2.09a.88.88,0,0,0,.86-.87.86.86,0,0,0-.87-.86h0c-2.2,0-3.14,1.65-3.9,3s-1.26,2.09-2.41,2.1-2.05-1-3-2.15c-1-1.33-2.22-2.86-4.33-2.82s-3.14,1.65-3.89,3-1.27,2.08-2.41,2.09-2.06-1-3-2.15c-1-1.32-2.21-2.85-4.33-2.81s-3.13,1.65-3.89,3-1.26,2.09-2.41,2.1-2-1-2.95-2.15c-1-1.32-2.19-2.82-4.3-2.82h0a.87.87,0,0,0,0,1.73" transform="translate(-596.31 -762.94)" fill="#484747"/><path d="M717.52,916.19h0c1.27,0,2.05,1,3,2.15,1,1.32,2.19,2.81,4.3,2.81h0c2.19,0,3.13-1.65,3.89-3s1.26-2.09,2.41-2.1h0c1.26,0,2,1,2.94,2.15,1,1.32,2.19,2.82,4.3,2.82h0c2.19,0,3.14-1.65,3.89-3s1.26-2.09,2.41-2.1h0c1.26,0,2,1,2.94,2.15,1,1.32,2.19,2.81,4.3,2.81h0c2.19,0,3.13-1.64,3.89-3s1.26-2.09,2.41-2.1a.86.86,0,1,0,0-1.72h0c-2.2,0-3.14,1.65-3.9,3s-1.26,2.09-2.41,2.1h0c-1.26,0-2-1-2.94-2.16-1-1.31-2.2-2.81-4.3-2.81h0c-2.2,0-3.14,1.65-3.89,3s-1.27,2.09-2.41,2.1-2.06-1-3-2.15c-1-1.32-2.19-2.82-4.3-2.82h0c-2.19,0-3.13,1.65-3.89,3s-1.26,2.09-2.41,2.1h0c-1.27,0-2-1-2.94-2.16-1-1.32-2.2-2.84-4.33-2.81a.87.87,0,0,0,0,1.73" transform="translate(-596.31 -762.94)" fill="#484747"/><path d="M769.23,874.72a.86.86,0,0,0-.86.86v3.69l-2.87-4.18-.06-.05-.13-.13-.13-.09-.15-.06a1,1,0,0,0-.17,0h-.16l-.17,0-.16.06-.08,0,0,0a.49.49,0,0,0-.12.13.38.38,0,0,0-.09.13.47.47,0,0,0-.06.15,1.36,1.36,0,0,0,0,.17s0,0,0,.08v46.59a.87.87,0,1,0,1.73,0v-5.74l2.69,3.91,0,0v1.8a.87.87,0,1,0,1.73,0V875.58a.86.86,0,0,0-.87-.86m-3.45,26.17,2.59-3.76v7.52Zm-.13-2.85v-7l2.4,3.5Zm.13-9.84,2.59-3.76V892Zm-.13-2.85v-7l2.4,3.5Zm0,18.39,2.4,3.5-2.4,3.49Zm.13,9.84,2.59-3.76v7.52Z" transform="translate(-596.31 -762.94)" fill="#484747"/><path d="M837.33,820h41c22.73,0,38.16,10.33,38.16,33.75v1c0,24.79-16.94,34.43-38.16,34.43H864.74v27.28H837.33Zm38.43,44.77c8.68,0,13.63-2.48,13.63-10.05v-.42c0-7.16-4.82-9.5-13.63-9.5h-11v20Z" transform="translate(-596.31 -762.94)" fill="#911635"/><path d="M923,884.43V820h27.41v58.41c0,8.13,5.37,13.22,14.33,13.22h.41c9.78,0,14.46-5,14.46-13.22V820H1007v64.33c0,21.63-15.15,33.61-41.46,33.61h-.41c-27,0-42.15-12-42.15-33.47" transform="translate(-596.31 -762.94)" fill="#911635"/><polygon points="420.64 57.03 492 57.03 492 81.82 448.06 81.82 448.06 95.18 490.76 95.18 490.76 114.74 448.06 114.74 448.06 128.66 491.86 128.66 491.86 153.45 420.64 153.45 420.64 57.03" fill="#911635"/><path d="M1096.85,820h46.42c20,0,30.3,8.54,30.3,23.56,0,12.67-7.44,20.38-18.46,22v.69c11.44,1.24,22.46,7.57,22.46,24.1s-11.71,26-35.54,26h-45.18Zm39.81,39.12c5.92,0,8.81-2.48,8.81-7.71,0-5-2.89-7.16-9.36-7.16h-11.85v14.87Zm1,33.06c7.71,0,11.16-1.92,11.16-7.71s-3.31-8.13-10.33-8.13h-14.19v15.84Z" transform="translate(-596.31 -762.94)" fill="#911635"/><polygon points="589.11 57.03 616.53 57.03 616.53 128.66 657.71 128.66 657.71 153.45 589.11 153.45 589.11 57.03" fill="#911635"/><path d="M1290.11,820H1323l34,96.43h-28.93l-6.34-18.88h-32.51l-5.92,18.88h-28.79Zm26.59,56.62-11.16-34.85-10.88,34.85Z" transform="translate(-596.31 -762.94)" fill="#911635"/><path d="M849.42,1008.55v-.1c0-1.69-1-3.19-3.48-3.19h-.2c-2.09,0-3.58,1-4,3.85l-4.34-.56c.56-4.88,3.52-7,8.35-7h.3c5.41,0,8,2.75,8,6.66v.1c0,7.06-9.15,9.41-11.54,13.22h11.27v3.75H837.25v-1.69c0-7.66,12.17-9.38,12.17-15.08" transform="translate(-596.31 -762.94)" fill="#484747"/><path d="M900.14,1014.05v-.4c0-7.82,4.2-12,9.64-12H910c5.21,0,9.42,4,9.42,11.94v.39c0,7.7-4,11.74-9.58,11.74h-.23c-5.28,0-9.48-4-9.48-11.7m14.68-.23v-.33c0-4.48-2-7.63-5-7.63h-.23c-3,0-5.07,2.92-5.07,7.73v.33c0,4.6,2,7.65,5.07,7.65h.23c3,0,5-2.91,5-7.75" transform="translate(-596.31 -762.94)" fill="#484747"/><path d="M977.4,1008.55v-.1c0-1.69-1-3.19-3.48-3.19h-.2c-2.08,0-3.58,1-3.94,3.85l-4.34-.56c.56-4.88,3.51-7,8.35-7h.3c5.4,0,8,2.75,8,6.66v.1c0,7.06-9.15,9.41-11.54,13.22h11.27v3.75H965.24v-1.69c0-7.66,12.16-9.38,12.16-15.08" transform="translate(-596.31 -762.94)" fill="#484747"/><path d="M1037.5,1020.18h-11v-3.51l10.57-14.56h4.87v14.39h2.76v3.68h-2.92v5.14h-4.28Zm.24-3.65v-9.14l-6.8,9.14Z" transform="translate(-596.31 -762.94)" fill="#484747"/><rect x="494.63" y="251.91" width="7.96" height="2.52" fill="#484747"/><path d="M1158,1008.55v-.1c0-1.69-1-3.19-3.48-3.19h-.2c-2.08,0-3.58,1-3.94,3.85l-4.34-.56c.56-4.88,3.51-7,8.35-7h.3c5.4,0,8,2.75,8,6.66v.1c0,7.06-9.15,9.41-11.53,13.22h11.27v3.75h-16.54v-1.69c0-7.66,12.16-9.38,12.16-15.08" transform="translate(-596.31 -762.94)" fill="#484747"/><path d="M1208.75,1014.05v-.4c0-7.82,4.21-12,9.64-12h.24c5.2,0,9.41,4,9.41,11.94v.39c0,7.7-4,11.74-9.58,11.74h-.23c-5.27,0-9.48-4-9.48-11.7m14.68-.23v-.33c0-4.48-2-7.63-5-7.63h-.23c-3,0-5.07,2.92-5.07,7.73v.33c0,4.6,2,7.65,5.07,7.65h.23c3,0,5-2.91,5-7.75" transform="translate(-596.31 -762.94)" fill="#484747"/><path d="M1273.79,1019l4.41-.86c.46,3,2.22,4,4.47,4h.07c2.12,0,4-1.19,4-3.71v-.17c0-2.65-1.49-3.61-5.07-3.61h-1.06v-2.65l.69,0c3.12,0,4.88-1.23,4.88-3.48v-.1a3,3,0,0,0-3.29-3.19h-.16c-2.09,0-3.65,1-4,3.65l-4.44-.7c.66-4.67,4.21-6.63,8.52-6.63h.23c4.81,0,7.63,2.76,7.63,6.17v.1a5.17,5.17,0,0,1-3.75,5.24v.06c3.08.57,4.58,2.42,4.58,5.7v.1c0,4.41-3.75,6.9-8.79,6.9h-.06c-5,0-8.29-2.36-8.82-6.83" transform="translate(-596.31 -762.94)" fill="#484747"/><path d="M1337.37,1014.05v-.4c0-7.82,4.21-12,9.64-12h.24c5.2,0,9.41,4,9.41,11.94v.39c0,7.7-4,11.74-9.58,11.74h-.23c-5.27,0-9.48-4-9.48-11.7m14.68-.23v-.33c0-4.48-2-7.63-5-7.63h-.24c-3,0-5.07,2.92-5.07,7.73v.33c0,4.6,2,7.65,5.07,7.65h.24c3,0,5-2.91,5-7.75" transform="translate(-596.31 -762.94)" fill="#484747"/><path d="M837.06,950.29v-.41c0-12.75,4.92-20.41,17.51-20.41,10.32,0,15.3,5,16.12,14.21l-7.89,1.45c-.64-6.44-3.54-8.29-8.12-8.29h-.23c-6.38,0-9.39,4-9.39,13.68v.23c0,9.4,2.43,13.69,9.22,13.69h.23c5,0,8.06-2.61,8.46-9.34h-7.59v-4.64H871V971h-6.95v-5.57c-2,4.58-5.74,6.5-11,6.5h-.18c-11.77,0-15.82-8.41-15.82-21.63m17.56-20.82h0Z" transform="translate(-596.31 -762.94)" fill="#484747"/><path d="M874.69,957.3v-.63c0-9.28,5.79-15.6,15.88-15.6h.7c9.86,0,15.07,6.15,15.07,15v.52c0,8.7-5.16,15.37-15.71,15.37h-.52c-10.38,0-15.42-6.15-15.42-14.62m24.23-.81v-.4c0-4.87-2.37-8.7-8.06-8.7h-.52c-5.74,0-8.52,3.71-8.52,8.93v.46c0,4.93,2.43,8.76,8.29,8.76h.29c6.15,0,8.52-4.12,8.52-9" transform="translate(-596.31 -762.94)" fill="#484747"/><path d="M918,966.58V971h-7.6V929.82H918V946.4a11.72,11.72,0,0,1,10.09-5.33h.63c7,0,12.24,5.91,12.24,14.67v.58c0,10.61-5.1,15.6-12.7,15.6h-.46c-5.11,0-8.06-2.27-9.8-5.34m15.48-10.2V956c0-5-2.55-8.52-7.42-8.52h-.29a7.77,7.77,0,0,0-7.77,6.84v4.29a7.33,7.33,0,0,0,7.48,6.67h.4c5.22,0,7.6-3.37,7.6-8.87" transform="translate(-596.31 -762.94)" fill="#484747"/><path d="M944.32,930.34a4.46,4.46,0,0,1,4.52-4.52,4.53,4.53,0,1,1-4.52,4.52M945,942h7.6v29H945Z" transform="translate(-596.31 -762.94)" fill="#484747"/><path d="M956.67,956.55v-.64c0-8.29,5-14.9,14.73-14.9h.41c9.39,0,14.84,5.28,15,14.09l.06,2.73H963.51c.58,5.45,3.77,8.11,8.41,8.11h.23c3.6,0,6.61-1.62,7.37-5.1l6.55,2.55c-1.86,5.39-6.55,8.53-13.92,8.53h-.29c-9.16,0-15.19-5.28-15.19-15.37m22.85-2.84v-.64c-.06-4.23-2.73-6.84-7.43-6.84h-.28c-5,0-7.83,2.67-8.35,7.48Z" transform="translate(-596.31 -762.94)" fill="#484747"/><path d="M990.53,942h7.6v5.51c1.85-3.6,5.57-5.51,10.32-5.51h1.16v7.07h-2.44c-5,0-7.82,1.74-9,5.91v16h-7.6Z" transform="translate(-596.31 -762.94)" fill="#484747"/><path d="M1027,948.26c-3.88,0-6.43,2-7.77,5.51V971h-7.59V942h7.59v4.46c2.27-3.48,5.86-5.39,10.73-5.39,7.13,0,10.84,3.77,10.84,10.78V971h-7.65V954c0-3.77-2.2-5.74-6.15-5.74" transform="translate(-596.31 -762.94)" fill="#484747"/><path d="M1044.86,957.3v-.63c0-9.28,5.8-15.6,15.89-15.6h.7c9.85,0,15.07,6.15,15.07,15v.52c0,8.7-5.16,15.37-15.71,15.37h-.52c-10.38,0-15.43-6.15-15.43-14.62m24.24-.81v-.4c0-4.87-2.38-8.7-8.06-8.7h-.52c-5.74,0-8.52,3.71-8.52,8.93v.46c0,4.93,2.43,8.76,8.29,8.76h.29c6.14,0,8.52-4.12,8.52-9" transform="translate(-596.31 -762.94)" fill="#484747"/><path d="M1110.61,966.58c-1.74,3.07-4.52,5.34-9.62,5.34h-.47c-7.59,0-12.81-5-12.81-15.6v-.58c0-9,5.51-14.67,12.76-14.67h.63a10.67,10.67,0,0,1,9.51,5.33V929.82h7.6V971h-7.6Zm0-8v-3.94c-.29-3.25-2.78-7.19-7.48-7.19h-.34c-4.87,0-7.6,3.24-7.6,8.4v.41c0,5.62,2.49,9,7.71,9h.41c4.23,0,6.84-2.9,7.3-6.67" transform="translate(-596.31 -762.94)" fill="#484747"/><path d="M1122.27,956.55v-.64c0-8.29,5-14.9,14.73-14.9h.4c9.39,0,14.84,5.28,15,14.09l.06,2.73h-23.37c.58,5.45,3.77,8.11,8.41,8.11h.23c3.59,0,6.61-1.62,7.36-5.1l6.55,2.55c-1.85,5.39-6.55,8.53-13.91,8.53h-.29c-9.16,0-15.19-5.28-15.19-15.37m22.84-2.84v-.64c-.06-4.23-2.72-6.84-7.42-6.84h-.29c-5,0-7.83,2.67-8.35,7.48Z" transform="translate(-596.31 -762.94)" fill="#484747"/><rect x="559.82" y="166.88" width="7.6" height="41.17" fill="#484747"/><path d="M1208,963.74l7.19-.75c.93,2.6,4,3.71,8.12,3.71h.29c5.39,0,6.79-1.92,6.79-4.12v-.06c0-6.61-21.57-1.62-21.57-12.7v-.34c0-5.63,5.56-8.41,13.51-8.41h.4c7,0,12.58,2.55,13.45,9.22l-6.61.52c-.63-4.12-4.06-5.1-7.24-5.1H1222c-4.35,0-6.21,1.51-6.21,3.65v.06c0,5.68,21,1.16,21,13.22v.17c0,5.68-3.71,9.11-13.57,9.11H1223c-9.34,0-14.09-3-15.08-8.18" transform="translate(-596.31 -762.94)" fill="#484747"/><path d="M1243.57,961.3V947.79h-6.21V942h6.44V930.4h7.36V942h6.32v5.79h-6.32v12.35c0,3.25.75,4.59,3.31,4.59h2.08V971h-3.19c-6.72,0-9.79-2.9-9.79-9.69" transform="translate(-596.31 -762.94)" fill="#484747"/><path d="M1279.75,965a12.08,12.08,0,0,1-11,6.9h-.47c-6.09,0-10.14-3-10.14-8.29v-.29c0-6,4.4-8.3,12.69-9.34l8.59-.93v-.4c0-3.77-2.27-6-6.15-6H1273c-3.24,0-6.09,1.21-6.78,5l-6.73-1.39c1.45-6.38,7.13-9.22,13.74-9.22h.53c8.69,0,13.33,3.71,13.33,11.13V971h-7.3Zm-.47-8.35-6.49.75c-5,.64-7,2.09-7,4.76v.34c0,2,1.74,3.95,4.81,3.95h.53c4,0,7.65-3.48,8.17-9.8" transform="translate(-596.31 -762.94)" fill="#484747"/><path d="M1314,966.58c-1.74,3.07-4.52,5.34-9.62,5.34h-.47c-7.59,0-12.81-5-12.81-15.6v-.58c0-9,5.51-14.67,12.76-14.67h.63a10.67,10.67,0,0,1,9.51,5.33V929.82h7.6V971H1314Zm0-8v-3.94c-.29-3.25-2.78-7.19-7.48-7.19h-.34c-4.87,0-7.6,3.24-7.6,8.4v.41c0,5.62,2.49,9,7.71,9h.41c4.23,0,6.84-2.9,7.3-6.67" transform="translate(-596.31 -762.94)" fill="#484747"/><path d="M1325.67,957.3v-.63c0-9.28,5.8-15.6,15.88-15.6h.7c9.86,0,15.08,6.15,15.08,15v.52c0,8.7-5.17,15.37-15.72,15.37h-.52c-10.38,0-15.42-6.15-15.42-14.62m24.23-.81v-.4c0-4.87-2.37-8.7-8.06-8.7h-.52c-5.74,0-8.52,3.71-8.52,8.93v.46c0,4.93,2.43,8.76,8.29,8.76h.29c6.15,0,8.52-4.12,8.52-9" transform="translate(-596.31 -762.94)" fill="#484747"/><polygon points="583.37 168.04 609.78 168.04 609.78 174.96 591.03 174.96 591.03 184.96 609.03 184.96 609.03 190.56 591.03 190.56 591.03 201.14 609.83 201.14 609.83 208.05 583.37 208.05 583.37 168.04" fill="#484747"/></svg>